<?xml version="1.0" encoding="utf-8"?>
<!-- Generator: Adobe Illustrator 25.3.0, SVG Export Plug-In . SVG Version: 6.00 Build 0)  -->
<svg version="1.1" id="Camada_1" xmlns="http://www.w3.org/2000/svg" xmlns:xlink="http://www.w3.org/1999/xlink" x="0px" y="0px"
	 viewBox="0 0 595.28 841.89" style="enable-background:new 0 0 595.28 841.89;" xml:space="preserve">
<style type="text/css">
	.st0{fill:#E54E27;}
	.st1{fill:#1C1B19;}
</style>
<g>
	<path class="st0" d="M727.93-6.23c22.5,0,44.99,0.07,67.49-0.09c2.99-0.02,3.59,0.6,3.58,3.59c-0.12,45.49-0.08,90.98-0.08,136.47
		c-1.16,0.6-1.83-0.34-2.61-0.86c-27.7-18.13-57.6-31.07-90-38.1c5.64-25.57,11.38-51.12,16.87-76.73
		C724.9,9.99,727.78,2.14,727.93-6.23z"/>
	<path class="st1" d="M770.49,428.54c1.21-0.08,1.88,0.68,2.22,1.65c3.63,10.69,8.51,20.92,11.42,31.87
		c1.27,4.78,1.66,9.6,0.33,14.3c-0.94,3.31,0.28,3.7,3,3.56c3.82-0.19,7.65-0.19,11.47-0.27c0,1.33,0,2.67,0,4
		c-0.83-0.07-1.65-0.19-2.48-0.19c-70.48-0.01-140.96,0.03-211.44-0.11c-3.95-0.01-4.07,1.57-4.07,4.64
		c0.07,58.15,0.03,116.29,0.14,174.44c0,1.77-1.7,5.26,1.38,5.22c2.93-0.04,1.38-3.53,1.39-5.38c0.1-54.98,0.13-109.96-0.02-164.94
		c-0.01-4.4,0.84-6.04,5.66-5.9c12.82,0.37,25.66,0.12,38.49,0.13c56.98,0.03,113.97,0.07,170.95,0.1c0,1.33,0,2.67,0,4
		c-7.16-1.53-14.4-0.35-21.6-0.65c-3.46-0.15-6.94,0.04-10.4,0.07c-1.18-2.04-3.17-1.49-4.94-1.5c-19.83-0.07-39.66-0.12-59.49-0.12
		c-1.72,0-3.78-0.69-4.84,1.54c-35.48-0.02-70.95,0.05-106.43-0.15c-4.16-0.02-4.41,1.6-4.41,4.93
		c0.08,55.46,0.06,110.92,0.04,166.38c0,2.53,0.81,5.4-3.62,5.52c-4.03,0.11-5.43-0.92-5.42-5.23c0.14-60.46,0.14-120.91,0-181.37
		c-0.01-4.25,1.31-5.3,5.37-5.27c20.32,0.18,40.64,0.05,60.96,0.12c3.04,0.01,5.35,0.42,4.04-4.24c-1.33-4.74,1.55-9.05,4.62-12.13
		c6.12-6.15,5.67-12.29,2.65-19.65c-3.14-7.65-5.09-15.79-7.81-23.62c-0.95-2.74-0.48-3.42,2.39-3.39
		c10.66,0.09,21.31-0.03,31.97-0.07c7.71,1.55,15.48,0.38,23.22,0.43c3.18,0.02,4.79,0.83,5.58,4c1.55,6.26,3.28,12.49,5.19,18.66
		c2.79,8.98,4.39,18.31,8.11,27.01c0.57,2.08,1.45,4.13,1.64,6.24c0.35,4.06,2.4,5.02,6.24,4.91c7.81-0.23,15.65-0.06,23.46,0.23
		c2.94,0.11,5.89-0.19,8.86,0.68c5.31,1.56,12.08,2.62,15.85-0.14c3.96-2.89,2.22-9.86,1.51-15.14c-0.18-1.3-0.68-2.57-1.13-3.82
		c-3.18-8.73-6.41-17.44-9.57-26.18c-0.6-1.65-1.9-3.26-0.59-5.15L770.49,428.54z M667.02,480.19c-2.38-7.13-4.57-13.72-6.99-20.96
		c-3.44,4.46-6.57,7.96-8.26,12.33c-2.1,5.47,0.11,8.61,5.8,8.62C660.52,480.19,663.46,480.19,667.02,480.19z"/>
	<path class="st0" d="M656.94-6.23c22.66,0,45.33,0,67.99,0c0.52,1.69-0.1,3.26-0.47,4.87c-2.19,9.69-4.36,19.38-6.57,29.07
		c-5.04,22.11-10.09,44.23-15.14,66.34c-12.91-2.53-25.92-4.32-39.09-4.63c-3.06-0.07-4.4-1.04-4.48-4.31
		C658.51,54.66,657.71,24.21,656.94-6.23z"/>
	<path class="st1" d="M702.75,94.04c5.05-22.11,10.1-44.22,15.14-66.34c2.21-9.69,4.38-19.38,6.57-29.07
		c0.36-1.6,0.98-3.18,0.47-4.87c1,0,2,0,3,0c-0.15,8.37-3.03,16.22-4.75,24.28c-5.49,25.6-11.23,51.16-16.87,76.73
		c-2.6,9.18-2.54,9,6.67,11.99c12.93,4.2,25.39,9.58,37.59,15.59c17.17,8.46,32.93,19.14,48.35,30.37c0,1.33,0,2.67,0,4
		c-13.99-10.12-27.93-20.29-43.28-28.37c-43.09-22.69-88.82-33.64-137.53-29.84c-69.69,5.44-127.84,35.41-175.66,85.57
		c-39.35,41.28-63.88,90.65-76.74,146.08c-8.17,35.18-10.74,70.74-7.4,106.58c5.78,62.07,26.36,118.72,63.89,168.89
		c1.2,1.61,4.61,3.66,1.97,5.6c-2.01,1.48-3.22-2.12-4.4-3.68c-32.78-43.27-52.95-92.01-61.53-145.4
		c-10.63-66.13-3.09-130.34,23.78-191.85c29.61-67.77,76.74-119.31,143.9-151.39c34.54-16.5,71.2-24.71,109.58-24.4
		c3.55,0.03,4.09-1.08,3.99-4.17c-0.97-30.61-1.81-61.22-2.73-91.83c-0.05-1.6,0.53-3.35-0.83-4.74c1.33,0,2.67,0,4,0
		c0.82,32.38,1.68,64.75,2.37,97.13c0.07,3.16,1.22,3.87,4.08,3.93c15.5,0.35,30.7,2.98,45.81,6.28
		C701.06,103.05,701.05,103.05,702.75,94.04z"/>
	<path class="st1" d="M487.96-6.23c0.65,1.63-0.95,1.4-1.58,1.69c-95.21,43.99-162.34,115.61-206.6,209.75
		c-16.63,35.36-28.14,72.41-35.32,110.73c-8.06,43.04-10.46,86.43-6.72,130.19c7.03,82.3,32.55,158.14,78.59,226.8
		c31.52,47.01,70.8,86.36,118.5,117.11c1.48,0.95,3.67,1.3,4.13,3.53c-2,0-4,0-6,0c-9.33-6.82-18.82-13.43-27.96-20.49
		c-55.71-43.09-97.27-97.38-127.06-160.94c-16.13-34.42-27.87-70.32-35.51-107.54c-8.58-41.79-11.16-84.01-8.82-126.59
		c2.02-36.68,8.26-72.63,18.54-107.83c18.79-64.32,48.95-122.62,93.09-173.38C376.23,61.2,412.1,31.56,453.18,8.31
		c7.8-4.41,15.87-8.33,23.8-12.52c0.83-0.44,2.51-0.21,1.98-2.03C481.96-6.23,484.96-6.23,487.96-6.23z"/>
	<path class="st0" d="M798.92,334.69c-4.67,0-9.33-0.02-14,0c-7.18,0.03-15.1-1.84-18.43,8.31c-0.37-0.37-0.74-0.75-1.11-1.12
		c0-10.54-0.03-21.08,0.02-31.61c0.02-3,2.44-2.13,4.08-2.16c9.81-0.18,19.62-0.28,29.44-0.41c0,3,0,6,0,9c-8.11,0-16.22,0-24.33,0
		c0,0.33,0.01,0.67,0.01,1c8.1,0,16.21,0,24.31,0c0,1,0,2,0,3c-8.2,1.48-16.61-0.43-24.82,1.65c8.22,1.81,16.58,0.42,24.82,1.35
		c0,0.67,0,1.33,0,2c-8.1,1.64-16.48-0.51-24.57,1.17c0.01,0.61,0.02,1.22,0.03,1.83c8.18,0,16.37,0,24.55,0
		C798.92,330.69,798.92,332.69,798.92,334.69z"/>
	<path class="st1" d="M798.92,323.69c-8.23-0.94-16.6,0.46-24.82-1.35c8.2-2.08,16.62-0.16,24.82-1.65
		C798.92,321.69,798.92,322.69,798.92,323.69z"/>
	<path class="st1" d="M798.92,328.69c-8.18,0-16.37,0-24.55,0c-0.01-0.61-0.02-1.22-0.03-1.83c8.1-1.68,16.48,0.47,24.57-1.17
		C798.92,326.69,798.92,327.69,798.92,328.69z"/>
	<path class="st1" d="M798.92,317.69c-8.1,0-16.21,0-24.31,0c0-0.33-0.01-0.67-0.01-1c8.11,0,16.22,0,24.33,0
		C798.92,317.02,798.92,317.36,798.92,317.69z"/>
	<path class="st0" d="M461.74,412.17c0.06-3.83,0.95-7.89-0.03-11.42c-1.24-4.46-6.6-2.08-9.65-4.01c-1.11-0.7-2.45-1.02-3.68-1.52
		c-12.3-5.07-13.92-7.26-12.28-20.1c2.33-18.16,6.43-35.97,12.37-53.32c6.36-18.57,20.33-27.13,39.05-29.29
		c0.91,0.08,1.82,0.15,2.73,0.22c6.33,3.38,12.62,2.77,18.88-0.22c1.01-0.1,2.01-0.21,3.02-0.31c16.48,1.57,32.84,0.96,49.03-2.73
		c1.06,0.06,2.1,0.05,2.94-0.76c0.85-0.03,1.59-0.17,2.09-1.02c4.82-8.31,9.67-16.6,14.51-24.9c2.68-3.5,3.85-7.93,6.89-11.21
		c1.42-2.36,3.12-4.6,4.19-7.11c1.14-2.68,2.87-2.54,5.01-1.85c0.82,0.85,1.86,1.07,2.99,1.07c2.11,1.33,4.22,2.67,6.33,4
		c4.64,5.59,4.49-3.48,8.25-2.13c0,4.66-0.3,9.73,0.09,14.76c0.36,4.71-1.1,6.75-6,6.15c-1.79-0.22-4.11-0.83-5.03,1.87
		c-0.78,2.28-1.64,4.53-2.47,6.79c-2.99,6.48-5.98,12.95-8.97,19.43c-0.99,0.88-1.53,2-1.79,3.28c-6.56,15.3-20.86,19.97-34.72,25.2
		c-6.98,2.64-14.04,5.12-21.33,6.73c-3.37,0.74-4.47,2.33-4.25,5.85c1.5,24.36,2.8,48.74,4.16,73.11c-0.22,0.91-0.53,1.77-1.57,2.05
		c-23.01,3.11-46.07,5.25-69.32,3.12C462.7,413.31,462.22,412.74,461.74,412.17z"/>
	<path class="st1" d="M769.07,502.71c2.53,2.51,0.85,5.29,0.26,7.81c-2.26,9.69-6.66,18.32-13.91,25.8
		c3.07,1.69,6.16,1.19,8.98,1.85c3.44,0.81,5.95,2.46,5.69,6.36c-0.27,4.16-3.14,4.84-6.71,4.83c-9.65-0.02-9.68,0.07-7.64,9.8
		c7.31,34.96,14.7,69.9,21.85,104.89c0.52,2.52,3.15,6.93-0.78,7.81c-3.79,0.85-2.88-4.05-3.41-6.44
		c-4.29-19.47-8.42-38.97-12.39-58.5c-0.65-3.2-1.81-4.36-5.17-4.24c-7.32,0.27-14.67,0.33-21.98-0.01
		c-4.04-0.19-5.37,0.76-5.3,5.08c0.28,15.65,0.07,31.32,0.13,46.98c0.02,4.99-4.49,8.92-3.15,14.25c0.23,0.9-1.26,0.8-2.02,0.8
		c-12.3,0.03-24.59,0.02-37.08,0.02c0.96-4.19,3.68-5.88,6.98-6.92c2.16-0.68,4.85-0.86,1.86-4.08c-0.71-0.76-0.31-2.56-0.39-3.89
		c-0.91-16.12-1.81-32.24-2.73-48.36c-0.11-1.92,0.29-3.99-2.98-3.88c-2.67,0.09-3.83,0.57-4.69,3.51
		c-4.58,15.59-1.87,31.66-3.63,47.4c-0.31,2.79,1.38,6.37-3.7,7.34c-1.75,0.33-0.75,3.91-0.73,5.98c0.02,2.34-0.67,3.2-3.12,3.17
		c-11.81-0.11-23.63-0.05-35.97-0.05c0.57-3.67,2.75-5.82,5.62-6.39c4.6-0.92,5.15-3.12,5.03-7.55
		c-0.31-11.47,0.33-22.96,0.59-34.44c0.55-23.65,0.33-47.29-0.47-70.92c-0.29-8.52,0.22-16.98,1.84-25.34
		c2.67-13.79,13.57-23.55,27.58-24.88c5.5-0.53,10.96-0.46,16.38,0.73c0,0,0.18,0.23,0.18,0.23c0.56,2.67-1.08,2.55-2.94,2.45
		c-3.82-0.19-7.66-0.44-11.47-0.29c-13.03,0.49-22.17,7.74-25.96,20.23c-2.96,9.74-2.66,19.76-2.39,29.71
		c0.75,28.3,0.79,56.59-0.07,84.89c-0.12,3.8-1.9,8.94,0.4,11.03c2.13,1.94,7.21,0.73,11,0.76c6.97,0.06,6.97,0.02,7.06-6.69
		c0.04-3.16,0.06-6.33,0.08-9.49c0.21-31.79,0.73-63.58,3.15-95.3c0.97-12.72,5.41-16.33,17.65-15.17
		c1.81-13.2,3.48-15.9,13.61-21.96c3.29-0.48,6.56-1.21,9.91-0.51c0.06,2.53-1.85,2.24-3.47,2.49c-11.3,1.76-17.2,8.94-16.66,20.34
		c0.15,3.14,0.74,6.26,0.77,9.4c0.02,2.55,1.19,2.97,3.37,2.89c3.48-0.14,6.98-0.14,10.47,0c2.26,0.09,3.55-0.45,4.39-2.87
		c2.61-7.51,8.13-10.8,16.07-10.7c9.63,0.12,19.27-0.26,28.9-0.13c2.83,0.04,4.14-0.96,5.14-3.43c2-4.95,3.35-10.05,4.29-15.28
		C768.22,503.83,768.75,503.43,769.07,502.71z M758.22,597.54c-0.11-1.34-0.08-2.34-0.28-3.29c-2.92-14.11-5.94-28.2-8.76-42.33
		c-0.46-2.32-1.42-2.95-3.61-2.89c-4.65,0.13-9.3,0.12-13.95,0.01c-2.24-0.05-3.33,0.51-3.29,3.03c0.19,14.28,0.27,28.56,0.33,42.84
		c0.01,1.84,0.52,2.69,2.54,2.67C740.15,597.49,749.1,597.54,758.22,597.54z M680.37,593.18c0.08,0,0.15,0.01,0.23,0.01
		c0.49-16.45,0.97-32.91,1.49-49.36c0.09-2.8,0.36-5.59,0.56-8.38c0.07-1.01,0.23-2.21,1.47-2.22c1.08,0,1.62,0.87,1.68,2.06
		c0.04,0.75-0.32,2.63,1.15,1.74c1.66-1.01,4.27,0.29,5.13-2.18c1.63-4.69-1-8.61-5.96-9.07c-4.1-0.38-6.68,1.58-8.06,5.24
		c-1.24,3.28-1.83,6.71-2.03,10.22c-1.18,20.92-2.12,41.84-2.25,62.8c-0.09,14.13-0.38,28.26-0.78,42.39
		c-0.08,2.76,0.79,3.47,3.31,3.2c2.89-0.31,2.17-2.54,2.23-4.14C679.21,628.06,679.78,610.62,680.37,593.18z M713.01,573.64
		c-0.08,0-0.15,0-0.23,0c0-4.66,0.01-9.31,0-13.97c-0.02-10.6-0.03-10.6-10.36-10.6c-1.16,0-2.34,0.12-3.49-0.02
		c-2.67-0.32-3.35,0.86-3.38,3.41c-0.11,10.31-0.58,20.61-0.63,30.91c-0.02,4.59-2.11,10.86,0.94,13.33
		c2.84,2.31,8.87,0.52,13.47,0.9c3.33,0.28,3.81-1.16,3.74-4.01C712.89,586.95,713.01,580.29,713.01,573.64z M696.44,625.6
		c0.22,0,0.44,0,0.66-0.01c0,4.14-0.15,8.3,0.03,12.43c0.52,12.24,0.57,12.13,12.75,11.98c3.02-0.04,4.03-0.8,3.92-3.91
		c-0.36-9.95-0.5-19.9-0.59-29.85c-0.13-14.88-0.08-14.82-15.18-13.54c-2.24,0.19-2.71,0.85-2.56,3.02
		C695.93,612.33,696.14,618.97,696.44,625.6z M716.04,573.13c0.11,0,0.22,0,0.33,0c0,7.14,0.14,14.29-0.06,21.43
		c-0.1,3.59,2.19,3.13,4.27,2.94c1.96-0.18,4.96,1.42,4.94-2.75c-0.07-14.3-0.03-28.59-0.02-42.89c0-4.52-3.43-2.43-5.46-2.74
		c-2.13-0.32-4.22-0.5-4.08,3.06C716.24,559.16,716.04,566.15,716.04,573.13z M725.73,626.13c-0.08,0-0.16,0-0.24,0
		c0-6.81-0.04-13.62,0.01-20.43c0.04-4.93-3.66-2.41-5.76-2.89c-2.52-0.58-3.47,0.56-3.41,3.24c0.3,13.12,0.59,26.24,0.51,39.37
		c-0.02,3.78,1.43,4.12,4.61,4.21c3.62,0.1,4.49-1.15,4.35-4.55C725.54,638.77,725.73,632.44,725.73,626.13z M759.34,525.73
		c-11.63,0-22.87-0.14-34.1,0.08c-3.29,0.06-5.86,2.18-7.54,5.11c-0.8,1.41-2.31,2.84-1.43,4.5c0.82,1.55,2.74,0.44,4.12,0.79
		c2.81,0.72,6.24-2.42,6.8-1.92c4.5,4,9.61,1.01,14.27,1.88C750.39,537.85,755.29,532.53,759.34,525.73z M711.94,652.75
		c-3.81,0-7.62,0.04-11.43-0.02c-1.63-0.02-2.44,0.5-2.38,2.27c0.06,1.87,1.38,1.56,2.45,1.56c7.62,0.03,15.24,0.02,22.87,0.01
		c1.12,0,2.34,0.19,2.38-1.64c0.04-1.84-0.89-2.22-2.45-2.2C719.56,652.79,715.75,652.75,711.94,652.75z M684.68,580.46
		c1.69-9.13,3.47-18.66,5.21-28.2c0.27-1.48,0.55-3.08-1.91-2.95c-1.64,0.09-3.35-0.33-3.33,2.33
		C684.73,561.34,684.68,571.05,684.68,580.46z M664.48,656.58c3.81,0,7.61-0.02,11.42,0.01c1.34,0.01,2.14-0.29,2.15-1.9
		c0.01-1.6-0.76-1.95-2.13-1.95c-7.45,0.02-14.89,0.04-22.34-0.01c-1.73-0.01-2.34,0.78-2.42,2.36c-0.11,2.02,1.42,1.44,2.4,1.46
		C657.2,656.63,660.84,656.58,664.48,656.58z M686.15,597.43c2.18-0.69,5.51,2.31,5.61-2.38c0.18-8.26,0.05-16.53,0.05-24.79
		c-0.2-0.01-0.41-0.02-0.61-0.03C689.54,579.14,687.89,588.05,686.15,597.43z"/>
	<path class="st1" d="M532.5,410.76c1.04-0.28,1.35-1.14,1.57-2.05c2.19,1.02,1.61,3.11,1.71,4.81
		c3.84,65.69,5.26,131.44,3.81,197.23c-0.32,14.64-1.14,29.27-1.46,43.92c-0.06,2.76-1.06,4.22-4.37,5.06
		c3.9,1.95,7.07,2.34,10.34,2.36c2.02,0.01,4.02,0.22,5.62,1.66c1.41,1.27,2.71,2.87,2.12,4.74c-0.59,1.88-2.6,0.89-3.94,0.91
		c-11.83,0.12-23.66-0.03-35.48,0.27c-3.79,0.1-5.17-0.97-4.6-4.71c0.58-3.82,0.19-6.97-4.96-6.87c-2.28,0.05-2.82-1.58-2.9-3.75
		c-1.32-33.27-2.71-66.53-4.12-99.8c-0.99-23.28-2.02-46.56-3.04-69.85c-0.03-0.75-0.26-1.5-1.4-2.25
		c-1.08,6.53-2.23,13.06-3.23,19.6c-4.52,29.75-9.93,59.33-15.82,88.84c-4.42,22.16-9.01,44.28-13.96,66.32
		c-0.74,3.31-2.12,4.46-5.14,4.71c-2.97,0.24-5.53,1-5.41,4.91c0.06,1.95-1.19,2.8-3.28,2.78c-4.02-0.04-7.99-0.25-11.83-1.53
		c-2.63-0.87-5.54-1.37-4.96-5.44c0.35-2.47-2.2-2.25-3.59-2.52c-3.03-0.59-3.63-2.19-3.17-4.99c4.14-25.09,8.23-50.19,12.29-75.3
		c5.6-34.62,11.16-69.25,16.76-103.87c3.29-20.35,6.64-40.69,9.94-61.04c0.2-1.22,0.46-2.28,1.75-2.76c0.48,0.57,0.96,1.13,1.43,1.7
		c-7.24,44.96-14.45,89.93-21.73,134.89c-5.66,34.95-11.38,69.89-17.15,104.82c-0.37,2.23,0.4,2.88,2.34,3.36
		c8.52,2.1,17.14,2.19,25.81,1.42c2.11-0.19,3.04-1.15,3.53-3.36c9.3-42.19,17.91-84.51,24.96-127.14
		c3.69-22.3,7.07-44.66,10.66-66.97c0.2-1.26-0.44-3.63,1.84-3.39c1.98,0.2,1.39,2.34,1.45,3.74c1.7,38.58,3.39,77.16,5.06,115.74
		c1.06,24.61,2.12,49.23,3.1,73.84c0.09,2.2,0.25,3.75,2.96,4.21c8.08,1.36,16.14,2.11,24.35,1.26c3.94-0.4,5.15-2.08,5.21-5.91
		c0.16-11.98,0.75-23.95,1.02-35.94C538.08,546.5,536.88,478.59,532.5,410.76z"/>
	<path class="st0" d="M724.12,466.92c-3.71-8.7-5.32-18.03-8.11-27.01c-1.92-6.16-3.64-12.39-5.19-18.66c-0.78-3.17-2.4-3.98-5.58-4
		c-7.74-0.05-15.51,1.12-23.22-0.43c9.49-10.13,20.79-17.37,34.14-21.33c0.79,0.04,1.49,0.24,1.9,1.01
		c0.57,6.92,4.63,11.38,10.16,11.14c5.62-0.24,9.61-4.9,9.87-11.53c2.56-2.02,5.06-0.49,7.49,0.25c9.32,2.81,15.73,9.38,21.42,16.84
		c1.4,3.67,2.75,7.36,4.22,11c0.67,1.66,1.01,3.13-0.71,4.33c0,0-0.11,0.01-0.12,0.01c-6.22,0.19-12.01,2.54-18.05,3.59
		c-2.77,0.48-2.26,2.02-1.68,4.02c2.2,7.48,4.2,15.03,6.33,22.53c1.81,6.35,1.85,6.41-4.94,6.81
		C742.73,466.03,733.42,466.45,724.12,466.92z"/>
	<path class="st1" d="M512.15,292.2c-1.01,0.1-2.01,0.21-3.02,0.31c-0.03-1.16-0.06-2.33-0.09-3.49c-0.1-3.68-0.85-7.38,5.29-6.83
		c3.08,0.28,5.44-2.51,5.57-5.96c0.32-8.26,0.45-16.53-1.16-24.83c-1.97,0.8-2.47,2.42-3.08,3.94c-0.97,2.41-0.68,5.47-5.01,5.44
		c-2.21-0.02-2,2.95-0.47,4.29c2.23,1.95,1.73,4.12,1.27,6.4c-1.47,7.19-4.5,9.91-12.58,11.38c-8.22,1.5-8.22,1.5-8.61,9.88
		c-0.91-0.07-1.82-0.15-2.73-0.22c1.15-10.85-2.66-20.61-6.68-30.32c-1.84-4.44-5.33-9.56-2.41-13.68
		c4.46-6.3,7.94-14.07,16.5-16.57c4.57-1.34,9.19-1.81,13.82-1.07c3.77,0.6,7.31,0.29,10.69-1.29c4-1.88,5.65,0.26,6.31,3.65
		c0.81,4.2,0.43,8.48-1.98,12.04c-1.98,2.94-1.92,5.83-1.48,9c0.94,6.78,1.13,13.59,0.79,20.43c-0.28,5.58-2.53,9.67-8.4,10.77
		C509.92,286.36,513.07,289.99,512.15,292.2z"/>
	<path class="st1" d="M590.21,297.82c0.26-1.28,0.8-2.4,1.79-3.28c42.15,0.04,84.31,0.01,126.46,0.21c4.03,0.02,3.69-1.98,3.69-4.58
		c-0.02-37.65-0.06-75.31,0.06-112.96c0.01-3.45-0.84-4.44-4.38-4.43c-49.82,0.12-99.64,0.12-149.46,0
		c-3.58-0.01-4.37,1.05-4.36,4.48c0.13,37.15,0.1,74.31,0.12,111.46c-0.84,0.81-1.88,0.81-2.94,0.76
		c-0.01-38.13,0.03-76.26-0.1-114.4c-0.01-4.02,0.99-5.45,5.28-5.44c51.29,0.14,102.58,0.14,153.87,0.01
		c4.17-0.01,5.39,1.2,5.38,5.35c-0.14,39.3-0.09,78.59-0.07,117.89c0,2.79,0.24,5.16-3.96,5.14
		C677.8,297.86,634,297.87,590.21,297.82z"/>
	<path class="st1" d="M718.05,396.5c-0.4-0.77-1.1-0.97-1.9-1.01c0.21-3.42-0.34-6.08-3.92-8.05c-4.67-2.58-5.34-7.8-5.95-12.58
		c-0.74-5.73-0.83-11.47-2.02-17.23c-1.62-7.79,6.22-18.35,14.15-20.68c7.64-2.24,15.52,1.35,19.57,9.83
		c2.13,4.46,4.34,7.87,9.19,9.93c4.85,2.06,6.61,6.73,6.08,12.04c-0.25,2.48-0.81,4.95-0.78,7.43c0.04,3.8,1.71,6.79,5.58,7.95
		c5.44,1.63,7.92,5.01,7.08,10.79c-0.59,4.06,1.03,7.43,3.84,10.35c4.38,4.56,4.1,5.56-1.99,7.94
		c-5.69-7.46-12.09-14.04-21.42-16.84c-2.43-0.73-4.93-2.27-7.49-0.25c-1.52-0.97-1.39-2.65-1.47-4.05
		c-0.55-8.92-3.41-18.09,3.1-26.26c1.22-1.53,0.79-3.59-1.67-4.24c-5.69-1.49-9.73-5.38-13.7-9.53c-3.71,3.75-7.67,6.71-13.05,6.85
		c-2.14,0.06-2.19,1.55-2.29,3.12c-0.37,5.68,0.22,11.31,1.17,16.88c0.49,2.87,2.28,5.13,4.87,6.63
		C719.81,388.27,720.56,390.99,718.05,396.5z"/>
	<path class="st1" d="M555.83,356.54c0-6.33-0.06-12.65,0.02-18.98c0.09-7.09,3.75-10.81,10.75-10.82
		c36.63-0.03,73.26-0.03,109.89,0c6.93,0.01,10.51,3.48,10.57,10.38c0.1,13.15,0.04,26.3,0.02,39.46c0,3.33-0.86,6.58-3.96,8.09
		c-3.07,1.5-3.26,3.7-3.09,6.48c0.15,2.49,0.14,4.99,0.08,7.49c-0.03,1.06,0.57,2.51-0.93,3.03c-1.4,0.48-2.07-0.71-2.75-1.65
		c-2.43-3.37-5.01-6.65-7.22-10.16c-1.6-2.54-3.51-3.37-6.52-3.36c-31.47,0.11-62.94,0.07-94.41,0.07
		c-9.52,0-12.44-2.95-12.46-12.53C555.82,368.19,555.83,362.37,555.83,356.54z M676.91,394.46c0-3.5,0.04-5.83-0.01-8.16
		c-0.03-1.59,0.08-2.95,2.02-3.43c4.24-1.05,5.02-4.23,5-8.05c-0.07-12.16,0-24.32-0.04-36.48c-0.02-6.41-1.54-7.91-7.97-7.91
		c-36.15-0.01-72.3-0.01-108.45,0c-6.57,0-8.35,1.71-8.36,8.13c-0.03,11.99-0.03,23.99,0,35.98c0.01,6.69,1.76,8.36,8.64,8.36
		c29.32,0.01,58.64,0.29,87.95-0.17c8.64-0.14,15.72,0.75,19.39,9.64C675.31,392.87,675.85,393.25,676.91,394.46z"/>
	<path class="st0" d="M694.13,501.46c0,0-0.18-0.23-0.18-0.23c2.13-1.54,3.19-3.73,3.7-6.23c1.06-2.23,3.12-1.54,4.84-1.54
		c19.83,0,39.66,0.05,59.49,0.12c1.76,0.01,3.76-0.54,4.94,1.5c0.72,2.55,1.44,5.1,2.16,7.64c-0.32,0.72-0.86,1.12-1.66,1.11
		c-17.67-2.56-35.43-3.55-53.27-2.71c-3.35-0.7-6.62,0.03-9.91,0.51C700.86,501.57,697.49,501.51,694.13,501.46z"/>
	<path class="st1" d="M596.81,242.61c-0.59-5.75-1.21-11.5-1.76-17.25c-0.12-1.27-0.61-2.71,0.65-3.7c1.62-1.27,2.22,0.95,3.16,1.06
		c2.7,0.3,5.62,0.58,7.54-2.25c1.39-2.05,2.92-4.01,4.48-5.94c0.9-1.12,1.84-2.68,3.61-1.76c1.76,0.91,1.12,2.49,0.62,3.93
		c-0.43,1.25-0.9,2.48-1.24,3.75c-0.16,0.59-0.07,1.25-0.1,1.88c6.81,0.01,3.02,5.51,4.33,8.36c0.34,2.43,0.69,4.86,1.03,7.29
		c-0.06,9.43-0.4,18.88,0,28.29c0.13,3.01-1.79,5.11-1.86,7.89c-0.03,1.14-1.72,1.3-2.92,1.27c-4.46-0.11-8.92-0.21-13.38-0.32
		c0.82-2.26,1.69-4.51,2.47-6.79c0.92-2.7,3.24-2.09,5.03-1.87c4.9,0.6,6.36-1.44,6-6.15c-0.38-5.02-0.09-10.1-0.09-14.76
		c-3.76-1.36-3.6,7.71-8.24,2.12c2.53-2.85,5.16-5.63,7.57-8.58c3.09-3.77,2.81-5.04-1.95-6.5c-3.23-0.99-6.02-1.81-4.87-6.31
		c-3.4,1.86-3.07,7.04-7.7,6.53c0.2,3.62,0.41,7.24,0.61,10.86C598.68,243.68,597.63,243.47,596.81,242.61z M612.48,225.87
		c-1.04-0.26-1.49,0.61-1.78,1.59c-0.54,1.83,1.16,1.63,2.01,1.94c1.41,0.52,1.55-0.59,1.55-1.62
		C614.26,226.76,614.12,225.8,612.48,225.87z M607.58,224.97c-0.2,0.11-0.4,0.21-0.6,0.32c0.11,0.1,0.23,0.29,0.31,0.28
		c0.22-0.05,0.42-0.18,0.63-0.29C607.81,225.18,607.71,225.08,607.58,224.97z"/>
	<path class="st1" d="M580.72,262.79c-0.96-1.15-0.61-2.54-0.63-3.84c-0.14-7.65-0.13-7.65,7.52-7.37
		C584.57,254.86,583.4,259.29,580.72,262.79z"/>
	<path class="st1" d="M597.81,197.88c9.79,0.02,16.23,2.88,22.23,7.02c3.97,2.73,7.84,5.66,12.03,8c7.22,4.02,14.66,3.16,20.76-2.39
		c3.18-2.89,5.97-6.25,8.74-9.56c11.82-14.09,26.78-18.31,44.4-14.32c1.57,0.36,4.01,0.4,3.71,2.46c-0.37,2.57-2.56,1.12-4.03,0.8
		c-18.04-3.88-32.83,1.03-44.04,16.03c-2.08,2.78-4.54,5.34-7.14,7.65c-6.53,5.84-15.52,6.91-23.21,2.66
		c-4.2-2.33-8.15-5.13-12.12-7.87c-13.39-9.26-25.9-9.34-39.31-0.13c-0.69,0.47-1.34,0.98-2.05,1.42c-0.92,0.57-1.84,1.81-2.93,0.32
		c-0.99-1.35,0.11-2.17,1.02-2.85C583.08,201.74,590.91,197.95,597.81,197.88z"/>
	<path class="st1" d="M687.98,270.07c-3.15,0.15-4.61-0.82-4.58-4.51c0.19-21.64,0.17-43.28,0.02-64.92
		c-0.03-3.74,1.09-5.18,4.83-4.75c2.14,0.25,4.37,0.32,6.48-0.01c5.04-0.8,7.11,1.21,6.51,6.18c-0.06,18.13-0.04,36.26-0.22,54.39
		c-0.04,4.25,1.84,9.47-1.01,12.5c-2.54,2.69-7.62,0.44-11.54,1.01C688.31,270,688.14,270.03,687.98,270.07z M697.66,202.26
		c0.4-1.65,0.44-3.02-1.92-2.93c-1.83,0.07-3.68,0.18-5.48-0.03c-3.02-0.34-3.99,0.7-3.96,3.85c0.14,19.95,0.05,39.9,0.12,59.85
		c0,1.23-0.97,3.21,1.55,3.43c2.15,0.07,4.3,0.06,6.44,0.22c2.48,0.19,3.55-0.63,3.53-3.32
		C697.77,242.97,697.74,222.61,697.66,202.26z"/>
	<path class="st1" d="M667.09,270.06c-1.66-0.45-3.6,0.31-5.03-1.17c-0.06-8.68-0.12-17.36-0.18-26.04
		c0.07-5.46,0.26-10.92,0.14-16.37c-0.07-3.01,0.99-4.23,4.03-4c2.47,0.18,5,0.31,7.44-0.02c4.99-0.68,7.45,0.98,6.69,6.26
		c-0.07,12.22-0.23,24.43-0.13,36.65c0.03,3.45-1.08,4.79-4.55,4.54C672.7,269.72,669.89,269.99,667.09,270.06z M676.83,228.73
		c0.27-1.57,0.49-3.05-1.93-2.91c-1.66,0.1-3.35,0.19-4.98-0.02c-3.19-0.4-4.26,0.67-4.2,4.03c0.22,10.97,0.05,21.95,0.13,32.92
		c0.01,1.25-0.94,3.05,1.21,3.69c1.81,0.06,3.65-0.04,5.43,0.22c3.91,0.59,4.66-1.23,4.57-4.77
		C676.81,250.84,676.88,239.78,676.83,228.73z"/>
	<path class="st1" d="M639.61,272.92c-0.07,1.26-0.49,2.5-1.87,2.53c-4.64,0.12-9.28,0.07-13.93,0.04
		c-0.89-0.01-1.67-0.48-1.82-1.39c-0.19-1.18,0.51-1.81,1.64-2.03c0.94-0.19,1.88-0.41,3.43-1.06c-7.02-0.72-5.17-5.57-5.23-9.46
		c-0.07-4.98,0.14-9.96-0.07-14.93c-0.13-3.13,1.08-4.16,4.06-3.89c2.14,0.19,4.31,0.04,6.47,0.04c6.93,0,6.93,0,7.62,6.59
		c-0.07,5.11-0.41,10.24-0.14,15.33c0.23,4.24-1.43,5.47-5.45,5.27c-2.51-0.12-5.37-1.03-8.07,1.15
		C630.87,273.02,635.57,270.5,639.61,272.92z M626.57,266.51c1.64,0.07,3.3,0.02,4.92,0.24c3.6,0.49,5.08-0.77,4.76-4.58
		c-0.36-4.25-0.21-8.54-0.28-12.81c0.21-0.96,0.77-2.4-0.24-2.72c-3.19-1-6.54-0.39-9.82-0.28c-0.33,0.01-0.89,0.99-0.89,1.51
		c0.01,6.11,0.1,12.22,0.23,18.33C625.26,266.32,626.11,266.41,626.57,266.51z"/>
	<path class="st1" d="M647.03,270.06c-4.12,0.41-5.32-1.48-5.15-5.5c0.33-8.09,0.27-16.21,0.14-24.31
		c-0.05-3.23,1.07-4.58,4.31-4.35c2.14,0.15,4.3,0.03,6.45,0.03c6.96,0,6.96,0,7.4,6.75c-0.06,4.62-0.01,9.25-0.23,13.87
		c-0.2,4.23,1.8,9.44-0.98,12.43c-2.46,2.65-7.56,0.44-11.45,0.98C647.35,269.99,647.19,270.03,647.03,270.06z M656.76,242.68
		c0.15-1.43,0.73-3.07-1.79-2.97c-2.31,0.09-4.63,0.13-6.93-0.01c-2.04-0.13-2.49,0.77-2.46,2.62c0.08,7.26,0.03,14.52,0.05,21.78
		c0,0.94-0.16,2.08,1.31,2.18c1.63,0.12,3.28,0.12,4.89,0.38c4.15,0.65,5.41-1.04,5.16-5.14
		C656.61,255.25,656.81,248.96,656.76,242.68z"/>
	<path class="st0" d="M687.98,270.07c0.16-0.03,0.33-0.07,0.49-0.09c3.92-0.57,9,1.68,11.54-1.01c2.86-3.03,0.97-8.25,1.01-12.5
		c0.18-18.13,0.16-36.26,0.22-54.39c2.55,0.59,1.55,2.66,1.55,4.1c0.06,20.83,0.06,41.65,0.03,62.48c-0.01,5.16-1.69,6.83-6.7,6.88
		c-3,0.03-6,0.03-9-0.01c-1.47-0.02-3.3,0.2-3.45-1.89c-0.13-1.85,1.46-1.93,2.83-1.95C687.62,271.67,687.82,270.91,687.98,270.07z"
		/>
	<path class="st0" d="M667.09,270.06c2.8-0.07,5.62-0.34,8.4-0.14c3.48,0.25,4.58-1.09,4.55-4.54c-0.1-12.22,0.06-24.43,0.13-36.65
		c2.39,0.21,1.69,2.08,1.7,3.4c0.05,12.43,0.1,24.86-0.01,37.3c-0.03,3.83-1.65,6.52-6.15,6.32c-3.14-0.14-6.3,0-9.45-0.04
		c-1.43-0.02-3.32,0.32-3.6-1.7c-0.3-2.21,1.62-2.07,3.07-2.21C666.82,271.69,666.95,270.89,667.09,270.06z"/>
	<path class="st0" d="M647.03,270.06c0.16-0.03,0.32-0.07,0.49-0.09c3.89-0.55,8.99,1.67,11.45-0.98c2.78-2.99,0.78-8.2,0.98-12.43
		c0.22-4.62,0.16-9.25,0.23-13.87c0.57,0.06,1.13,0.11,1.7,0.17c0.06,8.68,0.12,17.36,0.18,26.04c-0.45,1.46,0.73,3.75-2.06,4.02
		c-4.15-2.17-8.67-0.33-12.94-1.21C647.05,271.16,647.04,270.61,647.03,270.06z"/>
	<path class="st1" d="M647.06,271.7c4.27,0.87,8.79-0.96,12.94,1.21c-0.01,2.21-1.39,2.71-3.27,2.69c-3.78-0.03-7.56,0-11.35-0.02
		c-1.32-0.01-2.94,0-3.07-1.67c-0.14-1.77,1.46-1.85,2.81-1.95C645.77,271.91,646.41,271.79,647.06,271.7z"/>
	<path class="st0" d="M639.61,272.92c-4.04-2.42-8.74,0.1-13.35-1.8c2.7-2.18,5.56-1.27,8.07-1.15c4.02,0.19,5.68-1.03,5.45-5.27
		c-0.27-5.09,0.06-10.22,0.14-15.33c2.3,1.59,1.07,3.95,1.16,5.94c0.19,4.47,0.13,8.96,0.02,13.43
		C641.05,270.21,641.98,272.2,639.61,272.92z"/>
	<path class="st0" d="M619.14,237.98c-0.34-2.43-0.69-4.86-1.03-7.29C620.97,232.77,619.36,235.47,619.14,237.98z"/>
	<path class="st0" d="M638.56,359.91c1.72,2.24,3.25,4.66,5.2,6.68c4.44,4.59,9.02,4.46,13.38-0.18c1.59-1.7,2.99-3.59,4.64-5.22
		c3.5-3.46,6.88-3.59,10.56-0.36c3.45,3.03,5.35,7.17,7.33,11.19c0.86,1.74,0.37,2.89-1.85,2.76c-0.83-0.05-1.66,0-2.5,0
		c-35.29,0-70.59-0.1-105.88,0.12c-4.87,0.03-5.81-1.46-4.43-5.6c0.52-1.57,0.83-3.24,1.5-4.74c2.39-5.29,6.13-6.75,11.26-4.01
		c3.05,1.63,5.74,3.94,8.58,5.96c7.26,5.16,10.34,4.59,14.9-2.84c1.04-1.7,1.98-3.46,2.97-5.19c1.64,1.09,3.29,2.17,4.91,3.29
		c9.21,6.36,16.68,6.4,26.06,0.17C636.27,361.22,637.43,360.59,638.56,359.91z"/>
	<path class="st1" d="M638.56,359.91c-1.13,0.68-2.29,1.31-3.38,2.04c-9.38,6.23-16.85,6.19-26.06-0.17
		c-1.62-1.12-3.27-2.19-4.91-3.29c-8.39-7.73-18.38-9.23-29.18-7.37c-2.11,0.36-4.16,1.09-6.25,1.62c-1.14,0.29-2.43,0.63-2.78-1.01
		c-0.33-1.51,0.84-1.86,2-2.28c10.82-3.87,21.42-3.89,31.72,1.69c2.32,1.26,4.55,2.68,6.82,4.03c10.12,9.92,19.02,10.36,29.74,1.47
		c9.7-7.24,20.26-11.42,32.61-9c2.6,0.51,5.16,1.27,7.71,1.97c1.14,0.31,1.61,1.19,1.25,2.3c-0.32,0.99-1.28,0.95-2.08,0.79
		c-2.12-0.41-4.21-0.97-6.34-1.37C657.73,349.11,647.35,351.65,638.56,359.91z"/>
	<path class="st0" d="M636.28,356.64c-10.73,8.89-19.62,8.45-29.74-1.47c1.88-3.77,4.52-6.96,7.74-9.63
		c5.12-4.25,10.5-3.96,15.01,0.86C632.13,349.44,634.46,352.87,636.28,356.64z"/>
	<path class="st0" d="M697.66,202.26c0.07,20.36,0.11,40.71,0.27,61.07c0.02,2.7-1.05,3.51-3.53,3.32
		c-2.14-0.17-4.29-0.16-6.44-0.22c0.02-18.15,0.05-36.3,0.06-54.45C688.04,202.37,688.03,202.37,697.66,202.26z"/>
	<path class="st0" d="M676.83,228.73c0.06,11.06-0.02,22.12,0.24,33.17c0.08,3.54-0.66,5.35-4.57,4.77
		c-1.78-0.27-3.62-0.16-5.43-0.22c0.03-9.25,0.07-18.5,0.08-27.75C667.16,228.82,667.15,228.82,676.83,228.73z"/>
	<path class="st0" d="M635.97,249.36c0.07,4.27-0.09,8.56,0.28,12.81c0.32,3.81-1.16,5.07-4.76,4.58c-1.62-0.22-3.28-0.17-4.92-0.25
		c0.01-2.64,0.03-5.28,0.03-7.91C626.6,249.38,626.6,249.38,635.97,249.36z"/>
	<path class="st0" d="M656.76,242.68c0.05,6.28-0.15,12.57,0.23,18.83c0.25,4.11-1.01,5.8-5.16,5.14c-1.61-0.25-3.26-0.26-4.89-0.38
		c0.05-4.6,0.12-9.2,0.13-13.81C647.09,242.75,647.08,242.75,656.76,242.68z"/>
</g>
</svg>
