<?xml version="1.0" encoding="utf-8"?>
<!-- Generator: Adobe Illustrator 25.3.0, SVG Export Plug-In . SVG Version: 6.00 Build 0)  -->
<svg version="1.1" id="Camada_1" xmlns="http://www.w3.org/2000/svg" xmlns:xlink="http://www.w3.org/1999/xlink" x="0px" y="0px"
	 viewBox="0 0 158.3 122" style="enable-background:new 0 0 158.3 122;" xml:space="preserve">
<style type="text/css">
	.st0{fill:#E5E5E5;}
	.st1{fill:#2F2E41;}
	.st2{fill:#3F3D56;}
	.st3{fill:#CACACA;}
	.st4{fill:#E4E4E4;}
	.st5{fill:#F8A726;}
	.st6{fill:#F0F0F0;}
	.st7{fill:#483D3D;}
	.st8{fill:#F8A827;}
	.st9{fill:#F5F5F5;}
	.st10{fill:#F4F4F4;}
	.st11{fill:#56453B;}
	.st12{fill:#F8A828;}
	.st13{fill:#FEFDFD;}
	.st14{fill:#FDFDFD;}
	.st15{fill:#F9F9F9;}
	.st16{fill:#F6F6F6;}
	.st17{fill:#FCFCFC;}
	.st18{fill:#FAFAFA;}
	.st19{fill:#795B37;}
	.st20{fill:#7B5C36;}
	.st21{fill:#453B3E;}
	.st22{fill:#302F41;}
	.st23{fill:#FEFEFE;}
	.st24{fill:#ECECEC;}
	.st25{fill:#EAEAEA;}
	.st26{fill:#E7E7E7;}
	.st27{fill:#E6E6E6;}
	.st28{fill:#E8E8E8;}
</style>
<g>
	<path class="st0" d="M158.3,26.8c0,15.6,0,31.2,0.1,46.7c0,2-0.9,2.1-2.5,2.1c-25.5,0-51.1,0-76.6,0c-1.1-1.4-0.9-2.8-0.1-4.2
		c1.2-0.8,2.6-0.6,4-0.6c22.5,0,45,0,67.6,0c4.2,0,4.2,0,4.2-4.2c0-10.8,0-21.7,0-32.5c0-3.2-0.1-3.3-3.3-3.3c-24.1,0-48.2,0-72.3,0
		c-3.3,0-3.4,0.1-3.4,3.4c0,6.6,0,13.2,0,19.9c0,1.1,0.1,2.3-0.3,3.4c-0.3,0.7-0.8,1-1.2,0.3c-0.8-1.3-2.1-2.4-2.2-4.2
		c0-7.8,0-15.6,0-23.3c0-1-0.1-2.1,0.6-3c2-1,4.1-0.5,6.2-0.5c25.8-0.1,51.5,0,77.3-0.1C157,26.6,157.6,26.5,158.3,26.8z"/>
	<path class="st1" d="M46.4,76c1.2,2.7,2.6,5.4,3.8,8.1c2.3,5.4,0.6,9.8-3.7,13.7c-0.4,0.3-0.9,0.6-1.3,0.9c-1.7,1.8-3.9,0.8-5.9,1
		c-1.5-0.1-3.1,0.1-4.6,0c-1,0-1.9-0.1-2.5-1c-5.7-4-7.3-9.3-4.2-15.7c3.1-6.7,6.5-13.3,9.4-20.1c0.3-0.7,0.5-1.6,1.5-1.4
		c0.7,0.2,1.4,0.6,1.8,1.5c0.9,2,1.9,4,2.8,6.1C45,71.1,46.1,73.4,46.4,76z"/>
	<path class="st2" d="M79.3,71.6c0,1.4,0,2.7,0,4.1c0,1.1-0.1,2.2-0.1,3.4c0,3.2-2.1,5.2-5.2,5.2c-3.4,0-6.7,0-10.1,0
		c-2.6,0-4.9-2.2-5-4.8c0-1.3-0.1-2.7-0.1-4c-1-2.3-1-4.6,0-6.8c0-1.7,0-3.4,0.1-5.1c0.7-1.1,1.2-2.5,2.8-2.7c0.5-0.1,1-0.1,1.4-0.1
		c0.5-0.1,1,0,1.5,0c3-0.1,6-0.1,8.9,0c0.6,0,1.1,0,1.7,0c3.3,0.4,4.6,1.8,4.6,5.1C79.8,67.6,80.4,69.7,79.3,71.6z"/>
	<path class="st3" d="M158.3,26.8c-0.7,0.5-1.4,0.5-2.2,0.5c-27.7,0-55.5,0-83.2,0c-1.6-3.1-0.7-5.2,2.4-5.2c21-0.1,41.9-0.1,62.9,0
		c0.9,0,1.8,0,2.5,0.6c4.9,0,9.8,0,14.7,0c2.9,0,2.9,0,2.9,2.9C158.3,26.1,158.3,26.5,158.3,26.8z"/>
	<path class="st4" d="M54.3,21c0-0.2,0-0.3,0-0.5c-0.2-4-0.2-4.1,3.9-4.8c10.7-1.9,21.5-3.7,32.2-5.6C99,8.6,107.6,7,116.2,5.4
		c6.8-1.3,13.7-2.5,20.5-3.8c0.9-0.2,1.5,0,1.8,1.1c0.2,1.1,0.4,2.2,0.4,3.3C138,6.9,137,7,136,7.2c-15.5,2.7-30.9,5.5-46.4,8.3
		c-10.9,2-21.8,3.8-32.6,5.8C56,21.4,55.1,21.7,54.3,21z"/>
	<path class="st5" d="M46.2,37.6c3.6,5.1,3.1,13-1,17.5c-3.3,3.6-8.5,3.8-12.1,0.5c-1.1-1-2.2-2-3.3-3c-1.3-3-2-6-1.5-9.4
		c0.6-3.5,2.4-6.2,4.9-8.4c4-3.5,10.3-2.6,12.7,1.7c0,1.2-1,1.7-1.9,2.2c-0.8,0.4-1.6,0.3-2.5,0.2c0.9,0.1,1.7,0.2,2.5-0.2
		C44.9,38.6,45.2,37.6,46.2,37.6z"/>
	<path class="st6" d="M54.3,21c4.6-0.8,9.3-1.6,13.9-2.4c10.7-1.9,21.5-3.8,32.2-5.7c8.6-1.5,17.2-3.2,25.8-4.7
		c4.2-0.7,8.4-1.4,12.6-2c0.8,5.5,1.5,11.1,1.8,16.7c-0.8,0-1.5,0-2.3,0c-1.3-2.6-1-5.6-1.5-8.4c-0.1-0.5,0-1.1-0.1-1.6
		c-0.3-2.8-0.7-3-3.4-2.5c-18.1,3.2-36.1,6.6-54.2,9.7c-6.4,1.1-12.7,2.3-19.1,3.5c-1.7,0.3-2.1,1.1-2,2.8
		c0.6,6.4,1.6,12.8,2.5,19.2c0.7,4.4,1,8.8,1.5,13.2c0.1,0.9,0.2,1.8-0.5,2.6c-1.3,0.3-1.5,1.8-2.7,2.3c0-5.8-1.1-11.4-1.7-17.1
		c-0.5-4.1-0.9-8.3-1.4-12.4C55.3,29.6,54.8,25.3,54.3,21z"/>
	<path class="st7" d="M45.7,36.8c-4.5-5.1-10.5-4.5-14.4,0.9c-3,4.1-3.1,8.4-1.8,12.9c0.2,0.7,0.5,1.3,0.2,1.9
		c-0.3-0.3-0.5-0.5-0.8-0.8c-0.4-0.6-0.8-1.3-0.9-2c0-0.1,0-0.3,0-0.4c-0.7-0.4-0.8-1.1-0.9-1.8c0-0.2-0.1-0.4-0.1-0.6
		c-0.9-0.9-0.5-2.3-1-3.3c0-1.6,0-3.2,0-4.7c0.4-1.1,0.2-2.4,1.1-3.4c0-0.2,0-0.3,0-0.5c0.1-0.7,0.1-1.3,0.5-1.9l0,0
		c0.5-0.6,0.8-1.2,1.4-1.8c0.2-0.3,0.3-0.7,0.5-1c0.5-0.4,0.9-0.8,1.3-1.3c0.8-0.5,1.6-0.9,2.3-1.4c0.8-1.1,2.2-1,3.2-1.8
		c0.2,0,0.5,0,0.7,0c1.3-0.1,2.6,0.3,3.9,0.2c1.1,0.3,2.1,0.8,3,1.6c0.6,0.5,1.2,1.1,1.8,1.6c-0.1,0.6,0.4,1.1,0.5,1.6
		c0.2,0.4,0.3,0.7,0.5,1.1c0.4,1.2-0.1,2.5,0,3.8c-0.1,0.3-0.3,0.6-0.4,0.8C46,37,45.9,37,45.7,36.8z"/>
	<path class="st5" d="M39.4,99.4c2-0.3,4,0.2,5.9-0.6c0,6.8,0,13.5,0,20.3c0,0.9-0.2,1.8-0.5,2.6c-1.5,0.6-3,0.2-4.5,0.2
		c-1.2-0.3-1.5-1.2-1.5-2.2c0-6.5-0.3-13,0.1-19.5C39,99.9,39.1,99.6,39.4,99.4z"/>
	<path class="st8" d="M39.4,99.4L39.4,99.4c-1.1,1.1-1,2.5-1.1,3.8c0,5,0,9.9,0,14.9c0,1.3,0.1,2.7-1.1,3.7
		c-1.5,0.1-3.1,0.4-4.6-0.2c-0.5-0.7-0.4-1.4-0.4-2.2c0-6.9,0-13.8,0-20.7C34.5,99.7,37,99,39.4,99.4z"/>
	<path class="st5" d="M58.8,68.5c0,2.3,0,4.6,0,6.8c-3.3,0.1-6.7,0.2-10,0.4c-0.8,0-1.6,0.2-2.4,0.3c-1-2.3-2-4.7-3-7
		C48.5,68.9,53.6,68.7,58.8,68.5z"/>
	<path class="st0" d="M11.4,113.1c0-0.4,0-0.9,0-1.3c-0.5-0.8-0.5-1.5,0-2.3c0.3-5,4-7.4,7.7-10.5c-0.8,3.9-0.9,7.4-1.9,10.8
		c-0.9,2.9-2.3,3.8-5.3,3.8C11.6,113.5,11.5,113.3,11.4,113.1z"/>
	<path class="st2" d="M32.6,121.6c1.5,0,3,0,4.5,0c1.1-0.8,2.2-0.3,3.2,0c1.5,0,3,0,4.5,0c10,0,20,0,30,0c0,0.1,0,0.3,0,0.4
		c-24.8,0-49.5,0-74.3,0c0-0.1,0-0.3,0-0.4C11.2,121.6,21.9,121.6,32.6,121.6z"/>
	<path class="st9" d="M11.4,113.1c0.1,0.1,0.3,0.3,0.4,0.4c0,2.2,0,4.5,0,6.7c-0.1,0-0.3,0-0.4,0C11.4,117.9,11.4,115.5,11.4,113.1z
		"/>
	<path class="st10" d="M11.4,109.5c0,0.8,0,1.5,0,2.3C9.9,111,9.9,110.3,11.4,109.5z"/>
	<path class="st11" d="M45.7,36.8c0.2,0,0.3,0,0.5,0c0,0.3,0,0.6,0,0.8c-0.7,0.4-1,1.2-1.8,1.4c-0.2-0.1-0.4-0.1-0.5-0.4
		C44.5,38,45.3,37.6,45.7,36.8z"/>
	<path class="st12" d="M62.9,61.1c-0.2-1.7,0.3-3.2,1-4.7c1.5-3,4.9-4.6,8.4-2.4c1.3,1.1,1.9,2.7,2.7,4.1c0.1,1,0.2,2,0.2,3
		c-0.5,0-1,0-1.6,0C73,60.2,73,59,72.4,58.1c-0.8-1.3-1.8-2.4-3.5-2.4c-1.6,0-2.5,1.2-3.2,2.5c-0.5,1-0.6,2.2-1.4,3
		C63.9,61.1,63.4,61.1,62.9,61.1z"/>
	<path class="st5" d="M35.8,88.9c0-5,0-9.9,0-14.9c0-3.1,2.2-4.7,4.4-3.3c1,0.7,1.4,1.7,1.4,2.9c0.2,7.2,0.3,14.4,0.5,21.6
		c0.1,2.8-2,2.1-3.5,2.3c-1.6,0.3-2.4-0.6-2.4-2.2c0-2.2,0-4.4,0-6.5C36.1,88.9,35.9,88.9,35.8,88.9z"/>
	<path class="st13" d="M64.3,61.1c0.1-1.3,0.4-2.5,1-3.6c0.8-1.5,2-2.5,3.7-2.5c1.8,0,3.1,1.1,3.8,2.6c0.5,1.1,0.9,2.2,0.9,3.4
		C70.6,61.1,67.5,61.1,64.3,61.1z"/>
	<path class="st14" d="M66.5,70.1c0.2-1.6,0.5-2.7,1.7-3.2c0.9-0.5,1.8-0.3,2.5,0.4c1,0.9,1.4,2.3,0.7,3.3c-1,1.6-1.3,3.3-1.1,5.1
		c0.1,0.8-0.4,1.1-1.1,1c-0.5,0-1.2,0.2-1.2-0.6C68,73.7,67.9,71.6,66.5,70.1z"/>
	<path class="st15" d="M75.4,26.1c-0.4,0-0.6-0.3-0.7-0.7c0-0.3,0-0.6,0.4-0.7c0.4-0.1,0.7,0.2,0.8,0.5C76,25.7,75.8,26,75.4,26.1z"
		/>
	<path class="st14" d="M81.1,25.9c0.1,0-0.2,0.2-0.4,0.2c-0.4,0-0.6-0.5-0.5-0.9c0-0.4,0.2-0.6,0.6-0.5C81,24.9,81.2,25.1,81.1,25.9
		z"/>
	<path class="st16" d="M78.3,25.3c0,0.4-0.2,0.8-0.6,0.7c-0.2,0-0.4-0.4-0.4-0.6c-0.1-0.4,0.2-0.7,0.6-0.7
		C78.2,24.7,78.2,25.1,78.3,25.3z"/>
	<path class="st17" d="M60.1,18.2c0,0.4-0.3,0.7-0.6,0.8c-0.5,0.1-0.8-0.2-0.9-0.7c-0.1-0.4,0.3-0.7,0.6-0.8
		C59.7,17.4,60,17.7,60.1,18.2z"/>
	<path class="st15" d="M56.8,19.4c-0.5,0-0.6-0.3-0.7-0.7c0-0.3,0-0.6,0.4-0.7c0.5-0.1,0.7,0.2,0.8,0.6C57.4,19,57.1,19.3,56.8,19.4
		z"/>
	<path class="st18" d="M61.8,17.1c0.5,0,0.6,0.4,0.6,0.7c0,0.3,0,0.6-0.4,0.7c-0.4,0.1-0.7-0.2-0.8-0.6
		C61.2,17.5,61.5,17.3,61.8,17.1z"/>
	<path class="st7" d="M43.9,38.6c0.2,0.1,0.3,0.3,0.5,0.4c-1.3,0.8-2.6,0.8-4-0.4C41.7,38.6,42.8,38.6,43.9,38.6z"/>
	<path class="st19" d="M42.3,46.5c0.5,0.4,0.9,0.8,1.4,1.2C42,48,42,48,42.3,46.5z"/>
	<path class="st20" d="M41.8,50.4c0.5-0.3,1.1-0.6,2-1.1C43.4,50.6,42.6,50.5,41.8,50.4z"/>
	<path class="st21" d="M39.3,38.1c-0.8-0.5-1.3-0.9-1.6-1.8C38.8,36.5,39.2,37,39.3,38.1z"/>
	<path class="st22" d="M40.3,43.3c-0.9,0.3-1.4,0.3-2.2,0C38.9,43,39.4,43.1,40.3,43.3z"/>
	<path class="st23" d="M37.5,101.3c0-1.4,0.2-2.2,1.8-1.9c0,6.5,0,13.1,0.1,19.6c0,1-0.1,2,0.9,2.5c-1.1,0-2.2,0-3.2,0
		c0.4-1,0.5-2,0.5-3.1"/>
	<path class="st24" d="M13.2,110c0.2-1.3,0.9-1.5,1.7-2.5C14.8,108.9,14.1,109.3,13.2,110z"/>
	<path class="st0" d="M99,46.6c-0.3,3.6-1.8,6.6-4.7,8.6c-3.2,2.2-7.3,0.3-9-2.8c-2.1-3.9-2-8,0.6-11.8c2.5-3.7,7.9-3.7,10.5-0.1
		C97.7,42.4,98.8,44.4,99,46.6z"/>
	<path class="st0" d="M130.4,56.2c-2.4,0-4.8,0-7.2,0c-0.6,0-1.4,0.2-1.4-0.7c0-0.7,0.7-0.6,1.2-0.6c4.9,0,9.9,0,14.8,0
		c0.5,0,1.2-0.1,1.2,0.6c0,0.9-0.8,0.7-1.3,0.7C135.3,56.2,132.9,56.2,130.4,56.2z"/>
	<path class="st0" d="M128.6,43.6c-1.9,0-3.7,0-5.6,0c-0.5,0-1.2,0.1-1.1-0.7c0-0.6,0.6-0.6,1-0.6c3.9,0,7.8,0,11.7,0
		c0.4,0,1,0,1,0.6c0,0.8-0.6,0.7-1.1,0.7C132.5,43.6,130.5,43.6,128.6,43.6z"/>
	<path class="st0" d="M122,39.7c5.7,0,11.3,0,17,0c0,0.2,0,0.3,0,0.5c-5.7,0-11.3,0-17,0C122,40,122,39.8,122,39.7z"/>
	<path class="st0" d="M84.5,63.2c4.6,0,9.2,0,13.8,0c0,0.2,0,0.3,0,0.5c-4.6,0-9.2,0-13.8,0C84.5,63.5,84.5,63.4,84.5,63.2z"/>
	<path class="st0" d="M122,58.2c4.5,0,8.9,0,13.4,0c0,0.2,0,0.3,0,0.5c-4.5,0-8.9,0-13.4,0C122,58.5,122,58.4,122,58.2z"/>
	<path class="st0" d="M122,49.2c3.9,0,7.7,0,11.6,0c0,0.1,0,0.3,0,0.4c-3.9,0-7.7,0-11.6,0C122,49.5,122,49.3,122,49.2z"/>
	<path class="st25" d="M125.9,61.2c0.9,0,1.8,0,2.7,0c0.5,0,1.2,0,1.1,0.7c0,0.6-0.6,0.6-1,0.6c-1.9,0-3.9,0-5.8,0c-0.4,0-1,0-1-0.6
		c0-0.8,0.6-0.7,1.1-0.7C123.9,61.2,124.9,61.2,125.9,61.2z"/>
	<path class="st26" d="M133.6,65.1c-3.9,0-7.7,0-11.6,0c0-0.1,0-0.3,0-0.4c3.9,0,7.7,0,11.6,0C133.6,64.8,133.6,64.9,133.6,65.1z"/>
	<path class="st0" d="M85.8,60.5c3.6,0,7.1,0,10.7,0c0,0.2,0,0.3,0,0.5c-3.6,0-7.1,0-10.7,0C85.8,60.8,85.8,60.6,85.8,60.5z"/>
	<path class="st27" d="M132.7,37c-3.6,0-7.1,0-10.7,0c0-0.2,0-0.3,0-0.5c3.6,0,7.1,0,10.7,0C132.7,36.7,132.7,36.9,132.7,37z"/>
	<path class="st27" d="M122,52.3c3.6,0,7.1,0,10.7,0c0,0.2,0,0.3,0,0.5c-3.6,0-7.1,0-10.7,0C122,52.6,122,52.5,122,52.3z"/>
	<path class="st0" d="M122,46c2.5,0,5,0,7.5,0c0,0.1,0,0.3,0,0.4c-2.5,0-5,0-7.5,0C122,46.3,122,46.2,122,46z"/>
	<path class="st26" d="M118,61.5c0,0.7-0.3,1-0.8,1c-0.7,0-1-0.3-0.9-1c0-0.5,0.4-0.8,0.9-0.7C117.8,60.8,118,61.1,118,61.5z"/>
	<path class="st28" d="M117.1,48.6c0.7,0,0.9,0.4,0.9,0.9c0,0.7-0.5,0.9-1.1,0.8c-0.6-0.1-0.7-0.5-0.6-1
		C116.4,48.7,116.8,48.6,117.1,48.6z"/>
	<path class="st28" d="M118,46.2c0,0.5-0.2,0.9-0.8,0.9c-0.6,0-1-0.3-0.9-0.9c0-0.6,0.4-0.8,0.9-0.8C117.7,45.4,118,45.7,118,46.2z"
		/>
	<path class="st27" d="M118,36.9c0,0.5-0.3,0.8-0.9,0.8c-0.7,0-0.9-0.4-0.8-1c0.1-0.6,0.5-0.7,1-0.7C117.8,36,118,36.3,118,36.9z"/>
	<path class="st27" d="M118,39.9c0,0.5-0.2,0.9-0.7,0.9c-0.6,0.1-1-0.2-1-0.9c0-0.5,0.3-0.8,0.8-0.8C117.7,39.1,118,39.3,118,39.9z"
		/>
	<path class="st26" d="M117.2,51.8c0.6,0,0.8,0.4,0.8,0.9c0,0.7-0.5,0.9-1.1,0.8c-0.6-0.1-0.7-0.5-0.6-1
		C116.4,51.9,116.7,51.7,117.2,51.8z"/>
	<path class="st26" d="M117.3,57.6c0.6,0,0.8,0.4,0.8,0.9c0,0.7-0.5,0.9-1.1,0.8c-0.6-0.1-0.7-0.5-0.6-1
		C116.4,57.8,116.7,57.6,117.3,57.6z"/>
	<path class="st27" d="M118,64.8c0,0.5-0.2,0.8-0.8,0.9c-0.7,0-1-0.3-0.9-1c0-0.5,0.4-0.8,0.9-0.7C117.8,64,118,64.3,118,64.8z"/>
	<path class="st27" d="M117.9,55.4c0.1,0.6-0.2,0.8-0.6,0.8c-0.5,0.1-0.9,0-1-0.6c0-0.3,0.2-0.6,0.5-0.6
		C117.4,54.9,117.8,54.9,117.9,55.4z"/>
	<path class="st27" d="M117.9,42.7c0.1,0.6-0.2,0.8-0.6,0.8c-0.5,0.1-0.9,0-1-0.6c0-0.3,0.2-0.6,0.5-0.6
		C117.3,42.2,117.8,42.2,117.9,42.7z"/>
	<path class="st23" d="M87.9,51.3c1.2-1.2,0.8-3.6,3.5-3.3c1.8,0.2,3,1.2,3,3c0,0.8-0.5,1.1-1.2,1.1C91.5,52.1,89.7,52.5,87.9,51.3z
		"/>
	<path class="st23" d="M93.2,43.6c0,1.7-0.5,2.7-1.9,2.6c-1.3,0-1.7-0.9-1.8-2.1c0-1.4,0.6-2.5,1.9-2.6
		C92.8,41.5,93.2,42.8,93.2,43.6z"/>
</g>
<path class="st22" d="M44,43.2c0.7-0.4,1.3-0.3,2.2,0"/>
</svg>
