<?xml version="1.0" encoding="utf-8"?>
<!-- Generator: Adobe Illustrator 25.3.0, SVG Export Plug-In . SVG Version: 6.00 Build 0)  -->
<svg version="1.1" id="Camada_1" xmlns="http://www.w3.org/2000/svg" xmlns:xlink="http://www.w3.org/1999/xlink" x="0px" y="0px"
	 viewBox="0 0 248 205.2" style="enable-background:new 0 0 248 205.2;" xml:space="preserve">
<style type="text/css">
	.st0{fill:#59576D;}
	.st1{fill:#8B8A99;}
	.st2{fill:#E4E4E5;}
	.st3{fill:#FEFEFE;}
	.st4{fill:#F8A828;}
</style>
<g>
	<path class="st0" d="M195.3,12.5c0,9.5,0.2,19,0,28.5c-0.1,3.1,1.3,4.8,3.6,6.2c3.3,1.9,6.5,3.8,9.7,5.9
		c9.8,6.4,19.5,12.8,29.5,18.9c0.8,0.5,1.5,1.3,2.2,2c-0.6-0.1-1.4,0-1.8-0.4c-4.9-4.1-10.6-6.9-16-10.4
		c-8.7-5.6-17.3-11.6-26.4-16.7c-0.3-0.2-0.7-0.5-0.7,0.3c0,2.9,0,5.8,0,8.6c0,13.1-0.1,26.3-0.1,39.4c0,1.8,0.8,1.5,2,1.2
		c5.4-1.6,10.3-4.2,15.5-6.3c6.5-2.6,13.4-4.2,19.5-7.8c1.3-0.4,2.5-0.9,3.8-1.3c0,0.3,0,0.6-0.1,0.9c-0.8,0.5-2.1,0.3-2.3,1.7
		c-0.4,0-0.7,0-1.1,0.1c-7.9,3.3-16.1,5.7-23.9,9.3c-7.9,3.7-16.4,6-24.4,9.6c-7.4,3.4-15.3,5.9-22.9,9c-11.1,4.4-22.1,8.9-33.2,13
		c-1.7,0.6-3.3,0.7-5,0c-4.7-1.9-9.4-3.5-14-5.5c-7.9-3.5-16.3-5.7-24.2-9.3c-7.8-3.5-16.1-5.8-24-9.2c-9.1-3.8-18.6-6.9-27.8-10.6
		c-7-2.9-14.3-5-21.2-8c-0.9-0.4-1.8-0.8-2.7-1.2c0-0.3,0-0.6,0-0.9c0.9,0.3,1.8,0.5,2.6,0.8c4.6,1.7,8.8,4.1,13.4,5.5
		c9.1,2.8,17.6,7,26.5,10c1.1,0.4,2,0.9,2-1c-0.1-14.4-0.1-28.8-0.1-43.2c0-1.2,0-2.4,0.1-3.5c0.2-2.1-0.4-2.3-2.2-1.2
		c-6.1,3.6-12,7.6-17.9,11.5c-8.4,5.5-16.9,10.9-25.3,16.4c-0.1-0.2-0.3-0.3-0.4-0.5c1.6-2.4,4.4-3.4,6.7-4.8
		C22,65.1,29,60.4,36.1,55.8c4.6-3,9.3-5.9,13.9-8.8c2.6-1.7,4.1-3.5,4-7.1c-0.3-8.4-0.1-16.8-0.1-25.2c0-1-0.3-2,0.4-2.9
		c0.3,0.1,0.6,0.1,0.9,0.2c0,0.2-0.1,0.4-0.1,0.5c0,27.5,0,55.1-0.1,82.6c0,1.3,0.5,1.7,1.6,2.1c4,1.6,8,3.1,12,4.8
		c8.5,3.6,17.3,6.2,25.7,9.8c6.6,2.8,13.7,4.4,20,7.5c6.6,3.2,12.8,5.5,19.8,1.5c1.1-0.6,2.1-1.4,3.2-1.8
		c8.7-3.4,17.5-6.7,26.2-10.1c9.7-3.9,19.4-7.8,29.2-11.5c1.5-0.6,1.9-1.3,1.9-2.8c-0.1-27.4-0.1-54.7-0.1-82.1
		C194.7,12.5,195,12.5,195.3,12.5z"/>
	<path class="st1" d="M195.3,12.5c-0.3,0-0.5,0-0.8,0c-0.8-1.3-2-1.6-3.5-1.6c-44.2,0-88.4,0-132.6,0c-1.2,0-2.3,0.2-3.2,1.1
		c-0.3-0.1-0.6-0.1-0.9-0.2c0.8-2.2,2.8-2,4.6-2c14.3,0,28.6,0,42.9,0c3.1,0,6,0.2,8.4-2.4c0.9-0.9,2.3-1.3,3.5-2c0,0.3,0,0.6,0,1
		c-1,1.2-3.1,1.3-3.3,3.2c1.9,0,3.7,0,5.5,0c5.3,0.2,10.6,0.2,15.8,0c2,0,4.1,0,6.5,0c-2.3-3-5.8-3.7-8.2-5.9c0-0.3,0-0.7,0-1
		c3.4,1.9,7,3.6,10,6.4c1,0.9,2.2,0.7,3.3,0.7c15.8,0,31.6,0,47.5,0C192.7,9.9,194.9,9.7,195.3,12.5z"/>
	<path class="st0" d="M0.1,202.3c0-14-0.1-27.9-0.1-41.9c0-26.8,0-53.6,0-80.5c0.3,0,0.6,0,0.9,0c0,40.8,0,81.5,0,122.3
		C0.7,202.3,0.4,202.3,0.1,202.3z"/>
	<path class="st0" d="M248,80c0,40.8,0,81.5,0,122.3c-0.3,0-0.6,0-1,0c0-40.8,0-81.5,0-122.3C247.4,80,247.7,80,248,80z"/>
	<path class="st0" d="M246.5,204.6c-0.9,0.8-2.1,0.5-3.1,0.5c-79.6,0-159.1,0-238.7,0c-1,0-2.2,0.3-3.1-0.5c0.1-0.2,0.3-0.4,0.4-0.6
		c1.1,0.1,2.2,0.3,3.2,0.3c79.2,0,158.4,0,237.6,0c1.1,0,2.2-0.2,3.2-0.3C246.2,204.2,246.3,204.4,246.5,204.6z"/>
	<path class="st1" d="M248,80c-0.3,0-0.6,0-0.9,0c-0.6-1.6-1.7-1.8-3.2-1.2c-2.6,1-5.2,1.8-7.8,2.7c0-0.3,0-0.6,0.1-0.9
		c2.5-1,5-2,7.5-3c-0.3-1.2-1.4-1.3-2.2-1.8c-0.6-0.4-0.4-0.6,0.1-0.9C244,76.1,247.1,76.6,248,80z"/>
	<path class="st0" d="M113.7,6.5c0-0.3,0-0.6,0-1c1.5-0.9,3.1-1.6,4.3-2.8c4.1-3.6,8-3.7,11.9,0c0,0.3,0,0.7,0,1
		c-0.9-0.5-2-1-2.8-1.6c-2.1-1.7-4.1-1.7-6.3,0C118.6,3.7,116.1,5,113.7,6.5z"/>
	<path class="st1" d="M1,80c-0.3,0-0.6,0-0.9,0c-0.2-1.3,0.6-2.1,1.6-2.4c1.8-0.6,3.2-1.7,4.9-2.4c0.2,0.2,0.4,0.4,0.6,0.6
		c-0.6,0.9-1.9,0.9-2.4,2c1.5,0.6,3,1.2,4.5,1.8c0,0.3,0,0.6,0,0.9c-1.7-0.6-3.4-1-5.1-1.7C2.7,78.1,1.6,78.4,1,80z"/>
	<path class="st1" d="M0.1,202.3c0.3,0,0.6,0,1,0c0.1,0.4,0.2,0.8,0.2,1.2c0,0.3-0.1,0.7-0.1,1C0.2,204-0.1,203.3,0.1,202.3z"/>
	<path class="st1" d="M247,202.3c0.3,0,0.6,0,1,0c0.2,1-0.1,1.7-1.1,2.2c0-0.3-0.1-0.7-0.1-1C246.8,203,246.9,202.6,247,202.3z"/>
	<path class="st0" d="M7.2,75.7c-0.2-0.2-0.4-0.4-0.6-0.6c0.3-0.1,0.5-0.2,0.8-0.4c0.1,0.2,0.3,0.3,0.4,0.5
		C7.6,75.3,7.4,75.5,7.2,75.7z"/>
	<path class="st0" d="M7.4,74.7c0.2-0.1,0.5-0.2,0.7-0.4c0.1,0.2,0.3,0.3,0.4,0.5C8.2,75,8,75.1,7.8,75.2C7.6,75,7.5,74.9,7.4,74.7z
		"/>
	<path class="st0" d="M1.1,204.4c0-0.3,0.1-0.7,0.1-1c0.2,0.2,0.5,0.4,0.7,0.6c-0.1,0.2-0.3,0.4-0.4,0.6
		C1.4,204.6,1.2,204.6,1.1,204.4z"/>
	<path class="st0" d="M246.8,203.4c0,0.3,0.1,0.7,0.1,1c-0.1,0.1-0.2,0.2-0.4,0.2c-0.1-0.2-0.3-0.4-0.4-0.6
		C246.3,203.8,246.5,203.6,246.8,203.4z"/>
	<path class="st2" d="M233.6,83.1c1.9,0.6,4.3,1.6,4.6,3.2c0.3,1.4-2.5,1.8-4,2.6c-12.6,6.9-25.3,13.5-37.8,20.7
		c-5.2,3-10.7,5.6-15.9,8.6c-11.4,6.4-23,12.5-34.4,19c-3.6,2.1-7.4,3.9-10.9,6c-3.4,2-6.7,2.6-10.7,1.6c-10-2.3-20.2-3.8-30.1-6.2
		c-7.5-1.8-15.1-3.2-22.6-4.8c-2.6-0.6-4.4-2.7-6-4.4c-1.8-1.9-3.9-3.4-5.9-5.1c-5-4.2-10-8.5-14.9-12.9
		c-6.8-6.1-13.9-11.9-20.7-18.1c-3.8-3.4-7.8-6.6-11.6-10c-0.6-0.5-0.6-1-0.6-1.7c6.9,3.1,14.2,5.2,21.2,8
		c9.2,3.8,18.7,6.8,27.8,10.6c7.9,3.3,16.2,5.7,24,9.2c7.9,3.6,16.3,5.8,24.2,9.3c4.6,2,9.4,3.7,14,5.5c1.7,0.7,3.2,0.7,5,0
		c11.2-4.1,22.2-8.7,33.2-13c7.6-3,15.5-5.5,22.9-9c8-3.7,16.5-6,24.4-9.6c7.8-3.6,16-6,23.9-9.3C232.9,83.2,233.3,83.2,233.6,83.1z
		"/>
	<path class="st2" d="M53.7,51.7c0,14.4,0.1,28.8,0.1,43.2c0,2-0.9,1.4-2,1c-8.9-3.1-17.4-7.3-26.5-10c-4.7-1.4-8.9-3.9-13.4-5.5
		c0.1-0.8,0.8-1.1,1.4-1.6c8.1-5.6,16.3-10.9,24.2-16.6c4.1-3,8.6-5.2,12.5-8.5C51,52.7,52.1,51.6,53.7,51.7z"/>
	<path class="st2" d="M195.4,55.4c4.5,2.3,8.5,5.3,12.5,8.3c2,1.5,4,3,6.1,4.4c6,4.2,11.9,8.6,17.8,13c0.2,0.1,0.3,0.4,0.4,0.7
		c-6.1,3.6-13,5.2-19.5,7.8c-5.2,2.1-10.1,4.7-15.5,6.3c-1.2,0.4-2,0.7-2-1.2C195.4,81.7,195.4,68.6,195.4,55.4z"/>
	<path class="st3" d="M13.3,78.7c-0.6,0.4-1.2,0.8-1.4,1.6c-0.9-0.3-1.8-0.5-2.6-0.8c-1.5-0.6-3-1.2-4.5-1.8c0.5-1.1,1.8-1.1,2.4-2
		c0.2-0.2,0.4-0.3,0.6-0.5C8,75.1,8.2,75,8.5,74.9c8.4-5.5,16.9-10.9,25.3-16.4c6-3.9,11.8-7.9,17.9-11.5c1.8-1.1,2.4-0.9,2.2,1.2
		c-0.1,1.2-0.1,2.3-0.1,3.5c-1.6,0-2.7,1.1-3.8,2c-3.9,3.3-8.4,5.5-12.5,8.5"/>
	<path class="st2" d="M196.1,46.6c-0.2,0.1-0.5,0.2-0.7,0.3C195.4,46.1,195.7,46.3,196.1,46.6z"/>
	<path class="st3" d="M130,3.8c2.4,2.2,5.9,2.9,8.2,5.9c-2.4,0-4.4,0-6.5,0c0-0.8-0.1-1.5-0.8-1.9c-2.2-1.4-4.2-3.4-6.6-4.1
		c-2-0.6-3.5,1.9-5.3,2.8c-0.6,0.3-1.1,0.7-1.6,1c-1,0.4-1.6,1.1-1.5,2.3c-1.8,0-3.6,0-5.5,0c0.3-1.9,2.4-2,3.3-3.2
		c2.4-1.4,4.9-2.7,7.2-4.4"/>
	<path class="st2" d="M115.8,9.7c-0.1-1.2,0.5-1.8,1.5-2.3c0.6-0.3,1.1-0.7,1.6-1c1.8-0.9,3.3-3.4,5.3-2.8c2.4,0.7,4.4,2.7,6.6,4.1
		c0.7,0.4,0.8,1.2,0.8,1.9C126.4,9.9,121.1,9.9,115.8,9.7z"/>
	<path class="st4" d="M47.6,182.6c-8.9,0-17.7,0-26.6,0c-0.9,0-1.8,0-2.7-0.3c-0.9-0.3-1.5-1-1.4-2.1c0-0.9,0.6-1.5,1.4-1.9
		c0.9-0.4,1.9-0.4,2.9-0.4c17.6,0,35.3,0,52.9,0c0.5,0,1.1,0,1.6,0c1.3,0.2,2.6,0.6,2.6,2.3c0,1.7-1.2,2.3-2.8,2.3
		c-2.9,0-5.8,0-8.7,0C60.5,182.6,54.1,182.6,47.6,182.6z"/>
	<path class="st4" d="M29.6,172.3c-3.1,0-6.1,0-9.2,0c-1.6,0-3.3-0.2-3.4-2.2c-0.1-2.1,1.6-2.4,3.2-2.4c6.3,0,12.6,0,19,0
		c1.5,0,3.1,0.3,3.2,2.2c0,2-1.6,2.4-3.2,2.4C35.9,172.3,32.8,172.3,29.6,172.3z"/>
	<path class="st4" d="M124.6,100.1c-2.5,0.1-5-0.9-7.3-2.4c-6.9-4.5-13.3-9.6-20.2-14.1c-2-1.3-3.8-3-5.8-4.3
		c-4.6-3.1-6.4-7.8-4.8-12.4c1.9-5.3,6.9-8.5,12.5-7.9c4,0.4,7.2,2.4,10.1,4.8c3.9,3.4,8.5,5.8,12.6,8.8c1,0.7,1.7,0.2,2.3-0.5
		c5-5.8,9.9-11.7,14.7-17.7c3.4-4.3,7.1-8.4,10.6-12.6c5-6,9.9-12.2,15.1-18.1c4.2-4.8,11.6-5.5,16.8-2c5.2,3.6,6.6,10,2.1,15.9
		c-4.1,5.4-8.8,10.3-13.1,15.5c-10.5,12.6-21,25.2-31.4,37.9c-1.3,1.6-2.5,3.3-3.9,4.8C132.2,98.8,128.8,100.1,124.6,100.1z"/>
</g>
</svg>
