<?xml version="1.0" encoding="utf-8"?>
<!-- Generator: Adobe Illustrator 25.3.0, SVG Export Plug-In . SVG Version: 6.00 Build 0)  -->
<svg version="1.1" id="Camada_1" xmlns="http://www.w3.org/2000/svg" xmlns:xlink="http://www.w3.org/1999/xlink" x="0px" y="0px"
	 viewBox="0 0 634.5 192.2" style="enable-background:new 0 0 634.5 192.2;" xml:space="preserve">
<style type="text/css">
	.st0{fill:#B8A011;}
	.st1{fill:#EFE06D;}
	.st2{fill:#020203;}
	.st3{fill:#CBB329;}
	.st4{fill:#CBB32A;}
	.st5{fill:#E0C845;}
	.st6{fill:#040503;}
	.st7{fill:#FFFFFF;}
	.st8{fill:#ECD95F;}
	.st9{fill:#C6AE20;}
	.st10{fill:#E1C945;}
	.st11{fill:#D6BE36;}
	.st12{fill:#DFC742;}
	.st13{fill:#BCA414;}
	.st14{fill:#CEB62C;}
	.st15{fill:#F0E16E;}
	.st16{fill:#D3BB32;}
	.st17{fill:#C8AF23;}
</style>
<g>
	<path class="st0" d="M120.8,188.7c-14.9,4.5-30,4.5-44.8,0.6c-39.4-10.3-63.4-36-72.1-75.6C1.3,101.5,1.5,89,4.7,76.7
		c3.2,0,4.5,2.2,5.8,4.6c0.8,5-0.5,9.9-0.6,14.9c-0.5,35.9,23.2,71,58.2,83.1c13.5,4.7,27.2,5.8,41.2,4.4c1.7-0.2,3.3-0.5,4.9,0.2
		C116.2,185.7,118.9,186.7,120.8,188.7z"/>
	<path class="st1" d="M86.5,2.5c16-2.5,31.5-0.3,46.3,5.8c27.5,11.3,46,31.3,55.4,59.5c4.1,12.3,5.1,25,4,37.9
		c-1.3,4.5-3.7,3.4-6.2,1.2c-1.4-3-0.9-6.2-0.9-9.3c0.3-24.4-8.5-45.4-25.3-62.5C143.5,18.3,123.1,9.7,99.5,9.1
		c-4.1-0.1-8.3,1-12.2-1.1C86,6.2,85.3,4.5,86.5,2.5z"/>
	<path class="st2" d="M295.9,114.6c-0.2-2.5-0.4-4.5-0.4-6.5c0-0.9-0.5-2.2,1-2.3c1.5-0.2,1.5,1.1,1.6,2c0.3,2.3,0.4,4.6,1.7,6.7
		c2.7,4.3,6.6,6.4,11.6,6.3c2.5,0,4.5-0.8,5.5-3.3c0.9-2.4,0.4-4.6-1.2-6.5c-2.4-2.9-5.9-4.3-9.1-6c-5.5-3-10.8-6.1-11.5-13.2
		c-0.9-8.2,2.9-13.9,10.9-15.9c5.4-1.3,10.8-1.4,16.2,0.5c1.1,0.4,2.2,1.1,3.3,1.1c3.3-0.1,3.2-0.2,3.1,2.9c-0.1,3.2,0,6.3,0.1,9.5
		c0,1.2,0.5,2.6-1.3,2.6c-1.5,0-1.1-1.4-1.1-2.3c-0.2-3.2-1-6.1-2.9-8.8c-1.5-2.2-3.6-3.7-6-4.2c-3.6-0.8-7.7-1-9.6,3.1
		c-1.7,3.8,1.5,6.2,4.2,8c3.2,2.1,6.7,3.7,10,5.6c7.4,4.2,10.4,10.7,8.5,18.3c-1.6,6.4-7.4,10.3-15.6,10.5
		c-4.7,0.2-9.3,0.1-13.7-1.8c-0.5-0.2-1-0.3-1.5-0.3c-4.2-0.2-4.2-0.2-3.9-5.4C295.8,114.7,295.9,114.4,295.9,114.6z"/>
	<path class="st2" d="M434.7,116.8c-3.5,3.4-7.2,5.8-12,5.9c-6,0.1-9.3-2.5-10.4-8.4c-1.3-6.8-0.3-13.6-0.7-20.4
		c-0.1-2.3,0-4.5-2.9-5.8c5.7-0.4,11-0.5,16.6-2.7c0,9.2,0,17.8,0,26.5c0,3,0,6,4.2,5.7c3.5-0.3,5.9-1.9,5.8-6
		c-0.1-5.8,0-11.6-0.1-17.5c0-2.3,0.5-5-3.2-5.9c5.6-0.8,10.8-0.6,16.4-2.6c0,10.5,0,20.5,0,30.6c0,2.1-0.9,4.9,3.9,4.5
		c-0.4,0.5-0.7,1-1.1,1.6c-5,0-10,0.4-14.9-0.2C433.9,121.9,436.1,118.7,434.7,116.8z"/>
	<path class="st2" d="M578.3,121.9c-6.4-0.1-12.6-0.1-19.1,0.2c3-1.6,3.1-4.1,3-6.8c-0.2-7.2-0.1-14.3,0-21.5c0-2.4,0-4.5-3-5.5
		c5.1-0.9,9.9-1.5,14.7-2c3.8-0.4-0.2,3.6,2.5,4.7c2.4-1.8,5.1-4.4,9-5.1c7.7-1.5,12.8,2.3,13.1,10.1c0.2,6.5,0.2,13,0.1,19.5
		c0,2.6-0.5,5.3,3.4,6.2c-6.7,0.5-13-0.2-19.7,0.4c2.7-1.5,3.2-3.6,3.1-6.3c-0.3-6.6-0.1-13.3-0.1-20c0-2.8-0.6-5.2-3.9-5.1
		c-3.2,0.1-6,1.3-6,5.1c-0.1,7.3,0.1,14.7-0.1,22C575.2,120.3,577,120.4,578.3,121.9z"/>
	<path class="st2" d="M357.6,122.7c-11.2-0.1-18.3-7.3-18.2-18.5c0.1-11.2,7.7-18.6,18.9-18.5c11,0.1,18.2,7.7,18.1,19.2
		C376.3,115.9,369,122.8,357.6,122.7z"/>
	<path class="st2" d="M206.2,122c3.8-1.4,3.2-4.3,3.2-7c0-11,0-22,0-33c0-2.4,0.4-4.8-2.8-6.1c2.9,0,5.7,0,8.6,0
		c8-0.1,16,0,23.9-0.3c2.6-0.1,3.5,0.4,3.1,3.2c-0.4,3.1-0.1,6.2-0.1,9.7c-3.5-0.8-2.8-3.7-3.6-5.5c-2-4.1-9-7-13.1-5.2
		c-1.4,0.7-1.1,1.9-1.1,3c0,4.3-0.1,8.7,0.1,13c0.1,1.5-1.3,4.2,1.5,4.3c2.4,0.1,5.6,0.7,6.5-2.9c0.2-0.8,0-1.7,1.6-1.8
		c0,3.7,0,7.4,0,11.1c-1.5,0.1-1.4-0.9-1.6-1.6c-1-3.5-3.9-3.3-6.5-3.1c-2.9,0.3-1.5,2.9-1.6,4.4c-0.2,3.8-0.1,7.7-0.1,11.5
		c0,2.3-0.8,4.9,2.7,6.2C219.9,121.8,213.2,121.8,206.2,122z"/>
	<path class="st2" d="M551.6,104.5c0.1,11-6.9,18.1-17.9,18.2c-11.6,0.1-19-7-19.1-18.2c-0.1-11.1,7.5-18.9,18.6-18.9
		C544.4,85.6,551.5,92.9,551.6,104.5z"/>
	<path class="st2" d="M249.2,76.3c7.2-0.1,13.9-0.2,21-0.3c-3,1.6-3,4.1-3,6.8c0.1,11,0.2,21.9,0,32.9c-0.1,3.3,0.6,4.7,4.3,4.5
		c7.4-0.3,11-3.3,12-11c0.2-1.4-0.2-3.6,1.9-3.4c2.2,0.3,0.8,2.4,0.8,3.7c0.1,1.8-0.3,3.6-0.3,5.5c0.2,7.7,0.2,7.7-7.5,7.3
		c-9.6-0.5-19.2-0.2-29.1-0.2c3.4-1.4,3.3-3.9,3.2-6.6c-0.1-11.1-0.1-22.3,0-33.4C252.4,79.7,252.9,77.1,249.2,76.3z"/>
	<path class="st2" d="M383.2,121.9c2.8-1,3.1-2.8,3.1-5.1c-0.1-11.3,0-22.6-0.1-33.9c0-2.5,1.3-5.7-3.5-6.5
		c6.2-0.2,11.5-0.9,15.6-4.8c1.8,1,1.1,2.5,1.1,3.7c0.1,13.6,0.1,27.2,0,40.8c0,2.4-0.4,4.9,3.2,5.8
		C396,122,389.8,121.6,383.2,121.9z"/>
	<path class="st2" d="M474,75.4c0.1,1.7,0.2,2.5,0.2,3.3c0.1,8.1,0.1,8.1,7.3,9.5c-0.3,0.4-0.7,1.1-0.9,1.1
		c-7.2-1.1-6.8,3.5-6.5,8.3c0.3,4.8,0,9.6,0.1,14.5c0,2-0.5,4.4,1.7,5.3c2,0.9,3.8-0.6,5.3-1.9c0.5-0.5,1-1,1.8-1.2
		c-2.9,5.1-6.8,8.7-13.1,8.3c-4.8-0.3-7.5-3-8.6-7.5c-1.6-6.7-0.5-13.6-0.8-20.4c-0.2-4.6,0-4.6-4.7-6.7c4,0.1,5.2-1.6,4.6-4.7
		c-0.4-2,0.4-3,2.6-3.2C466.9,80,470.3,78.2,474,75.4z"/>
	<path class="st2" d="M622.2,86.8c-2.3,0.8-5.2,0.9-5.5,4.1c-0.3,3.2,1.9,5.1,4.5,6.5c2.9,1.6,5.9,3,8.6,4.9c4.4,3,5.5,7.4,4.3,12.3
		c-1.2,4.9-4.8,7.4-9.6,8c-4,0.5-8,0.8-11.8-0.7c-1.7-0.7-3.4-1-5.1,1.8c0-5.4,0-9.5,0-13.7c2.1,0.1,1.6,1.5,1.8,2.6
		c0.4,3.5,1.9,6.4,5.2,8c2.8,1.4,5.9,2.3,8-0.9c2.2-3.3,0.5-6-2.5-7.9c-2.1-1.4-4.3-2.5-6.4-3.8c-3.3-2-6.4-4.4-7.2-8.4
		c-1.3-6.1,2-11.3,8.1-12.9c2.5-0.7,5.1-1.4,7.8-0.8c0.2,0.2,0.3,0.4,0.2,0.7C622.4,86.7,622.3,86.8,622.2,86.8z"/>
	<path class="st2" d="M488.5,121.8c1.6-1.2,3.2-1.5,2.9-4.1c-1-9.8,1.7-19.8-1.8-29.9c3.9-0.6,8.9-0.3,13.8-1.7
		c2.5-0.7,1.6,2,1.6,3.1c0.1,8.8,0,17.6,0.1,26.5c0,2.3-0.8,5,2.8,6.2C501.2,122,494.9,121.9,488.5,121.8z"/>
	<path class="st3" d="M9.6,80.6c-1.6-1.3-3.2-2.7-4.9-4c4.5-20.8,14.5-38.2,30.9-51.9c1.8,1.4,2.9,3.2,3.4,5.4
		c-0.5,2.5-2.4,3.9-4,5.5c-11.1,11-18.4,24.1-22.3,39.1C12.1,76.9,12.2,79.5,9.6,80.6z"/>
	<path class="st4" d="M120.8,188.7c-2.7-0.5-5.6-0.5-6.2-4.1c0.5-1.7,2-2.1,3.4-2.5c17.3-4.1,31.8-12.9,43.8-25.8
		c0.6-0.6,1.3-1,2.2-1.1c2.1,0.5,4.3,1,5.3,3.3c-9.1,12.1-21.4,19.9-34.9,26C130,186.5,125.5,187.9,120.8,188.7z"/>
	<path class="st5" d="M169.3,158.5c-1.5-1.1-4-0.7-4.8-3c-0.6-2.4,1.3-3.6,2.4-5.2c8.9-12,14.8-25.2,17.2-40
		c0.2-1.5-0.1-3.5,2.2-3.9c2.2,1.2,4.3,1.7,5.9-0.9C190.3,125.7,183,143.5,169.3,158.5z"/>
	<path class="st5" d="M38.4,29.6c-1.8-1.1-2.4-2.9-2.7-4.9C50.2,12,67.1,4.2,86.5,2.5c0.4,1.8,0.8,3.6,1.1,5.4
		c-0.4,2.3-2.4,2-3.9,2.2c-14,2.4-26.9,7.6-38.3,16.1C43.3,27.8,41.2,29.5,38.4,29.6z"/>
	<path class="st2" d="M504.7,76.2c0.1,3.9-3.3,7.4-7.1,7.3c-3.5,0-7-3.6-7-7c0-3.7,3.1-6.8,7-6.9C501.5,69.5,504.6,72.3,504.7,76.2z
		"/>
	<path class="st2" d="M622.2,86.8c0-0.3,0-0.7,0-1c3,0.3,5.9,0.6,8.9,0.7c1.1,0.1,1.5,0.4,1.4,1.5c0,0.3,0,0.7,0,1
		c0,3.4,0,6.8-0.7,10.5C630.2,93.9,629.2,88,622.2,86.8z"/>
	<path class="st6" d="M38.4,29.6c13.9-11,29.2-18.8,47-21.1c0.8-0.1,1.5-0.5,2.3-0.8c15.8-1,31.2,0.7,45.7,7.3
		c27.1,12.4,44,33.3,51.2,62.2c2.4,9.6,2.3,19.4,1.9,29.2c-1.7,8.2-3.2,16.5-6.6,24.3c-3.8,9-8.9,17.3-15.3,24.7
		c-11.4,12.4-24.8,21.6-41.1,26.4c-3,0.9-5.9,1.8-8.9,2.7c-6,0.4-11.9,1.1-17.9,1c-42-0.4-76.8-28.8-86.1-69.9
		c-2.7-11.7-2.2-23.4-1-35.1C13.8,60.6,23.8,43.8,38.4,29.6z"/>
	<path class="st7" d="M362.5,104.5c-0.4,4.5,0.4,9-0.9,13.4c-0.6,2.1-1.8,3.3-3.7,3.3c-2,0-3.3-1.3-3.6-3.4
		c-1.6-9-1.4-18.1-0.1-27.1c0.3-2.2,1.6-3.7,4-3.6c2.1,0.1,3,1.6,3.5,3.6C362.9,95.3,362.2,100,362.5,104.5z"/>
	<path class="st7" d="M538.1,104.4c-0.3,4.2-0.4,8.2-0.9,12.1c-0.3,2.3-1,4.8-4,4.8c-2.8,0-3.6-2.1-3.9-4.4
		c-1.3-8.6-1.2-17.2,0-25.8c0.3-2.2,1.3-3.9,3.6-4c2.6-0.1,4,1.7,4.2,4C537.6,95.6,537.8,100.1,538.1,104.4z"/>
	<path class="st8" d="M180.5,75.6c3.7,12.2,4.1,24.6,1,37c-2.5,1.6-4.9,0.4-7.2-0.3c-20.7-6.6-39.4-16.7-55.3-31.7
		c-1.1-2.6-1.5-5.4-1.8-8.2c-1.6-12.4-5.5-16.5-17.9-18.7c-1.3-0.2-2.6-0.5-3.9-0.8c-2.3-0.6-3.6-2.3-4.7-4.2
		C85,38.6,80.9,28,78.2,16.7c-0.3-1.3-0.6-2.6,0.4-3.8c13.4-2.9,26.7-3.4,40,0.8c3.3,7.6,6.6,15.1,11.2,22.1
		c12,18,28,30.8,48.1,38.5C178.8,74.7,179.7,75.1,180.5,75.6z"/>
	<path class="st9" d="M11.8,96.6c0-11.5,1.9-22.5,6.9-33c3.6,0,3.9,3.1,5,5.4c7.5,16,16.8,30.9,27.9,44.7c1.4,1.8,3.6,3,4.4,5.3
		c-1.8,5-4,9.8-5.2,15c-1,4.4,0,5.8,4.5,6.1c3.6,0.3,7.3-0.4,10.9,0.6c5,3.2,8.9,7.9,13.6,11.5c11.2,8.6,23.2,15.9,35.5,22.6
		c1.8,1,4.8,1.4,3.4,4.8c-6.8,2.3-13.8,3.2-21,2.8C61.4,161.4,32.9,132.7,11.8,96.6z"/>
	<path class="st10" d="M119.5,80.6c4.3,1.6,7.1,5.2,10.7,7.8c15.5,11.4,32.3,20,51.3,24.1c-1.7,13.1-7.1,24.6-15,35
		c-0.5,0.4-1.1,0.8-1.8,0.7c-7.3-1.1-14.3-2.8-19.9-8.2c-0.5-4.4-0.9-8.9-2.5-13.2c-2.3-6.3-6.3-10.8-12.9-12.8
		c-2.1-0.6-4.2-1.1-6.2-1.8c-4.5-1.6-8.7-1.9-12.4,2c-0.6,0.6-1.4,0.8-2.3,0.9c-2.1-0.3-3.3-1.5-3.6-3.6c4.6-6.3,8.4-12.9,10.9-20.4
		C117,87.7,116.6,83.6,119.5,80.6z"/>
	<path class="st11" d="M105.4,111.3c0.6,1.6,1.8,2.7,3.3,3.4c-0.1,2.3-2.1,2.9-3.7,3.4c-6.4,1.7-13,2.1-18.6-1.9
		c-4.5-3.2-8.8-5.5-14.4-4.8C57,95,45.1,76.5,36.5,56c-1.3-3.2-3-6.3-4-9.7c-0.5-1.9-1.4-3.8,0-5.7c4.2-5.2,9-9.9,14.9-13.3
		c2.5,1.6,2.9,4.3,3.6,6.8c4.5,14.5,11.2,28,19.4,40.7c1.7,2.6,3.8,5.1,5.9,7.4c2.3,4.8,3.1,10.1,5.2,15
		c5.3,12.6,7.8,14.4,21.4,13.6C103.8,110.9,104.7,110.8,105.4,111.3z"/>
	<path class="st12" d="M75.6,82.6c-4.9-3.2-7.2-8.5-10.1-13.2c-8.1-13.2-13.7-27.4-18.1-42.1c9.1-7.5,19.8-11.7,31.2-14.4
		c2.7,11.5,6.5,22.6,12.1,33.1c1.2,2.3,2,5,5,5.8c-0.3,1.9-2,2-3.4,2.4c-9.2,2.2-13.3,8.6-14.4,17.5C77.6,75.4,77.8,79.3,75.6,82.6z
		"/>
	<path class="st13" d="M11.8,96.6c2.3,0.5,2.9,2.6,3.9,4.2c10,16.3,22,31.1,35.4,44.7c12.7,12.8,27.1,23.3,42.3,33
		c1.6,1,3.7,1.6,4.2,3.9c-30.8,1.3-63.5-19-77-47.9C14.9,122.6,11.5,110,11.8,96.6z"/>
	<path class="st14" d="M32.6,40.7c1.6,9.5,6.3,17.9,10.4,26.3c6,12.2,13.3,23.7,21.9,34.3c2.5,3,6.3,5.1,6.7,9.6
		c0,0.3,0,0.8-0.3,0.9c-5.3,2.1-10.4,4.8-15.8,6.9c-5.9-2.7-8.5-8.5-12.1-13.3C35,93.8,27.8,81.5,22,68.5c-0.8-1.8-1.3-3.8-3.3-4.8
		C21.7,55,26.6,47.5,32.6,40.7z"/>
	<path class="st15" d="M180.5,75.6c-8.2-0.3-14.7-5.1-21.2-9.1c-10.5-6.3-19.7-14.6-26.8-24.7c-6-8.6-12.8-17.1-13.9-28.2
		c15.4,3.4,28.4,10.9,39.5,22C169.2,46.9,177.1,60,180.5,75.6z"/>
	<path class="st16" d="M145.5,139.5c6.2,4.6,13.5,6.7,21,8.1c-6.8,9.8-15.3,17.6-25.9,23.1c-16.4-6.2-31.8-14.2-45.7-24.9
		c-1.5-1.1-4.5-2.8-0.9-5.3c6.1-1.1,12.2-0.5,18.4-0.5C123.4,139.9,134.4,140.2,145.5,139.5z"/>
	<path class="st17" d="M92.6,141.7c7,7.5,16,12.2,24.9,16.9c7.1,3.8,14.6,7,21.9,10.6c0.5,0.3,0.8,1,1.2,1.5c-6.7,4.6-14.1,7.4-22,9
		c-1.8-4.5-6.6-5-10.1-7c-14.2-8.4-28.2-17-40.1-28.7c-0.7-0.7-1.3-1.5-1.9-2.3c0.8-1,1.8-1.5,3-1.5c6.6-0.4,13.3-0.4,19.9,0
		C90.7,140.3,91.8,140.7,92.6,141.7z"/>
	<path class="st2" d="M75.6,82.6c0.3-4,0.5-8,1-11.9c1.3-10.5,6.4-15.9,16.8-18.1c0.8-0.2,1.5-0.6,2.3-0.9c1.8,0.2,3.6,0.4,5.4,0.7
		c10.5,1.7,15.9,7.5,17.3,18.7c0.4,3.1,0.7,6.3,1,9.4c-1,7.4-3.2,14.5-6.6,21.2c-1.8,3.7-3.9,7.2-7.6,9.5c-10.8,3.9-17.7,1.1-23-9
		C79.2,96,77.2,89.4,75.6,82.6z"/>
	<path class="st2" d="M92.6,141.7c-8.7,0-17.3,0-26,0c-4.1-0.1-8.3-0.1-12.4-0.2c-4.6-0.1-6.3-2.1-5.2-6.5c1.5-5.7,3-11.5,6.6-16.4
		c4.3-4.7,10.5-5.7,16-7.8c5.3-1.7,9.5-1,14,3.3c5.6,5.4,16.1,5,23,0.6c5.9-7.9,13-3.7,20-2.2c11,2.4,17.6,13.9,16.8,27
		c-2,1.9-4.4,2-7,2C123.2,141.6,107.9,141.7,92.6,141.7z"/>
</g>
</svg>
