<?xml version="1.0" encoding="utf-8"?>
<svg version="1.1" id="Camada_1" xmlns="http://www.w3.org/2000/svg" xmlns:xlink="http://www.w3.org/1999/xlink" x="0px" y="0px"
	 viewBox="0 0 517.5 388.6" style="enable-background:new 0 0 517.5 388.6;" xml:space="preserve">
<style type="text/css">
	.st0{fill:#2F2E41;}
	.st1{fill:#E5E5E5;}
	.st2{fill:#F79506;}
	.st3{fill:#9F616A;}
	.st4{fill:#3F3D56;}
	.st5{fill:#A0616A;}
	.st6{fill:#434159;}
	.st7{fill:#A0626B;}
	.st8{fill:#494557;}
	.st9{fill:#A0636B;}
	.st10{fill:#A37C2C;}
	.st11{fill:#BD8D23;}
	.st12{fill:#EDEDEF;}
	.st13{fill:#BA8A20;}
	.st14{fill:#838292;}
	.st15{fill:#B08427;}
	.st16{fill:#FBFBFB;}
	.st17{fill:#4E4853;}
	.st18{fill:#474458;}
	.st19{fill:#C49630;}
	.st20{fill:#CBCBCB;}
	.st21{fill:#EAEAEA;}
	.st22{fill:#FC6729;}
	.st23{fill:#EA3D0B;}
</style>
<g>
	<path class="st0" d="M61.1,202.6c0,10.8-1.8,21.5-2.9,32.2c-1.4,13.5-2.3,27.2-4.9,40.6c-1.2,6.1-4.3,11.4-6.1,17.2
		c-2.6,8.3-3.5,17.2-4,26c-0.1,2.3-0.4,4.6-0.6,7c-0.7,6.5-0.5,12.7,1.3,19.1c1.6,5.9,2.6,12.3,5.6,17.4
		c4.2,7.2,11.2,11.6,19.6,13.2c2,0.4,4,0.6,5.8,1.3c1.7,0.6,3.5,1.8,3,4c-0.5,2-1.7,3.7-4,3.9c-2.1,0.2-4.3,0.3-6.5,0.4
		c-18.8,0.6-37.6,0.7-56.3-0.6c-6.4-0.4-7.6-1.6-6.7-8.1c0.5-3.9,1.7-7.8,2.8-11.6c1-3.6,1.3-6.9,0.7-10.8
		c-2.6-18.2-4.5-36.5-3.5-54.9c0.4-7.8,3.8-15.1,5.4-22.7c4.3-20.6,3-40.9-1.9-61.2c-1.5-6.4-5.6-12.1-4.5-19.1
		c-0.4-5.2,2.6-6.7,7.1-8c7.8-2.3,15.1-0.7,22.4,1.5C42.9,192.4,52.1,197.2,61.1,202.6z"/>
	<path class="st0" d="M491.6,198.9c-0.9,9.4,2.2,18.6,1.6,27.7c-0.8,12.7,1.2,25.5,6.9,35.8c10.2,18.5,7.4,38.4,10.2,57.6
		c0.9,6.4,1.2,12.9,2.1,19.3c0.4,2.9-0.5,4.7-3.1,5.9c-4.9,3.3-10.3,2.8-15.7,2.1c-3.2-1.4-3.6-4.6-4.2-7.5
		c-2.3-11.1-4.1-22.2-5.4-33.4c-1-9.3-3.9-17.8-8.7-25.7c-2.1-3.6-4.1-7.2-5.9-11.1c0.9,17.3,0.2,34.4,0.5,51.5
		c0.1,7.1-0.4,14.3,0.5,21.4c0.4,3.4-1,5.8-4.3,6.9c-5.3,0.3-10.6,1.6-15.7-1.1c-3-3.1-2.3-7.1-2.7-10.8c-0.7-6.3-1.3-12.6-0.9-18.9
		c1.6-23.9-4-46.7-10.6-69.3c-3.8-13-7-26.2-10.7-39.3c-1.2-4.2-1.4-8.5-0.9-12.8c2.2-0.5,3.8,0.9,5.4,2c7.9,5.7,16.3,5.8,25,2
		c4.1-1.8,8.3-3.4,12.2-5.5c1.6-0.8,3.2-1.9,5.1-1.5c2.5,2.4,2.4,6,4.3,8.7c1.9,2.6,3,2.6,4.5-0.3c0.8-1.6,0.9-3.5,1.3-5.2
		c0.5-2.3,1.1-4.6,4.1-4.6C489.9,193.5,490.7,196.3,491.6,198.9z"/>
	<path class="st1" d="M61.1,202.6c-2.1,1.4-3.4-0.5-4.8-1.3c-10.6-5.9-21.4-11.3-33.6-13.1c-5.8-0.9-11.1,0.9-16.6,2.3
		c-3.1,0.8-1.2,3.8-2.7,5.3c-0.6-1.3,0.5-3.7-1.3-3.9c-4.9-0.4-2.7-3.3-2.2-5.5c3.1-13.2,5.6-26.5,7.2-39.9c0.7-5.8-0.5-11.9-1-17.8
		C4.8,114,4.5,99.3,6.2,84.6c1.7-14,11.6-20.9,23.6-25.4c1.8-0.7,3.3-1,3.9-3.1c0.8-3,3.1-3.6,5.9-3.1c4.5,1.1,7.7,4.3,11.6,6.4
		c2.2,1.2,4.3,2.5,6.9,2.2c0.1,2.4,0.7,4.5,1.8,6.6c0.9,1.7,2.1,3.7,2,5.5c-0.5,12.6,6.8,23.4,7.7,35.6c0.3,4.1,1.1,8.2,1.6,12.2
		c-1,1.6-2.7,2.1-4.3,2.1c-8.1,0.3-16.3,1.5-24.3-0.6c-4.6-1.2-8.8-0.8-13.1,1.1c-3.9,1.7-8,3.4-11.9,5c-2.6,1.1-4.9,2.3-3.9,5.8
		c0.9,3.5,2.9,5.6,6.6,5.6c1.8,0,3.6-0.4,5.4-0.8c11.9-2.5,23.7-5.2,35.7-6.9c2.1-0.3,4.3-0.9,6.4,0.1c1.6,1.3,1,2.5,0,3.8
		c-0.8,0.9-2.1,1.3-1.9,2.9c0.6,1.7,2.9,2.6,2.4,4.8c-1.6,15.4-3.2,30.8-4.9,46.2C62.9,194.8,64.2,199.1,61.1,202.6z"/>
	<path class="st2" d="M472.4,194.7c-6.9,3.1-13.5,6.8-20.7,9.3c-8,2.7-15.2,1.4-22-3.3c-1.6-1.1-3.3-2.2-4.9-3.3
		c1.9-7.6,3.8-15.1,5.7-22.7c-0.2-0.4-0.6-0.9-0.6-1.3c1.6-7.8,2.6-15.8,6.6-23c5.7-14.3,6.4-29.3,7-44.4c0.4-8.8,1.9-17.4,4.7-25.8
		c1.3-3.8,2.8-7.5,6.7-9.4c0.4,0.1,0.6,0.3,0.7,0.6c0.5,1.6-1.6,3.7,0.2,4.6c1.8,1,3.2-1.2,4.6-2.1c3.2-2.1,6.2-4.5,9.3-6.6
		c1.6-1.1,3.1-2.7,5.4-1.6c10.1,4,19.6,8.7,27.2,16.9c3.1,3.3,4.8,7.1,6,11.3c2.3,8,3.4,16.2,4,24.5c0.1,1.5,1.1,3.3-0.9,4.5
		c-1.6,0.7-3.3,0.1-4.9,0c-4.6-0.4-8.9,0.4-13.1,2.3c-2.4,1.1-3.3,2.6-2.2,5.2c0.2,0.5,0.3,1,0.6,1.4c5.3,8.5,3.5,16.2-1,24.6
		C484.2,168.8,478.4,181.9,472.4,194.7z"/>
	<path class="st1" d="M382.6,190.6c-1-3.4-3.7-3-6.4-3c-60.9,0-121.8,0-182.7,0c-6.5,0-6.5,0-6.5-6.4c0-11,0.1-22-0.1-32.9
		c-0.1-3.4,0.9-4.6,4.5-4.6c70.5,0.1,141.1,0.1,211.6,0c3.9,0,4.8,1.3,4.7,4.9c-0.3,5.1-0.1,10.3,0,15.5c0,1.6-0.6,3.4,1,4.7
		c0.6,5.3,1.4,10.7-1,15.8c0.5,4-3.4,2.8-5,4.1c-4.6,0.6-9.2,0.4-13.8,0.4C386.6,189,384.6,189.7,382.6,190.6z"/>
	<path class="st1" d="M297.9,5.9c34.7,0,69.5,0.1,104.2-0.1c4.3,0,5.7,1,5.6,5.5c-0.3,11.3-0.2,22.6,0,33.9c0,3.4-0.8,4.6-4.4,4.6
		c-70.7-0.1-141.3-0.1-212,0c-3.8,0-4.3-1.6-4.3-4.8c0.1-11.5,0.2-22.9,0-34.4c-0.1-4.2,1.5-4.9,5.2-4.9
		C227.4,6,262.6,5.9,297.9,5.9z"/>
	<path class="st1" d="M297.4,118.7c-34.9,0-69.8-0.1-104.7,0.1c-4.7,0-5.9-1.5-5.7-5.9c0.3-10.8,0.3-21.6,0-32.4
		c-0.1-4.7,1.3-5.8,5.9-5.8c67.8,0.1,135.7,0.1,203.5,0.1c2.5,0,5,0.2,7.5,0c3.2-0.3,4,1.2,3.9,4.1c-0.1,11.6-0.2,23.3,0,34.9
		c0.1,4-1.2,5-5.1,5C367.5,118.7,332.5,118.7,297.4,118.7z"/>
	<path class="st0" d="M512.2,358.2c3.1,6.7,3.2,14.1,5.1,21.1c0.7,2.6-1,4.1-3.3,4.6c-2.6,0.5-5.3,1-7.9,1
		c-25.7,0.1-51.4,0.1-77.1,0.1c-1.5,0-3,0-4.3-0.8c-2.2-1.4-5.2-2.3-5.1-5.5c0.1-3,2.8-3.8,5.1-4.9c10.4-4.9,19.3-11.5,25.2-21.6
		c2.1-1.2,2.9,0.6,3.8,1.9c5.2,7.8,6.5,8.1,13.8,2.8c4.3,1,3.8,4.9,4.6,7.9c1.6,5.8,1.3,5.8,6.3,2c5.7-4.3,10.5-9.4,15-14.9
		c2.4-0.2,3.4,1.7,4.4,3.4c3.7,6.3,5.8,6.9,11.8,3.1C510.4,357.9,511.3,357.6,512.2,358.2z"/>
	<path class="st3" d="M472.4,194.7c-0.4-6.3,4.1-10.7,6.3-16c4.1-9.9,9-19.6,13.9-29.2c2.1-4.1,2.6-7.7,0.4-11.7
		c-0.7-1.3-1.2-2.7-1.7-4.1c-3.3-8.4-3.2-8.6,5.7-11.3c4.8-1.4,9.7-1.9,14.5,0.4c0.5,8.6,0.8,17.3,1.6,25.9c0.3,3.2-0.3,5.7-2.2,8.3
		c-5.9,8.2-11.6,16.6-17.4,24.9c-1.2,1.7-2.2,3.3-2.5,5.3c-1.5,2-2.2,4.7-4.5,6.1c-2,0.7-2.7,2.3-2.9,4.2c-0.1,1,0,2-0.3,2.9
		c-0.7,2.7-1.4,6.3-4.3,6.6c-2.5,0.3-3.1-3.3-4.2-5.4C473.5,199.5,472.5,197.2,472.4,194.7z"/>
	<path class="st3" d="M68.3,134.2c-7.9-1.1-15.4,1.7-23,3c-7.7,1.3-15.3,3.2-22.9,4.6c-6.5,1.3-11.6-3.5-10.9-9.9
		c0.2-1.7,1.3-2.2,2.5-2.7c6.4-2.7,12.9-5.4,19.3-8.1c2.3-1,4.7-0.7,6.8,0c10.3,3.2,20.7,1.9,31.1,0.5c4.5-0.3,8.8-1.6,13.1-2.9
		c0.5-0.3,1-0.4,1.6-0.3c5,1.9,7.5,5.3,7.1,9.4c-0.5,4.2-4,7.4-8.9,8c-2.1,0.3-4.3,0.2-6.4,0.1C74.5,135.3,71.5,134.4,68.3,134.2z"
		/>
	<path class="st4" d="M42.5,48.9c-0.9-2-1.6-4-2.6-5.9c-5.6-10.9,2.4-26.8,14.5-28.9c1.3-0.2,2.7-0.3,4-0.1c6.9,1.1,13.6,2.7,20.2,5
		c2.6,0.9,5.8,2.1,5.4,5.6c-0.3,3.3-0.6,7.1-4.8,8.4c-2.6,1.1-5,2.2-7.9,2.4c-2.2,0.1-3.6,1.6-4.5,3.5c-1.4,2.9-3.5,4.7-6.7,5.3
		c-1.5,0.3-2.7,1.2-3.7,2.3c-0.7,0.7-1.6,1.9-2.4,1.5C49.8,46,46.2,48,42.5,48.9z"/>
	<path class="st3" d="M475.2,65.7c-5.4,2-9.3,6.3-14.1,9.2c-2.2,1.3-4.2,4.4-6.7,2.7c-2.6-1.7,0.9-4.4,0.6-6.8
		c0.6-1.9,1.1-3.8,1.7-5.7c1-3.5,0.3-5.9-3.1-8.2c-7-4.8-7.5-12.3-6.8-20c1-4.6,4.3-5.7,8.2-5.2c4.8,0.6,9.6,0.8,14.4,0.8
		c4,0,6.5,2,6.4,6c-0.1,4.6,1.2,8.2,5.6,10.2c-0.5,2.3-1.6,4.3-3.3,5.9C474.7,57.7,474.4,61.5,475.2,65.7z"/>
	<path class="st3" d="M42.5,48.9c3.2-2.4,6.1-6.1,10.4-1.8c0.2,0.2,0.9,0.2,0.9,0.1c2.1-5.5,10.2-2.9,11.9-9.1
		c0.8-2.9,3.2-4.1,6.1-4.3c2.5-0.2,4.9-0.5,7.3-0.8c-1.8,0.9-1.7,2.1-1.3,4c2.7,12.1-4.1,21.3-16.5,22.7c-1.4,0.2-3.2-0.5-3.2,2
		c-0.8,0.7-0.7,2.9-2.8,1.5c-5.2-3.5-11-6-15.7-10.2C40.9,51.9,42,50.6,42.5,48.9z"/>
	<path class="st0" d="M481.3,48.7c-1.9-1.5-3.7-0.4-5.5,0.9c-0.5-2.9-1-5.2-1.2-7.5c-0.8-8.3-0.7-8.2-8.7-8.2c-3.3,0-6.6,0-9.9-0.8
		c-3.9-1-7.2,0.2-9.3,3.9c-1.7-9.7,0.6-13.2,11.3-17.1c9.1-3.3,13.7-2.4,18.7,3.6C484.3,32.7,485.8,40.8,481.3,48.7z"/>
	<path class="st5" d="M407.7,184.4c0.3-5.3-1.3-10.7,1-15.8c9.3-6.1,18.5-12.2,27.8-18.3c-2,8.1-4.1,16.2-6.1,24.3
		C422.8,177.9,415.2,181.2,407.7,184.4z"/>
	<path class="st3" d="M512.2,358.2c-0.7,0.3-1.7,0.5-2.1,1.1c-1.9,2.4-3.4,4.6-7.1,2.8c-2.7-1.3-5.4-2.1-6.1-5.6
		c-0.4-1.7-1.4-3.3-3.2-4.2c-1.5-1.9-1.8-3.9-0.2-5.9c5.3,0.3,10.6-0.5,15.8-1.1C510.6,349.5,509.3,354.4,512.2,358.2z"/>
	<path class="st3" d="M467.5,357.4c-5.3,6.7-10.9,6-14.4-1.8c-0.7-1.5-1.2-3.2-3.3-3.3c0.2-1.3,0.4-2.6,0.6-3.9
		c5.3,0,10.6-0.1,15.9-0.1C468.4,351.1,469.2,354.1,467.5,357.4z"/>
	<path class="st6" d="M99.2,103.6c1.3-1.8,2.9-2,4.6-0.8c4.8,3.4,10.2,5.9,14.5,10c0.1,1.4-0.8,2.1-2,2.5c-0.5,0-0.9,0-1.4-0.1
		c-1.6-0.9-3.6-0.2-5.2-1C105.6,111.3,100.4,109.5,99.2,103.6z"/>
	<path class="st7" d="M382.6,190.6c0.2-1.1-0.4-2.9,1.1-2.9c6.3,0.1,12.7-1.5,18.9,0.8C396.3,192.7,389.9,195.8,382.6,190.6z"/>
	<path class="st8" d="M114.7,114.6c0.5,0,0.9,0.1,1.4,0.1c0.1,3.1-3.5,3.8-4.1,6.4c-1.3,1.1-2.7,2.2-4,3.4
		c-6.8,7.4-13.7,14.6-21.4,21.1c-1.3,1.1-2.1,3.3-4.4,2.3c-0.9-2,0.7-3.1,1.8-4.2c9.1-9.2,18.2-18.3,27.3-27.4
		C112.3,115.4,113.2,114.5,114.7,114.6z"/>
	<path class="st9" d="M103.9,129.8c1.2,9.1-1.9,12.2-11.7,11.9C94.8,136.5,99,132.7,103.9,129.8z"/>
	<path class="st10" d="M103.9,129.8c-4.1,3.8-8.2,7.5-11.7,11.9c-4.8,3.4-7.9,8.7-13,11.8c-0.3-0.3-0.5-0.6-0.6-1.1
		c0.1-1.1,0.5-2.1,1.1-3c0.7-0.9,1.4-1.7,2.6-1.6c2.1,0,3.1-1.8,4.3-3c5.7-5.7,11.4-11.5,17.1-17.2c1.3-1.3,2.4-2.8,4.3-3.1
		C107.6,127,105,127.8,103.9,129.8z"/>
	<path class="st11" d="M486.4,193.4c0.9-2.5,1.7-5.1,4.5-6.1c2.8,3.7,2.5,7.7,0.7,11.7C490.1,196.9,488.8,194.6,486.4,193.4z"/>
	<path class="st12" d="M99.2,103.6c2.5,4.7,7.4,6.7,11.1,10c-0.3,0.4-0.7,0.6-1.1,0.8c-1.4,0.3-2.6-0.1-3.7-0.9
		c-2.9-2.3-6.4-3.3-9.8-4.5c0-2.2,1.8-3.1,3.3-4.1C99.1,104.5,99.1,104.1,99.2,103.6z"/>
	<path class="st13" d="M79.2,152.4c0,0.3,0,0.7,0,1c-3.7,0-4.6-3.6-7-5.4c-1.4-1.1-2.6-2.4-3.9-3.6c-0.8-2-3.3-2.7-3.9-5
		c3.9-0.9,4.9,2.8,7.2,4.4C74,146.9,77.4,148.9,79.2,152.4z"/>
	<path class="st14" d="M99,105c-1,1.2-2,2.4-3,3.6c-2.7,4.4-5.6,8.6-11,10.1h-0.4h-0.4C88.6,113.5,92.9,108.2,99,105z"/>
	<path class="st15" d="M112,121.1c0-3,3-4.1,4.1-6.4c0.7-0.6,1.5-1.3,2.2-1.9C118.5,117.3,114.2,118.4,112,121.1z"/>
	<path class="st16" d="M109.1,113.7c0.4,0,0.8-0.1,1.2-0.1c1.1,0.2,2,0.5,3.2-0.4c1.4-1,1.4,0.3,1.3,1.3
		c-11,10.9-22.3,21.5-32.4,33.2c-0.7,0.7-1.3,1.4-2,2c-2.2,1.5-3.5-0.1-4.9-1.5c-1.5-1.4-2.9-3-4.4-4.4c-1.5-1.5-3-2.9-4.4-4.5
		c-0.8-0.9-1.3-1.9,0-2.8c1-0.5,1.7-1.2,1.7-2.4c3.1-1.8,6-0.5,8.8,0.7c0.3,0.4,0.3,0.8,0,1.2c-0.3,0.7-1.2,1.1-0.8,2
		c0.7-0.3,0.7-1,1-1.6c2.1-2.5,4.5-1.5,6.6-0.2c1.6,1,3,1.2,4.4-0.2c6.3-6.3,12.7-12.5,18.9-19C108.2,116.2,108.4,114.8,109.1,113.7
		z"/>
	<path class="st17" d="M66.6,136.6c-0.3,3.5,3.7,4.1,4.7,6.7c0.4,0.6,0.3,1-0.2,1.5c-2.6-1.3-3.5-4.7-6.7-5.3
		C64.2,137.8,64.7,136.7,66.6,136.6z"/>
	<path class="st1" d="M109.1,113.7c1.4,2,0.3,3.3-1.1,4.6c-6.4,6.3-12.8,12.6-19,19c-2,2-3.5,2-5.4,0.2c-1.6-1.6-3.3-2.9-5.5-0.8
		c-0.5,0-0.9-0.2-1-0.8c0-0.4,0-0.7,0-1.1c2.3,0,4.6,0.1,6.9-0.2c4.1-0.6,7.3-2.7,7.7-7c0.4-4-1.4-7-5.6-8c-0.4-0.1-0.7-0.6-1-1
		c3.7-3.4,7.3-6.7,11-10.1c3.2-0.7,5.6,0.8,7.9,2.6C105.5,112.4,107.1,113.6,109.1,113.7z"/>
	<path class="st18" d="M71.1,144.8c0.1-0.5,0.1-1,0.2-1.5c3.4,1.6,4.6,6.3,9,6.5c-0.4,0.9-0.8,1.7-1.2,2.6
		C75.7,150.7,73.6,147.6,71.1,144.8z"/>
	<path class="st19" d="M77.1,136c0.3,0.3,0.7,0.5,1,0.8c0.3,1.7,0.6,3.4-1.7,3.9c-1.3,0.2-2.3-0.5-2.4-1.9
		C73.9,136.6,75.2,135.9,77.1,136z"/>
	<path class="st20" d="M210.2,178.7c-7.4,0-13.3-5.6-13.2-12.6c0.1-6.7,6.6-13.3,13.1-13.3c7.2,0.1,12.9,5.9,12.9,13
		C222.9,173.3,217.6,178.7,210.2,178.7z"/>
	<path class="st20" d="M305.4,163.6c-19.6,0-39.2,0-58.8,0c-1.2,0-2.3,0-3.5,0c-0.9,0-1.7-0.2-1.8-1.3c-0.1-1.4,1-1.6,2-1.6
		c1-0.1,2,0,3,0c39.4,0,78.7,0,118.1,0c0.5,0,1-0.1,1.5,0c1.3,0.2,3.6-0.7,3.5,1.5c-0.1,2.1-2.3,1.4-3.6,1.4
		C345.6,163.7,325.5,163.6,305.4,163.6z"/>
	<path class="st20" d="M369,170.2c-42.5,0-85,0-127.4,0c0-0.4,0-0.7,0-1.1c42.5,0,85,0,127.5,0C369,169.5,369,169.8,369,170.2z"/>
	<path class="st2" d="M305.8,29.7"/>
	<path class="st2" d="M305.2,25.1"/>
	<path class="st20" d="M210.6,109.8c-7.5,0.1-13.3-5.2-13.5-12.3c-0.2-6.6,6.2-13.4,12.7-13.6c7-0.2,13.1,5.6,13.2,12.7
		C223.1,104.1,217.8,109.7,210.6,109.8z"/>
	<path class="st20" d="M305.3,91.8c19.6,0,39.2,0,58.8,0c1.3,0,2.7,0,4,0.1c0.7,0,1.3,0.5,1.3,1.2c0.1,1-0.6,1.5-1.5,1.5
		c-1.2,0.1-2.3,0.1-3.5,0.1c-39.4,0-78.7,0-118.1,0c-0.5,0-1,0.1-1.5,0c-1.3-0.2-3.6,0.7-3.5-1.5c0.1-2.1,2.3-1.4,3.7-1.4
		C265.1,91.8,285.2,91.8,305.3,91.8z"/>
	<path class="st21" d="M369.6,101.7c-1.4,1.8-3.4,1-5.1,1c-39.4,0-78.8,0-118.2,0c-1.2,0-2.3,0-3.5-0.1c-1.1-0.1-1.8-0.7-1.8-1.9
		c0-1.2,0.7-1.8,1.8-1.9c1.2-0.1,2.3-0.1,3.5-0.1c39.4,0,78.8,0,118.2,0c1.7,0,3.7-0.8,5.1,1c-2.1,1.5-4.5,0.9-6.8,0.9
		c-37.5,0-75.1,0-112.6,0c37.6,0,75.1,0,112.7,0C365.1,100.8,367.5,100.2,369.6,101.7z"/>
	<path class="st20" d="M369.6,101.7c-42.3,0-84.7,0-127,0c0-0.6,0-1.2,0-1.8c42.3,0,84.7,0,127,0
		C369.6,100.4,369.6,101.1,369.6,101.7z"/>
</g>
<path class="st22" d="M276.1,38c-0.3,0.2-0.6,0.5-1,0.6c-0.3,0.2-0.7,0.3-1.2,0.4c-0.4,0.1-0.9,0.1-1.4,0.1c-0.8,0-1.6-0.1-2.2-0.5
	c-0.7-0.3-1.3-0.7-1.8-1.3c-0.5-0.6-0.9-1.2-1.2-1.9c-0.3-0.7-0.4-1.5-0.4-2.3s0.1-1.6,0.4-2.3c0.3-0.7,0.6-1.4,1.2-1.9
	s1.1-1,1.8-1.3c0.7-0.3,1.4-0.5,2.3-0.5c0.5,0,1,0,1.3,0.1s0.8,0.2,1.1,0.4c0.3,0.1,0.6,0.4,1,0.6c0.3,0.2,0.6,0.5,0.8,0.7l-1.2,1.5
	c-0.4-0.4-0.9-0.8-1.4-1.1s-1-0.4-1.7-0.4c-0.5,0-1,0.1-1.4,0.3s-0.8,0.5-1.1,0.9c-0.3,0.4-0.6,0.8-0.7,1.3c-0.2,0.5-0.3,1-0.3,1.6
	c0,0.6,0.1,1.1,0.3,1.6c0.2,0.5,0.4,0.9,0.7,1.3c0.3,0.4,0.7,0.7,1.1,0.9c0.4,0.2,0.9,0.3,1.4,0.3c0.6,0,1.3-0.1,1.7-0.4
	c0.5-0.3,1-0.6,1.4-1.1l1.2,1.3C276.8,37.4,276.5,37.7,276.1,38z"/>
<path class="st22" d="M288.7,35.4c-0.3,0.7-0.7,1.4-1.2,1.9c-0.5,0.6-1.1,1-1.8,1.3c-0.7,0.3-1.5,0.5-2.3,0.5s-1.6-0.1-2.3-0.5
	c-0.7-0.3-1.3-0.7-1.8-1.3c-0.5-0.6-0.9-1.2-1.2-1.9c-0.3-0.7-0.4-1.5-0.4-2.3c0-0.8,0.1-1.6,0.4-2.3c0.3-0.7,0.7-1.4,1.2-1.9
	c0.5-0.6,1.1-1,1.8-1.3c0.7-0.3,1.5-0.5,2.3-0.5s1.6,0.1,2.3,0.5c0.7,0.3,1.3,0.7,1.8,1.3c0.5,0.6,0.9,1.2,1.2,1.9
	c0.3,0.7,0.4,1.5,0.4,2.3C289.1,34,289,34.8,288.7,35.4z M286.8,31.6c-0.2-0.5-0.4-0.9-0.8-1.3c-0.3-0.4-0.7-0.7-1.2-0.9
	c-0.5-0.2-1-0.3-1.5-0.3c-0.5,0-1,0.1-1.5,0.3s-0.8,0.5-1.2,0.9c-0.3,0.4-0.6,0.8-0.7,1.3c-0.2,0.5-0.3,1-0.3,1.6
	c0,0.6,0.1,1.1,0.3,1.6c0.2,0.5,0.4,0.9,0.8,1.3c0.3,0.4,0.7,0.7,1.2,0.9c0.4,0.2,1,0.3,1.5,0.3c0.5,0,1-0.1,1.5-0.3
	s0.8-0.5,1.2-0.9c0.3-0.4,0.6-0.8,0.7-1.3c0.2-0.5,0.3-1,0.3-1.6S287,32.1,286.8,31.6z"/>
<path class="st22" d="M290.9,27.3h1.9v9.8h5.7v1.8h-7.6V27.3L290.9,27.3z"/>
<path class="st22" d="M299.9,27.3h1.9v9.8h5.7v1.8h-7.6V27.3L299.9,27.3z"/>
<path class="st22" d="M317.1,29.2h-6.2v3h5.5V34H311v3.1h6.2v1.8h-8.1V27.3h8V29.2z"/>
<path class="st22" d="M327.8,38.1c-0.3,0.2-0.7,0.4-1,0.6s-0.8,0.3-1.2,0.4c-0.4,0.1-0.9,0.1-1.4,0.1c-0.9,0-1.6-0.1-2.3-0.5
	c-0.7-0.3-1.3-0.7-1.8-1.2c-0.5-0.6-0.9-1.2-1.1-1.9c-0.3-0.7-0.4-1.5-0.4-2.3s0.1-1.6,0.4-2.3c0.3-0.7,0.6-1.4,1.2-1.9
	s1.1-1,1.8-1.3c0.7-0.3,1.4-0.5,2.3-0.5c0.5,0,0.9,0,1.3,0.1c0.4,0.1,0.7,0.2,1.1,0.3c0.3,0.1,0.6,0.3,1,0.5
	c0.3,0.2,0.6,0.4,0.9,0.7l-1.2,1.5c-0.2-0.2-0.4-0.4-0.6-0.5c-0.2-0.1-0.4-0.3-0.7-0.4c-0.3-0.1-0.5-0.2-0.8-0.2
	c-0.3,0-0.6-0.1-1-0.1c-0.5,0-1,0.1-1.4,0.3s-0.8,0.5-1.1,0.9c-0.3,0.4-0.6,0.8-0.7,1.3c-0.2,0.5-0.3,1-0.3,1.6s0.1,1.2,0.3,1.7
	c0.2,0.5,0.4,1,0.7,1.3c0.3,0.4,0.7,0.6,1.2,0.9c0.4,0.2,1,0.3,1.5,0.3c0.5,0,1-0.1,1.5-0.2c0.4-0.1,0.8-0.4,1.2-0.6v-2.2h-2.8v-1.8
	h4.6v4.9C328.4,37.6,328.1,37.8,327.8,38.1z"/>
<path class="st22" d="M338.7,29.2h-6.2v3h5.5V34h-5.5v3.1h6.2v1.8h-8.1V27.3h8L338.7,29.2L338.7,29.2z"/>
<path class="st22" d="M349.2,38.9h-1.9v-9.7h-3.5v-1.9h8.8v1.9h-3.5L349.2,38.9L349.2,38.9z"/>
<path class="st22" d="M364.1,35.4c-0.3,0.7-0.7,1.4-1.2,1.9c-0.5,0.6-1.1,1-1.8,1.3c-0.7,0.3-1.5,0.5-2.3,0.5s-1.6-0.1-2.3-0.5
	s-1.3-0.7-1.8-1.3s-0.9-1.2-1.2-1.9c-0.3-0.7-0.4-1.5-0.4-2.3c0-0.8,0.1-1.6,0.4-2.3c0.3-0.7,0.7-1.4,1.2-1.9c0.5-0.6,1.1-1,1.8-1.3
	c0.7-0.3,1.5-0.5,2.3-0.5s1.6,0.1,2.3,0.5c0.7,0.3,1.3,0.7,1.8,1.3c0.5,0.6,0.9,1.2,1.2,1.9c0.3,0.7,0.4,1.5,0.4,2.3
	C364.5,34,364.4,34.8,364.1,35.4z M362.2,31.6c-0.2-0.5-0.4-0.9-0.8-1.3c-0.3-0.4-0.7-0.7-1.2-0.9c-0.5-0.2-1-0.3-1.5-0.3
	c-0.6,0-1,0.1-1.5,0.3s-0.8,0.5-1.2,0.9c-0.3,0.4-0.6,0.8-0.7,1.3c-0.2,0.5-0.3,1-0.3,1.6c0,0.6,0.1,1.1,0.3,1.6
	c0.2,0.5,0.4,0.9,0.8,1.3c0.3,0.4,0.7,0.7,1.2,0.9c0.5,0.2,1,0.3,1.5,0.3c0.6,0,1-0.1,1.5-0.3s0.8-0.5,1.2-0.9
	c0.3-0.4,0.6-0.8,0.7-1.3c0.2-0.5,0.3-1,0.3-1.6S362.4,32.1,362.2,31.6z"/>
<path class="st22" d="M376.8,35.4c-0.3,0.7-0.7,1.4-1.2,1.9c-0.5,0.6-1.1,1-1.8,1.3c-0.7,0.3-1.5,0.5-2.3,0.5s-1.6-0.1-2.3-0.5
	c-0.7-0.3-1.3-0.7-1.8-1.3s-0.9-1.2-1.2-1.9c-0.3-0.7-0.4-1.5-0.4-2.3c0-0.8,0.1-1.6,0.4-2.3c0.3-0.7,0.7-1.4,1.2-1.9
	c0.5-0.6,1.1-1,1.8-1.3c0.7-0.3,1.5-0.5,2.3-0.5s1.6,0.1,2.3,0.5c0.7,0.3,1.3,0.7,1.8,1.3c0.5,0.6,0.9,1.2,1.2,1.9
	c0.3,0.7,0.4,1.5,0.4,2.3C377.2,34,377.1,34.8,376.8,35.4z M374.9,31.6c-0.2-0.5-0.4-0.9-0.8-1.3c-0.3-0.4-0.7-0.7-1.2-0.9
	c-0.5-0.2-1-0.3-1.5-0.3c-0.6,0-1,0.1-1.5,0.3s-0.8,0.5-1.2,0.9c-0.3,0.4-0.6,0.8-0.7,1.3c-0.2,0.5-0.3,1-0.3,1.6
	c0,0.6,0.1,1.1,0.3,1.6c0.2,0.5,0.4,0.9,0.8,1.3c0.3,0.4,0.7,0.7,1.2,0.9c0.5,0.2,1,0.3,1.5,0.3c0.6,0,1-0.1,1.5-0.3
	s0.8-0.5,1.2-0.9c0.3-0.4,0.6-0.8,0.7-1.3c0.2-0.5,0.3-1,0.3-1.6S375.1,32.1,374.9,31.6z"/>
<path class="st22" d="M386.6,38.9H379V27.3h1.9v9.8h5.7"/>
<path d="M208.2,47.5c0-12.5,0-24.9,0-37.4c0-1.6,0.7-2.2,2.1-2.1c1.9,0,3.9,0.1,5.8,0c1.7-0.1,2.1,0.7,2.1,2.3
	c-0.1,6.2-0.1,12.3-0.1,18.5s0,12.3,0,18.5"/>
<path class="st23" d="M221.2,47.2c0-6.3,0-12.4,0-18.6c0-5.9,0-11.9,0-17.8c0-2,0.6-2.8,2.5-2.6c1.9,0.1,3.7,0,5.6,0
	c1.2,0,1.7,0.6,1.7,1.8c0,12.6,0,25.1,0,37.7"/>
<path class="st22" d="M243,47.4c-3-11.8-6.1-23.7-9.1-35.5c-0.2-0.7-0.2-1.5,0.5-1.7c2.4-0.9,4.8-1.7,6.8-2.4
	c1.9-0.1,1.9,1.1,2.2,2.1c2,7.8,4,15.6,6,23.4c1,3.7,1.9,7.5,2.9,11.1c0.3,1.3,0.1,2.2-1.2,2.7"/>
</svg>
