<?xml version="1.0" encoding="utf-8"?>
<!-- Generator: Adobe Illustrator 25.3.0, SVG Export Plug-In . SVG Version: 6.00 Build 0)  -->
<svg version="1.1" id="Camada_1" xmlns="http://www.w3.org/2000/svg" xmlns:xlink="http://www.w3.org/1999/xlink" x="0px" y="0px"
	 viewBox="0 0 572 800.6" style="enable-background:new 0 0 572 800.6;" xml:space="preserve">
<style type="text/css">
	.st0{fill:#E54E27;}
	.st1{fill:#1C1B19;}
</style>
<g>
	<path class="st0" d="M500.9-3.5c22.5,0,45,0.1,67.5-0.1c3,0,3.6,0.6,3.6,3.6c-0.1,45.5-0.1,91-0.1,136.5c-1.2,0.6-1.8-0.3-2.6-0.9
		c-27.7-18.1-57.6-31.1-90-38.1c5.6-25.6,11.4-51.1,16.9-76.7C497.9,12.7,500.8,4.9,500.9-3.5z"/>
	<path class="st1" d="M543.5,431.3c1.2-0.1,1.9,0.7,2.2,1.6c3.6,10.7,8.5,20.9,11.4,31.9c1.3,4.8,1.7,9.6,0.3,14.3
		c-0.9,3.3,0.3,3.7,3,3.6c3.8-0.2,7.7-0.2,11.5-0.3c0,1.3,0,2.7,0,4c-0.8-0.1-1.7-0.2-2.5-0.2c-70.5,0-141,0-211.4-0.1
		c-4,0-4.1,1.6-4.1,4.6c0.1,58.1,0,116.3,0.1,174.4c0,1.8-1.7,5.3,1.4,5.2c2.9,0,1.4-3.5,1.4-5.4c0.1-55,0.1-110,0-164.9
		c0-4.4,0.8-6,5.7-5.9c12.8,0.4,25.7,0.1,38.5,0.1c57,0,114,0.1,171,0.1c0,1.3,0,2.7,0,4c-7.2-1.5-14.4-0.4-21.6-0.6
		c-3.5-0.1-6.9,0-10.4,0.1c-1.2-2-3.2-1.5-4.9-1.5c-19.8-0.1-39.7-0.1-59.5-0.1c-1.7,0-3.8-0.7-4.8,1.5c-35.5,0-71,0-106.4-0.1
		c-4.2,0-4.4,1.6-4.4,4.9c0.1,55.5,0.1,110.9,0,166.4c0,2.5,0.8,5.4-3.6,5.5c-4,0.1-5.4-0.9-5.4-5.2c0.1-60.5,0.1-120.9,0-181.4
		c0-4.2,1.3-5.3,5.4-5.3c20.3,0.2,40.6,0,61,0.1c3,0,5.3,0.4,4-4.2c-1.3-4.7,1.5-9,4.6-12.1c6.1-6.1,5.7-12.3,2.7-19.6
		c-3.1-7.6-5.1-15.8-7.8-23.6c-1-2.7-0.5-3.4,2.4-3.4c10.7,0.1,21.3,0,32-0.1c7.7,1.5,15.5,0.4,23.2,0.4c3.2,0,4.8,0.8,5.6,4
		c1.5,6.3,3.3,12.5,5.2,18.7c2.8,9,4.4,18.3,8.1,27c0.6,2.1,1.5,4.1,1.6,6.2c0.3,4.1,2.4,5,6.2,4.9c7.8-0.2,15.7-0.1,23.5,0.2
		c2.9,0.1,5.9-0.2,8.9,0.7c5.3,1.6,12.1,2.6,15.8-0.1c4-2.9,2.2-9.9,1.5-15.1c-0.2-1.3-0.7-2.6-1.1-3.8c-3.2-8.7-6.4-17.4-9.6-26.2
		c-0.6-1.6-1.9-3.3-0.6-5.1L543.5,431.3z M440,482.9c-2.4-7.1-4.6-13.7-7-21c-3.4,4.5-6.6,8-8.3,12.3c-2.1,5.5,0.1,8.6,5.8,8.6
		C433.5,482.9,436.5,482.9,440,482.9z"/>
	<path class="st0" d="M429.9-3.5c22.7,0,45.3,0,68,0c0.5,1.7-0.1,3.3-0.5,4.9c-2.2,9.7-4.4,19.4-6.6,29.1
		c-5,22.1-10.1,44.2-15.1,66.3c-12.9-2.5-25.9-4.3-39.1-4.6c-3.1-0.1-4.4-1-4.5-4.3C431.5,57.4,430.7,26.9,429.9-3.5z"/>
	<path class="st1" d="M475.8,96.8c5-22.1,10.1-44.2,15.1-66.3c2.2-9.7,4.4-19.4,6.6-29.1c0.4-1.6,1-3.2,0.5-4.9c1,0,2,0,3,0
		c-0.2,8.4-3,16.2-4.8,24.3c-5.5,25.6-11.2,51.2-16.9,76.7c-2.6,9.2-2.5,9,6.7,12c12.9,4.2,25.4,9.6,37.6,15.6
		c17.2,8.5,32.9,19.1,48.3,30.4c0,1.3,0,2.7,0,4c-14-10.1-27.9-20.3-43.3-28.4c-43.1-22.7-88.8-33.6-137.5-29.8
		c-69.7,5.4-127.8,35.4-175.7,85.6c-39.4,41.3-63.9,90.7-76.7,146.1c-8.2,35.2-10.7,70.7-7.4,106.6c5.8,62.1,26.4,118.7,63.9,168.9
		c1.2,1.6,4.6,3.7,2,5.6c-2,1.5-3.2-2.1-4.4-3.7c-32.8-43.3-53-92-61.5-145.4c-10.6-66.1-3.1-130.3,23.8-191.9
		c29.6-67.8,76.7-119.3,143.9-151.4c34.5-16.5,71.2-24.7,109.6-24.4c3.5,0,4.1-1.1,4-4.2c-1-30.6-1.8-61.2-2.7-91.8
		c0-1.6,0.5-3.3-0.8-4.7c1.3,0,2.7,0,4,0c0.8,32.4,1.7,64.8,2.4,97.1c0.1,3.2,1.2,3.9,4.1,3.9c15.5,0.3,30.7,3,45.8,6.3
		C474.1,105.8,474,105.8,475.8,96.8z"/>
	<path class="st1" d="M261-3.5c0.6,1.6-1,1.4-1.6,1.7C164.2,42.2,97,113.8,52.8,207.9c-16.6,35.4-28.1,72.4-35.3,110.7
		c-8.1,43-10.5,86.4-6.7,130.2c7,82.3,32.5,158.1,78.6,226.8c31.5,47,70.8,86.4,118.5,117.1c1.5,1,3.7,1.3,4.1,3.5c-2,0-4,0-6,0
		c-9.3-6.8-18.8-13.4-28-20.5c-55.7-43.1-97.3-97.4-127.1-160.9c-16.1-34.4-27.9-70.3-35.5-107.5c-8.6-41.8-11.2-84-8.8-126.6
		c2-36.7,8.3-72.6,18.5-107.8c18.8-64.3,49-122.6,93.1-173.4c31-35.6,66.9-65.2,107.9-88.5C234,6.6,242,2.7,250-1.5
		c0.8-0.4,2.5-0.2,2-2C255-3.5,258-3.5,261-3.5z"/>
	<path class="st0" d="M571.9,337.4c-4.7,0-9.3,0-14,0c-7.2,0-15.1-1.8-18.4,8.3c-0.4-0.4-0.7-0.8-1.1-1.1c0-10.5,0-21.1,0-31.6
		c0-3,2.4-2.1,4.1-2.2c9.8-0.2,19.6-0.3,29.4-0.4c0,3,0,6,0,9c-8.1,0-16.2,0-24.3,0c0,0.3,0,0.7,0,1c8.1,0,16.2,0,24.3,0
		c0,1,0,2,0,3c-8.2,1.5-16.6-0.4-24.8,1.6c8.2,1.8,16.6,0.4,24.8,1.4c0,0.7,0,1.3,0,2c-8.1,1.6-16.5-0.5-24.6,1.2c0,0.6,0,1.2,0,1.8
		c8.2,0,16.4,0,24.5,0C571.9,333.4,571.9,335.4,571.9,337.4z"/>
	<path class="st1" d="M571.9,326.4c-8.2-0.9-16.6,0.5-24.8-1.4c8.2-2.1,16.6-0.2,24.8-1.6C571.9,324.4,571.9,325.4,571.9,326.4z"/>
	<path class="st1" d="M571.9,331.4c-8.2,0-16.4,0-24.5,0c0-0.6,0-1.2,0-1.8c8.1-1.7,16.5,0.5,24.6-1.2
		C571.9,329.4,571.9,330.4,571.9,331.4z"/>
	<path class="st1" d="M571.9,320.4c-8.1,0-16.2,0-24.3,0c0-0.3,0-0.7,0-1c8.1,0,16.2,0,24.3,0C571.9,319.8,571.9,320.1,571.9,320.4z
		"/>
	<path class="st0" d="M234.7,414.9c0.1-3.8,1-7.9,0-11.4c-1.2-4.5-6.6-2.1-9.6-4c-1.1-0.7-2.5-1-3.7-1.5
		c-12.3-5.1-13.9-7.3-12.3-20.1c2.3-18.2,6.4-36,12.4-53.3c6.4-18.6,20.3-27.1,39-29.3c0.9,0.1,1.8,0.1,2.7,0.2
		c6.3,3.4,12.6,2.8,18.9-0.2c1-0.1,2-0.2,3-0.3c16.5,1.6,32.8,1,49-2.7c1.1,0.1,2.1,0,2.9-0.8c0.8,0,1.6-0.2,2.1-1
		c4.8-8.3,9.7-16.6,14.5-24.9c2.7-3.5,3.8-7.9,6.9-11.2c1.4-2.4,3.1-4.6,4.2-7.1c1.1-2.7,2.9-2.5,5-1.9c0.8,0.9,1.9,1.1,3,1.1
		c2.1,1.3,4.2,2.7,6.3,4c4.6,5.6,4.5-3.5,8.2-2.1c0,4.7-0.3,9.7,0.1,14.8c0.4,4.7-1.1,6.8-6,6.1c-1.8-0.2-4.1-0.8-5,1.9
		c-0.8,2.3-1.6,4.5-2.5,6.8c-3,6.5-6,13-9,19.4c-1,0.9-1.5,2-1.8,3.3c-6.6,15.3-20.9,20-34.7,25.2c-7,2.6-14,5.1-21.3,6.7
		c-3.4,0.7-4.5,2.3-4.2,5.9c1.5,24.4,2.8,48.7,4.2,73.1c-0.2,0.9-0.5,1.8-1.6,2c-23,3.1-46.1,5.2-69.3,3.1
		C235.7,416,235.2,415.5,234.7,414.9z"/>
	<path class="st1" d="M542.1,505.4c2.5,2.5,0.8,5.3,0.3,7.8c-2.3,9.7-6.7,18.3-13.9,25.8c3.1,1.7,6.2,1.2,9,1.8
		c3.4,0.8,6,2.5,5.7,6.4c-0.3,4.2-3.1,4.8-6.7,4.8c-9.7,0-9.7,0.1-7.6,9.8c7.3,35,14.7,69.9,21.8,104.9c0.5,2.5,3.2,6.9-0.8,7.8
		c-3.8,0.8-2.9-4-3.4-6.4c-4.3-19.5-8.4-39-12.4-58.5c-0.7-3.2-1.8-4.4-5.2-4.2c-7.3,0.3-14.7,0.3-22,0c-4-0.2-5.4,0.8-5.3,5.1
		c0.3,15.7,0.1,31.3,0.1,47c0,5-4.5,8.9-3.2,14.2c0.2,0.9-1.3,0.8-2,0.8c-12.3,0-24.6,0-37.1,0c1-4.2,3.7-5.9,7-6.9
		c2.2-0.7,4.8-0.9,1.9-4.1c-0.7-0.8-0.3-2.6-0.4-3.9c-0.9-16.1-1.8-32.2-2.7-48.4c-0.1-1.9,0.3-4-3-3.9c-2.7,0.1-3.8,0.6-4.7,3.5
		c-4.6,15.6-1.9,31.7-3.6,47.4c-0.3,2.8,1.4,6.4-3.7,7.3c-1.8,0.3-0.8,3.9-0.7,6c0,2.3-0.7,3.2-3.1,3.2c-11.8-0.1-23.6,0-36,0
		c0.6-3.7,2.8-5.8,5.6-6.4c4.6-0.9,5.2-3.1,5-7.5c-0.3-11.5,0.3-23,0.6-34.4c0.5-23.7,0.3-47.3-0.5-70.9c-0.3-8.5,0.2-17,1.8-25.3
		c2.7-13.8,13.6-23.5,27.6-24.9c5.5-0.5,11-0.5,16.4,0.7l0.2,0.2c0.6,2.7-1.1,2.5-2.9,2.5c-3.8-0.2-7.7-0.4-11.5-0.3
		c-13,0.5-22.2,7.7-26,20.2c-3,9.7-2.7,19.8-2.4,29.7c0.8,28.3,0.8,56.6-0.1,84.9c-0.1,3.8-1.9,8.9,0.4,11c2.1,1.9,7.2,0.7,11,0.8
		c7,0.1,7,0,7.1-6.7c0-3.2,0.1-6.3,0.1-9.5c0.2-31.8,0.7-63.6,3.2-95.3c1-12.7,5.4-16.3,17.7-15.2c1.8-13.2,3.5-15.9,13.6-22
		c3.3-0.5,6.6-1.2,9.9-0.5c0.1,2.5-1.8,2.2-3.5,2.5c-11.3,1.8-17.2,8.9-16.7,20.3c0.2,3.1,0.7,6.3,0.8,9.4c0,2.5,1.2,3,3.4,2.9
		c3.5-0.1,7-0.1,10.5,0c2.3,0.1,3.5-0.5,4.4-2.9c2.6-7.5,8.1-10.8,16.1-10.7c9.6,0.1,19.3-0.3,28.9-0.1c2.8,0,4.1-1,5.1-3.4
		c2-5,3.3-10,4.3-15.3C541.2,506.6,541.8,506.2,542.1,505.4z M531.2,600.3c-0.1-1.3-0.1-2.3-0.3-3.3c-2.9-14.1-5.9-28.2-8.8-42.3
		c-0.5-2.3-1.4-3-3.6-2.9c-4.7,0.1-9.3,0.1-14,0c-2.2,0-3.3,0.5-3.3,3c0.2,14.3,0.3,28.6,0.3,42.8c0,1.8,0.5,2.7,2.5,2.7
		C513.2,600.2,522.1,600.3,531.2,600.3z M453.4,595.9c0.1,0,0.2,0,0.2,0c0.5-16.5,1-32.9,1.5-49.4c0.1-2.8,0.4-5.6,0.6-8.4
		c0.1-1,0.2-2.2,1.5-2.2c1.1,0,1.6,0.9,1.7,2.1c0,0.8-0.3,2.6,1.2,1.7c1.7-1,4.3,0.3,5.1-2.2c1.6-4.7-1-8.6-6-9.1
		c-4.1-0.4-6.7,1.6-8.1,5.2c-1.2,3.3-1.8,6.7-2,10.2c-1.2,20.9-2.1,41.8-2.2,62.8c-0.1,14.1-0.4,28.3-0.8,42.4
		c-0.1,2.8,0.8,3.5,3.3,3.2c2.9-0.3,2.2-2.5,2.2-4.1C452.2,630.8,452.8,613.3,453.4,595.9z M486,576.4c-0.1,0-0.2,0-0.2,0
		c0-4.7,0-9.3,0-14c0-10.6,0-10.6-10.4-10.6c-1.2,0-2.3,0.1-3.5,0c-2.7-0.3-3.3,0.9-3.4,3.4c-0.1,10.3-0.6,20.6-0.6,30.9
		c0,4.6-2.1,10.9,0.9,13.3c2.8,2.3,8.9,0.5,13.5,0.9c3.3,0.3,3.8-1.2,3.7-4C485.9,589.7,486,583,486,576.4z M469.4,628.3
		c0.2,0,0.4,0,0.7,0c0,4.1-0.2,8.3,0,12.4c0.5,12.2,0.6,12.1,12.8,12c3,0,4-0.8,3.9-3.9c-0.4-10-0.5-19.9-0.6-29.8
		c-0.1-14.9-0.1-14.8-15.2-13.5c-2.2,0.2-2.7,0.8-2.6,3C468.9,615.1,469.1,621.7,469.4,628.3z M489,575.9c0.1,0,0.2,0,0.3,0
		c0,7.1,0.1,14.3-0.1,21.4c-0.1,3.6,2.2,3.1,4.3,2.9c2-0.2,5,1.4,4.9-2.8c-0.1-14.3,0-28.6,0-42.9c0-4.5-3.4-2.4-5.5-2.7
		c-2.1-0.3-4.2-0.5-4.1,3.1C489.2,561.9,489,568.9,489,575.9z M498.7,628.9c-0.1,0-0.2,0-0.2,0c0-6.8,0-13.6,0-20.4
		c0-4.9-3.7-2.4-5.8-2.9c-2.5-0.6-3.5,0.6-3.4,3.2c0.3,13.1,0.6,26.2,0.5,39.4c0,3.8,1.4,4.1,4.6,4.2c3.6,0.1,4.5-1.2,4.3-4.5
		C498.5,641.5,498.7,635.2,498.7,628.9z M532.3,528.5c-11.6,0-22.9-0.1-34.1,0.1c-3.3,0.1-5.9,2.2-7.5,5.1c-0.8,1.4-2.3,2.8-1.4,4.5
		c0.8,1.5,2.7,0.4,4.1,0.8c2.8,0.7,6.2-2.4,6.8-1.9c4.5,4,9.6,1,14.3,1.9C523.4,540.6,528.3,535.3,532.3,528.5z M484.9,655.5
		c-3.8,0-7.6,0-11.4,0c-1.6,0-2.4,0.5-2.4,2.3c0.1,1.9,1.4,1.6,2.5,1.6c7.6,0,15.2,0,22.9,0c1.1,0,2.3,0.2,2.4-1.6
		c0-1.8-0.9-2.2-2.5-2.2C492.6,655.5,488.8,655.5,484.9,655.5z M457.7,583.2c1.7-9.1,3.5-18.7,5.2-28.2c0.3-1.5,0.5-3.1-1.9-3
		c-1.6,0.1-3.3-0.3-3.3,2.3C457.7,564.1,457.7,573.8,457.7,583.2z M437.5,659.3c3.8,0,7.6,0,11.4,0c1.3,0,2.1-0.3,2.2-1.9
		c0-1.6-0.8-2-2.1-2c-7.5,0-14.9,0-22.3,0c-1.7,0-2.3,0.8-2.4,2.4c-0.1,2,1.4,1.4,2.4,1.5C430.2,659.4,433.8,659.3,437.5,659.3z
		 M459.2,600.2c2.2-0.7,5.5,2.3,5.6-2.4c0.2-8.3,0-16.5,0-24.8c-0.2,0-0.4,0-0.6,0C462.5,581.9,460.9,590.8,459.2,600.2z"/>
	<path class="st1" d="M305.5,413.5c1-0.3,1.3-1.1,1.6-2c2.2,1,1.6,3.1,1.7,4.8c3.8,65.7,5.3,131.4,3.8,197.2
		c-0.3,14.6-1.1,29.3-1.5,43.9c-0.1,2.8-1.1,4.2-4.4,5.1c3.9,2,7.1,2.3,10.3,2.4c2,0,4,0.2,5.6,1.7c1.4,1.3,2.7,2.9,2.1,4.7
		c-0.6,1.9-2.6,0.9-3.9,0.9c-11.8,0.1-23.7,0-35.5,0.3c-3.8,0.1-5.2-1-4.6-4.7c0.6-3.8,0.2-7-5-6.9c-2.3,0-2.8-1.6-2.9-3.8
		c-1.3-33.3-2.7-66.5-4.1-99.8c-1-23.3-2-46.6-3-69.8c0-0.8-0.3-1.5-1.4-2.2c-1.1,6.5-2.2,13.1-3.2,19.6
		c-4.5,29.7-9.9,59.3-15.8,88.8c-4.4,22.2-9,44.3-14,66.3c-0.7,3.3-2.1,4.5-5.1,4.7c-3,0.2-5.5,1-5.4,4.9c0.1,2-1.2,2.8-3.3,2.8
		c-4,0-8-0.2-11.8-1.5c-2.6-0.9-5.5-1.4-5-5.4c0.4-2.5-2.2-2.2-3.6-2.5c-3-0.6-3.6-2.2-3.2-5c4.1-25.1,8.2-50.2,12.3-75.3
		c5.6-34.6,11.2-69.2,16.8-103.9c3.3-20.4,6.6-40.7,9.9-61c0.2-1.2,0.5-2.3,1.8-2.8c0.5,0.6,1,1.1,1.4,1.7
		c-7.2,45-14.5,89.9-21.7,134.9c-5.7,35-11.4,69.9-17.1,104.8c-0.4,2.2,0.4,2.9,2.3,3.4c8.5,2.1,17.1,2.2,25.8,1.4
		c2.1-0.2,3-1.2,3.5-3.4c9.3-42.2,17.9-84.5,25-127.1c3.7-22.3,7.1-44.7,10.7-67c0.2-1.3-0.4-3.6,1.8-3.4c2,0.2,1.4,2.3,1.5,3.7
		c1.7,38.6,3.4,77.2,5.1,115.7c1.1,24.6,2.1,49.2,3.1,73.8c0.1,2.2,0.2,3.8,3,4.2c8.1,1.4,16.1,2.1,24.4,1.3
		c3.9-0.4,5.2-2.1,5.2-5.9c0.2-12,0.8-24,1-35.9C311.1,549.2,309.9,481.3,305.5,413.5z"/>
	<path class="st0" d="M497.1,469.7c-3.7-8.7-5.3-18-8.1-27c-1.9-6.2-3.6-12.4-5.2-18.7c-0.8-3.2-2.4-4-5.6-4
		c-7.7,0-15.5,1.1-23.2-0.4c9.5-10.1,20.8-17.4,34.1-21.3c0.8,0,1.5,0.2,1.9,1c0.6,6.9,4.6,11.4,10.2,11.1c5.6-0.2,9.6-4.9,9.9-11.5
		c2.6-2,5.1-0.5,7.5,0.2c9.3,2.8,15.7,9.4,21.4,16.8c1.4,3.7,2.8,7.4,4.2,11c0.7,1.7,1,3.1-0.7,4.3c0,0-0.1,0-0.1,0
		c-6.2,0.2-12,2.5-18,3.6c-2.8,0.5-2.3,2-1.7,4c2.2,7.5,4.2,15,6.3,22.5c1.8,6.4,1.8,6.4-4.9,6.8
		C515.7,468.8,506.4,469.2,497.1,469.7z"/>
	<path class="st1" d="M285.2,294.9c-1,0.1-2,0.2-3,0.3c0-1.2-0.1-2.3-0.1-3.5c-0.1-3.7-0.9-7.4,5.3-6.8c3.1,0.3,5.4-2.5,5.6-6
		c0.3-8.3,0.5-16.5-1.2-24.8c-2,0.8-2.5,2.4-3.1,3.9c-1,2.4-0.7,5.5-5,5.4c-2.2,0-2,3-0.5,4.3c2.2,2,1.7,4.1,1.3,6.4
		c-1.5,7.2-4.5,9.9-12.6,11.4c-8.2,1.5-8.2,1.5-8.6,9.9c-0.9-0.1-1.8-0.1-2.7-0.2c1.1-10.9-2.7-20.6-6.7-30.3
		c-1.8-4.4-5.3-9.6-2.4-13.7c4.5-6.3,7.9-14.1,16.5-16.6c4.6-1.3,9.2-1.8,13.8-1.1c3.8,0.6,7.3,0.3,10.7-1.3c4-1.9,5.7,0.3,6.3,3.6
		c0.8,4.2,0.4,8.5-2,12c-2,2.9-1.9,5.8-1.5,9c0.9,6.8,1.1,13.6,0.8,20.4c-0.3,5.6-2.5,9.7-8.4,10.8
		C282.9,289.1,286.1,292.7,285.2,294.9z"/>
	<path class="st1" d="M363.2,300.6c0.3-1.3,0.8-2.4,1.8-3.3c42.2,0,84.3,0,126.5,0.2c4,0,3.7-2,3.7-4.6c0-37.7-0.1-75.3,0.1-113
		c0-3.4-0.8-4.4-4.4-4.4c-49.8,0.1-99.6,0.1-149.5,0c-3.6,0-4.4,1.1-4.4,4.5c0.1,37.2,0.1,74.3,0.1,111.5c-0.8,0.8-1.9,0.8-2.9,0.8
		c0-38.1,0-76.3-0.1-114.4c0-4,1-5.4,5.3-5.4c51.3,0.1,102.6,0.1,153.9,0c4.2,0,5.4,1.2,5.4,5.4c-0.1,39.3-0.1,78.6-0.1,117.9
		c0,2.8,0.2,5.2-4,5.1C450.8,300.6,407,300.6,363.2,300.6z"/>
	<path class="st1" d="M491,399.2c-0.4-0.8-1.1-1-1.9-1c0.2-3.4-0.3-6.1-3.9-8c-4.7-2.6-5.3-7.8-6-12.6c-0.7-5.7-0.8-11.5-2-17.2
		c-1.6-7.8,6.2-18.4,14.2-20.7c7.6-2.2,15.5,1.4,19.6,9.8c2.1,4.5,4.3,7.9,9.2,9.9s6.6,6.7,6.1,12c-0.2,2.5-0.8,5-0.8,7.4
		c0,3.8,1.7,6.8,5.6,8c5.4,1.6,7.9,5,7.1,10.8c-0.6,4.1,1,7.4,3.8,10.4c4.4,4.6,4.1,5.6-2,7.9c-5.7-7.5-12.1-14-21.4-16.8
		c-2.4-0.7-4.9-2.3-7.5-0.2c-1.5-1-1.4-2.6-1.5-4c-0.5-8.9-3.4-18.1,3.1-26.3c1.2-1.5,0.8-3.6-1.7-4.2c-5.7-1.5-9.7-5.4-13.7-9.5
		c-3.7,3.8-7.7,6.7-13,6.9c-2.1,0.1-2.2,1.5-2.3,3.1c-0.4,5.7,0.2,11.3,1.2,16.9c0.5,2.9,2.3,5.1,4.9,6.6
		C492.8,391,493.6,393.7,491,399.2z"/>
	<path class="st1" d="M328.8,359.3c0-6.3-0.1-12.6,0-19c0.1-7.1,3.8-10.8,10.8-10.8c36.6,0,73.3,0,109.9,0c6.9,0,10.5,3.5,10.6,10.4
		c0.1,13.1,0,26.3,0,39.5c0,3.3-0.9,6.6-4,8.1c-3.1,1.5-3.3,3.7-3.1,6.5c0.2,2.5,0.1,5,0.1,7.5c0,1.1,0.6,2.5-0.9,3
		c-1.4,0.5-2.1-0.7-2.8-1.6c-2.4-3.4-5-6.6-7.2-10.2c-1.6-2.5-3.5-3.4-6.5-3.4c-31.5,0.1-62.9,0.1-94.4,0.1c-9.5,0-12.4-3-12.5-12.5
		C328.8,370.9,328.8,365.1,328.8,359.3z M449.9,397.2c0-3.5,0-5.8,0-8.2c0-1.6,0.1-3,2-3.4c4.2-1,5-4.2,5-8c-0.1-12.2,0-24.3,0-36.5
		c0-6.4-1.5-7.9-8-7.9c-36.2,0-72.3,0-108.5,0c-6.6,0-8.3,1.7-8.4,8.1c0,12,0,24,0,36c0,6.7,1.8,8.4,8.6,8.4c29.3,0,58.6,0.3,88-0.2
		c8.6-0.1,15.7,0.8,19.4,9.6C448.3,395.6,448.8,396,449.9,397.2z"/>
	<path class="st0" d="M467.1,504.2L467,504c2.1-1.5,3.2-3.7,3.7-6.2c1.1-2.2,3.1-1.5,4.8-1.5c19.8,0,39.7,0,59.5,0.1
		c1.8,0,3.8-0.5,4.9,1.5c0.7,2.5,1.4,5.1,2.2,7.6c-0.3,0.7-0.9,1.1-1.7,1.1c-17.7-2.6-35.4-3.5-53.3-2.7c-3.3-0.7-6.6,0-9.9,0.5
		C473.9,504.3,470.5,504.2,467.1,504.2z"/>
	<path class="st1" d="M369.8,245.3c-0.6-5.8-1.2-11.5-1.8-17.2c-0.1-1.3-0.6-2.7,0.7-3.7c1.6-1.3,2.2,0.9,3.2,1.1
		c2.7,0.3,5.6,0.6,7.5-2.2c1.4-2.1,2.9-4,4.5-5.9c0.9-1.1,1.8-2.7,3.6-1.8c1.8,0.9,1.1,2.5,0.6,3.9c-0.4,1.2-0.9,2.5-1.2,3.8
		c-0.2,0.6-0.1,1.2-0.1,1.9c6.8,0,3,5.5,4.3,8.4c0.3,2.4,0.7,4.9,1,7.3c-0.1,9.4-0.4,18.9,0,28.3c0.1,3-1.8,5.1-1.9,7.9
		c0,1.1-1.7,1.3-2.9,1.3c-4.5-0.1-8.9-0.2-13.4-0.3c0.8-2.3,1.7-4.5,2.5-6.8c0.9-2.7,3.2-2.1,5-1.9c4.9,0.6,6.4-1.4,6-6.1
		c-0.4-5-0.1-10.1-0.1-14.8c-3.8-1.4-3.6,7.7-8.2,2.1c2.5-2.9,5.2-5.6,7.6-8.6c3.1-3.8,2.8-5-2-6.5c-3.2-1-6-1.8-4.9-6.3
		c-3.4,1.9-3.1,7-7.7,6.5c0.2,3.6,0.4,7.2,0.6,10.9C371.7,246.4,370.6,246.2,369.8,245.3z M385.5,228.6c-1-0.3-1.5,0.6-1.8,1.6
		c-0.5,1.8,1.2,1.6,2,1.9c1.4,0.5,1.5-0.6,1.5-1.6C387.3,229.5,387.1,228.5,385.5,228.6z M380.6,227.7c-0.2,0.1-0.4,0.2-0.6,0.3
		c0.1,0.1,0.2,0.3,0.3,0.3c0.2-0.1,0.4-0.2,0.6-0.3C380.8,227.9,380.7,227.8,380.6,227.7z"/>
	<path class="st1" d="M353.7,265.5c-1-1.1-0.6-2.5-0.6-3.8c-0.1-7.7-0.1-7.7,7.5-7.4C357.6,257.6,356.4,262,353.7,265.5z"/>
	<path class="st1" d="M370.8,200.6c9.8,0,16.2,2.9,22.2,7c4,2.7,7.8,5.7,12,8c7.2,4,14.7,3.2,20.8-2.4c3.2-2.9,6-6.2,8.7-9.6
		c11.8-14.1,26.8-18.3,44.4-14.3c1.6,0.4,4,0.4,3.7,2.5c-0.4,2.6-2.6,1.1-4,0.8c-18-3.9-32.8,1-44,16c-2.1,2.8-4.5,5.3-7.1,7.6
		c-6.5,5.8-15.5,6.9-23.2,2.7c-4.2-2.3-8.2-5.1-12.1-7.9c-13.4-9.3-25.9-9.3-39.3-0.1c-0.7,0.5-1.3,1-2,1.4
		c-0.9,0.6-1.8,1.8-2.9,0.3c-1-1.4,0.1-2.2,1-2.9C356.1,204.5,363.9,200.7,370.8,200.6z"/>
	<path class="st1" d="M461,272.8c-3.2,0.1-4.6-0.8-4.6-4.5c0.2-21.6,0.2-43.3,0-64.9c0-3.7,1.1-5.2,4.8-4.8c2.1,0.2,4.4,0.3,6.5,0
		c5-0.8,7.1,1.2,6.5,6.2c-0.1,18.1,0,36.3-0.2,54.4c0,4.2,1.8,9.5-1,12.5c-2.5,2.7-7.6,0.4-11.5,1
		C461.3,272.7,461.1,272.8,461,272.8z M470.7,205c0.4-1.6,0.4-3-1.9-2.9c-1.8,0.1-3.7,0.2-5.5,0c-3-0.3-4,0.7-4,3.9
		c0.1,19.9,0,39.9,0.1,59.9c0,1.2-1,3.2,1.5,3.4c2.2,0.1,4.3,0.1,6.4,0.2c2.5,0.2,3.5-0.6,3.5-3.3
		C470.8,245.7,470.7,225.3,470.7,205z"/>
	<path class="st1" d="M440.1,272.8c-1.7-0.5-3.6,0.3-5-1.2c-0.1-8.7-0.1-17.4-0.2-26c0.1-5.5,0.3-10.9,0.1-16.4c-0.1-3,1-4.2,4-4
		c2.5,0.2,5,0.3,7.4,0c5-0.7,7.5,1,6.7,6.3c-0.1,12.2-0.2,24.4-0.1,36.7c0,3.5-1.1,4.8-4.5,4.5C445.7,272.5,442.9,272.7,440.1,272.8
		z M449.8,231.5c0.3-1.6,0.5-3.1-1.9-2.9c-1.7,0.1-3.3,0.2-5,0c-3.2-0.4-4.3,0.7-4.2,4c0.2,11,0,21.9,0.1,32.9c0,1.2-0.9,3,1.2,3.7
		c1.8,0.1,3.7,0,5.4,0.2c3.9,0.6,4.7-1.2,4.6-4.8C449.8,253.6,449.9,242.5,449.8,231.5z"/>
	<path class="st1" d="M412.6,275.7c-0.1,1.3-0.5,2.5-1.9,2.5c-4.6,0.1-9.3,0.1-13.9,0c-0.9,0-1.7-0.5-1.8-1.4
		c-0.2-1.2,0.5-1.8,1.6-2c0.9-0.2,1.9-0.4,3.4-1.1c-7-0.7-5.2-5.6-5.2-9.5c-0.1-5,0.1-10-0.1-14.9c-0.1-3.1,1.1-4.2,4.1-3.9
		c2.1,0.2,4.3,0,6.5,0c6.9,0,6.9,0,7.6,6.6c-0.1,5.1-0.4,10.2-0.1,15.3c0.2,4.2-1.4,5.5-5.5,5.3c-2.5-0.1-5.4-1-8.1,1.1
		C403.9,275.8,408.6,273.2,412.6,275.7z M399.6,269.2c1.6,0.1,3.3,0,4.9,0.2c3.6,0.5,5.1-0.8,4.8-4.6c-0.4-4.2-0.2-8.5-0.3-12.8
		c0.2-1,0.8-2.4-0.2-2.7c-3.2-1-6.5-0.4-9.8-0.3c-0.3,0-0.9,1-0.9,1.5c0,6.1,0.1,12.2,0.2,18.3C398.3,269.1,399.1,269.1,399.6,269.2
		z"/>
	<path class="st1" d="M420,272.8c-4.1,0.4-5.3-1.5-5.2-5.5c0.3-8.1,0.3-16.2,0.1-24.3c0-3.2,1.1-4.6,4.3-4.4c2.1,0.1,4.3,0,6.5,0
		c7,0,7,0,7.4,6.8c-0.1,4.6,0,9.2-0.2,13.9c-0.2,4.2,1.8,9.4-1,12.4c-2.5,2.6-7.6,0.4-11.5,1C420.3,272.7,420.2,272.8,420,272.8z
		 M429.8,245.4c0.2-1.4,0.7-3.1-1.8-3c-2.3,0.1-4.6,0.1-6.9,0c-2-0.1-2.5,0.8-2.5,2.6c0.1,7.3,0,14.5,0,21.8c0,0.9-0.2,2.1,1.3,2.2
		c1.6,0.1,3.3,0.1,4.9,0.4c4.2,0.6,5.4-1,5.2-5.1C429.6,258,429.8,251.7,429.8,245.4z"/>
	<path class="st0" d="M461,272.8c0.2,0,0.3-0.1,0.5-0.1c3.9-0.6,9,1.7,11.5-1c2.9-3,1-8.2,1-12.5c0.2-18.1,0.2-36.3,0.2-54.4
		c2.5,0.6,1.5,2.7,1.5,4.1c0.1,20.8,0.1,41.7,0,62.5c0,5.2-1.7,6.8-6.7,6.9c-3,0-6,0-9,0c-1.5,0-3.3,0.2-3.5-1.9
		c-0.1-1.9,1.5-1.9,2.8-2C460.6,274.4,460.8,273.6,461,272.8z"/>
	<path class="st0" d="M440.1,272.8c2.8-0.1,5.6-0.3,8.4-0.1c3.5,0.2,4.6-1.1,4.5-4.5c-0.1-12.2,0.1-24.4,0.1-36.7
		c2.4,0.2,1.7,2.1,1.7,3.4c0,12.4,0.1,24.9,0,37.3c0,3.8-1.7,6.5-6.2,6.3c-3.1-0.1-6.3,0-9.5,0c-1.4,0-3.3,0.3-3.6-1.7
		c-0.3-2.2,1.6-2.1,3.1-2.2C439.8,274.4,440,273.6,440.1,272.8z"/>
	<path class="st0" d="M420,272.8c0.2,0,0.3-0.1,0.5-0.1c3.9-0.5,9,1.7,11.5-1c2.8-3,0.8-8.2,1-12.4c0.2-4.6,0.2-9.3,0.2-13.9
		c0.6,0.1,1.1,0.1,1.7,0.2c0.1,8.7,0.1,17.4,0.2,26c-0.5,1.5,0.7,3.8-2.1,4c-4.2-2.2-8.7-0.3-12.9-1.2
		C420,273.9,420,273.3,420,272.8z"/>
	<path class="st1" d="M420.1,274.4c4.3,0.9,8.8-1,12.9,1.2c0,2.2-1.4,2.7-3.3,2.7c-3.8,0-7.6,0-11.3,0c-1.3,0-2.9,0-3.1-1.7
		c-0.1-1.8,1.5-1.9,2.8-2C418.8,274.6,419.4,274.5,420.1,274.4z"/>
	<path class="st0" d="M412.6,275.7c-4-2.4-8.7,0.1-13.3-1.8c2.7-2.2,5.6-1.3,8.1-1.1c4,0.2,5.7-1,5.5-5.3
		c-0.3-5.1,0.1-10.2,0.1-15.3c2.3,1.6,1.1,4,1.2,5.9c0.2,4.5,0.1,9,0,13.4C414,272.9,415,274.9,412.6,275.7z"/>
	<path class="st0" d="M392.1,240.7c-0.3-2.4-0.7-4.9-1-7.3C394,235.5,392.4,238.2,392.1,240.7z"/>
	<path class="st0" d="M411.6,362.6c1.7,2.2,3.2,4.7,5.2,6.7c4.4,4.6,9,4.5,13.4-0.2c1.6-1.7,3-3.6,4.6-5.2c3.5-3.5,6.9-3.6,10.6-0.4
		c3.5,3,5.3,7.2,7.3,11.2c0.9,1.7,0.4,2.9-1.8,2.8c-0.8,0-1.7,0-2.5,0c-35.3,0-70.6-0.1-105.9,0.1c-4.9,0-5.8-1.5-4.4-5.6
		c0.5-1.6,0.8-3.2,1.5-4.7c2.4-5.3,6.1-6.8,11.3-4c3,1.6,5.7,3.9,8.6,6c7.3,5.2,10.3,4.6,14.9-2.8c1-1.7,2-3.5,3-5.2
		c1.6,1.1,3.3,2.2,4.9,3.3c9.2,6.4,16.7,6.4,26.1,0.2C409.3,364,410.4,363.3,411.6,362.6z"/>
	<path class="st1" d="M411.6,362.6c-1.1,0.7-2.3,1.3-3.4,2c-9.4,6.2-16.8,6.2-26.1-0.2c-1.6-1.1-3.3-2.2-4.9-3.3
		c-8.4-7.7-18.4-9.2-29.2-7.4c-2.1,0.4-4.2,1.1-6.2,1.6c-1.1,0.3-2.4,0.6-2.8-1c-0.3-1.5,0.8-1.9,2-2.3c10.8-3.9,21.4-3.9,31.7,1.7
		c2.3,1.3,4.5,2.7,6.8,4c10.1,9.9,19,10.4,29.7,1.5c9.7-7.2,20.3-11.4,32.6-9c2.6,0.5,5.2,1.3,7.7,2c1.1,0.3,1.6,1.2,1.2,2.3
		c-0.3,1-1.3,1-2.1,0.8c-2.1-0.4-4.2-1-6.3-1.4C430.7,351.8,420.3,354.4,411.6,362.6z"/>
	<path class="st0" d="M409.3,359.4c-10.7,8.9-19.6,8.5-29.7-1.5c1.9-3.8,4.5-7,7.7-9.6c5.1-4.2,10.5-4,15,0.9
		C405.1,352.2,407.5,355.6,409.3,359.4z"/>
	<path class="st0" d="M470.7,205c0.1,20.4,0.1,40.7,0.3,61.1c0,2.7-1,3.5-3.5,3.3c-2.1-0.2-4.3-0.2-6.4-0.2c0-18.2,0-36.3,0.1-54.5
		C461,205.1,461,205.1,470.7,205z"/>
	<path class="st0" d="M449.8,231.5c0.1,11.1,0,22.1,0.2,33.2c0.1,3.5-0.7,5.4-4.6,4.8c-1.8-0.3-3.6-0.2-5.4-0.2
		c0-9.2,0.1-18.5,0.1-27.8C440.2,231.6,440.2,231.6,449.8,231.5z"/>
	<path class="st0" d="M409,252.1c0.1,4.3-0.1,8.6,0.3,12.8c0.3,3.8-1.2,5.1-4.8,4.6c-1.6-0.2-3.3-0.2-4.9-0.2c0-2.6,0-5.3,0-7.9
		C399.6,252.1,399.6,252.1,409,252.1z"/>
	<path class="st0" d="M429.8,245.4c0,6.3-0.2,12.6,0.2,18.8c0.2,4.1-1,5.8-5.2,5.1c-1.6-0.2-3.3-0.3-4.9-0.4c0-4.6,0.1-9.2,0.1-13.8
		C420.1,245.5,420.1,245.5,429.8,245.4z"/>
</g>
</svg>
