<?xml version="1.0" encoding="utf-8"?>
<!-- Generator: Adobe Illustrator 25.3.0, SVG Export Plug-In . SVG Version: 6.00 Build 0)  -->
<svg version="1.1" id="Camada_1" xmlns="http://www.w3.org/2000/svg" xmlns:xlink="http://www.w3.org/1999/xlink" x="0px" y="0px"
	 viewBox="0 0 403.7 288.6" style="enable-background:new 0 0 403.7 288.6;" xml:space="preserve">
<style type="text/css">
	.st0{fill:#E5E5E5;}
	.st1{fill:#2F2E41;}
	.st2{fill:#FDB7B7;}
	.st3{fill:#E9E9E9;}
	.st4{fill:#E7E7E7;}
	.st5{fill:#FCB7B7;}
	.st6{fill:#FDB8B8;}
	.st7{fill:#EDEDED;}
	.st8{fill:#FBB6B7;}
	.st9{fill:#E4E4E4;}
	.st10{fill:#F6B5B6;}
	.st11{fill:#D0D0D0;}
	.st12{fill:#FCFCFC;}
	.st13{fill:#FCFBFB;}
	.st14{fill:#D8D8D8;}
	.st15{fill:#E6E6E6;}
	.st16{fill:#434159;}
	.st17{fill:#FEFEFE;}
	.st18{fill:#F8A826;}
</style>
<g>
	<path class="st0" d="M126.9,34.3c4,1.7,7.8,3.7,11.9,5c12.4,3.8,15.9,13.8,17.9,25c1.6,9,2.4,18.1,2.4,27.1
		c0,5.5-1.4,11.1-2.4,16.6c-1.3,7.1-1.5,14.4-3.8,21.3c-2.6-2.6-6.1-3.5-9.4-4.9c-1.4-2,0.4-4.1-0.3-6.3c0-0.5-0.8,0.5-0.2,0.2
		c0.8,3.7-1.3,7.5,0.4,11.2c0.3,3-0.9,5.2-3.5,6.6c-5.7,2.3-11.5,2.9-17.6,2c-13.6-2-26.4-6.5-38.4-13.1c-1.4-0.8-2.9-1.6-4-2.9
		c-0.6-2.4-1.2-4.7-4.1-1.8c-1.9-4.5-1.2-9.4-1.7-14.1c-1.2-12.8-0.1-25.4,4.5-37.7c2.2-5.9,3.7-12,5.2-18.2
		c0.6-2.5,1.9-4.1,4.2-5.1c3.3-1.5,6.4-3.6,9.9-4.8c5.8-1.9,9.1-6.1,11.9-11.1C114.2,35.1,120.2,35.7,126.9,34.3z"/>
	<path class="st1" d="M79.8,121c14.1,8.9,29.5,14.4,46.1,16.1c4.8,0.5,9.5-0.6,14-2.1c4.1,0.5,3,2.9,2,5.3
		c-0.4,16.2-2.2,32.3-6.1,48.1c-1,4.2-0.1,9.4,1.1,13c2.3,7.1,0.4,13.4-0.4,20c-1,8.5-3.4,16.9-4.4,25.4c-0.5,3.8-2,5.5-5.4,6.3
		c-3.5,1.4-6.7,0.5-9.8-1.3c-2.2-2.4-1.9-5.3-1.5-8.1c1-6.5,0.1-13,0.9-19.4c3-24.2-4.1-47.2-7.7-70.5c-0.5,2.4-1.2,4.9-2.3,7.1
		c-4.6,9.9-4.7,21-8.4,31.2c-0.6,1.7,0.1,3.3,0.9,4.7c3.4,5.9,4.3,12.6,5,19.2c0.4,4,0.3,8,0.9,11.9c0.5,2.9-0.5,5.6-2.5,7.8
		c-3.8,3.6-8.1,2.8-12.5,1.5C81,211.9,73.2,186.5,77.5,159c1.8-11.5-0.9-23.1-0.9-34.7C76.6,122.1,77.6,120.9,79.8,121z"/>
	<path class="st0" d="M73.8,275.1c-24.6,0-49.2,0-73.8,0c0-0.3,0-0.5,0-0.8c14.6,0,29.2,0,44.5,0c-5.8-13-7.2-25.9-4.2-40.3
		c1.3,7.7,3.5,14,6.1,21.1c2.3-19,9-35.3,19.6-50.2c-0.2,6.6-1.7,13.1-2.6,19.6c-0.7,5.4-1.1,10.9-1.4,16.3
		c-0.5,9.4-1.8,18.8-1.4,28.3c0.1,3.8,0.9,5.8,5,5.1c2.4-0.4,5,0.9,7.1-1c0.8-0.3,1.2,0.2,1.4,0.9C74.3,274.4,74.1,274.8,73.8,275.1
		z"/>
	<path class="st1" d="M108.8,27.5c-3.4-5.7-5.7-11.5-2.8-18.2c3.3-7.5,13.8-12.5,21.3-7c4.9,3.6,10.9,6.2,10.1,13.8
		c-2,1.9-4.4,2.6-6.9,1.7c-6.9-2.4-10.8,2.2-14.3,6.5C114,27,112.2,28.5,108.8,27.5z"/>
	<path class="st1" d="M73.8,274.2c-0.3-0.3-0.7-0.7-1-1c0.2-4.6,3.6-7.3,6.4-10.2c3.5-3.5,7-6.9,9.1-11.5c0.6-1.4,1.4-2.7,3.4-2.1
		c3.3,1.7,6,1.3,8.8-1.5c1.6-1.7,3.4-3.6,5.9-4.3c4.6,1,4.7,5,5.4,8.5c0.7,3.3-1.3,5.2-4,6.7c-2.3,1.3-4.3,3.1-7.2,2.7
		c-2.4-0.3-3.6,1.5-4.4,3.3c-2.3,5.4-6.6,8-11.9,9.4C80.8,274.7,77.3,275.1,73.8,274.2z"/>
	<path class="st2" d="M108.8,27.5c2.5-1.3,6.8-0.5,6.1-5.5c-0.1-1,1.1-1.5,2.2-1.3c0.8,0.2,2.1,0.6,2.1-0.3c0.3-6.8,6.2-4.5,8.7-4.1
		c3.3,0.5,6.3,0.1,9.5-0.2c0,7.2-2.6,12.9-9.5,16.1c-0.9,0.4-1.1,1.1-1.1,2c-1.2,3.6-4.2,2-6.4,1.9c-6.9-0.2-9.8-2.3-10.9-6.9
		C109.4,28.7,109.1,28.1,108.8,27.5z"/>
	<path class="st1" d="M125.6,264.4c2.9,2.7,1.2,7.2,4,9.9c1,0.4,0.6,1.4,1,2.1c0.1,0.5,0.1,1,0.3,1.5c1.1,3.5,3.8,7.2-0.8,10
		c-3.5,2.1-13.2-0.6-15-3.8c-1.5-2.8,1-6.2-1.2-8.9c-0.4-0.4-0.8-0.9-1-1.4c-0.7-3.6-1.2-7.1,2.8-9.3
		C119,263.6,122.3,261.6,125.6,264.4z"/>
	<path class="st3" d="M402.6,9.3c1.6,1.5,1,3.4,1,5.2c0,73.2,0,146.3,0,219.5c0,1.7,0.7,3.7-1,5.2c-0.2-0.2-0.4-0.5-0.7-0.7
		c-1.2-2.3-0.9-4.9-0.9-7.3c0-71.2,0-142.5,0-213.7c0-2.5-0.3-5,0.9-7.4C402.2,9.8,402.4,9.6,402.6,9.3z"/>
	<path class="st4" d="M251.7,239.2c-1.6-1.5-1-3.4-1-5.2c0-73.2,0-146.3,0-219.5c0-1.7-0.7-3.7,1-5.2c0.2,0.2,0.4,0.5,0.7,0.7
		c1.2,2.3,0.9,4.9,0.9,7.3c0,71.2,0,142.5,0,213.7c0,2.5,0.3,5-0.9,7.4C252.1,238.7,251.9,238.9,251.7,239.2z"/>
	<path class="st5" d="M105.8,244.2c-1.8,1.7-3.7,3.2-5.2,5.1c-3.1,3.9-5.9,4.2-8.9,0.1c2.2-5.6,1.6-9.8-1.8-12.1
		c4.1,0.3,8.1,0.2,11.7-2.2C105.6,236.9,106,240.4,105.8,244.2z"/>
	<path class="st0" d="M130.6,276.4c-1-0.4-0.9-1.3-1-2.1c51,0,102,0,153.9,0c-2.5,1.4-4.4,0.9-6.1,0.9c-46.9,0-93.8,0-140.7,0.1
		C134.6,275.2,132.3,274.3,130.6,276.4z"/>
	<path class="st6" d="M142,140.3c-0.9-1.7,1-4.4-2-5.3c2-1.4,2.4-3.6,2.7-5.8c-0.9-1.9-0.3-3.5,1.2-4.9c4.1-0.3,7.7,0.3,9.1,5
		c-0.4,3.3-1.5,6.3-3.2,9.1C147.7,141.5,145.3,142.8,142,140.3z"/>
	<path class="st7" d="M402.6,239.2c-1.5,1.7-3.4,1-5.2,1c-46.9,0-93.7,0-140.6,0c-1.7,0-3.7,0.7-5.2-1c0,0,0,0,0,0
		c1.9-1.7,4.3-1.6,6.6-1.6c45.9,0,91.8,0,137.7,0C398.3,237.6,400.7,237.5,402.6,239.2L402.6,239.2z"/>
	<path class="st3" d="M251.7,9.3c1.5-1.7,3.4-1,5.2-1c46.9,0,93.7,0,140.6,0c1.7,0,3.7-0.7,5.2,1c0,0,0,0,0,0
		c-1.9,1.7-4.3,1.6-6.6,1.6c-45.9,0-91.8,0-137.7,0C256,10.9,253.6,11,251.7,9.3L251.7,9.3z"/>
	<path class="st8" d="M125.6,264.4c-3.4-0.9-6.5,0.8-9.7,0.9c-1.1-4.9-1.4-9.6,1.9-13.9c3,0.6,6,1.2,9,1.8
		C126.4,256.9,126,260.6,125.6,264.4z"/>
	<path class="st9" d="M113.6,274.1c0.1,0.3,0.2,0.6,0.3,1c-13.4,0-26.7,0-40.1,0c0-0.3,0-0.7,0-1c3.7,0.2,7.4,0.2,11-0.9
		c7.6-1.1,15.2-0.6,22.7-0.6C109.7,272.6,111.9,272.5,113.6,274.1z"/>
	<path class="st10" d="M79.8,121c-1.6,0.5-2.3,2-3.1,3.3c-1.2-1.1-0.7-2.6-1-3.9c0-4.1,2.8-2.9,5.4-2.9
		C80.6,118.7,80.2,119.8,79.8,121z"/>
	<path class="st11" d="M141.8,87.3c-0.6-8.6-3.1-16.9-3-25.5c0-1.9-0.4-4,1.8-5.7c0.7,9.9,1.5,19.6,2.2,29.2
		C143.3,86.4,143.6,87.4,141.8,87.3z"/>
	<path class="st12" d="M92,80.2c1.5,6.4,0.7,10.7-3.3,17.2"/>
	<path class="st13" d="M143.8,124.3c-0.4,1.6-0.8,3.3-1.2,4.9c-3.1-4.1,0.7-7.9,1.2-11.8C143.8,119.7,143.8,122,143.8,124.3z"/>
	<path class="st14" d="M141.8,87.3c0.8-0.4,1-1.2,1-2c1.9,2.5,0.6,5.3,0.4,8.1C142.7,91.3,142.2,89.3,141.8,87.3z"/>
	<path class="st15" d="M326.9,196.2c-8.2,0-16.3,0-24.5,0c-6.8,0-12.8-4.5-14.5-10.8c-1.9-7,1.1-14,7.3-17.4
		c3.3-1.8,6.8-2.7,10.5-2.7c14.3,0,28.6-0.1,42.9,0c11.4,0.1,18.3,6.8,18,17.3c-0.2,7.3-6.5,13.6-13.8,13.7
		C344.2,196.3,335.5,196.2,326.9,196.2z"/>
	<path class="st16" d="M327,52.2c8,0,16-0.1,24,0c8.6,0.1,15.1,5.7,15.8,13.5c0.8,8.7-4.2,15.3-13.2,17c-0.8,0.2-1.6,0.4-2.5,0.4
		c-16,0-32,0.3-47.9-0.1c-10.1-0.2-16.3-7.2-15.8-16.7c0.4-7.6,6.4-13.8,14.1-14C310,52,318.5,52.2,327,52.2
		C327,52.2,327,52.2,327,52.2z"/>
	<path class="st15" d="M325.2,140.2c-7.5-0.6-16.7,1.1-25.8-1c-8.5-2-12.6-8.2-11.7-17.5c0.7-6.9,7.3-12.4,15.1-12.4
		c16.2,0,32.3,0.3,48.5-0.2c7.5-0.2,14.5,5.9,15.4,12.2c1.3,8.9-3.4,15.7-12,18c-5.9,1.6-11.9,0.7-17.9,0.9
		C333.4,140.3,330.1,140.2,325.2,140.2z"/>
	<path class="st17" d="M327.5,168.2c8,0,16-0.1,24,0c7.7,0.1,13.2,5.6,13.2,13.1c0,7.3-5.6,12.8-13,12.8c-16.3,0.1-32.6,0.1-48.9,0
		c-7.7,0-13-5.5-13-13.2c0-7.4,5.1-12.6,12.9-12.7C310.9,168.1,319.2,168.2,327.5,168.2z"/>
	<path class="st17" d="M327.1,54.3c8,0,16,0,23.9,0c7.2,0,12.9,4.8,13.6,11.2c0.8,7.5-3.2,13.2-10.6,15c-1.1,0.3-2.3,0.6-3.4,0.6
		c-15.6,0-31.2,0.2-46.9,0c-8.6-0.1-14.4-6.1-14.2-14c0.2-7,5.6-12.6,12.7-12.8C310.5,54.2,318.8,54.3,327.1,54.3z"/>
	<path class="st17" d="M310.4,138.2c-3.1,0.1-6.2-0.1-9.4-0.8c-8-1.7-12.1-6.9-11.4-14.8c0.6-6.8,6.2-11.3,13.9-11.4c8,0,16,0,24,0
		c7.8,0,15.6,0,23.5,0c7.5,0,13.2,5,13.6,11.8c0.5,7.6-3.6,13.1-11.4,14.2"/>
	<path class="st0" d="M304.6,191.2c-6.1,0-9.9-3.8-10-9.9c0-6.5,3.8-10.2,10.7-10.1c5.8,0.1,10.2,4.2,10.3,9.8
		C315.8,186.9,311.1,191.2,304.6,191.2z"/>
	<path class="st18" d="M349,77.6c-6.2,0.1-10.6-4.1-10.6-10.1c0-5.9,4.3-10.2,10.4-10.3c5.8,0,10.7,4.5,10.8,10.1
		C359.6,73.2,355.2,77.6,349,77.6z"/>
	<path class="st0" d="M305.3,134.3c-6.7,0-10.6-3.5-10.7-9.7c-0.1-6.4,3.8-10.3,10.1-10.3c5.8,0,10.6,4.6,10.8,10.2
		C315.8,129.8,311.1,134.2,305.3,134.3z"/>
</g>
</svg>
