<?xml version="1.0" encoding="utf-8"?>
<!-- Generator: Adobe Illustrator 25.3.0, SVG Export Plug-In . SVG Version: 6.00 Build 0)  -->
<svg version="1.1" id="Camada_1" xmlns="http://www.w3.org/2000/svg" xmlns:xlink="http://www.w3.org/1999/xlink" x="0px" y="0px"
	 viewBox="0 0 595.28 841.89" style="enable-background:new 0 0 595.28 841.89;" xml:space="preserve">
<style type="text/css">
	.st0{fill:#313143;}
	.st1{fill:#CDCCCD;}
	.st2{fill:#E5E5E5;}
	.st3{fill:#F79506;}
	.st4{fill:#F3B4B8;}
	.st5{fill:#FEFEFE;}
</style>
<g>
	<path class="st0" d="M448.16,684.89c-4.41-1.26-5.57-4.43-5.72-8.69c-0.52-15.79,2.02-31.23,5.36-46.54
		c8.78-40.28,21.94-79.22,36.4-117.76c0.7-1.87,1.28-3.78,1.92-5.67c1.02-0.17,1.91-0.13,2.6,0.85c5.21,7.39,12.97,8.9,21.26,9.16
		c0.18,0.8,0.44,1.58,0.54,2.39c0.43,3.77,2.17,6.46,5.94,7.65c3.79,1.2,6.66-0.19,9.24-2.9c2.37-2.49,4.92-4.82,7.39-7.22
		c1.41-0.12,2.68,0.26,3.79,1.13c9.7,20.72,13.73,43.03,17.97,65.23c6.15,32.19,10.43,64.68,14.37,97.22c0.5,4.16-0.33,6.81-4.4,8.1
		c-4.07,0.57-7.59,3.14-11.78,3.29c-2.38-1.36-3.07-3.82-4.01-6.12c-14.54-35.9-29.07-71.81-43.64-107.7
		c-0.59-1.46-0.62-3.87-2.42-3.98c-2.47-0.16-2.15,2.59-2.67,4.13c-11.87,34.77-23.66,69.57-35.43,104.37
		c-0.97,2.87-1.91,5.68-4.85,7.18C456.06,687.64,452.11,686.26,448.16,684.89z"/>
	<path class="st1" d="M536.88,517.29c-1.12-0.87-2.38-1.25-3.79-1.13c-2.38-5.48-6.86-8.24-12.53-7.88
		c-4.84,0.31-9.44,2.16-10.58,7.96c-8.29-0.26-16.05-1.77-21.26-9.16c-0.69-0.98-1.58-1.03-2.6-0.85c0.32-4.38,5.47-5.68,6.14-10.16
		c0.55-3.69-1.54-10.3-4.99-11.73c-1.07-0.44-2.07,0.02-2.77,0.66c-6.72,6.16-15.62,5.91-23.69,7.91
		c-10.12,2.5-20.39,4.39-30.57,6.66c-2.52,0.56-4.89,0.94-7.19-0.56c-0.07-4,0.44-8.06-1.05-11.94c0.17-2.04,1.57-2.5,3.32-3.06
		c15.02-4.76,30.05-9.52,44.98-14.55c9.72-3.27,17.78-9.09,24.81-16.64c10.13-10.89,23.22-14.87,37.76-14.56
		c1.87,0.04,3.92,0.99,5.54,2.04c7.36,4.8,15.44,8.46,20.02,16.98c2.84,5.29,6.74,10.17,10.8,14.85c6.56,7.56,4.41,16.08-4.88,22.82
		c-8.45,6.12-16.75,12.45-25.13,18.67C537.94,514.55,537.05,515.68,536.88,517.29z"/>
	<path class="st2" d="M225.05,408.13c-52.96,0-105.93,0.05-158.89-0.02c-21.07-0.03-37.94-19.6-33.54-41.64
		c3.28-16.42,17.24-28.33,35.2-28.33c104.43,0.05,208.86-0.01,313.29,0.05c19.06,0.01,29.98,8.25,36.18,26.05
		c3.63,10.42,1.42,20.86-5.7,29.88c-7.85,9.94-17.89,14.19-30.64,14.12C328.98,407.95,277.02,408.12,225.05,408.13z M288.72,403.28
		c32.16-0.04,64.31-0.25,96.47-0.07c19.69,0.11,33.51-21.86,26.77-40.03c-4.74-12.78-14.81-19.71-28.25-19.88
		c-31.98-0.4-63.98-0.06-95.97-0.02c-2.29-2.86-5.25-0.8-7.78-0.81c-37.78-0.16-75.55-0.12-113.33-0.13c-1.49,0-3.01-0.18-4.32,0.8
		c-31.44,0-62.88,0.08-94.32-0.02c-14.68-0.04-27.57,9.67-30.56,24.46c-3.96,19.58,12.84,35.97,28.63,35.7
		c27.27-0.47,54.56-0.17,81.84-0.09c4.88,0.01,9.76,0.52,14.65,0.8c40.6,0.03,81.21,0.05,121.81,0.08
		C285.86,404.07,287.36,404.08,288.72,403.28z"/>
	<path class="st2" d="M566.77,703.08c8.83,0.42,17.33,2.49,25.67,5.28c1.22,0.41,2.37,1.21,3.38,2.04c2.64,2.2,2.93,3.99-0.52,6.05
		c-5.72,3.41-12.17,4.37-18.42,5.38c-14.52,2.35-29.2,3.38-43.9,4.36c-23.77,1.59-47.55,1.14-71.27,0.54
		c-19.94-0.5-39.93-2.41-59.51-6.89c-2.42-0.55-4.79-1.41-7.07-2.37c-2.14-0.9-4.79-2.14-4.56-4.65c0.21-2.33,2.72-3.69,4.98-4.41
		c3.47-1.1,6.98-2.19,10.55-2.82c8.45-1.49,16.95-2.73,25.44-3.97c0.92-0.13,1.94,0.41,2.91,0.63c-0.82,1.23-1.75,2.4-2.44,3.7
		c-2.39,4.54-1.7,5.75,3.29,5.77c6.77,0.03,13.54,0.04,20.31,0.01c8.55-0.04,6.85,0.48,6.98-7.21c0.03-1.48,0.13-2.96,0.2-4.44
		c4.31-0.03,8.62-0.08,12.94-0.08c17.91,0,35.83-0.07,53.74,0.11c2.72,0.03,6.35-1.25,7.85,2.76c-0.55,1.16-1.11,2.31-1.64,3.49
		c-2.03,4.57-1.53,5.35,3.49,5.36c5.95,0.02,11.91,0,17.86,0C565.93,711.73,565.93,711.73,566.77,703.08z"/>
	<path class="st0" d="M510.95,431.06c-7.34-0.53-14.18-6.32-15.88-14.33c-5.24-24.68,12.13-39.26,28.91-38.38
		c3.3,0.17,3.77-0.94,2.68-3.71c-1.77-4.51-1.41-8.84,1.72-12.68c1.35-1.65,2.87-3.26,5.89-2.6c-2.12,3.3-6.06,5.52-5.32,9.99
		c1.79,0.27,2.36-1.26,3.4-1.95c5.66-3.78,12.44-2.96,16.6,2.1c4.01,4.89,3.84,11.84-1.03,16.22c-2.43,2.19-2.42,3.5-0.75,6
		c5.22,7.85,5.59,16.62,3.64,25.47c-1.78,8.04-9.22,13.9-16.7,13.88c5.13-4.13,9.32-8.88,10.44-15.69c0.76-4.6,0.17-8.88-2.57-13.02
		c0.01,4.39-2.21,5.15-5.81,5.06c-8.98-0.22-17.97-0.11-26.96-0.04c-2.64,0.02-5.24,0.29-6.38-4.02c-3.21,9.96-1.2,17.49,5,24.12
		C508.9,428.62,510.93,428.98,510.95,431.06z"/>
	<path class="st3" d="M203.21,455.25c0-5.33,0.12-10.66-0.04-15.98c-0.13-4.46,2.26-6.63,6.27-6.7c10.65-0.19,21.31-0.1,31.96-0.04
		c3.49,0.02,5.78,1.72,5.84,5.4c0.19,11.47,0.42,22.95,0.32,34.42c-0.03,3.56-2.86,5.2-6.16,5.24c-10.32,0.13-20.65,0.26-30.96,0.01
		c-6.56-0.16-7.14-1.07-7.22-7.86C203.17,464.91,203.21,460.08,203.21,455.25z M221.67,453.72c-1.06-0.35-2.05-0.43-2.39,0.89
		c-0.53,2.03,0.53,3.43,1.89,4.78c1.26,1.25,2.44,1.6,3.81,0.24c2.44-2.42,4.8-4.95,7.4-7.19c1.73-1.49,2.32-3.03,0.54-4.49
		c-1.78-1.46-2.82,0.11-3.91,1.52C227.18,451.85,225.64,454.99,221.67,453.72z"/>
	<path class="st4" d="M510.95,431.06c-0.02-2.08-2.05-2.44-3.13-3.6c-6.2-6.64-8.21-14.16-5-24.12c1.13,4.32,3.74,4.05,6.38,4.02
		c8.99-0.07,17.98-0.18,26.96,0.04c3.61,0.09,5.83-0.67,5.81-5.06c2.75,4.14,3.33,8.43,2.57,13.02
		c-1.12,6.81-5.31,11.56-10.44,15.69C526.39,435.16,518.67,434.55,510.95,431.06z"/>
	<path class="st2" d="M121.12,454.83c0,5.33-0.04,10.66,0.01,15.98c0.03,3.63-1.3,5.34-5.31,5.4c-9.78,0.14-19.57-0.71-29.37,0.74
		c-5.79,0.85-8.31-1.94-8.32-7.65c-0.02-9.66-0.03-19.31,0.01-28.97c0.02-5.36,1.82-7.16,7.19-7.19c9.66-0.04,19.32-0.06,28.97,0.01
		c5.58,0.04,6.77,1.27,6.81,6.7C121.15,444.84,121.13,449.83,121.12,454.83z M116.1,455.6c0-3.83-0.16-7.66,0.05-11.48
		c0.18-3.44-1.35-4.95-4.62-4.96c-7.82-0.02-15.64,0.02-23.47-0.03c-2.72-0.02-3.94,1.16-3.93,3.9c0.05,7.99,0.07,15.98-0.02,23.96
		c-0.03,3.01,1.3,4.19,4.22,4.13c4.16-0.09,8.32-0.02,12.48-0.02C116.1,471.09,116.1,471.09,116.1,455.6z"/>
	<path class="st2" d="M350.47,476.12c-5.33,0-10.66-0.06-15.98,0.02c-3.78,0.05-5.44-1.71-5.42-5.46c0.06-10.32,0.03-20.64,0-30.97
		c-0.01-4.27,2.02-6.55,6.32-6.57c10.16-0.04,20.31,0,30.47-0.02c4.43-0.01,6.26,2.25,6.23,6.54c-0.06,10.32-0.07,20.65,0.01,30.97
		c0.03,3.94-1.45,5.77-5.65,5.55C361.14,475.92,355.8,476.12,350.47,476.12z M367.05,454.88c0-3.65-0.12-7.31,0.04-10.96
		c0.14-3.3-0.96-4.9-4.54-4.83c-7.64,0.16-15.28,0.12-22.92,0.01c-3.08-0.04-4.62,0.96-4.57,4.28c0.11,7.81,0.09,15.61,0.01,23.42
		c-0.03,2.85,0.95,4.34,4.02,4.31c7.97-0.08,15.95-0.08,23.92,0c3.04,0.03,4.13-1.38,4.06-4.27
		C366.97,462.86,367.04,458.87,367.05,454.88z"/>
	<path class="st0" d="M462.8,700.08c-0.07,1.48-0.18,2.96-0.2,4.44c-0.13,7.69,1.57,7.17-6.98,7.21
		c-6.77,0.03-13.54,0.02-20.31-0.01c-4.99-0.02-5.68-1.23-3.29-5.77c0.69-1.3,1.62-2.47,2.44-3.7c4.35-3.54,9.61-2.82,14.64-3.14
		c3.66,0.24,7.33,0.48,10.98-0.15C460.98,699.33,461.89,699.71,462.8,700.08z"/>
	<path class="st0" d="M566.77,703.08c-0.84,8.65-0.84,8.65-9.74,8.65c-5.95,0-11.91,0.02-17.86,0c-5.03-0.02-5.53-0.79-3.49-5.36
		c0.52-1.17,1.09-2.32,1.63-3.49c4.63-3.89,10.27-3.61,15.79-3.8c3.94,0,7.87,0,11.81,0C567.13,699.67,566.16,701.74,566.77,703.08z
		"/>
	<path class="st4" d="M421.98,487.06c1.49,3.88,0.99,7.94,1.05,11.94c-3.41,0.63-6.81,1.36-10.24,1.87
		c-4.31,0.64-8.4,0.41-10.78-4.1c-2.17-4.11-0.46-7.52,2.41-10.3c3.32-3.22,7.22-3.15,10.86-0.4
		C417.44,487.69,419.7,487.15,421.98,487.06z"/>
	<path class="st4" d="M460.08,698.96c-3.65,0.62-7.32,0.38-10.98,0.15c-0.51-4.73-1.34-9.43-0.94-14.21
		c3.95,1.37,7.9,2.75,11.85,4.12C460.84,692.32,460.87,695.64,460.08,698.96z"/>
	<path class="st4" d="M564.91,699.08c-3.94,0-7.87,0-11.81,0c-0.02-2.65-0.05-5.3-0.07-7.95c4.19-0.15,7.71-2.72,11.78-3.29
		C564.85,691.58,564.88,695.33,564.91,699.08z"/>
	<path class="st4" d="M509.99,516.24c1.14-5.81,5.74-7.65,10.58-7.96c5.67-0.36,10.15,2.4,12.53,7.88c-2.47,2.4-5.02,4.73-7.39,7.22
		c-2.58,2.72-5.45,4.1-9.24,2.9c-3.77-1.19-5.51-3.88-5.94-7.65C510.43,517.83,510.17,517.04,509.99,516.24z"/>
	<path class="st3" d="M162.3,343.14c1.31-0.98,2.83-0.8,4.32-0.8c37.78,0.01,75.55-0.03,113.33,0.13c2.53,0.01,5.49-2.06,7.78,0.81
		c0.1,2.48,0.22,4.95,0.28,7.43c0.41,17.52-0.85,35.06,0.71,52.57c-1.36,0.8-2.86,0.79-4.36,0.79c-40.6-0.03-81.21-0.05-121.81-0.08
		C162.46,383.71,162.38,363.43,162.3,343.14z M206.35,373.3c-0.09,11.25,7.25,18.57,18.62,18.65c11.42,0.09,19.06-7.63,19.55-20.92
		c0.29-7.96-9.83-16.41-19.24-16.57C215.23,354.28,205.09,364.24,206.35,373.3z"/>
	<path class="st2" d="M221.67,453.72c3.97,1.26,5.51-1.88,7.35-4.26c1.09-1.4,2.13-2.98,3.91-1.52c1.78,1.47,1.19,3-0.54,4.49
		c-2.6,2.24-4.95,4.77-7.4,7.19c-1.38,1.36-2.55,1.01-3.81-0.24c-1.36-1.34-2.42-2.75-1.89-4.78
		C219.62,453.29,220.61,453.37,221.67,453.72z"/>
	<path class="st2" d="M206.35,373.3c-1.25-9.06,8.88-19.02,18.94-18.85c9.4,0.17,19.53,8.61,19.24,16.57
		c-0.49,13.3-8.13,21.01-19.55,20.92C213.59,391.86,206.26,384.55,206.35,373.3z M224.06,374.92c-2.02,1.94-5.04,1.12-7.26,2.73
		c-1.91,1.39-2.96,2.82-1.45,4.9c2.97,4.07,7.46,5.13,11.96,4.38c4.19-0.7,8.52-2.23,8.84-7.79c1.99-0.35,1.54,2.39,3.12,2.56
		c4.12-5.91,3.07-15.92-2.05-19.84c-6.8-5.2-13.67-6.99-21.61-1.86c-5.55,3.58-9.35,15.61-5.82,21.09c0.52,0.81,1.15,1.76,2.32,1.53
		c1.08-0.21,0.82-1.24,0.98-2.01C214.29,374.78,217.44,373.15,224.06,374.92z"/>
	<path class="st2" d="M369.08,374.15c1.41,8.85-9.93,18.38-18.09,18.05c-9.88-0.39-18.96-9.09-18.9-18.78
		c0.07-10.47,7.9-18.32,18.22-18.28C361.79,355.18,369.1,362.59,369.08,374.15z M350.55,387.04c3.22,0.97,5.55-1.43,8.25-2.46
		c1.37-0.53,2.32-1.86,2.22-3.57c-0.11-1.9-1.27-3.1-2.9-3.65c-3.97-1.34-8.11-1.58-12.23-1.12c-2.69,0.3-4.7,2.35-5.33,4.62
		c-0.57,2.04,1.95,3.12,3.51,4.3C345.97,386.59,348,387.59,350.55,387.04z M351.07,371.11c4.43,0.66,4.76-2.62,4.92-5.59
		c0.17-3.33-1.79-4.57-5.08-4.45c-3.19,0.11-5.78,0.81-5.75,4.54C345.19,369.27,346.86,371.64,351.07,371.11z"/>
	<path class="st2" d="M101.3,355.14c8.71,0.04,16.85,8.38,16.81,17.23c-0.04,11.44-8.16,20.23-19.08,19.63
		c-9.67-0.53-18.11-7.47-17.83-19.31C81.44,362.97,88.51,354.28,101.3,355.14z M100.61,376.17c-2.89-0.23-5.69-0.1-8.32,1.07
		c-3.64,1.61-4.22,5.25-0.91,7.28c3.03,1.85,6.3,3.46,10.23,2.36c3.74-1.05,8.42-2.2,8.08-6.46
		C109.31,375.66,104.42,375.93,100.61,376.17z M94.18,366.32c-0.11,2.58,2.28,5.36,4.73,5.51c2.51,0.16,6.29-3.48,6.18-6.13
		c-0.13-3.03-1.85-5.33-4.8-5.26C96.93,360.53,94.29,362.37,94.18,366.32z"/>
	<path class="st2" d="M108.85,448.86c-0.1,2.02-9.18,12.07-10.61,11.89c-2.17-0.27-3.13-2.28-4.46-3.69
		c-0.75-0.79-0.78-1.87-0.12-2.76c1.39-1.88,2.52-0.28,3.79,0.3c1.63,0.75,2.35-0.78,3.26-1.63c1.7-1.58,3.3-3.27,4.97-4.88
		c0.61-0.59,1.38-1.07,2.2-0.44C108.37,448.02,108.66,448.62,108.85,448.86z"/>
	<path class="st2" d="M347.28,453.32c4.3,2.09,5.4-2.11,7.78-3.7c1.32-0.89,2.3-3.68,4.33-1.37c1.7,1.94-0.33,3.27-1.55,4.54
		c-2.06,2.13-4.14,4.24-6.28,6.3c-1,0.97-1.94,2.65-3.69,1.2c-1.67-1.38-3.4-2.94-3.4-5.24
		C344.45,453.4,345.93,453.07,347.28,453.32z"/>
	<path class="st3" d="M235.1,377.96c0.35,0.4,0.7,0.79,1.05,1.19c-0.32,5.56-4.65,7.09-8.84,7.79c-4.5,0.75-8.99-0.31-11.96-4.38
		c-1.52-2.08-0.47-3.51,1.45-4.9c2.22-1.62,5.25-0.79,7.26-2.73c1.38,0.02,2.76,0.03,4.13,0.05c0.38,0.92,1.06,1.09,1.94,0.76
		c0.85,0.23,1.7,0.45,2.55,0.67C233.13,377.48,233.9,378.07,235.1,377.96z"/>
	<path class="st5" d="M345.16,365.61c-0.03-3.73,2.55-4.43,5.75-4.54c3.29-0.12,5.25,1.12,5.08,4.45"/>
	<path class="st3" d="M230.94,366.24c0.17,4.21-2.33,5.49-5.68,5.62c-3.71,0.15-6.1-2.55-5.96-6.37c0.14-3.77,2.18-5.22,5.8-5.23
		C229.41,360.24,231.12,362.43,230.94,366.24z"/>
	<path class="st2" d="M230.13,375.74c-0.88,0.33-1.56,0.16-1.94-0.76C229.45,373.68,229.82,374.64,230.13,375.74z"/>
	<path class="st2" d="M235.1,377.96c-1.2,0.11-1.97-0.48-2.42-1.55C234.02,376.09,234.92,376.46,235.1,377.96z"/>
</g>
</svg>
