<?xml version="1.0" encoding="utf-8"?>
<!-- Generator: Adobe Illustrator 25.3.0, SVG Export Plug-In . SVG Version: 6.00 Build 0)  -->
<svg version="1.1" id="Camada_1" xmlns="http://www.w3.org/2000/svg" xmlns:xlink="http://www.w3.org/1999/xlink" x="0px" y="0px"
	 viewBox="0 0 575 395.4" style="enable-background:new 0 0 575 395.4;" xml:space="preserve">
<style type="text/css">
	.st0{fill:#313143;}
	.st1{fill:#CDCCCD;}
	.st2{fill:#E5E5E5;}
	.st3{fill:#F79506;}
	.st4{fill:#F3B4B8;}
	.st5{fill:#FEFEFE;}
</style>
<g>
	<path class="st0" d="M421.2,353c-4.4-1.3-5.6-4.4-5.7-8.7c-0.5-15.8,2-31.2,5.4-46.5c8.8-40.3,21.9-79.2,36.4-117.8
		c0.7-1.9,1.3-3.8,1.9-5.7c1-0.2,1.9-0.1,2.6,0.9c5.2,7.4,13,8.9,21.3,9.2c0.2,0.8,0.4,1.6,0.5,2.4c0.4,3.8,2.2,6.5,5.9,7.7
		c3.8,1.2,6.7-0.2,9.2-2.9c2.4-2.5,4.9-4.8,7.4-7.2c1.4-0.1,2.7,0.3,3.8,1.1c9.7,20.7,13.7,43,18,65.2c6.2,32.2,10.4,64.7,14.4,97.2
		c0.5,4.2-0.3,6.8-4.4,8.1c-4.1,0.6-7.6,3.1-11.8,3.3c-2.4-1.4-3.1-3.8-4-6.1c-14.5-35.9-29.1-71.8-43.6-107.7
		c-0.6-1.5-0.6-3.9-2.4-4c-2.5-0.2-2.1,2.6-2.7,4.1c-11.9,34.8-23.7,69.6-35.4,104.4c-1,2.9-1.9,5.7-4.9,7.2
		C429.1,355.8,425.1,354.4,421.2,353z"/>
	<path class="st1" d="M509.9,185.4c-1.1-0.9-2.4-1.2-3.8-1.1c-2.4-5.5-6.9-8.2-12.5-7.9c-4.8,0.3-9.4,2.2-10.6,8
		c-8.3-0.3-16-1.8-21.3-9.2c-0.7-1-1.6-1-2.6-0.9c0.3-4.4,5.5-5.7,6.1-10.2c0.5-3.7-1.5-10.3-5-11.7c-1.1-0.4-2.1,0-2.8,0.7
		c-6.7,6.2-15.6,5.9-23.7,7.9c-10.1,2.5-20.4,4.4-30.6,6.7c-2.5,0.6-4.9,0.9-7.2-0.6c-0.1-4,0.4-8.1-1-11.9c0.2-2,1.6-2.5,3.3-3.1
		c15-4.8,30-9.5,45-14.5c9.7-3.3,17.8-9.1,24.8-16.6c10.1-10.9,23.2-14.9,37.8-14.6c1.9,0,3.9,1,5.5,2c7.4,4.8,15.4,8.5,20,17
		c2.8,5.3,6.7,10.2,10.8,14.9c6.6,7.6,4.4,16.1-4.9,22.8c-8.5,6.1-16.8,12.5-25.1,18.7C510.9,182.7,510,183.8,509.9,185.4z"/>
	<path class="st2" d="M198.1,76.2c-53,0-105.9,0-158.9,0c-21.1,0-37.9-19.6-33.5-41.6C8.9,18.2,22.9,6.3,40.8,6.3
		c104.4,0,208.9,0,313.3,0c19.1,0,30,8.2,36.2,26c3.6,10.4,1.4,20.9-5.7,29.9c-7.9,9.9-17.9,14.2-30.6,14.1
		C302,76.1,250,76.2,198.1,76.2z M261.7,71.4c32.2,0,64.3-0.2,96.5-0.1c19.7,0.1,33.5-21.9,26.8-40c-4.7-12.8-14.8-19.7-28.2-19.9
		c-32-0.4-64-0.1-96,0c-2.3-2.9-5.2-0.8-7.8-0.8c-37.8-0.2-75.6-0.1-113.3-0.1c-1.5,0-3-0.2-4.3,0.8c-31.4,0-62.9,0.1-94.3,0
		c-14.7,0-27.6,9.7-30.6,24.5c-4,19.6,12.8,36,28.6,35.7c27.3-0.5,54.6-0.2,81.8-0.1c4.9,0,9.8,0.5,14.6,0.8
		c40.6,0,81.2,0,121.8,0.1C258.9,72.2,260.4,72.2,261.7,71.4z"/>
	<path class="st2" d="M539.8,371.2c8.8,0.4,17.3,2.5,25.7,5.3c1.2,0.4,2.4,1.2,3.4,2c2.6,2.2,2.9,4-0.5,6
		c-5.7,3.4-12.2,4.4-18.4,5.4c-14.5,2.3-29.2,3.4-43.9,4.4c-23.8,1.6-47.5,1.1-71.3,0.5c-19.9-0.5-39.9-2.4-59.5-6.9
		c-2.4-0.5-4.8-1.4-7.1-2.4c-2.1-0.9-4.8-2.1-4.6-4.7c0.2-2.3,2.7-3.7,5-4.4c3.5-1.1,7-2.2,10.5-2.8c8.5-1.5,17-2.7,25.4-4
		c0.9-0.1,1.9,0.4,2.9,0.6c-0.8,1.2-1.8,2.4-2.4,3.7c-2.4,4.5-1.7,5.8,3.3,5.8c6.8,0,13.5,0,20.3,0c8.5,0,6.9,0.5,7-7.2
		c0-1.5,0.1-3,0.2-4.4c4.3,0,8.6-0.1,12.9-0.1c17.9,0,35.8-0.1,53.7,0.1c2.7,0,6.3-1.2,7.8,2.8c-0.5,1.2-1.1,2.3-1.6,3.5
		c-2,4.6-1.5,5.3,3.5,5.4c6,0,11.9,0,17.9,0C538.9,379.8,538.9,379.8,539.8,371.2z"/>
	<path class="st0" d="M484,99.2c-7.3-0.5-14.2-6.3-15.9-14.3c-5.2-24.7,12.1-39.3,28.9-38.4c3.3,0.2,3.8-0.9,2.7-3.7
		c-1.8-4.5-1.4-8.8,1.7-12.7c1.3-1.6,2.9-3.3,5.9-2.6c-2.1,3.3-6.1,5.5-5.3,10c1.8,0.3,2.4-1.3,3.4-2c5.7-3.8,12.4-3,16.6,2.1
		c4,4.9,3.8,11.8-1,16.2c-2.4,2.2-2.4,3.5-0.8,6c5.2,7.9,5.6,16.6,3.6,25.5c-1.8,8-9.2,13.9-16.7,13.9c5.1-4.1,9.3-8.9,10.4-15.7
		c0.8-4.6,0.2-8.9-2.6-13c0,4.4-2.2,5.1-5.8,5.1c-9-0.2-18-0.1-27,0c-2.6,0-5.2,0.3-6.4-4c-3.2,10-1.2,17.5,5,24.1
		C481.9,96.7,483.9,97.1,484,99.2z"/>
	<path class="st3" d="M176.2,123.4c0-5.3,0.1-10.7,0-16c-0.1-4.5,2.3-6.6,6.3-6.7c10.6-0.2,21.3-0.1,32,0c3.5,0,5.8,1.7,5.8,5.4
		c0.2,11.5,0.4,23,0.3,34.4c0,3.6-2.9,5.2-6.2,5.2c-10.3,0.1-20.6,0.3-31,0c-6.6-0.2-7.1-1.1-7.2-7.9
		C176.2,133,176.2,128.2,176.2,123.4z M194.7,121.8c-1.1-0.4-2.1-0.4-2.4,0.9c-0.5,2,0.5,3.4,1.9,4.8c1.3,1.2,2.4,1.6,3.8,0.2
		c2.4-2.4,4.8-5,7.4-7.2c1.7-1.5,2.3-3,0.5-4.5c-1.8-1.5-2.8,0.1-3.9,1.5C200.2,120,198.6,123.1,194.7,121.8z"/>
	<path class="st4" d="M484,99.2c0-2.1-2-2.4-3.1-3.6c-6.2-6.6-8.2-14.2-5-24.1c1.1,4.3,3.7,4,6.4,4c9-0.1,18-0.2,27,0
		c3.6,0.1,5.8-0.7,5.8-5.1c2.8,4.1,3.3,8.4,2.6,13c-1.1,6.8-5.3,11.6-10.4,15.7C499.4,103.3,491.7,102.7,484,99.2z"/>
	<path class="st2" d="M94.1,122.9c0,5.3,0,10.7,0,16c0,3.6-1.3,5.3-5.3,5.4c-9.8,0.1-19.6-0.7-29.4,0.7c-5.8,0.9-8.3-1.9-8.3-7.6
		c0-9.7,0-19.3,0-29c0-5.4,1.8-7.2,7.2-7.2c9.7,0,19.3-0.1,29,0c5.6,0,6.8,1.3,6.8,6.7C94.2,112.9,94.1,117.9,94.1,122.9z
		 M89.1,123.7c0-3.8-0.2-7.7,0.1-11.5c0.2-3.4-1.3-5-4.6-5c-7.8,0-15.6,0-23.5,0c-2.7,0-3.9,1.2-3.9,3.9c0.1,8,0.1,16,0,24
		c0,3,1.3,4.2,4.2,4.1c4.2-0.1,8.3,0,12.5,0C89.1,139.2,89.1,139.2,89.1,123.7z"/>
	<path class="st2" d="M323.5,144.2c-5.3,0-10.7-0.1-16,0c-3.8,0-5.4-1.7-5.4-5.5c0.1-10.3,0-20.6,0-31c0-4.3,2-6.5,6.3-6.6
		c10.2,0,20.3,0,30.5,0c4.4,0,6.3,2.2,6.2,6.5c-0.1,10.3-0.1,20.6,0,31c0,3.9-1.5,5.8-5.6,5.5C334.1,144,328.8,144.2,323.5,144.2z
		 M340,123c0-3.6-0.1-7.3,0-11c0.1-3.3-1-4.9-4.5-4.8c-7.6,0.2-15.3,0.1-22.9,0c-3.1,0-4.6,1-4.6,4.3c0.1,7.8,0.1,15.6,0,23.4
		c0,2.9,1,4.3,4,4.3c8-0.1,16-0.1,23.9,0c3,0,4.1-1.4,4.1-4.3C340,131,340,127,340,123z"/>
	<path class="st0" d="M435.8,368.2c-0.1,1.5-0.2,3-0.2,4.4c-0.1,7.7,1.6,7.2-7,7.2c-6.8,0-13.5,0-20.3,0c-5,0-5.7-1.2-3.3-5.8
		c0.7-1.3,1.6-2.5,2.4-3.7c4.4-3.5,9.6-2.8,14.6-3.1c3.7,0.2,7.3,0.5,11-0.2C434,367.4,434.9,367.8,435.8,368.2z"/>
	<path class="st0" d="M539.8,371.2c-0.8,8.7-0.8,8.7-9.7,8.7c-6,0-11.9,0-17.9,0c-5,0-5.5-0.8-3.5-5.4c0.5-1.2,1.1-2.3,1.6-3.5
		c4.6-3.9,10.3-3.6,15.8-3.8c3.9,0,7.9,0,11.8,0C540.1,367.8,539.2,369.8,539.8,371.2z"/>
	<path class="st4" d="M395,155.2c1.5,3.9,1,7.9,1,11.9c-3.4,0.6-6.8,1.4-10.2,1.9c-4.3,0.6-8.4,0.4-10.8-4.1
		c-2.2-4.1-0.5-7.5,2.4-10.3c3.3-3.2,7.2-3.1,10.9-0.4C390.4,155.8,392.7,155.3,395,155.2z"/>
	<path class="st4" d="M433.1,367.1c-3.6,0.6-7.3,0.4-11,0.2c-0.5-4.7-1.3-9.4-0.9-14.2c4,1.4,7.9,2.8,11.9,4.1
		C433.8,360.4,433.9,363.8,433.1,367.1z"/>
	<path class="st4" d="M537.9,367.2c-3.9,0-7.9,0-11.8,0c0-2.7,0-5.3-0.1-8c4.2-0.2,7.7-2.7,11.8-3.3
		C537.8,359.7,537.9,363.4,537.9,367.2z"/>
	<path class="st4" d="M483,184.3c1.1-5.8,5.7-7.6,10.6-8c5.7-0.4,10.2,2.4,12.5,7.9c-2.5,2.4-5,4.7-7.4,7.2
		c-2.6,2.7-5.5,4.1-9.2,2.9c-3.8-1.2-5.5-3.9-5.9-7.7C483.4,185.9,483.2,185.1,483,184.3z"/>
	<path class="st3" d="M135.3,11.2c1.3-1,2.8-0.8,4.3-0.8c37.8,0,75.6,0,113.3,0.1c2.5,0,5.5-2.1,7.8,0.8c0.1,2.5,0.2,5,0.3,7.4
		c0.4,17.5-0.9,35.1,0.7,52.6c-1.4,0.8-2.9,0.8-4.4,0.8c-40.6,0-81.2,0-121.8-0.1C135.5,51.8,135.4,31.5,135.3,11.2z M179.4,41.4
		c-0.1,11.2,7.2,18.6,18.6,18.6c11.4,0.1,19.1-7.6,19.6-20.9c0.3-8-9.8-16.4-19.2-16.6C188.2,22.4,178.1,32.3,179.4,41.4z"/>
	<path class="st2" d="M194.7,121.8c4,1.3,5.5-1.9,7.4-4.3c1.1-1.4,2.1-3,3.9-1.5c1.8,1.5,1.2,3-0.5,4.5c-2.6,2.2-4.9,4.8-7.4,7.2
		c-1.4,1.4-2.6,1-3.8-0.2c-1.4-1.3-2.4-2.8-1.9-4.8C192.6,121.4,193.6,121.5,194.7,121.8z"/>
	<path class="st2" d="M179.4,41.4c-1.2-9.1,8.9-19,18.9-18.9c9.4,0.2,19.5,8.6,19.2,16.6c-0.5,13.3-8.1,21-19.6,20.9
		C186.6,60,179.3,52.7,179.4,41.4z M197.1,43c-2,1.9-5,1.1-7.3,2.7c-1.9,1.4-3,2.8-1.4,4.9c3,4.1,7.5,5.1,12,4.4
		c4.2-0.7,8.5-2.2,8.8-7.8c2-0.4,1.5,2.4,3.1,2.6c4.1-5.9,3.1-15.9-2.1-19.8c-6.8-5.2-13.7-7-21.6-1.9c-5.6,3.6-9.4,15.6-5.8,21.1
		c0.5,0.8,1.1,1.8,2.3,1.5c1.1-0.2,0.8-1.2,1-2C187.3,42.9,190.4,41.3,197.1,43z"/>
	<path class="st2" d="M342.1,42.3c1.4,8.9-9.9,18.4-18.1,18c-9.9-0.4-19-9.1-18.9-18.8c0.1-10.5,7.9-18.3,18.2-18.3
		C334.8,23.3,342.1,30.7,342.1,42.3z M323.5,55.1c3.2,1,5.5-1.4,8.2-2.5c1.4-0.5,2.3-1.9,2.2-3.6c-0.1-1.9-1.3-3.1-2.9-3.6
		c-4-1.3-8.1-1.6-12.2-1.1c-2.7,0.3-4.7,2.4-5.3,4.6c-0.6,2,2,3.1,3.5,4.3C319,54.7,321,55.7,323.5,55.1z M324.1,39.2
		c4.4,0.7,4.8-2.6,4.9-5.6c0.2-3.3-1.8-4.6-5.1-4.5c-3.2,0.1-5.8,0.8-5.8,4.5C318.2,37.4,319.9,39.8,324.1,39.2z"/>
	<path class="st2" d="M74.3,23.2c8.7,0,16.8,8.4,16.8,17.2c0,11.4-8.2,20.2-19.1,19.6c-9.7-0.5-18.1-7.5-17.8-19.3
		C54.4,31.1,61.5,22.4,74.3,23.2z M73.6,44.3c-2.9-0.2-5.7-0.1-8.3,1.1c-3.6,1.6-4.2,5.2-0.9,7.3c3,1.9,6.3,3.5,10.2,2.4
		c3.7-1,8.4-2.2,8.1-6.5C82.3,43.8,77.4,44,73.6,44.3z M67.2,34.4c-0.1,2.6,2.3,5.4,4.7,5.5c2.5,0.2,6.3-3.5,6.2-6.1
		c-0.1-3-1.8-5.3-4.8-5.3C69.9,28.6,67.3,30.5,67.2,34.4z"/>
	<path class="st2" d="M81.8,117c-0.1,2-9.2,12.1-10.6,11.9c-2.2-0.3-3.1-2.3-4.5-3.7c-0.8-0.8-0.8-1.9-0.1-2.8
		c1.4-1.9,2.5-0.3,3.8,0.3c1.6,0.8,2.3-0.8,3.3-1.6c1.7-1.6,3.3-3.3,5-4.9c0.6-0.6,1.4-1.1,2.2-0.4C81.4,116.1,81.7,116.7,81.8,117z
		"/>
	<path class="st2" d="M320.3,121.4c4.3,2.1,5.4-2.1,7.8-3.7c1.3-0.9,2.3-3.7,4.3-1.4c1.7,1.9-0.3,3.3-1.5,4.5
		c-2.1,2.1-4.1,4.2-6.3,6.3c-1,1-1.9,2.6-3.7,1.2c-1.7-1.4-3.4-2.9-3.4-5.2C317.5,121.5,318.9,121.2,320.3,121.4z"/>
	<path class="st3" d="M208.1,46.1c0.4,0.4,0.7,0.8,1.1,1.2c-0.3,5.6-4.6,7.1-8.8,7.8c-4.5,0.8-9-0.3-12-4.4
		c-1.5-2.1-0.5-3.5,1.4-4.9c2.2-1.6,5.2-0.8,7.3-2.7c1.4,0,2.8,0,4.1,0c0.4,0.9,1.1,1.1,1.9,0.8c0.9,0.2,1.7,0.5,2.6,0.7
		C206.1,45.6,206.9,46.2,208.1,46.1z"/>
	<path class="st5" d="M318.2,33.7c0-3.7,2.5-4.4,5.8-4.5c3.3-0.1,5.2,1.1,5.1,4.5"/>
	<path class="st3" d="M203.9,34.3c0.2,4.2-2.3,5.5-5.7,5.6c-3.7,0.1-6.1-2.5-6-6.4c0.1-3.8,2.2-5.2,5.8-5.2
		C202.4,28.3,204.1,30.5,203.9,34.3z"/>
	<path class="st2" d="M203.1,43.8c-0.9,0.3-1.6,0.2-1.9-0.8C202.4,41.8,202.8,42.8,203.1,43.8z"/>
	<path class="st2" d="M208.1,46.1c-1.2,0.1-2-0.5-2.4-1.5C207,44.2,207.9,44.6,208.1,46.1z"/>
</g>
</svg>
