<?xml version="1.0" encoding="utf-8"?>
<!-- Generator: Adobe Illustrator 25.3.0, SVG Export Plug-In . SVG Version: 6.00 Build 0)  -->
<svg version="1.1" id="Camada_1" xmlns="http://www.w3.org/2000/svg" xmlns:xlink="http://www.w3.org/1999/xlink" x="0px" y="0px"
	 viewBox="0 0 423.8 100" style="enable-background:new 0 0 423.8 100;" xml:space="preserve">
<style type="text/css">
	.st0{fill:#FFFFFF;}
</style>
<g>
	<g>
		<path d="M162.9,70.2c-0.7,0.5-1.5,1-2.3,1.4s-1.7,0.7-2.7,0.9c-1,0.2-2,0.3-3.2,0.3c-1.8,0-3.6-0.3-5.1-1
			c-1.6-0.7-2.9-1.6-4.1-2.8c-1.1-1.2-2-2.5-2.7-4.1c-0.6-1.6-1-3.3-1-5.1s0.3-3.5,1-5.1c0.6-1.6,1.5-3,2.7-4.2s2.5-2.1,4.1-2.8
			s3.3-1,5.3-1c1.2,0,2.2,0.1,3.1,0.3c0.9,0.2,1.8,0.5,2.6,0.8s1.5,0.8,2.2,1.2c0.7,0.5,1.3,1,1.9,1.6l-2.8,3.3
			c-1-0.9-2.1-1.7-3.2-2.3c-1.1-0.6-2.4-0.9-3.9-0.9c-1.2,0-2.3,0.2-3.3,0.7s-1.9,1.1-2.6,1.9c-0.7,0.8-1.3,1.7-1.7,2.8
			s-0.6,2.2-0.6,3.5c0,1.2,0.2,2.4,0.6,3.5c0.4,1.1,1,2,1.7,2.9c0.7,0.8,1.6,1.5,2.6,1.9c1,0.5,2.1,0.7,3.3,0.7c1.5,0,2.9-0.3,4-0.9
			s2.2-1.4,3.3-2.4l2.8,2.9C164.3,69,163.6,69.6,162.9,70.2z"/>
		<path d="M191.8,64.7c-0.6,1.6-1.6,3-2.7,4.2c-1.2,1.2-2.6,2.1-4.2,2.8c-1.6,0.7-3.4,1-5.3,1c-1.9,0-3.7-0.3-5.3-1s-3-1.6-4.1-2.8
			c-1.2-1.2-2.1-2.6-2.7-4.1c-0.6-1.6-1-3.3-1-5c0-1.8,0.3-3.5,1-5s1.6-3,2.7-4.2c1.2-1.2,2.6-2.1,4.2-2.8c1.6-0.7,3.4-1,5.3-1
			s3.7,0.3,5.3,1s3,1.6,4.1,2.8c1.2,1.2,2.1,2.6,2.7,4.1s1,3.3,1,5C192.8,61.5,192.5,63.2,191.8,64.7z M187.5,56.3
			c-0.4-1.1-1-2-1.8-2.9s-1.7-1.5-2.7-1.9c-1.1-0.5-2.2-0.7-3.5-0.7c-1.2,0-2.4,0.2-3.4,0.7s-1.9,1.1-2.7,1.9
			c-0.7,0.8-1.3,1.8-1.7,2.8c-0.4,1.1-0.6,2.2-0.6,3.5c0,1.2,0.2,2.4,0.6,3.5c0.4,1.1,1,2,1.8,2.9c0.8,0.8,1.7,1.5,2.7,1.9
			s2.2,0.7,3.5,0.7c1.2,0,2.4-0.2,3.4-0.7s1.9-1.1,2.7-1.9c0.7-0.8,1.3-1.8,1.7-2.8c0.4-1.1,0.6-2.2,0.6-3.5S188,57.4,187.5,56.3z"
			/>
		<path d="M196.9,47.1h4.4v21.2h13.2v4h-17.6L196.9,47.1L196.9,47.1z"/>
		<path d="M217.9,47.1h4.4v21.2h13.2v4h-17.6L217.9,47.1L217.9,47.1z"/>
		<path d="M257.6,51.1h-14.3v6.5H256v4h-12.6v6.7h14.4v4H239V47.1h18.6V51.1z"/>
		<path d="M282.2,70.4c-0.8,0.5-1.6,0.9-2.4,1.3s-1.8,0.6-2.8,0.8c-1,0.2-2.1,0.3-3.2,0.3c-2,0-3.8-0.3-5.4-1s-3-1.6-4.1-2.7
			c-1.1-1.2-2-2.5-2.6-4.1s-0.9-3.3-0.9-5.1s0.3-3.5,1-5c0.6-1.6,1.5-3,2.7-4.2s2.5-2.1,4.1-2.8s3.3-1,5.2-1c1.1,0,2.1,0.1,3,0.2
			c0.9,0.2,1.7,0.4,2.5,0.7s1.5,0.6,2.2,1.1c0.7,0.4,1.4,0.9,2,1.5l-2.8,3.3c-0.5-0.4-1-0.8-1.5-1.1s-1-0.6-1.6-0.8
			s-1.2-0.4-1.8-0.5c-0.7-0.1-1.4-0.2-2.2-0.2c-1.2,0-2.2,0.2-3.2,0.7s-1.9,1.1-2.6,1.9c-0.7,0.8-1.3,1.8-1.7,2.8
			c-0.4,1.1-0.6,2.2-0.6,3.5s0.2,2.5,0.6,3.6c0.4,1.1,1,2.1,1.7,2.9s1.7,1.4,2.7,1.9s2.2,0.7,3.5,0.7c1.2,0,2.3-0.2,3.4-0.5
			c1-0.3,1.9-0.8,2.7-1.4v-4.7h-6.4v-3.9h10.7v10.6C283.7,69.4,283,69.9,282.2,70.4z"/>
		<path d="M307.4,51.1h-14.3v6.5h12.6v4h-12.6v6.7h14.4v4h-18.8V47.1h18.6L307.4,51.1L307.4,51.1z"/>
		<path d="M331.8,72.3h-4.5V51.2h-8v-4.1h20.4v4.1h-8v21.1H331.8z"/>
		<path d="M366.1,64.7c-0.6,1.6-1.6,3-2.7,4.2c-1.2,1.2-2.6,2.1-4.2,2.8c-1.6,0.7-3.4,1-5.3,1s-3.7-0.3-5.3-1
			c-1.6-0.7-3-1.6-4.1-2.8s-2.1-2.6-2.7-4.1c-0.6-1.6-1-3.3-1-5c0-1.8,0.3-3.5,1-5c0.6-1.6,1.6-3,2.7-4.2s2.6-2.1,4.2-2.8
			s3.4-1,5.3-1s3.7,0.3,5.3,1c1.6,0.7,3,1.6,4.1,2.8c1.2,1.2,2.1,2.6,2.7,4.1c0.6,1.6,1,3.3,1,5C367.1,61.5,366.8,63.2,366.1,64.7z
			 M361.8,56.3c-0.4-1.1-1-2-1.8-2.9c-0.8-0.8-1.7-1.5-2.7-1.9c-1.1-0.5-2.2-0.7-3.5-0.7s-2.4,0.2-3.4,0.7s-1.9,1.1-2.7,1.9
			c-0.7,0.8-1.3,1.8-1.7,2.8c-0.4,1.1-0.6,2.2-0.6,3.5c0,1.2,0.2,2.4,0.6,3.5s1,2,1.8,2.9c0.8,0.8,1.7,1.5,2.7,1.9
			c1.1,0.5,2.2,0.7,3.5,0.7s2.4-0.2,3.4-0.7s1.9-1.1,2.7-1.9c0.7-0.8,1.3-1.8,1.7-2.8c0.4-1.1,0.6-2.2,0.6-3.5
			S362.3,57.4,361.8,56.3z"/>
		<path d="M395.5,64.7c-0.6,1.6-1.6,3-2.7,4.2c-1.2,1.2-2.6,2.1-4.2,2.8c-1.6,0.7-3.4,1-5.3,1s-3.7-0.3-5.3-1
			c-1.6-0.7-3-1.6-4.1-2.8s-2.1-2.6-2.7-4.1c-0.6-1.6-1-3.3-1-5c0-1.8,0.3-3.5,1-5c0.6-1.6,1.6-3,2.7-4.2s2.6-2.1,4.2-2.8
			s3.4-1,5.3-1s3.7,0.3,5.3,1c1.6,0.7,3,1.6,4.1,2.8c1.2,1.2,2.1,2.6,2.7,4.1c0.6,1.6,1,3.3,1,5C396.5,61.5,396.1,63.2,395.5,64.7z
			 M391.2,56.3c-0.4-1.1-1-2-1.8-2.9c-0.8-0.8-1.7-1.5-2.7-1.9c-1.1-0.5-2.2-0.7-3.5-0.7s-2.4,0.2-3.4,0.7s-1.9,1.1-2.7,1.9
			c-0.7,0.8-1.3,1.8-1.7,2.8c-0.4,1.1-0.6,2.2-0.6,3.5c0,1.2,0.2,2.4,0.6,3.5s1,2,1.8,2.9c0.8,0.8,1.7,1.5,2.7,1.9
			c1.1,0.5,2.2,0.7,3.5,0.7s2.4-0.2,3.4-0.7s1.9-1.1,2.7-1.9c0.7-0.8,1.3-1.8,1.7-2.8c0.4-1.1,0.6-2.2,0.6-3.5
			S391.6,57.4,391.2,56.3z"/>
		<path d="M400.6,47.1h4.4v21.2h13.2v4h-17.6V47.1z"/>
	</g>
	<path d="M28.7,50.3c0,13.4-0.1,26.8,0.1,40.2c0.1,4-1.4,5.3-5.2,5.1c-4.5-0.2-9-0.1-13.4-0.1c-3.1,0-4.5-1.3-4.4-4.5
		c0.1-27.1,0.1-54.2,0-81.3c0-3.5,1.6-4.7,4.9-4.6c4.5,0.1,9,0.2,13.4,0c3.9-0.2,4.8,1.5,4.8,5C28.6,23.5,28.7,36.9,28.7,50.3z"/>
	<path class="st0" d="M35.8,49.9c0-12.9,0.1-25.8-0.1-38.7c-0.1-4.3,1.4-6,5.8-5.7c4.3,0.3,8.6,0.1,13,0.1c2.7,0,3.9,1.2,3.9,3.9
		c0,27.3-0.1,54.6,0,82c0,3.2-1.6,4-4.3,3.9c-4.5-0.1-9-0.1-13.5,0c-3.7,0.1-4.9-1.6-4.8-5.1C35.9,76.7,35.8,63.3,35.8,49.9z"/>
	<path class="st0" d="M82.1,4.5c4.4-0.3,4.5,2.3,5.1,4.5c4.7,17,9.3,33.9,13.9,50.9c2.2,8.1,4.4,16.2,6.7,24.2
		c0.8,2.9,0.3,4.8-2.8,5.8c-4.3,1.3-8.5,2.7-12.8,4.1c-3.2,1-4.9-0.2-5.8-3.4c-7-25.7-14-51.4-21.1-77.1c-0.5-1.6-0.4-3.2,1.2-3.8
		C72,7.7,77.5,6,82.1,4.5z"/>
</g>
</svg>
