<svg id="Camada_1" data-name="Camada 1" xmlns="http://www.w3.org/2000/svg" viewBox="0 0 409.05 409.11"><defs><style>.cls-1{fill:#fac46d;}.cls-2{fill:#fbce85;}.cls-3{fill:#fbd79c;}.cls-4{fill:#0573cc;}.cls-5{fill:#015aac;}.cls-6{fill:#003c79;}.cls-7{fill:#ace7ef;}.cls-8{fill:#83dde9;}</style></defs><path class="cls-1" d="M206.72,408.51h-4.79c-1.79-.84-3.68-.2-5.51-.4-1.62.21-3.3-.44-4.87.4h-4c-5.62-.89-11.32-.71-17-1.34-12.87-1.45-25.22-5.07-37.31-9.57a204.24,204.24,0,0,1-50.41-27c-1.7-1.26-3.57-2.34-4.43-4.44-.51-3.19,1.94-4.77,3.75-6.59q34.2-34.29,68.45-68.51a83.93,83.93,0,0,0,7.39-7.81,41.77,41.77,0,0,1,3.4-3.88A21.25,21.25,0,0,0,167,262.22a9.86,9.86,0,0,1,2.79-8.71q13.88-13.92,27.81-27.79a8.12,8.12,0,0,1,4.35-2.63,5.3,5.3,0,0,1,1.86.11c5.69,3.16,10.68,7.36,16.32,10.64A123.36,123.36,0,0,0,267,249.58a121.62,121.62,0,0,0,71.16-12.25,122.86,122.86,0,0,0,38.08-29.68,128.66,128.66,0,0,0,24.1-41.86c.65-1.83,1.06-3.95,3.54-4.34,2.62.75,2.74,3.18,3,5.15,2.27,16.74,2.44,33.57,1.8,50.43-.29,7.68-.29,15.37-1.55,23a194.89,194.89,0,0,1-15.25,49.31A196.5,196.5,0,0,1,364.36,334c-17.69,21.22-38.28,39-62.86,51.9-18.34,9.65-37.53,16.87-57.95,20.6-6.66,1.21-13.45,1.19-20.19,1.67-1,.07-2.13-.34-3.08.39h-4c-1.32-.81-2.77-.21-4.15-.4C210.34,408.3,208.47,407.7,206.72,408.51Z" transform="translate(0 0.6)"/><path class="cls-1" d="M0,206.58V201.8c.85-1.79.2-3.68.4-5.51-.2-1.62.44-3.3-.4-4.87v-4c.89-5.62.71-11.33,1.34-17,1.43-12.89,5.08-25.23,9.56-37.33A200,200,0,0,1,44.48,74.2c17.75-21.34,38.54-39.08,63.3-52C127.49,11.92,148.14,4.52,170.12,1c8.15-1.29,16.4-1.24,24.6-1.49A373.74,373.74,0,0,1,236.11.69a49.53,49.53,0,0,1,7.06,1.18c1.5.35,3.22.6,3.75,2.5-.83,3.16-3.75,3.52-6.15,4.36a119.25,119.25,0,0,0-34.76,19c-24.53,19.36-40.38,44.39-46,75.05-6.52,35.75,1,68.78,22.88,98.19,1.17,1.58,2.49,3.15,2.47,5.32a6.61,6.61,0,0,1-2.18,4.13q-14.13,14.32-28.44,28.46c-1.88,1.86-4.14,3.05-6.81,2.68-8.43-1.17-15.39,1.53-21.13,7.67-.45.49-1.08.77-1.57,1.22a63.2,63.2,0,0,0-6.11,5.68q-35.05,35-70.1,70.05c-1.82,1.82-3.39,4.26-6.56,3.91-1.75-.57-2.8-2-3.81-3.35A210.55,210.55,0,0,1,4.45,254.64c-2.66-10.19-3.56-20.56-4.06-31,0-.89.29-1.86-.39-2.67v-4c.84-1.56.2-3.25.4-4.86C.2,210.27.85,208.37,0,206.58Z" transform="translate(0 0.6)"/><path class="cls-2" d="M.77,196.19c-.14,1.88.55,3.88-.77,5.61v-5.59C.24,195.68.5,195.67.77,196.19Z" transform="translate(0 0.6)"/><path class="cls-2" d="M0,206.58c1.32,1.73.63,3.73.77,5.62-.27.51-.53.5-.77,0Z" transform="translate(0 0.6)"/><path class="cls-2" d="M196.32,407.74c1.88.14,3.88-.55,5.61.77h-5.59C195.81,408.27,195.8,408,196.32,407.74Z" transform="translate(0 0.6)"/><path class="cls-2" d="M206.72,408.51c1.72-1.32,3.72-.63,5.61-.77.51.28.5.53,0,.77Z" transform="translate(0 0.6)"/><path class="cls-3" d="M.77,196.19l-.77,0v-4.79C1.34,192.83.61,194.58.77,196.19Z" transform="translate(0 0.6)"/><path class="cls-3" d="M0,212.17l.77,0c-.16,1.6.57,3.35-.77,4.76Z" transform="translate(0 0.6)"/><path class="cls-3" d="M196.32,407.74c0,.26,0,.52,0,.77h-4.79C193,407.17,194.71,407.9,196.32,407.74Z" transform="translate(0 0.6)"/><path class="cls-3" d="M212.3,408.51c0-.25,0-.51,0-.77,1.35.1,2.82-.42,4,.77Z" transform="translate(0 0.6)"/><path class="cls-4" d="M380,46.13a126.2,126.2,0,0,1,24.17,113.05,15.5,15.5,0,0,0-.27,2.36c-3.75,9.78-7.28,19.63-12.78,28.65-18.56,30.4-44.88,50.46-79.6,58.54-37.52,8.73-72.19,1.53-103.6-20.91-1.51-1.07-3-2.24-4.42-3.36-6-5.51-10.07-12.41-13.68-19.63a123.81,123.81,0,0,1-12.37-41.28c-1.28-10.93-1.88-21.9.47-32.81.34-1.58.54-3.2,2.55-3.56,2.9,1,2.34,3.49,2.44,5.63A101.33,101.33,0,0,0,188,159.08c5.74,17.26,16.07,31.38,29.59,43.32,3.74,3.09,7.74,5.82,11.64,8.69,6.43,3.5,12.79,7.16,19.85,9.32a92.42,92.42,0,0,0,23.22,5.1c19.32,1.72,38-1.21,55.17-10.33,30.94-16.4,49.1-42.08,54.05-76.89,2.15-15.14-.06-29.86-4.31-44.38a123.2,123.2,0,0,0-9.47-20.54c-3.23-4.29-6.25-8.73-9.72-12.82a100.4,100.4,0,0,0-43.78-29.42c-10.13-2.53-20.26-5-30.81-4.85-1.46,0-2.93-.07-4-1.3-.45-2.36,1.38-2.44,2.86-2.82a64.6,64.6,0,0,1,11.81-1.51c23.91-1.53,46.79,2.45,68.33,13.27A83.12,83.12,0,0,1,380,46.13Z" transform="translate(0 0.6)"/><path class="cls-5" d="M180.46,127.53a67.9,67.9,0,0,0-2.38,22.35c.63,10.84,1.77,21.62,4.81,32.16a131.09,131.09,0,0,0,18.34,38.66c.82,1.2,1.48,2.51,2.22,3.76l-1.61-.71c-3.5,0-5.32-2.89-7.45-4.86-3.83-3.52-8.07-6.87-9.64-12.23-5.94-8.45-12-16.81-16.39-26.26a127.12,127.12,0,0,1-12-59.68,122.63,122.63,0,0,1,16.52-57.35c16-27.63,39.26-46.55,69.4-57,1.49-.52,2.94-1.15,4.41-1.73,7.55-1.28,14.94-3.3,22.6-4.09a124.59,124.59,0,0,1,61.1,8.79A121.81,121.81,0,0,1,380,46.13c-4.67-1-7.83-4.6-11.75-6.87a123.42,123.42,0,0,0-49.39-16.32,128.32,128.32,0,0,0-39.45,1.53c-2.3,3.09-5.91,1.94-8.84,2.34-21.11,2.94-39.59,11.19-55.4,25.61-18.67,17-28.81,38.28-32.16,63.05-.27,2,0,4-.2,6C182.54,123.65,182.52,126,180.46,127.53Z" transform="translate(0 0.6)"/><path class="cls-4" d="M78.81,365.35a138.31,138.31,0,0,1-22-19.85c-.09-2.12,1.35-3.39,2.66-4.7q37.18-37.23,74.42-74.42c1.21-1.21,2.39-2.52,4.2-2.89,1.93-.07,3.22,1.12,4.45,2.33,4.84,4.75,9.61,9.57,14.39,14.37a5.94,5.94,0,0,1,2.09,4.15c-.4,1.53-1.74,2.31-2.75,3.32Q119,324.93,81.78,362.16C80.75,363.18,79.8,364.28,78.81,365.35Z" transform="translate(0 0.6)"/><path class="cls-6" d="M159,284.34,138.08,264a4.14,4.14,0,0,1-3.2-1.36c-3.27-3.12-6.5-6.28-9.56-9.6a3.44,3.44,0,0,1-1.07-3.62c6.37-7.6,14.36-11,24.28-9.38a4.29,4.29,0,0,0,4.25-1.26q15.91-16.14,32-32.15c5.55,5.84,11.06,11.73,17.09,17.09-10.62,10.58-21.22,21.2-31.9,31.73a4.64,4.64,0,0,0-1.5,4.56C170.11,270,166.58,278,159,284.34Z" transform="translate(0 0.6)"/><path class="cls-5" d="M124.25,249.45,138.08,264c-.68.81-1.3,1.67-2.05,2.42q-38.72,38.74-77.45,77.46c-.57.56-1.19,1.06-1.79,1.59a122.38,122.38,0,0,1-13.56-15.73q21.56-21.47,43.12-42.92,17.33-17.28,34.61-34.6C122,251.24,122.78,250,124.25,249.45Z" transform="translate(0 0.6)"/><path class="cls-7" d="M315.39,30.08a95.32,95.32,0,0,1,43.82,29.57c1,1.53.28,2.78-.65,4A25.27,25.27,0,0,1,356.4,66Q289.17,133.2,221.94,200.43c-1.39,1.39-2.66,3-4.9,3.12-5.3-3.24-9.13-8-13-12.69a90.63,90.63,0,0,1-17.27-30.59c-.9-2.12,0-3.84,1.26-5.44a33.57,33.57,0,0,1,2.48-2.58Q249.68,93.09,308.85,33.93C310.68,32.1,312.3,29.81,315.39,30.08Z" transform="translate(0 0.6)"/><path class="cls-8" d="M315.39,30.08c-1.19,1.05-2.45,2-3.57,3.16Q250.89,94.13,190,155.06c-1.47,1.47-3.42,2.69-3.24,5.21a92.12,92.12,0,0,1-5.66-26.89c-.13-2,.23-4-.64-5.85.61-15.93,3.17-31.46,10.53-45.8C207.34,49.87,233.21,31,268.67,25.46c3.53-.55,7.13-.67,10.69-1C291.68,24.34,303.76,25.78,315.39,30.08Z" transform="translate(0 0.6)"/><path class="cls-8" d="M378.43,93.11C389,125.56,385,156.17,365.64,184.2c-17.23,25-41.53,39.13-71.6,42.84a95.37,95.37,0,0,1-45.79-5.29c1.48-2.77,4.15-4.42,6.28-6.56q59-59.13,118.15-118.17C374.32,95.38,375.66,93.16,378.43,93.11Z" transform="translate(0 0.6)"/><path class="cls-7" d="M378.43,93.11c-1.05,1.2-2,2.46-3.15,3.58q-60.9,60.93-121.83,121.82c-1.47,1.47-2.69,3.42-5.2,3.24a74.66,74.66,0,0,1-19.93-9.69c-.61-1.49.25-2.55,1.08-3.59a30.35,30.35,0,0,1,2.47-2.6q65-65,130-130c1.79-1.78,3.2-5,6.81-3.41A77.62,77.62,0,0,1,378.43,93.11Z" transform="translate(0 0.6)"/><path class="cls-8" d="M368.72,72.5c-1.63.12-2.53,1.36-3.55,2.38q-67.4,67.38-134.77,134.78c-.75.74-1.39,1.6-2.08,2.4-4-2.5-8-5-11.28-8.51,1.21-1.4,2.35-2.87,3.65-4.17q67.5-67.53,135-135c1.38-1.38,3.17-2.5,3.52-4.68A85.89,85.89,0,0,1,368.72,72.5Z" transform="translate(0 0.6)"/></svg>