<?xml version="1.0" encoding="utf-8"?>
<!-- Generator: Adobe Illustrator 25.3.0, SVG Export Plug-In . SVG Version: 6.00 Build 0)  -->
<svg version="1.1" id="Camada_1" xmlns="http://www.w3.org/2000/svg" xmlns:xlink="http://www.w3.org/1999/xlink" x="0px" y="0px"
	 viewBox="0 0 271.3 203.8" style="enable-background:new 0 0 271.3 203.8;" xml:space="preserve">
<style type="text/css">
	.st0{fill:#474157;}
	.st1{fill:#FCF4E8;}
	.st2{fill:#5F5D7E;}
	.st3{fill:#F8A827;}
	.st4{fill:#474B60;}
	.st5{fill:#F7AA2D;}
	.st6{fill:#F7A92B;}
	.st7{fill:#FBF3E8;}
	.st8{fill:#4C4A65;}
	.st9{fill:#FDF9F3;}
	.st10{fill:#FEFDFC;}
	.st11{fill:#464A5F;}
	.st12{fill:#E4E6EA;}
	.st13{fill:#5E5C7D;}
	.st14{fill:#EFDFCB;}
	.st15{fill:#ECECF2;}
	.st16{fill:#494D61;}
	.st17{fill:#575573;}
	.st18{fill:#575574;}
	.st19{fill:#4C5064;}
	.st20{fill:#565472;}
	.st21{fill:#404457;}
	.st22{fill:#545370;}
	.st23{fill:#504E6A;}
	.st24{fill:#95919B;}
	.st25{fill:#686578;}
	.st26{fill:#53516C;}
	.st27{fill:#EFDFCA;}
	.st28{fill:#F8A829;}
	.st29{fill:#F8A726;}
	.st30{fill:#BC6F72;}
	.st31{fill:#BE6F71;}
	.st32{fill:#E0E0E6;}
	.st33{fill:#DFE0E6;}
	.st34{fill:#EBEBF2;}
	.st35{fill:#BD6F72;}
	.st36{fill:#F5A529;}
	.st37{fill:#414559;}
	.st38{fill:#3F4356;}
	.st39{fill:#474257;}
	.st40{fill:#404456;}
	.st41{fill:#DEDEE3;}
	.st42{fill:#C38045;}
	.st43{fill:#414356;}
	.st44{fill:#ECECF3;}
</style>
<g>
	<path class="st0" d="M37.6,55.3c0-6.7,0.1-13.3,0.1-20c0-5.3,2.2-7.5,7.5-7.5c10.6-0.1,21.3-0.1,31.9-0.1c1.2-1,2.7-0.9,4.2-0.9
		c41.9,0,83.8,0,125.6,0c1.9,0,3.7,0.7,5.5,0.9c9.6,0,19.1,0.1,28.7,0.1c3.8,0,6.6,1.1,7.8,5c0.1,0.2,0.2,0.4,0.2,0.6
		c1,29.6,1.2,59.2,0.5,88.8c-0.3,12.4-0.1,24.8-0.5,37.1c0,0.8,0.1,1.7-0.2,2.5c0.1,2.4-2.4,3.2-3.3,5c-2.3,1.6-5.1,1.1-7.6,1.2
		c-8,0.5-16,0.5-24.1,0.5c-34.2,0-68.4,0-102.7,0c-1.9,0-3.8,0.2-5.6-0.4c-2.2-1.1-2.2-3.4-2.6-5.3c-0.5-3-0.7-6.1,1.1-8.9
		c1.8-0.9,3.7-0.6,5.5-0.6c38.5,0,77.1,0,115.6,0c6,0,6,0,6.1-6.1c0-33.4,0-66.8,0-100.2c0-0.5,0-1,0-1.6c-0.1-3.8-0.3-4.1-4.1-4.1
		c-55.8,0-111.5,0-167.3,0c-4.3,0-4.5,0.3-4.5,4.7c0,11,0,21.9,0,32.9c0,1.6,0.1,3.1-0.2,4.7c-1.7,4.2-6,5.5-9.1,8.1
		c-1.9,1.5-3.6,3.1-5,5.1c-0.9,1.3-1.3,2.8-0.6,4.4c1.1,1.6,2.6,2.6,4.3,3.4c2.7,1.6,5.2,3.5,8.1,4.6c1.2,0.5,1.9,1.6,2.2,2.9
		c0.5,10.3,0.1,20.6,0.2,30.9c0,2.2,0,4.4,0,6.6c0.1,3.6,0.3,3.8,4,3.9c2.4,0.1,4.8-0.4,7.1,0.5c0.7,0.3,0.8,1,0.7,1.6
		c-0.5,3.5-1.3,6.9-1,10.4c0.1,0.9-0.6,1.7-1.5,2.2c-2.6,0.8-5.2,0.4-7.8,0.4c-4.5-0.1-8.9-0.1-13.4-0.6c-1-0.1-2.1-0.2-2.9-1
		c-4.1-3.4-3.2-8-3.2-12.4c0-10.5-0.1-20.9-0.1-31.4c-0.8-1.4-0.9-2.9-0.9-4.5c0-19.5,0-39.1,0-58.6C36.6,58.2,36.7,56.7,37.6,55.3z
		"/>
	<path class="st1" d="M212.5,27.6c-1.4,0-2.7,0.1-4.1,0.1c-42.5,0-85,0-127.5,0c-1.2,0-2.5-0.1-3.7-0.1c-0.7-4.9-1.5-9.8,1.5-14.5
		c2.6-4.2,6.3-6.8,10.5-8.7c13-5.8,26.7-4.7,40.4-3.8c2.3,0.2,4.5,0.1,6.8,0.5c6.6,1.4,13.4,2.3,19.9,3.9
		c11.1,2.7,21.9,6.6,32.5,10.7c6.8,2.6,13.2,6.1,19.8,9.3C209.9,25.8,211.2,26.8,212.5,27.6z"/>
	<path class="st2" d="M65.2,167.4c1.3-2.5-0.5-5.2,0.5-7.8c0.6-1.7,0.7-3.6,1.4-5.4c0.2-2.2-0.1-4.3-1.1-6.3
		c-0.8-1.7-0.9-3.6-1.1-5.5c-0.3-4.6,1-9.1,0.8-13.7c-0.1-1.6,0.6-3,1.9-4.1c3.1-0.5,6.2,0.2,9.3,0.5c2.5,0.3,4.6,0,5-3.2
		c0.1-0.8,0.4-1.7,1.5-1.7c1,0,1.3,1,1.4,1.8c0.3,2.5,1.8,2.8,4,2.6c2.8-0.3,5.5-0.9,8.4-0.7c1,0.1,1.8-0.3,2.6-0.8
		c1-0.4,1.9-0.4,2.9,0.1c1.1,0.8,1.9,1.9,2.5,3.1c0.4,1,0.3,2.1,0.3,3.1c0,1.6-0.1,3.2,0.1,4.8c1.6,6.3-1.1,12.5-0.9,18.7
		c0,0.4-0.3,0.8-0.6,1c-0.2,4.5-0.7,9,1.2,13.3c1,1.2,0.8,2.4,0.5,3.8c-0.4,1.7-0.4,3.5,0.1,5.2c0.4,3.4-0.2,6.8,1.3,10.1
		c0.7,1.5-0.2,3.1-0.5,4.6c0.4,3.6-1.1,5.3-5.7,6.6c-1.2,0.1-2.4,0.2-3.6-0.3c-1.4-2.5-4.5-4.1-4.4-7.5c0.2-5.5-1.7-10.7-2.1-16.1
		c-0.2-2.1-0.1-4.1-0.4-6.2c-0.2-4.4-0.5-8.7-1.4-13c0.4-5.6-2.2-10.5-3.1-15.6c-1.3,5.2-3.5,10.3-4.1,15.9c-1.4,4-1.1,8.2-1.5,12.3
		c-0.5,1.3-1.1,2.5-1.3,3.9c-0.8,5.5-1.7,10.9-1.7,16.5c-0.2,2.2-1.4,4.1-2.4,6c-0.2,0.4-0.6,0.7-1,1c-2.5,1.3-5,2.3-7.7,0.4
		c0,0-0.3,0.3-0.5,0.4c-1.9-0.8-0.8-2.8-1.6-4.1c0.2-1.2-0.9-1.7-1.4-2.5c-0.9-1.3-0.5-2.2,0.7-2.9c2.3-1.9,0.6-4.2,0.8-6.4
		C64.4,175.3,63.8,171.2,65.2,167.4z"/>
	<path class="st1" d="M37.6,55.3c0,22.5,0,45.1,0,67.6c-6.5-3.4-13.1-6.7-19-11.1C9.6,105,1.4,97.6-0.2,85.5
		c-0.8-5.6,0.7-10.6,3.7-15.3c4.6-7,11.5-9.9,19.3-11.9C27.7,57.1,32.8,56.7,37.6,55.3z"/>
	<path class="st1" d="M248.9,161.7c0-12.7-0.1-25.5-0.1-38.2c0-29.1,0-58.2,0-87.4c0-1.1,0.1-2.3,0.1-3.4c1.1,4.4,0.5,8.9,0.4,13.3
		c0,3,1.2,4.8,3.4,6.5c9.6,7.6,16.2,17,18,29.5c2,13.9-3.1,25.4-11.8,35.8c-2.2,2.7-5.1,4.9-7.9,6.9c-1.4,1-1.7,2.1-1.7,3.6
		c0,10,0,20,0,30.1C249.4,159.5,249.8,160.7,248.9,161.7z"/>
	<path class="st1" d="M105.9,176.4c-0.9-2.9-0.3-6-0.5-9c43.7,0,87.4,0,131.1,0c3.1,0,6.2,0.2,9.3-0.7c-2,2.5-5,1.6-7.4,1.8
		c-6,0.5-12.1,1.2-18.2,0.8c-0.8,1-2.3,0.2-3.1,1.2c-14.8-0.4-29.6,0.8-44.4,0.7c-20.4-0.2-40.7-0.1-61.1-0.1
		C106.1,171.1,106.1,171.1,105.9,176.4z"/>
	<path class="st1" d="M64.1,191c1.4,1,0.6,2.9,1.7,4.1c3.4,3.1,5.6,2.7,8.3-1.4c0.2-0.2,0.4-0.4,0.6-0.6c1.4-1.2,2.1-3.2,4-3.9
		c4.1-0.5,8.2-0.2,12.4-0.2c0.9,0,1.9,0.2,2.5,0.9c0,0.8-0.2,1.9,0.6,2.2c2,1,2.2,3,3.1,4.6c0.3,0.3,0.6,0.6,0.9,1
		c1.8,1.5,4,0.3,5.9,1c0.3,0.1,0.5,0.3,0.7,0.6c-3.9,1.2-7.8,2.3-11.9,2.4c-3.4,0.1-6.9-0.1-10.3,0.1c-5.7,0.3-10.9-1.5-16.3-2.8
		c-3.6-0.9-3.9-2-2.7-5.4C63.9,192.9,63.9,191.9,64.1,191z"/>
	<path class="st2" d="M206.2,195c-0.5-0.6-1-1.3-1.4-2c-1.8-2.9-1.4-3.5,1.9-3.8c2.4-0.3,4.8-0.5,7-2c2.4-1.7,6.7-0.6,8.6,1.7
		c1.1,1.4,2.3,2.7,3.3,4.1c0.7,1,1.5,2.2-0.4,3c-2.9-0.6-5.7,0.2-8.5,0.6c-1.3,0.3-2.6,0.1-3.8-0.5c-1.1-0.6-2.3-0.5-3.5-0.2
		C208.1,196,207,195.9,206.2,195z"/>
	<path class="st2" d="M25.2,182.3c5.2-0.9,6.6,3.3,8.9,6.4c0.3,1.8-0.3,2.9-2.3,2.8c-1-0.4-1.9-0.8-3-0.7c-0.8,0-1.5,0-2.3,0
		c-0.6,0-1.2-0.1-1.8-0.2c-1.3-0.5-2.7-0.4-4-0.1c-1.3,0-2.6-0.1-3.6-1.1c-1.2-1.1-1.5-2.6-1.8-4.3c2.3,0,4.4-0.5,6.5-1
		c-0.1-1.8,1.8-1,2.3-1.9C24.4,182,24.8,182,25.2,182.3z"/>
	<path class="st3" d="M252.6,196.8c0.8,0.1,1.9-1,2.5,0.3c0.8,1.7-1,2.2-1.9,3.3c2.6,0.4,5.5-0.6,7.7,2.2c-7.6,1.5-15,1.6-22.6-0.1
		c2.5-2.7,5.6-1.7,8.3-2.1c0-1.1-0.9-1.1-1.5-1.4c-1-0.5-1.4-1.3-1-2.3c0.4-1,1.4-0.8,2.1-0.6c1.3,0.3,2.5,0.3,3.6-0.7
		c0.6-0.6,1.3-0.6,1.9,0.1C251.8,196,251.3,197.2,252.6,196.8z"/>
	<path class="st1" d="M65.2,167.4c-0.4,5.5-1.5,10.9-0.2,16.4c0.3,1.2-0.7,1.6-1.7,1.8c0.2-0.8,0.7-1.6,0.6-2.4
		c-0.6-3.9,0-7.8,0.1-11.7c0.1-1.9-0.8-2.3-2.5-2.2c-6.5,0.2-13-0.6-19.5-1.2c-1.8-0.2-1.8-0.2-1.1-1.3C49,168,57.1,167,65.2,167.4z
		"/>
	<path class="st1" d="M212.5,195.5c1.2,0.4,2.5,0.9,3.8,0.6c1.7-0.2,3.4-0.5,5,0.2c-6.7,3.2-13.5,1.8-21,0.9
		c2.1-2.6,4.4-0.8,5.9-2.2c1.2-0.5,2.1,0.7,3.2,0.4C210.4,195.2,211.4,195.1,212.5,195.5z"/>
	<path class="st4" d="M104,199.3c-2.2-0.5-4.9,1.4-6.7-1.2c0.9-1.1,2.6-0.1,3.6-1.2c3.2-0.6,5.1-2.6,5.7-5.8c2.5,0,4.1,0.8,3.6,3.7
		C109,197.3,106.3,198.1,104,199.3z"/>
	<path class="st5" d="M24.1,182.5c-0.6,0.8-2.1,0.2-2.4,1.5c-1.7-2.1-3.1-4.7-6.3-4.8c-0.7,0-1.7-0.5-1.4-1.3c0.3-1-0.3-2.3,1-3
		c0.8-0.4,1.5-1,2.3-1.6c0.3,4.1,3.5,6.3,5.9,9.1C23.5,182.1,23.8,182.2,24.1,182.5z"/>
	<path class="st6" d="M24.1,182.5c-0.3,0-0.6-0.1-0.9-0.1c1-3.3,4.8-4.9,5.2-8.7c0.9,0.6,1.9,1,2.3,1.7c0.7,1.2,1.9,3.3-0.3,3.7
		c-2.4,0.4-3.7,1.9-5.2,3.3C24.8,182.4,24.4,182.4,24.1,182.5z"/>
	<path class="st7" d="M24.5,189.8c0.6,0.1,1.2,0.1,1.8,0.2c0.9,0.7,1.9,0.5,2.9,0.6c0.8,0,1.5,0,2.2,0.5c1.9,0.3,2.3-1,2.7-2.4
		c1.8,1.5,1.6,2.8-0.8,2.9c-5.1,0.2-10.2,0.1-15.3-0.1c-1.1,0-3.2-0.4-1-2.3c1.3,0.2,2.5,0.4,3.8,0.5
		C22,189.5,23.2,189.5,24.5,189.8z"/>
	<path class="st7" d="M104,199.3c1.6-2.2,4.2-3,6.2-4.6c-0.3,3.3-1.4,4.3-5.5,4.6C104.5,199.3,104.3,199.3,104,199.3z"/>
	<path class="st8" d="M221.3,196.3c-1.7-0.1-3.3-0.1-5-0.2c2.9-0.8,5.8-0.8,8.7,0C223.7,196.2,222.5,196.2,221.3,196.3z"/>
	<path class="st9" d="M216.9,170.5c0.4-2,2-1,3.1-1.2C219.6,171.3,218,170.2,216.9,170.5z"/>
	<path class="st10" d="M252.6,196.8c-0.2,0.4-0.2,1.3-0.8,1c-0.9-0.5-0.1-1.4-0.2-2.2C251.9,196,252.2,196.4,252.6,196.8z"/>
	<path class="st11" d="M130.5,95.2c-3.4,0-6.8-0.2-10.2-1.1c-0.5-0.8,0-1.6,0.2-2.4c0.4-1.6,0.2-3-1.6-3.5c-1.9-0.5-3.5-0.1-4.4,1.9
		c-0.4,1-0.1,2.3-1.1,3.2c-4.2,1-7.8-1.3-11.6-2.5c-0.6,4-0.9,7.7-1.7,11.2c-0.5,2.4,0.8,4.1,1.5,6.1c1.1,3.3,2.5,6.5,3.8,9.8
		c0.4,0.4,0.9,0.8,1.1,1.4c0.8,2.2,0.1,3.6-2.1,4.2c-0.6,0.2-1.2,0.1-1.8,0c-1,0-2,0-3,0c-0.5,0.6-1.4,0.6-1.9,1.2
		c-3.3-0.4-6.7,0.3-9.9,0.8c-2.9,0.5-3.4-0.6-3.8-2.7c-0.1-0.7-0.2-1.4-0.4-2.3c-0.4,0.3-0.8,0.4-0.8,0.6c-1.2,5.2-1.2,5.4-6.3,4.8
		c-3-0.4-6,0-8.9-1.1c-2.4,1-2.6-0.7-2.7-2.3c-0.2-2.8,0.8-5.2,2.2-7.5c1.1-1.3,2.4-2.5,3.1-4c0.6-1.1,0.8-2.1-0.7-2.6
		c-0.7-0.3-1.4-0.7-1.6-1.4c-1.1-3.2-3.8-5.1-5.8-7.6c-1.6-2-3-2.7-5.2-1.2c-0.6,0.4-1.3,0.5-2,0.9c-1.4,0.8-1.1,1.5,0.2,2
		c2.4,1.6,4.8,3.2,7.5,4.3c1.1,0.4,2,1.1,2.2,2.4c-1.2,2.1-2.5,4.2-4.7,5.6c-2.2,0.2-4.1-0.4-5.4-2.3c-3.2-2.4-7.2-3.4-10.1-6.3
		c0.1-2,2.2-3.3,1.7-5.5c-0.3-1.3-0.1-3-1.7-3.4c-1.7-0.4-2.2,1.2-2.8,2.4c-0.6,1.1-0.5,2.5-1.5,3.4c-2.1-4.2,1.1-6.8,3.5-9
		c3.3-3,7.2-5.3,10.8-7.9c2.1-0.3,3.7-1.5,4.2-3.5c0.6-2.3,2.1-3.1,4.2-3.4c2.8-0.4,5.7-0.7,8.5-1.4c2-0.5,2.2-3.1,3.9-4.2
		c0.7-1,1.7-1.4,2.9-1.5c1-0.1,1.9-0.5,2.8-0.5c2,0.4,4.3,0.2,5.4,2.5c0.6,0.7,1,1.7,2,1.8c2.6,0.1,5.2-0.1,7.5,1.3
		c0.7-0.3,1.4-0.6,2.2-0.6c0.7,0,1.4,0,2.1,0.1c0.7,0.2,1.3,0.6,1.7,1.2c0.4,0.6,0.8,1.1,0.8,1.9c2.1,3,5.4,4.4,8.7,5.5
		c3,1,6.2,1.3,9.4,1.5c0.6,0.5,1.5,0.5,2,1.3c2.7,0.8,5.4,1.6,8.1,2.4c0.5,0.4,1,0.7,1.2,1.3C133.1,92.5,133.4,94.4,130.5,95.2z"/>
	<path class="st12" d="M240,101.6c-2.5-0.1-4.7-2.2-4.7-4.4c0.1-2.1,2.3-3.8,4.9-3.7c2.6,0.1,4.9,1.9,4.7,4
		C244.8,99.6,242.4,101.7,240,101.6z"/>
	<path class="st13" d="M40.2,101.6c-0.5-2.1,0.9-3.8,1.7-5.5c0.4-1,1.4-1.4,2.6-1.3c1.3,0.1,1.7,0.8,2.1,1.9c1.1,3.2,0.7,5.9-2,8.1
		C42.5,104.5,41.4,103,40.2,101.6z"/>
	<path class="st0" d="M79.6,167.3c-0.3-4.5,0.1-8.9,1.3-13.3c2.9-1.1,5.8-1.2,8.7,0.1c1.2,4.3,1.8,8.7,1.3,13.2
		C87.2,169,83.4,169,79.6,167.3z"/>
	<path class="st14" d="M106.1,119.2c-0.2-0.4-0.4-0.9-0.5-1.3c3.4,0,6.9,0.1,10.3,0c1.8,0,2.7,0.7,2.6,2.6c-0.1,2.3-0.1,4.6,0,6.9
		c0.1,2.2-1,3-3,3c-1.8,0-3.6,0.2-5.3,0c-3-0.3-5.3,0-5.4,3.7c0-1.7,0-3.3,0-5c2.6-1.6,5.5-0.6,8.2-0.8c2.4-0.2,3.1-1.2,2.4-3.6
		c-3.6,1.3-6.8,5.5-10.9,1.3c-1-0.6-1.5-1.5-1.7-2.6c0.3-0.7,0.8-0.6,1.4-0.5c5,1.7,7,1.2,10.4-2.7
		C111.7,119.3,108.7,120.9,106.1,119.2z"/>
	<path class="st1" d="M79.6,167.3c3.8,0,7.5,0,11.3,0c1.7,2,0.4,4.2,0.6,6.4c-0.4-3.2-2.5-3.3-5.1-3.2c-2.7,0.1-5.4,0-8.1,0
		C78.2,169.2,78.2,167.9,79.6,167.3z"/>
	<path class="st15" d="M104.5,126.1c3.7,2,6.8,0.5,9.6-1.9c0.6-0.5,1.2-1.3,2.1-0.8c0.7,0.4,0.3,1.3,0.4,2c0.5,2.9-0.6,4.2-3.7,3.9
		c-2.7-0.3-5.4-0.1-8.1-0.1C104.7,128.1,104.6,127.1,104.5,126.1z"/>
	<path class="st16" d="M74,193.7c0.7,3.5-2.4,3.6-4.3,4.3c-2.3,0.9-3.6-0.6-4-2.9c0.1-0.2,0.1-0.4,0.2-0.6
		C68.8,195.5,71.4,194.8,74,193.7z"/>
	<path class="st17" d="M96.1,153.6c1.9-3.6,3.7-7.2,5.6-10.9c-0.3,4.4-2.7,7.8-4.8,11.4C96.6,154,96.4,153.8,96.1,153.6z"/>
	<path class="st18" d="M74.4,154.3c-3.2-0.8-3.9-3.9-5.5-6c0.2-0.2,0.4-0.3,0.6-0.5c1.7,2,3.5,4,5.2,6
		C74.6,153.8,74.5,154,74.4,154.3z"/>
	<path class="st19" d="M76.5,188c1.1,0.2,1.2,1.1,1.3,1.9c-0.2,1.9-1.5,2.7-3.2,3.2C74.6,191.1,76.3,189.8,76.5,188z"/>
	<path class="st18" d="M90.4,137.4c3.1-0.5,6.2-0.9,9.2-1.4C96.7,137.5,93.6,138,90.4,137.4z"/>
	<path class="st20" d="M69.8,188.8c-0.1,0.4-0.1,0.6-0.2,0.6c-1.5,0.8-3.1,0.9-4.5-0.1c-0.2-0.1-0.2-0.7-0.1-0.8
		C66.7,187.3,68.1,188.9,69.8,188.8z"/>
	<path class="st17" d="M81.6,136.6c-3,1.9-5.6,1.2-8.1,1C76,137.6,78.4,136.9,81.6,136.6z"/>
	<path class="st21" d="M100.9,196.8c-0.6,2.1-2.4,0.9-3.6,1.2c0-0.4-0.1-0.8-0.1-1.2C98.4,196.8,99.7,196.8,100.9,196.8z"/>
	<path class="st20" d="M104.6,185.8c-1.3,0.4-2,0.1-2.5-0.7C103,185,103.9,184.5,104.6,185.8z"/>
	<path class="st22" d="M97.8,124.8c0.1-1.3,1-1.3,1.9-1.2C99.6,124.8,98.7,124.8,97.8,124.8z"/>
	<path class="st23" d="M212.5,195.5c-1,0-2.1,0-3.1,0C210.4,194.7,211.4,194.7,212.5,195.5z"/>
	<path class="st24" d="M28.9,191.1c-1.1,0.1-2.2,0.4-2.6-1.1c0.9,0,1.7,0,2.6-0.1C29.2,190.3,29.3,190.7,28.9,191.1z"/>
	<path class="st25" d="M28.9,191.1c0-0.4-0.1-0.8-0.1-1.1c1,0.1,2.3-0.5,2.6,1.1C30.6,191.1,29.7,191.1,28.9,191.1z"/>
	<path class="st26" d="M24.5,189.8c-1.2,0-2.5,0-3.7,0C22,189,23.2,189,24.5,189.8z"/>
	<path class="st11" d="M75.2,70.4c-2.4-0.4-5.2,0-4.8-4.2c0.2-1.6-1.5-3.6-2.1-5.5c-0.2-0.6-0.7-1-0.5-1.7c0.4-1.1,6.6-5.6,7.8-5.7
		c2.1-0.1,4.1,0,6.2-0.5c1.8-0.5,3.6-0.3,4.2,2.3c0.4,1.7,3.4,2.1,2.8,4.6c-0.2,0.9-0.6,1.7-0.9,2.6c-1.1,3.6-1.3,3.7-5,2.9
		c-0.3-0.1-0.6,0.2-0.8,0.4c-0.8,1.6-0.4,3.8-2.6,4.5C78.1,70.7,76.7,71.4,75.2,70.4z"/>
	<path class="st14" d="M141.7,62.8c-2.4,0-4.8,0-7.2,0c-2.1,0-3.3-1.2-3.4-3.3c0-0.1,0-0.2,0-0.3c-0.7-9.3-0.5-9.6,8.7-9.6
		c3.1,0,6.3,0.1,9.4,0c1.9-0.1,2.7,0.5,2.6,2.5c-0.1,2.6-0.1,5.2,0,7.8c0.1,2.1-1,2.8-2.8,2.9C146.5,62.8,144.1,62.8,141.7,62.8z"/>
	<path class="st27" d="M141.7,133.6c2.3,0,4.6,0.1,6.9,0c2.2-0.1,3.3,0.6,3.2,3c-0.1,2.5-0.1,5,0,7.5c0.1,2-0.9,2.8-2.8,2.7
		c-4.8-0.1-9.6-0.1-14.4,0c-2.3,0.1-3.2-1.1-3.5-3.1c0-0.2,0-0.4,0-0.6C130.4,133.6,130.4,133.6,141.7,133.6z"/>
	<path class="st27" d="M194.3,104.7c-2.6,0-5.2-0.1-7.8,0c-1.6,0-2.3-0.5-2.2-2.2c0.1-2.8,0.1-5.6,0-8.4c0-1.9,0.9-2.6,2.7-2.6
		c4.9,0,9.8,0,14.7,0c1.8,0,2.7,0.7,2.7,2.6c-0.1,2.8-0.1,5.6,0,8.4c0,1.6-0.6,2.2-2.2,2.2C199.5,104.7,196.9,104.7,194.3,104.7z"/>
	<path class="st28" d="M146.1,85.4c2.4,0,4.8,0.1,7.2,0c1.6-0.1,2.6,0.7,3.3,1.8c0.8,1.3-0.7,2.2-1.5,2.7c-2.2,1.6-4.6,2.9-7,4.4
		c-1,0.6-2.1,0.7-3,0.4c-3.5-1.3-6.4-3.5-9.2-5.9c-1.4-1.1,0-3.2,2.3-3.3C140.9,85.3,143.5,85.4,146.1,85.4z"/>
	<path class="st27" d="M179.6,65.9c2.3,0,4.6,0.1,6.9,0c2.2-0.1,3,0.9,2.9,3c-0.1,2.3-0.1,4.6,0,6.9c0,1.8-0.6,2.7-2.5,2.7
		c-5,0-10,0-15,0c-1.9,0-2.6-0.8-2.6-2.7c0.3-12.1-1.9-9.6,9.1-9.9C178.7,65.9,179.1,65.9,179.6,65.9z"/>
	<path class="st14" d="M177.4,117.9c2.4,0,4.8,0.1,7.2,0c2-0.1,2.9,0.7,2.8,2.7c-0.1,2.4-0.1,4.8,0,7.2c0,1.8-0.7,2.7-2.6,2.7
		c-5,0-10,0-15,0c-1.9,0-2.5-0.9-2.6-2.7c-0.5-9.9-0.6-9.9,9.2-9.9C176.8,117.9,177.1,117.9,177.4,117.9z"/>
	<path class="st27" d="M102.8,78.5c-0.6-0.2-0.8-0.8-1-1.3c2.9-1.4,6.1-0.5,9.2-0.8c2.9-0.3,3-0.3,2.6-3.8c-1.8,1-3.4,2-5.1,2.9
		c-1.9,1.1-3.5,1-5.2-0.3c-1-0.8-2.2-1.2-3.2-1.9c-1.6-1-1.3,0.4-1.6,1.2c-0.1,0.5-0.4,0.8-0.7,1.2c-0.6-0.1-1.2,0.5-1.9,0.1
		c0-2.4,0.1-4.8,0-7.2c-0.1-2,0.7-2.8,2.7-2.8c5.1,0.1,10.2,0.1,15.3,0c2,0,2.8,0.9,2.7,2.8c-0.1,2.4-0.1,4.8,0,7.2
		c0,1.9-0.8,2.6-2.6,2.6C110.2,78.4,106.5,78.4,102.8,78.5z"/>
	<path class="st29" d="M141,94.1c6.4,4.7,10.5-1.5,15.6-3.6c0.3,10.7,1.2,8.4-7.5,8.6c-3.7,0.1-7.5,0-11.2,0c-1.3,0-2.6,0-2.5-1.9
		C136.9,95.6,138.8,94.6,141,94.1z"/>
	<path class="st30" d="M75.2,70.4c1.5-0.3,3-0.6,4.5-0.8c1.2-0.2,1.6-0.9,1.6-2.1c0-0.9-0.5-2,0.5-2.8c0.7-0.5,1.6-1.1,2.2-0.3
		c2.4,2.7,2.8-0.3,3-1.3c0.3-1.4,0.9-2.5,1.9-3.3c0.8,3.1,1,5.9-2,8.3c-1.2,1-0.3,3.1-0.5,4.7c-1.6-1.3-3.7-1.4-5.6-2
		c-1-0.6-1.7,0-2.5,0.6c-1,0.3-2.1,0.5-3.1,0.8C75.3,71.6,75.2,71,75.2,70.4z"/>
	<path class="st2" d="M113.5,93.4c0-2.5-0.4-5.3,2.9-6.1c1.6-0.4,3.5-0.4,4.7,1.1c1.6,2,0.3,3.9-0.6,5.8
		C117.9,95.1,115.7,94.2,113.5,93.4z"/>
	<path class="st31" d="M141,94.1c-1.8,1.2-3.2,3-5.6,3.2c-1.6-0.7-3-2-4.8-2.1c1.8-1.3,2-2.9,1.1-4.8c0.4-0.4,0.8-0.5,1.3,0
		C135.9,90.9,138.4,92.5,141,94.1z"/>
	<path class="st32" d="M132.9,90.4c-0.4,0-0.9,0-1.3,0c-0.6-0.2-0.6-0.8-0.7-1.3C131.9,89.1,132.8,89,132.9,90.4z"/>
	<path class="st33" d="M122.8,86.7c-0.8-0.2-2,0.2-2-1.3C121.9,85.3,122.8,85.3,122.8,86.7z"/>
	<path class="st15" d="M97.8,74.7c0-0.6,0-1.2,0-1.9c0-0.6-0.2-1.4,0.6-1.5c0.6-0.1,0.8,0.5,1.2,0.8c1.9,1.3,3.6,3.2,5.7,3.6
		c2.2,0.4,4.3-1.5,6.3-2.7c0.9-0.5,1.6-2.4,2.6-1.5c1.2,1,0.4,2.9,0.4,4.4c0,1.6-1.3,1.3-2.3,1.3c-3.5,0-7.1,0-10.6,0
		c-0.5-0.4-1-0.8-1.4-1.3C99.7,75.1,98.4,75.5,97.8,74.7z"/>
	<path class="st34" d="M106.1,119.2c3.3,0,6.7,0,10,0c-2,5.6-8.1,7.5-12,3.8C106.5,122.6,106.4,120.9,106.1,119.2z"/>
	<path class="st35" d="M65.3,108.3c1.4-0.2,2.8-0.3,4.2-0.5c2.3-0.2,3,0.7,1.9,2.7c-0.9,1.7-1.8,3.3-3.6,4.3
		c-1.7-1.1-3.4-2.1-5.1-3.2C62.6,109.8,63.6,108.8,65.3,108.3z"/>
	<path class="st21" d="M93.5,108c1.1-2.5,3.5-3.3,4.6-5C97.3,104.9,96.3,106.8,93.5,108z"/>
	<path class="st36" d="M65.3,108.3c-1.3,0.8-2,2-2.6,3.3c-0.9,0.3-1.2,1.8-2.5,1.1c1.6-1.6,2.4-3.8,4.4-5
		C64.8,108,65,108.1,65.3,108.3z"/>
	<path class="st37" d="M85,113c0.3,2.3-0.4,4.2-1.1,6.2C82.8,116.8,84.9,115,85,113z"/>
	<path class="st38" d="M96.7,97.3c-2,1.2-3.4,1.8-5.8,1.8C92.9,98.1,94.3,97.4,96.7,97.3z"/>
	<path class="st39" d="M54.5,98.5c0,1,0.1,2.1,0.1,3.1C52.3,100.7,52,99.6,54.5,98.5z"/>
	<path class="st38" d="M74.5,105c2.2-0.3,3.6-1.2,5.9-0.6C78.2,104.8,77,105.7,74.5,105z"/>
	<path class="st40" d="M112.7,86c0,1.2,0,2.4,0,3.9C111.8,88.4,112.5,87.2,112.7,86z"/>
	<path class="st41" d="M97.8,74.7c1,0.1,2.3-0.4,2.5,1.2c-0.8,0-1.7-0.1-2.5-0.1C97.8,75.4,97.8,75,97.8,74.7z"/>
	<path class="st42" d="M78.4,71.4c0.5-1.6,1.4-1.3,2.5-0.6C80.1,71,79.2,71.2,78.4,71.4z"/>
	<path class="st43" d="M81.7,64.7c-0.1,1.1-0.2,2.2-0.2,3.3c0,1.4-0.6,1.8-1.9,1.6C81.9,68.6,79.9,65.8,81.7,64.7z"/>
	<path class="st44" d="M132.9,51.6c5.8,0,11.1,0,16.4,0C145.5,58.2,140,58.3,132.9,51.6z"/>
	<path class="st44" d="M132.9,54.4c1.9,1.5,3.9,2.1,5.5,3.7c1.7,1.6,4,1.4,6.1,0c0.8-0.5,1.4-1.2,2.3-1.6c0.9-0.4,1.9-1.6,2.8-0.7
		c0.8,0.8,0.4,2.2,0.3,3.3c-0.2,1.5-1.5,1.2-2.5,1.2c-3.5,0-7.1-0.2-10.6,0.1c-3,0.2-4.3-0.7-3.8-3.8C133,56,132.9,55.3,132.9,54.4z
		"/>
	<path class="st44" d="M132.7,135.5c5.7,0,10.8,0,15.9,0c1.1,0,1.1,0.7,0.5,1.4c-0.1,0.1-0.3,0.2-0.5,0.3
		C140.8,142.8,141.8,143.3,132.7,135.5z"/>
	<path class="st15" d="M141.3,144.8c-2.2,0-4.4,0-6.6,0c-1.3,0-2-0.5-1.9-1.9c0.1-1.1-0.5-2.7,0.4-3.3c1.1-0.8,2.5,0.4,3.3,1.1
		c3.7,3.6,7.1,3,10.5-0.4c0.6-0.6,1.7-1.5,2.4-0.7c0.8,0.9,0.3,2.4,0.3,3.6c0,1.1-0.6,1.5-1.6,1.5
		C145.9,144.8,143.6,144.8,141.3,144.8C141.3,144.8,141.3,144.8,141.3,144.8z"/>
	<path class="st15" d="M194.3,93.5c2.2,0,4.4,0,6.6,0c0.6,0,1.3,0,1.4,0.9c0.1,0.6-0.4,0.9-0.8,1.2c-2,1.4-4,2.9-6,4.3
		c-0.8,0.6-1.5,0.6-2.3,0c-2-1.5-4-2.9-6-4.3c-0.4-0.3-0.9-0.6-0.8-1.2c0.1-0.8,0.8-0.8,1.4-0.8C189.9,93.5,192.1,93.5,194.3,93.5z"
		/>
	<path class="st44" d="M186,97.5c3.4,0.7,4.9,4.1,8.3,4.1c3.4,0,4.9-3.3,7.8-4.1c0.7,1.2,0.3,2.3,0.4,3.4c0.1,1.3-0.5,1.9-1.9,1.8
		c-4.2,0-8.3,0.2-12.5-0.1C184.3,102.5,187,99.5,186,97.5z"/>
	<path class="st44" d="M187.3,68.5c-0.2,0.3-0.5,0.7-0.9,1c-1.8,1.2-3.6,2.4-5.4,3.7c-1.2,0.8-2.3,0.8-3.5,0
		c-1.8-1.2-3.6-2.4-5.4-3.7c-0.5-0.4-1-0.8-0.9-1.5c0.1-0.8,0.8-0.8,1.4-0.8c4.4,0,8.8,0,13.1,0C186.6,67.2,187.3,67.3,187.3,68.5z"
		/>
	<path class="st44" d="M171.2,71.1c5.5,4.4,10.6,6.2,15.2,0.1c1.2,0.4,1,1,1,1.5c0.1,4.5,0.1,4.5-4.2,4.5c-2.8,0-5.6-0.2-8.4,0.1
		c-3.1,0.3-4.1-1-3.7-3.9C171.2,72.8,171.2,72.1,171.2,71.1z"/>
	<path class="st44" d="M177.7,119.1c2,0,4,0,5.9,0c0.6,0,1.4-0.2,1.6,0.6c0.2,0.8-0.2,1.5-0.9,1.8c-1.8,0.9-3.3,2.1-4.8,3.3
		c-1.3,1-3.1,0.9-4.4-0.1c-1.5-1.1-2.9-2.3-4.6-3.2c-0.7-0.4-1.1-1.1-1-1.8c0.2-0.9,1.2-0.6,1.9-0.6
		C173.5,119.1,175.6,119.1,177.7,119.1z"/>
	<path class="st44" d="M177.3,129.2c-2,0-4-0.1-5.9,0c-1.7,0.1-2.3-0.7-2.1-2.2c0.1-1.2-0.6-2.9,0.4-3.5c1.2-0.8,1.7,1.1,2.6,1.7
		c4.2,2.5,7.6,2.3,11.3-0.9c0.4-0.4,0.7-1.2,1.4-0.9c0.7,0.3,0.5,1.1,0.5,1.6c0.3,4.1,0.2,4.2-3.8,4.2
		C180.2,129.2,178.8,129.2,177.3,129.2z"/>
	<path class="st44" d="M106.3,67.2c2.2,0,4.4,0,6.6,0c0.7,0,1.6-0.1,1.7,0.9c0.1,0.7-0.4,1.2-0.9,1.5c-2,1.1-4,2.1-5.7,3.7
		c-0.8,0.8-2.3,1-3.5,0.1c-1.9-1.4-3.6-3-5.9-4c-0.5-0.2-0.7-0.8-0.6-1.3c0.2-0.8,0.8-0.8,1.5-0.8C101.7,67.2,104,67.2,106.3,67.2z"
		/>
</g>
</svg>
