<?xml version="1.0" encoding="utf-8"?>
<!-- Generator: Adobe Illustrator 25.3.0, SVG Export Plug-In . SVG Version: 6.00 Build 0)  -->
<svg version="1.1" id="Camada_1" xmlns="http://www.w3.org/2000/svg" xmlns:xlink="http://www.w3.org/1999/xlink" x="0px" y="0px"
	 viewBox="0 0 338.3 234.6" style="enable-background:new 0 0 338.3 234.6;" xml:space="preserve">
<style type="text/css">
	.st0{fill:#FCF4E8;}
	.st1{fill:#F8A726;}
	.st2{fill:#FCC1CB;}
	.st3{fill:#855A61;}
	.st4{fill:#E09722;}
	.st5{fill:#F0F0F0;}
	.st6{fill:#F6F0E8;}
	.st7{fill:#EFE7DD;}
	.st8{fill:#EEE7DD;}
	.st9{fill:#F6F0E7;}
	.st10{fill:#E1E0DF;}
	.st11{fill:#E2E2E2;}
	.st12{fill:#DFDFDE;}
	.st13{fill:#FCF4E9;}
	.st14{fill:#DFDEDD;}
	.st15{fill:#F6F1E8;}
	.st16{fill:#E5E4E3;}
	.st17{fill:#E19822;}
	.st18{fill:#E7E7E6;}
	.st19{fill:#FEFBF7;}
	.st20{fill:#FEFEFE;}
	.st21{fill:#F0EFEF;}
	.st22{fill:#FDFBF6;}
	.st23{fill:#E8E0D5;}
	.st24{fill:#E1DBD1;}
	.st25{fill:#E6DED3;}
	.st26{fill:#F5BCC5;}
	.st27{fill:#FEFDFD;}
	.st28{fill:#DFABB4;}
	.st29{fill:#E29922;}
	.st30{fill:#DEAAB3;}
	.st31{fill:#E5AFB8;}
	.st32{fill:#EBE3DA;}
	.st33{fill:#E7E0D5;}
</style>
<g>
	<path class="st0" d="M187.7,38.9c4.4-2,9.3-2.1,13.9-2.8c6.3-0.9,12.4-2.6,17.8-5.7c7.9-4.5,16.1-7.8,25.2-8.2
		c8.8-0.3,17.5-0.6,26.3,0.3c8.4,0.8,16.8,1.3,25.1,2.4c3.3,0.4,6.3,1.3,9.2,3c-4.4,0-8.9,0-13.3,0c-1.6,0-3.1,0.4-3.4,2.2
		c-0.2,1.6,0.8,2.6,2.3,2.6c2.7,0.1,1.3,2,1.6,3.2c0.7,2.4-1.2,1.8-2.3,1.9c-1.8,0.3-3.5,1.1-3.3,3c0.2,2.3,2.3,1.9,3.9,1.9
		c9.6,0,19.3,0.1,28.9,0c3.4-0.1,4.8,1.1,5.7,4.5c3.9,14.8,1.5,29.1-2.6,43.4c-1,3.5-3.4,2.9-5.9,2.9c-33.9,0-67.8,0.1-101.7-0.1
		c-4.8,0-8.3,0.4-8.5,6.1c-2.6-4.3-1.9-8.5,0.6-12.4c2.8-4.3,5.4-8.6,7.3-13.4c1.5-2.7,1.5-5.6,1.6-8.5c0-2.2-0.5-4.6,1.9-6.2
		c1.3-0.4,2.6-0.3,4-0.3c25.2,0.3,50.4-0.8,75.6-0.5c2.8,0.2,5.7-0.5,8,0.2c-2.2-0.8-5.1,0-7.9-0.3c-26.3-0.3-52.5,0.9-78.8,0.5
		c-0.6,0-1.1-0.1-1.7-0.2c-0.1-0.1-0.4-0.1-0.4-0.2c-3.1-8.1-9.7-10.4-17.7-11.5C194.6,46.2,189.5,44.4,187.7,38.9z"/>
	<path class="st1" d="M277.3,233.9c-14.6,0-29.2-0.1-43.8-0.1c-2.9-4.2-0.5-8.7-0.8-13c-0.1-1.7,0.6-3.5-0.2-5.7
		c0-0.2-0.5,0.8,0.1,0.4c0.2-0.1,0.3,0,0.3,0.4c-0.6,6,0.4,12.2-2.4,17.9c-22.3,0-44.5,0-66.8,0c-1.2-1.2-1.4-2.6-1.3-4.1
		c0.5-13.3-1.5-26.5-1.1-39.7c0.1-4.1,1.4-6.8,5.2-8.7c5.6-2.8,11.1-6.1,15.3-10.9c1.9-2.1,4.2-2.4,6.8-1.9c3.3,0.6,6.5,1.3,9.7,2.2
		c2.8,0.8,3.8-0.3,3.1-3c-1.4-6-3.7-11.7-6.4-17.2c-0.7-1.5-1.8-2.8-1.7-4.6c1.4-2,3.3-1.1,5-0.7c15,3.9,29.7,8.9,44.1,14.9
		c3.2,1.3,5.9,3.6,8.3,6.2c2.2,2.2,4.1,4.8,5.8,7.5c2,3.2,4,6.4,5.9,9.7c2.4,5.6,4.8,11.2,7.1,16.9c2.7,7.2,4.6,14.7,6.9,22
		C276.8,226.1,279.5,229.8,277.3,233.9z"/>
	<path class="st0" d="M294.3,137.5c-7.7,8.7-17,15.4-26.9,21.4c-4.5,2.7-9.3,5-13.9,7.5c-0.4,0.3-0.8,0.4-1.2,0.3
		c-2-1.1-3.4-2.9-4.6-4.7c-0.9-1.6-2.5-1.3-3.9-1.6c-7.1-2.6-14.2-5.2-21.2-8c-1.9-1.9-4-3.2-6.8-2.1c-6.6-1.7-13.1-4-19.8-5.6
		c-3.6-0.9-5.2-3.7-7.1-6.4c-0.8-1.1-0.4-2.2,1-2.7c6.1-1.3,12.2,0,18.3-0.1c17.6-0.3,35.2,0.9,52.8,0.5c0.7,0,1.3,0,1.4,0
		c-25.4,0-51.3-0.7-77.3-1.2c-3.3-0.7-6.4-1.8-9.3-3.5c-0.8-0.7-1.3-1.7-1.6-2.7c-0.2-0.7-0.2-1.5-0.1-2.2c3-3.7,7.7-5.3,11-8.6
		c4.9-4.3,10-8.3,14.9-12.6c1.2-1.1,2.5-2.1,4.4-1.7c1.3,0.4,2.5,1,3.8,1c7.1,0.1,14.2,0.5,21.2,0.9c17.8,1,35.5,2,53.3,2.9
		c9,0.4,18.1,1.4,27.2,1.2c3.6-0.1,5.1,0.6,2.8,4.3c-5.1,8.1-10.4,16-17.3,22.7c-7.6,1-15.3,0.2-21.1,0.5
		C279.7,137.6,287.1,136.2,294.3,137.5z"/>
	<path class="st2" d="M174.8,128.5c0.8,0.4,0.9,1.2,1,2c0.5,0.9,1,1.8,1.4,2.7c6.5,15.6,4.4,26.4-7.5,38.5c-2.6,2.6-4.8,5.5-7.2,8.2
		c-1.6,1.7-3,3.6-5.5,4c-0.3,0-0.7,0-1-0.2c-5.2-3-4.6-2.3-9.2,2.1c-8,7.5-9.7,17.1-11.7,27c-1.4,7.1-1.8,14.4-5.1,21.1
		c-14,0-28,0-42,0c-0.6-4.1,2.6-6.8,3.8-10.2c0.6-1.7,1.5-3.2,2.3-4.8c0.4-0.9,0.9-1.8,1.3-2.6c6-11.4,11-23.3,16.9-34.7
		c2.5-4.9,3-10.4,4.3-15.7c2.3-8.9,4.7-17.9,10.2-25.6c3-4.7,7.6-7.7,11.6-11.4c0.4-0.3,0.8-0.6,1.2-0.9c2.8-2.4,5.8-4.5,9.2-5.9
		c2.8-1.1,5.6-1.2,7.9,0.9c2.3,2.1,1.2,4.6,0.3,6.9c0.4,1.9,1.8,1.1,2.7,0.9c3.5-0.7,7.1-1.2,10.4-2.5
		C171.7,127.8,173.3,127.1,174.8,128.5z"/>
	<path class="st3" d="M204.3,103.5c-6.2,5-12.5,10.1-18.7,15.1c-3.8,0.8-3-2.2-3.2-4.1c-0.6-6.2,0.6-12.2,1.3-18.3
		c0.3-2.4,0.1-4.6-0.4-6.9c-0.9-4.2-3.4-6.8-7.7-7.3c-5.9-0.6-10.5-3.1-14.2-8c-5.5-7.1-13.2-8.5-22.5-4.9
		c-6.8,2.6-12.2,7.3-17.8,11.7c-2.6,2.1-5,4.4-7.9,6c-1.7,0.2-2.3-1-2.8-2.3c-0.5-4.1,1.8-7.4,2.7-11.1c1-3,0.6-6.1,0.1-9.1
		c0-1.1,0.4-2.2,0.3-3.4c-1-10,3.6-16.2,13.5-18.4c2.9-0.6,5.8-1,8.7-1.7c3.5-0.8,6.4-2.7,8.9-5.1c5.5-5.1,11.9-6,18.9-4.8
		c7,1.1,13.4,3.6,19.5,7.1c2.9,2,5.6,4,8.4,6.1c3.5,2.7,7.4,4.2,11.9,4.4c6.7,0.2,10.7,3.7,12.6,9.9c1.4,5.4,1,10.8-0.1,16.3
		c-2,4.8-4.2,9.5-7.5,13.6c-2.8,3.4-1.4,7.5-1.4,11.3C205.9,100.9,205.1,102.2,204.3,103.5z"/>
	<path class="st1" d="M128,140.4c-5.1,8.2-8.6,17.1-10.2,26.6c-1.9,11.9-7.9,22-12.9,32.6c-2.8,6-6,11.7-9,17.6
		c-3.2-3.4-3.6-8-5.5-12c-0.8-1.6-1.2-3.3-2-4.3c2.2,5.7,5.5,11.6,6.4,18.3c-1.8,5.2-4.5,9.9-7,14.7c-9.3,0-18.5,0-27.8,0
		c-2.2-2.1-2.2-5-2.5-7.8c-0.5-4.4-1.2-8.8-1.9-13.2c-0.8-6.3-1.6-12.7-1.1-19.1c0.2-3.6,1.3-6.9,2.3-10.3c4-11,12-17.8,23-21.6
		c10.9-3.8,21.4-8.7,32.1-13.2c3.1-1.3,5.5-3.6,8-5.8c2.3-2,4.3-4.6,7.8-4.8C128.5,139,128.4,139.7,128,140.4z"/>
	<path class="st0" d="M54.1,182.3c-8.1-3.7-16.2-7.3-22.5-14c-8.4-8.9-13.8-19.3-17.3-30.9c-0.8-2.6,0.2-3,2.6-3
		c20.6,0.1,41.2-0.7,61.8,0.3c16.1,0.8,32.1,0.2,48.2,0.7c0.1,0.2,0.2,0.5,0.2,0.7c-4.6,5.9-10.2,10.9-17.1,13.8
		c-11.2,4.6-22.2,9.7-33.6,13.5c-9.8,3.2-16.1,10.2-20.9,18.9C55,182.6,54.6,182.6,54.1,182.3z"/>
	<path class="st0" d="M113.9,130.5c-6,0-12,0-17.9,0c-3.7-4.1-7.8-2.6-12-1c-6.3,0-12.6,0-18.9,0c-2.2-2.1-4.4-3.3-7.4-1.2
		c-1.4,1-3,1.1-4.6,0.2c-6.3,0-12.6,0-18.9,0c-2.1-1.7-4.2-2.5-6.7-0.9c-1,0.6-2.2,0.7-3.2-0.1c-1.7,0-3.3,0-5,0c-8,0-8,0-8-8
		c2.2-2.7,1.2-4.9-1-7c0-4,0-8,0-11.9c2.3-2.6,4.9-4.8,7.7-6.9c3.1-0.7,6.3-0.7,9.4,0c2.9,3.4,6.1,3.4,9.5,0.8
		c3.1-0.3,6.3-0.5,9.4,0.2c3,3.8,6.3,2.7,9.8,0.7c3.7-0.3,7.4-0.6,11.1,0.2c2.3,2.9,5.1,1.8,7.8,0.7c3.7-0.3,7.4-0.6,11.1,0.2
		c2.3,2.9,5,1.5,7.6,0.7c3.1-0.1,6.1-0.4,9.1,0.3c1.1,0.3,1.8,1.2,2.6,2c2.3,2.3,4.2,1.9,5.8-0.8c0.3-0.4,0.8-0.6,1.3-0.7
		c0.6,0,1,0.2,1.5,0.5c1.2,3.2,4.3,6.2,1,9.8c-9.7,1.5-19.4,0.3-29,0.7c-1.3,0.2-4-0.4-3.1,1.7c1.5,3.5-0.3,6.1-1,9
		c-0.4,1.6-0.5,3.3,1.8,3c10.8-1.6,21.8,0.1,32.6-1c1.6-0.6,2.3-2,3.1-3.3c0.9-0.9,2-1.2,3.1-1.4c0.5-0.1,1,0,1.5,0.1
		c2.3,1.2,4,3,4.9,5.6c0.1,0.5,0.2,1.1,0.3,1.6c-0.1,3.6,0.8,7.2-0.8,10.7c-0.4,0.5-0.9,0.6-1.5,0.3c0,0,0,0,0,0
		c0.5-6.2-4.3-3.2-7-4C118.3,128.9,115.9,130.7,113.9,130.5z"/>
	<path class="st0" d="M113,98.6c-0.4,0-0.7,0-1.1,0c-2.3-2.7-5.4-3.4-8.9-3.4c-21.1,0-42.1-0.2-63.2-0.3c-7.5-0.1-15.1-1.9-22.6-0.2
		c-1.1,3.4-4,4.7-7,6c0.5-11.2,2.5-22.2,6.7-32.7c1-2.5,2.4-3,4.8-3.2c16.3-1.3,32.7-0.3,49.1-1.1c14-0.7,28.1-0.7,42.1-0.8
		c2.1,5,0.5,9.7-1.1,14.4c-0.8,2.4-2.3,4.8-0.7,7.4c0.8,0.3,0.6,1.7,1.8,1.6C115.2,90.4,115.2,94.5,113,98.6z"/>
	<path class="st0" d="M111.9,57.8c-28.2,0-56.4,0-84.5,0c-1.6,0-3.7,0.9-4.5-0.8c-0.8-1.6,1-2.9,1.9-4.3c9.4-14.5,22.6-22.2,40-20.6
		c7.5,0.7,14.8,3.2,22.2,4.8c10.2,2.2,20.3,4.1,30.8,4c0.7,0,1.4,0.6,2.2,0.9c0.2,0.5,0.3,1.1-0.1,1.4
		C115.1,47,113.2,52.3,111.9,57.8z"/>
	<path class="st4" d="M156.7,183.3c6.7-6.1,13.2-12.7,18.2-20.2c6.3-9.4,5.9-19.5,0.8-29.5c4-2.7,6.5,1.2,9.8,2
		c2.9,3.1,7,5.2,8.1,9.8c4.8,7.3,7.5,15.4,9.7,23.7c0.8,3.1,0.1,5.1-3.7,3.4c-1.2-0.5-2.5-0.8-3.8-1.1c-6-1.5-11.6-3.7-16.5,3.3
		c-2.7,3.8-7.8,6.1-12.4,7.9c-3.5,1.4-4.3,3.7-4.3,7.2c-0.2,14.7,1.8,29.4,1.1,44.1c-3.3,0-6.6,0-10,0c-2.7-5.4-1.7-11.3-2.3-17
		c-0.8-7.9,0.1-15.8-0.8-23.8C150.1,188.6,152.6,185.3,156.7,183.3z"/>
	<path class="st1" d="M156.7,183.3c-3.4,4.3-4.7,8.5-4.4,14.6c0.7,11.9,1.4,23.9,1.4,35.9c-7.9,0-15.9,0.1-23.8,0.1
		c2.1-11.1,4.3-22.2,6.2-33.3c0.7-4.2,2.3-7.5,5.5-10.5c3.6-3.5,6.4-8,9.6-12.2C153.1,179.7,154.9,181.5,156.7,183.3z"/>
	<path class="st5" d="M182.4,39.1c-7.7-3.7-15.4-7-24.1-7.2c-4.9-0.1-8.9,1.6-12.6,4.6c-2.9,2.3-5.5,5.3-9.6,5.5
		c-4.7-0.1-9.5,2.4-14.2-0.1c10.7-1.7,20.3-5.8,29-12.3c4.5-3.4,10-1.3,14.9-0.3c7.6,1.5,14.9,4.3,20.9,9.6
		C185.3,40.3,183.8,39.5,182.4,39.1z"/>
	<path class="st0" d="M258.4,172.3c4.6-0.2,9.1-0.2,13,3c1.2,0.2,2.4,0.3,2,2c1.5,3.2,0.7,6.6,1,10c-1.4,3.6-4.3,2.8-7.1,2.4
		c-2.1-1.4-2.7-3.7-3.9-5.8c-1.4-3.6-3.8-6.7-5.4-10.3C258,173.1,258.1,172.7,258.4,172.3z"/>
	<path class="st0" d="M308.3,167.3c0.3,1.5-0.9,3.6,1,4.4c1.3,0.6,2.2-1.2,3.1-2c2-1.8,4.1-1.7,6.4-0.6c1.9,1,1.8,2.8,1.3,4.3
		c-0.8,2.3-2.8,2.9-5.2,2.9c-3.2,0-6.7-2.5-9.6,1.2c-0.6,0.7-1.6-0.3-2-0.9c-1.9-2.9-4.5-5.4-3.9-9.3
		C301.5,162.9,305,162.9,308.3,167.3z"/>
	<path class="st6" d="M308.3,167.3c-3-1.9-6-3.8-9,0c-0.5,0-1,0.1-1.5,0c-1.8-0.1-2.8,3-4.1,2c-1.9-1.6-4-3.5-4.9-6.1
		c-1-2.9-0.6-5.3,2.7-6.4c3.1-1,5.1,0.7,5.5,3.3c0.7,4.5,2.1,4.1,4.7,1.3c2.2-2.3,5.1-3,7.4-0.5
		C311.1,163.1,311.1,165.6,308.3,167.3z"/>
	<path class="st7" d="M121.9,41.9c4.7,0,9.4,0.1,14.2,0.1c-2.1,1.7-4.7,1.1-7.1,1.6c-11.5,2.5-15.4,7.1-15,18.5c0,0.8,0,1.6,0,2.5
		c0.6,3.1,0.7,6.1-0.1,9.1c-0.9,3.6-1.8,7.3-2.7,10.9c-2.9-1.5-1.8-3.8-1.1-6c1.9-5.1,3.3-10.3,2.8-15.8c-0.3-1.7-0.7-3.3-1-5
		c-1.1-7.2,2.8-11.9,8-15.9C120.5,41.9,121.2,41.9,121.9,41.9z"/>
	<path class="st8" d="M182.4,39.1c1.4-0.1,2.9-0.1,4.3-0.2c0.3,0,0.6,0,1,0c5.5,5.1,11.8,7.9,19.4,8c5,0.1,8.3,4.2,9.5,10.9
		c-0.6,0.5-1.2,0.6-1.9,0c-2.7-5.5-6.6-8.2-13.3-8.2C193.5,49.6,188.2,43.6,182.4,39.1z"/>
	<path class="st6" d="M273.4,177.3c-0.7-0.7-1.3-1.3-2-2c-0.3-2.1-1.9-4.4,0.8-6.2c1.8-1.2,4.1-1.5,5.6-0.3
		c4.1,3.1,1.8,7.4,1.4,11.4C276.9,179.8,275.8,177.2,273.4,177.3z"/>
	<path class="st9" d="M311.2,150.8c0.1,2.4-5.3,6.3-8.7,6.4c-1.6,0.1-2-0.7-2.1-2.1c-0.2-4.1,2.9-8.6,5.9-8.7
		C308.2,146.5,311.1,149.1,311.2,150.8z"/>
	<path class="st10" d="M275.1,222.2c-2.2-7.3-4.5-14.6-6.7-22c-0.5-1.2,0.3-1.4,1.1-1.2c1.4,0.3,2.4,1.4,3.4,2.5
		c1.4,1.2,0.5,3.2,1.5,4.6c1.3,5,2.7,10,4,14.9C277.4,222,276.5,222.9,275.1,222.2z"/>
	<path class="st11" d="M55.9,193.2c0.3,6.6,0.7,13.3,1,19.9c-0.8,0.8-1.6,1.8-2.9,1c-2.4-6.8-2-13.9-1.9-20.9
		C53.4,192.2,54.7,192.1,55.9,193.2z"/>
	<path class="st12" d="M54.1,214.1c1-0.3,1.9-0.7,2.9-1c2,6.8,1.8,13.9,3.2,20.8c-2.4,0.3-3.9,0-4.3-3.2
		C55.2,225.2,54.1,219.7,54.1,214.1z"/>
	<path class="st0" d="M277.2,198.5c3.6-1.2,6.1-2.2,8.8-3c2.2-0.7,4.3-0.5,5.7,1.6c1.1,1.6,0.9,3.1-0.4,4.5c-1.7,1.9-3.8,1.9-5.9,1
		C282.9,201.5,280.4,200.2,277.2,198.5z"/>
	<path class="st13" d="M302,185.2c2,0.1,4.3-0.5,5.1,2c0.6,1.8,0.3,3.6-1.3,4.9c-2,1.8-4.3,1.2-5.8-0.3c-1.8-1.7-5.9-2.3-4.9-5.1
		C295.7,185,299.6,185.3,302,185.2z"/>
	<path class="st0" d="M311.2,162.8c1-2.9,0.6-7.1,5.4-7.4c2.7-0.2,4.4,1.2,4.6,4c0.1,2.4-4.8,5.7-8.1,6.1
		C310.6,165.8,311.6,164.1,311.2,162.8z"/>
	<path class="st0" d="M290.4,184.2c0,1.5,0,2.9,0,4.8c-1.8-1.3-3.8-2.3-5.4-3.8c-1.6-1.6-5-3.1-3.4-5.7c1.5-2.5,4.5-3.8,7.8-2.2
		C292.2,179.2,292.2,181.6,290.4,184.2z"/>
	<path class="st9" d="M267.5,189.2c2.3-0.9,5.1,0.2,7-2c0.7,0,1.3,0,2,0c2.6-0.1,4.7,0.9,4.9,3.6c0.3,3.3-2.4,3.8-4.8,4.3
		c-2.5-1.7-5.1-2.9-8-3.5C267.6,191,267,190.3,267.5,189.2z"/>
	<path class="st0" d="M268.5,191.2c3.4-0.2,6.6,0.1,7.9,4c-0.7,3.7-1.4,7.3-2,11c-0.7-1.3-1.3-2.7-2-4
		C270.4,198.7,267.6,195.6,268.5,191.2z"/>
	<path class="st14" d="M275.1,222.2c1.1-0.4,2.2-0.8,3.3-1.1c0.7,3,1.6,6,2.4,8.9c1,3.8-0.3,4.3-3.4,4
		C276.5,230,275.8,226.1,275.1,222.2z"/>
	<path class="st15" d="M290.4,184.2c-0.1-2.4,0.4-4.8-1-7c2.2-1.3,4.3-1.5,6.1,0.7c1.1,1.4,1.9,2.8,0.7,4.5
		C294.7,184.5,292.9,185.7,290.4,184.2z"/>
	<path class="st16" d="M55.9,193.2c-1.3,0-2.5,0-3.8,0c-0.3-3.8,1.8-7.2,2-10.9c0.3,0,0.6,0,1,0c1.4-1,2.4-0.4,3,1
		C57.4,186.6,56.6,189.9,55.9,193.2z"/>
	<path class="st17" d="M230.5,233.8c-0.1-6.4,1.5-12.5,3-18.7c0,6.2,0,12.5,0,18.7C232.5,233.8,231.5,233.8,230.5,233.8z"/>
	<path class="st0" d="M84,129.5c4.3-4.8,9.4-4.4,12,1C92,130,87.8,131.5,84,129.5z"/>
	<path class="st0" d="M53.1,128.5c1.4-0.1,2.7,0,4.1-1.1c3.8-3.2,5.7-2.6,7.9,2.1C61.1,129,56.9,130.6,53.1,128.5z"/>
	<path class="st18" d="M258.4,172.3c0,0.3,0,0.6,0,1c-0.7,1-1.6,1.4-2.8,0.9c-1.8-2.3-3.5-4.6-5.3-6.8c0.4-0.9,1-1.5,2.1-1
		c0.3,0,0.7,0,1,0C255.1,168.3,256.8,170.3,258.4,172.3z"/>
	<path class="st19" d="M294.3,137.5c-7.8,0-15.5,0-23.3,0c0-0.3,0-0.7,0-1c8.1,0,16.2,0,24.3,0C295,136.8,294.7,137.1,294.3,137.5z"
		/>
	<path class="st0" d="M10.2,112.6c2.3,0.3,3.7,1.5,3.9,3.8c0.2,2-0.9,3.1-2.9,3.2C9.3,117.4,10.6,114.9,10.2,112.6z"/>
	<path class="st0" d="M24.2,127.5c1.1,0,2.3,0.1,3.2-0.8c3.4-3.6,5.2-1.4,6.8,1.8C30.8,128.1,27.3,129.5,24.2,127.5z"/>
	<path class="st0" d="M113.9,130.5c2.3-1.8,4.9-4.7,6,1C117.9,131.2,115.6,132.3,113.9,130.5z"/>
	<path class="st20" d="M298.3,58.8c-26.9-0.6-53.8,1.7-80.7,1c-0.5-0.7-0.6-1.3,0-2c26.9,0,53.8,0,80.7,0c0.3,0.2,0.4,0.4,0.3,0.7
		C298.5,58.7,298.4,58.8,298.3,58.8z"/>
	<path class="st21" d="M217.6,57.8c0,0.7,0,1.3,0,2c-0.4,5,1.3,10.3-1.9,14.9c0-5.6,0.6-11.3-1-16.9c0.6,0,1.3,0,1.9,0
		C216.9,57.8,217.2,57.8,217.6,57.8z"/>
	<path class="st22" d="M298.3,58.8c0-0.3,0-0.7,0-1c2.6,0,5.2,0,7.8,0c0,0.3,0,0.7,0,1C303.5,58.8,300.9,58.8,298.3,58.8z"/>
	<path class="st23" d="M252.5,166.3c-0.7,0.3-1.4,0.7-2.1,1c-7.9-7.8-18.6-10.2-28.5-13.8c-9.2-3.3-18.5-6.5-28.2-8.3
		c-2.8-2.9-5.5-5.8-8.3-8.7c0.3-0.4,0.7-0.7,1.2-0.9c0.8-0.1,1.5,0.1,2.1,0.7c3.2,4.5,7.1,7.8,12.8,8.9c5.1,0.9,10.1,2.7,15.1,4
		c2.4-0.6,4.2,0.7,6,2c7.3,2.7,14.6,5.3,21.9,8c1.2,0.9,3,0.6,4,2C249.8,163,251.1,164.7,252.5,166.3z"/>
	<path class="st24" d="M268.5,191.2c1.3,3.6,2.6,7.3,3.9,10.9c-1.6-0.1-1.9-3-4-1.9c-2.4-5.6-4.9-11.3-7.3-16.9
		c1.1-1.1,2.2-0.8,3.3-0.1c1,2,2,4,3,6C267.8,189.9,268.1,190.5,268.5,191.2z"/>
	<path class="st25" d="M264.4,183.2c-1.1,0-2.2,0.1-3.3,0.1c-1.8-3-3.6-6.1-5.4-9.1c0.9-0.3,1.8-0.6,2.8-0.9
		C261.3,176.1,262.6,179.8,264.4,183.2z"/>
	<path class="st26" d="M113,98.6c0-4.1,0-8.3-0.1-12.4c6.8-6,13.6-12.1,21.7-16.5c10.6-5.8,22.9-5.7,29.9,6c2.2,3.7,6.2,4.8,9.9,4.7
		c8.2-0.2,11.6,7.1,10.7,15.1c-0.7,6.4-1.9,12.8-1.5,19.2c0.1,1.5-0.6,3.5,2,3.8c-3.2,3.2-7.2,5.4-10.9,7.8c-5.9,3.2-11.9,6-19,3.9
		c-0.1-2.2,3.1-4.4,0.2-6.6c-2.7-2.1-5.4-1.1-8.2,0.1c-3.1,1.3-5.3,3.7-8,5.5c-4.1-2.1-8.9-3.1-11.9-7c-1.3-2-2.9-3.7-5-5
		c-4.2-2-6.1-5.7-7-9.9C114.9,104.6,113.9,101.6,113,98.6z"/>
	<path class="st27" d="M188.6,136.5c-0.6,0-1.3-0.1-1.9-0.1c-0.8-1.1-3.4-0.5-3-2.9c15.9-0.4,31.7,0.8,47.6,1.3
		c10.7,0.4,21.4,0,32.1,1.7C238.4,136.5,213.5,136.5,188.6,136.5z"/>
	<path class="st28" d="M155.8,130.4c6.7,0.5,12.8-1.7,19-3.9c0,0.7,0,1.3,0,2c-4.7,1.2-9.5,2.5-14.2,3.5c-1.7,0.4-3.7,0.8-5.3,0.3
		C153.4,131.7,155.2,131,155.8,130.4z"/>
	<path class="st0" d="M183.7,133.5c1,1,2,2,3,2.9c-0.4,0.1-0.9,0.1-1.3,0.2c-3.2-0.9-5.8-3.9-9.6-3.1c0-1,0-2,0-3.1
		C178.4,131.5,181,132.5,183.7,133.5z"/>
	<path class="st0" d="M222.6,151.4c-2-0.7-4-1.3-6-2C219.5,147.1,221.1,149.2,222.6,151.4z"/>
	<path class="st0" d="M248.5,161.4c-1.6-0.2-3-0.7-4-2C246.1,159.5,248.2,158.7,248.5,161.4z"/>
	<path class="st26" d="M127.8,135.4c0-4,0-7.9,0-11.9c3.8,1.7,7.8,3.1,11,6c-2.8,4.4-8.1,6.3-10.8,10.9c-0.1-0.6-0.1-1.3-0.2-1.9
		C127,137.5,127.1,136.5,127.8,135.4z"/>
	<path class="st29" d="M95,219.2c-2.4-6.3-4.8-12.5-7.2-18.8c0.4-0.2,0.8-0.3,1.1-0.5c2.3,5.8,4.7,11.5,7,17.3
		C95.9,218,95.9,218.8,95,219.2z"/>
	<path class="st30" d="M138.8,129.5c-3.7-2-7.3-4-11-6c0-0.3,0-0.7,0-1c4,2.3,8.8,3.3,11.9,7C139.5,129.5,139.1,129.5,138.8,129.5z"
		/>
	<path class="st31" d="M160.6,158.6c0.2-2.8,0.3-4,0.4-6.1C161.9,154.7,162,156.1,160.6,158.6z"/>
	<path class="st32" d="M113.9,73.7c0-3,0.1-6.1,0.1-9.1C115.4,67.7,115.4,70.7,113.9,73.7z"/>
	<path class="st33" d="M127.8,135.4c0,1,0,2,0,3.1c-13.7,13.4-31.7,18.3-48.8,25c-9.8,3.8-16.6,10.4-21,19.8c-1-0.3-2-0.7-3-1
		c3-9.3,9.5-15.3,18.4-18.9c12.3-4.9,24.7-9.6,36.8-14.8c6.6-2.8,11.6-8,16.6-13.1C127.2,135.5,127.5,135.5,127.8,135.4z"/>
	<path class="st20" d="M115.9,107.6c2.3,3.3,4.7,6.6,7,9.9c0,0,0,0,0,0c-0.7,1.1-2.3-0.2-3,1c0.1,1.7-0.2,3.2-2,4
		c-11.2,1.2-22.3,0-33.5,0.6c-1.3,0.1-2.2-0.7-2.6-1.9c-0.5-1.4,0.2-2.7,1.2-3.5c2.1-1.7,4.5-2.9,0.8-5.7c-1.6-1.2-0.6-3.4,1.3-4.4
		C95.3,107.6,105.6,107.6,115.9,107.6z"/>
	<path class="st20" d="M17.2,94.6c1.1-1.4,2.7-1,4.2-1c28.3,0,56.7,0,85-0.1c3.8,0,5.6,1.2,5.5,5c0,0,0,0,0,0c-2.7,1.9-5.3,1.9-8,0
		c-3.7,0-7.3,0-11,0c-1.8-1.2-4.3,1.1-6-1c-4.3,0-8.6,0-13,0c-2-0.4-4.3,0.9-6-1c-4.3,0-8.6,0-13,0c-2.7-0.2-5.6,1.3-8-1
		c-3.7,0-7.3,0-11,0c-2.7-0.2-5.6,1.2-8-1C24.5,94.7,20.9,94.6,17.2,94.6z"/>
	<path class="st0" d="M85,107.6c-0.6,1.9-2.5,4.1,1.1,4.9c1,0.2,2.5-0.2,2,1.8c-0.3,1.4-0.1,3-2.2,3.3c-1.9,0.2-3.9,1.2-3.4,3.3
		c0.5,2.2,3,1.6,4.7,1.6c10.2,0,20.4,0,30.7,0c-1.5,1.6-3.4,0.9-5.2,1c-9.7,0.5-19.5-1-29.2,0.9c-3.5,0.7-3.8-1.6-3.2-4.3
		c0.7-3.2,3.2-5.9,1-9.8C79.8,107.8,83,107.6,85,107.6z"/>
	<path class="st0" d="M103.9,98.6c2.7,0,5.3,0,8,0c0.1,2.3-0.6,3.9-3.2,4C106,102.6,104.3,101.4,103.9,98.6z"/>
	<path class="st0" d="M28.2,94.7c2.7,0.4,5.5-1,8,1C32.3,100,30.6,99.8,28.2,94.7z"/>
	<path class="st0" d="M47.1,95.7c2.7,0.4,5.5-1,8,1C49.9,100.6,49.3,100.5,47.1,95.7z"/>
	<path class="st0" d="M68,96.7c2,0.3,4.2-0.8,6,1C71.8,98.9,69.2,101.8,68,96.7z"/>
	<path class="st0" d="M87,97.6c2,0.3,4.2-0.8,6,1C90.9,98.9,88.1,103.3,87,97.6z"/>
	<path class="st0" d="M119.9,118.5c-0.4-0.2-1.6-0.3-0.7-0.8c1-0.5,2.4-0.2,3.7-0.2C122.1,118.7,121,118.5,119.9,118.5z"/>
	<path class="st20" d="M69.7,80c2.4,4.2,0,4.7-3.4,4.7c-9.8-0.1-19.5,0-29.3,0c-1.4,0-3.2,0.6-3.7-1.5c-0.5-2.2,1.3-3.2,2.9-3.2
		c2.9,0,2.3-2.1,2.8-3.6c1-2.9-1.4-1.3-2.3-1.6c-1.1-0.4-1.7-1-1.9-2c-0.3-1.4,0.8-2.1,1.8-2.6c0.7-0.3,1.6-0.4,2.4-0.4
		c9.6,0,19.2,0,28.8,0c2,0,8,5.7,8.1,7.6C76,79.3,75.5,79.5,69.7,80z"/>
</g>
</svg>
