<?xml version="1.0" encoding="utf-8"?>
<!-- Generator: Adobe Illustrator 25.3.0, SVG Export Plug-In . SVG Version: 6.00 Build 0)  -->
<svg version="1.1" id="Camada_1" xmlns="http://www.w3.org/2000/svg" xmlns:xlink="http://www.w3.org/1999/xlink" x="0px" y="0px"
	 viewBox="0 0 314.5 212.8" style="enable-background:new 0 0 314.5 212.8;" xml:space="preserve">
<style type="text/css">
	.st0{fill:#2F2E41;}
	.st1{fill:#E8E8E8;}
	.st2{fill:#F8A726;}
	.st3{fill:#E5E5E5;}
	.st4{fill:#9C9BA7;}
	.st5{fill:#3F3D56;}
	.st6{fill:#EEEEF0;}
	.st7{fill:#514F66;}
	.st8{fill:#545268;}
	.st9{fill:#A6A5B1;}
	.st10{fill:#605E73;}
	.st11{fill:#E4E4E4;}
	.st12{fill:#FCFBFB;}
	.st13{fill:#FCFCFC;}
	.st14{fill:#413F57;}
	.st15{fill:#FBFBFB;}
	.st16{fill:#797788;}
	.st17{fill:#E3E3E3;}
	.st18{fill:#FDFDFE;}
	.st19{fill:#525066;}
	.st20{fill:#FBFBFC;}
	.st21{fill:#EFEFF0;}
	.st22{fill:#757485;}
	.st23{fill:#43415A;}
	.st24{fill:#9A99A3;}
	.st25{fill:#5C5B70;}
	.st26{fill:#E6E6E6;}
	.st27{fill:#F3F3F3;}
	.st28{fill:#444054;}
	.st29{fill:#F8A827;}
	.st30{fill:#47455D;}
</style>
<g>
	<path class="st0" d="M96.8,208.8c0.9-4.3,0.1-7.5-4.3-10c-5-2.9-7.1-8-6.8-13.9c-0.3-0.4-0.6-0.7-1-1c-2.6-1.3-5.4-2.3-7.9-3.8
		c-1.8-1.1-3.8-2.2-3.2-4.9c3.6-2.9,7.3-1.4,10.9,0c2,1.1,4,1,5.9-0.2c0.5-0.2,1-0.3,1.5-0.3c7.8,0.1,15.6-0.5,22.9-3.7
		c5.3,2,9.1,0,11.9-4.6c0.5-0.2,0.9-0.4,1.4-0.5c1.1-0.1,2.1,0.1,2.9,0.8c1.8,3.1,0.7,6-0.7,8.8c-1.3,2.5-2.2,5.1-1.9,7.9
		c-0.1,0.5-0.3,1-0.6,1.4c0.3,6.4-2.5,11.2-7.6,14.7c-2.1,1.4-3.9,2.3-3.9,5.5c0,3.6,3.3,2.1,4.3,3.7c-2.7,3.8-6,4.1-11.2,1
		c-1.3-1.2-0.3-4-3.1-4.4c-0.7,2,2.2,2.5,1.4,4.3C103.4,213,99.2,212.6,96.8,208.8z"/>
	<path class="st0" d="M299.7,124.9c2.9,2.9,5.1,6.2,4.6,10.5c-0.3,2.5,1.3,3,3,3.7c2.6,1,5.3,1.9,6.7,4.6c-2.1,2.2-4.5,1.1-6.6,0.4
		c-3.2-1-6-1-8,2.2c-0.4,0.7-1.2,1.3-1.9,1.5c-3.4,1.3-4.8,3.6-4.1,7.3c0.2,1.2-0.1,2.3-1.1,3.1c-0.9,1.1-1.7,2.4-3.2,2.9
		c-1.5,0.5-3.2,1.3-4.6,0c-1.6-1.5-0.2-2.9,0.4-4.3c0.4-1,1.3-2.2-0.2-3c-1.1-0.6-1.8,0.3-2.2,1.3c-0.3,0.8-0.5,1.6-0.9,2.3
		c-1.4,2-3.4,3.2-5.6,3.9c-1.8,0.6-3.7,1-4.3-1.6c2.5-6.5,2.3-7.2-2.9-12c-1.1-1-2.2-2.1-3.2-3.2c-0.9-1.1-1.6-2.3-2.2-3.6
		c-2.2-7.1-3.8-9.3-9.8-14.4c-0.6-0.9-1-1.8-0.7-2.9c2.9-3.2,6.2-1.1,9.4-0.6c1.7,0.5,3.4,1.1,5.2,0.5c0.4-0.2,0.8-0.3,1.2-0.4
		c1.1-0.7,2.4-0.4,3.6-0.9c1-0.4,2-0.9,3-1.3c0.9-0.5,1.9-0.5,2.8-0.1c5.9,2.2,12,3.2,18.3,3.1C297.6,123.8,298.7,124.1,299.7,124.9
		z"/>
	<path class="st0" d="M264.1,208.8c0.9-1.8,4.3,0,4.3-3.6c0-3.2-1.8-4.2-3.9-5.5c-5.6-3.3-7.9-8.5-8.1-14.8c-0.1-0.9-0.2-1.8,0-2.7
		c1-4.2,4-6.7,7.2-9.1c0.6-0.4,1.2-0.8,1.9-1.2c1.2-0.7,2.4-1,3.8-0.9c6.8,2.4,13.6,4.1,20.9,3.6c1.5-0.1,3,0.2,4.1,1.4
		c7.1,9.4,5.8,18.2-4.2,24.1c-4.2,2.5-2.3,5.6-2.6,8.6c-2.5,3.8-6.5,4.2-11.2,1.1c-0.8-2.4,2-2.5,2.7-4c-1-1.2-1.9-0.4-2.8,0.3
		c-1.1,2.7-2,5.7-5.8,5.6C267.9,211.6,264.9,212.4,264.1,208.8z"/>
	<path class="st0" d="M26,83.5c-6.8-0.1-13.7-0.1-20.5-0.2c-1.5,0-3.3,1-4.4-0.9c0.2-0.2,0.4-0.4,0.6-0.5c6.8,0.1,10.4-2.3,9.6-10
		c-0.3-3.1,1.9-6.3,5-8.1c3.4-1.1,6.8-0.5,10.2-0.7c5.1-0.3,9.9-2.2,14.8-3.5c5.6,0.1,8.4,4.3,11.6,7.9c1.9,3.4,3,7,2,10.9
		c-0.6,2.5,0.7,2.7,2.6,2.8c2.3,0.2,5-0.8,6.8,1.8c-0.1,0.6-0.5,1-1,1.3c-6,1.5-12.2,0.6-18.2,0.7c-5.8,0.1-11.6,0.6-17.3-0.4
		C27,84.2,26.5,83.9,26,83.5z"/>
	<path class="st1" d="M31,0.7c75.6,0,151.1,0,226.7,0.1c2.3,0,5.1-1,6.7,1.9c0.3,0.7,0.1,1.2-0.7,1.4c-2.6,0.6-5.3,0.2-8,0.2
		c-73.3,0-146.6,0-219.9,0c-2.5,0-5,0.2-7.5,0.1c-1-0.1-1.8-0.5-2.4-1.3C26.3-0.4,28.3-0.5,31,0.7z"/>
	<path class="st2" d="M299.7,124.9c-8.5,0.9-16.7,0.1-24.4-4c-2.2-5.3-1.3-8.4,3.2-11.5c6-4.1,15.6-3.7,21.3,0.9
		C305.7,115,305.6,120.1,299.7,124.9z"/>
	<path class="st3" d="M294.2,176c-8.9,0.4-17.7-0.2-25.9-4.3c-3.6-4.9-1.9-10.1,4.1-12.7c-0.1,2.1,1.1,2,2.6,1.5
		c2.4-0.7,4.5-1.9,6.4-3.5c1.8-1.4,3.6-1.6,5.3,0.2c-0.5,1.1-2.8,1.5-1.9,3c0.9,1.5,2.4,0.2,3.5-0.2c1.4-0.5,2.7-1.2,4.1-1.8
		c0,1.5,1.2,2.1,2.2,3C299.6,165.6,299.4,171.3,294.2,176z"/>
	<path class="st3" d="M276.6,209c3.7,2.8,7.3,2.9,10.8-0.2c7.3,0.1,14.8-0.6,21.9,2c-22,2.6-43.9,2.8-65.9-0.7
		c3.4-0.4,6.8-1,10.3-1.3c3.5-0.2,7-0.1,10.4-0.1c1.1,1.6,3,1.7,4.7,2c5.7,1.1,5.2-3.8,6.5-6.9C276.8,205.3,276.4,207.2,276.6,209z"
		/>
	<path class="st3" d="M109.7,208.8c3.7,2.6,7.3,2.8,11,0c7.4,0,14.8-0.6,22.1,1.9c-22,2.8-44,2.7-65.9,0c6.6-2,13.3-2.1,20-1.9
		c3.6,2.7,7.3,3.3,10.9,0C108.4,208.3,109,208.2,109.7,208.8z"/>
	<path class="st4" d="M84.9,176.8c-3.7-1.2-7.3-3.5-11.2-0.8c-0.9,0.9-2,1.3-3.1,1.3c-14.3,0.1-28.6,0.7-43-0.3
		c-0.6-0.3-1.2-0.6-1.7-1c-5.9-1-12.1,1.1-17.9-1.1c0.1-0.3,0.3-0.5,0.4-0.8c3.6-2.7,7.7-1.2,11.6-1.6c2.1-0.2,4.3,0,6.5,0
		c20.1-0.1,40.2-0.5,60.3,0.2c1.8,0.5,3.8,0.8,4,3.3l-0.3,0.2l-0.3-0.1C88.6,177.2,86.6,176.1,84.9,176.8z"/>
	<path class="st3" d="M257.2,182.9c0.2,0.8-0.2,1.5-0.8,2c-42.8,0-85.7,0-128.5,0c0-0.3,0-0.7-0.1-1c1.7-1.7,4-1.6,6.1-1.6
		c39.8-0.1,79.6,0,119.4-0.1C254.6,182.3,255.9,182.2,257.2,182.9z"/>
	<path class="st5" d="M265.3,101.1c1.3,0.8,3.6-1,4.1,1.7c-1.3,0.8-2.8,0.9-4.3,0.9c-0.6,0-1.2,0.1-1.8,0.1
		c-7.4,0.1-14.9,0.1-22.3,0c-27.9,0.3-55.9,0.1-83.8,0.1c-1.8,0-3.7-0.1-5.3-1.1c-0.6-0.5-0.6-1.1-0.2-1.7c1.5-1.2,3.4-1.3,5.2-1.3
		c28,0,56-0.2,84,0.1c7.6,0.1,15.2-0.6,22.7,0.4C264.3,100.4,264.8,100.7,265.3,101.1z"/>
	<path class="st3" d="M265.3,101.1c-0.4,0-0.7,0-1.1,0c-1.8-1.9-1.6-4.3-1.6-6.6c0-28.1,0-56.2,0-84.3c0-2.3-0.3-4.7,1.6-6.5
		c0-0.3,0-0.7,0-1c1.7,1.6,1,3.8,1,5.6C265.3,39.2,265.3,70.2,265.3,101.1z"/>
	<path class="st6" d="M265.3,102.4c1.4-0.2,2.8-0.5,4.1,0.3c0,0-0.2,0.4-0.2,0.4c1.7,7,1.6,14,0.1,21.1c-0.2,0.1-0.5,0.1-0.8,0.1
		c-1.9,0.7-4.1,0.6-4.2-1.7C264,115.8,262.6,109,265.3,102.4z"/>
	<path class="st3" d="M25.9,176c0.3,0,0.7,0,1,0c1.4,5.9,5.5,6.6,10.9,6.5c12.9-0.3,25.8-0.1,38.7-0.1c3.1,0,6.3,0.1,9.2,1.5
		c0,0.3-0.1,0.7-0.1,1c-16.9,0-33.9,0-50.8,0C24.8,184.9,26.1,185.2,25.9,176z"/>
	<path class="st3" d="M26,83.5c0.3,0,0.7,0,1,0c1.7,1.7,1.5,4,1.6,6.1c0,18.5,0.1,37.1,0,55.6c0,1.8,0,3.7-1,5.3
		c-0.4,0.7-1,0.8-1.6,0.4C25.9,128.4,25.9,105.9,26,83.5z"/>
	<path class="st5" d="M1,82.3c-1.4-0.3-1-1.5-1-2.4c0-15.3,0-30.6,0-45.9c0-0.9-0.4-2,1-2.4c0.5,0.4,0.9,1,1.1,1.6
		c1.1,13.5,0.3,27.1,0.5,40.6C2.7,76.8,3.1,79.8,1,82.3L1,82.3z"/>
	<path class="st7" d="M8,174.9c-0.6-0.5-1.6-1.1-1.6-1.6c-0.1-6.6-0.2-13.2-0.1-19.8c0-1,1-1.2,1.8-1.4c0.2,0.2,0.4,0.5,0.6,0.7
		C9.8,160.2,10.7,167.6,8,174.9L8,174.9z"/>
	<path class="st8" d="M269.3,124.2c0-7,0-14-0.1-21.1c2.3-1.2,2,0.6,2,1.8c0,4.3-0.1,8.6,0.1,12.9c0.1,1.5-0.9,3.3,1,4.5
		C271.3,122.9,270.3,123.5,269.3,124.2z"/>
	<path class="st9" d="M1.2,32.6c0-0.3-0.1-0.7-0.1-1c4-2.3,8.4-0.6,12.5-1c2.5-0.3,5-0.1,7.4-0.2c1.6,0,3.3,0,4.9,0
		c0.5-0.3,1-0.6,1.5-0.8c4.2-0.5,8.4-0.8,12.6,0.2c0.5,0.3,0.9,0.7,1.1,1.3c-0.2,0.6-0.5,1-1.1,1.3c-4.3,1.1-8.6,0.4-12.9,0.6
		c-0.6,0-1.2,0-1.8,0C17.3,32.9,9.2,33.6,1.2,32.6z"/>
	<path class="st10" d="M25.9,150.9c0.4,0,0.7,0,1.1,0c4.2-2.1,8.6-1.4,13-0.6c0.6,0.3,0.9,0.7,1.2,1.3c-0.2,0.6-0.6,1-1.2,1.3
		c-4.8,1.2-9.6,0.4-14.4,0.6C19.7,153.1,13.6,155,8,152c0,0,0.1,0.1,0.1,0c3.3-2.3,7.1-0.5,10.6-1C21,150.8,23.5,150.9,25.9,150.9z"
		/>
	<path class="st11" d="M127.7,167c-0.2,0.2-0.5,0.3-0.8,0.4c-2.8-2.6-6.4-1.7-9.7-2.3c-2.1-0.5-3.3-2-4-3.9c-0.7-2.8-3.1-1.6-4.8-2
		c-4.8-1.2-9.5-0.4-14.2,0.2c-13.9-0.9-27.8-0.1-41.7-0.4c12.6,0.4,25.2-0.5,37.8,0.5c1.5,4-1.6,4.6-4.1,5.7
		c-14,0.4-28.1,0.3-42.1,0.1c-5.1-2.4-6.1-6.9-3.1-13.1l-0.1-0.4c1.6-1.2,3.4-1.2,5.2-1.2c26.4,0,52.8-0.2,79.2,0.1
		c1,0.1,1.9,0.4,2.7,1.1C129.7,156.9,129.7,162,127.7,167z"/>
	<path class="st2" d="M113.5,160.4c1,1.2,2,2.4,3,3.6c2.2,2.8,2.6,5.3-0.7,7.6c-7.8,4.5-16.3,4.7-24.9,4.3c-1.1-0.7-2.1-1.4-3.2-2.1
		c-2.2-1.2-2.9-3.2-2.8-5.6c0.2-1.2,0.5-2.3,1.2-3.4c0.3-0.4,0.7-0.6,1.1-0.8c1.2-1.2,2.3-2.4,3.5-3.6c0.5-2.3,3-1.3,4.2-2.5
		c4.9-1.2,9.7-1.3,14.6,0C110.7,159,113,158.2,113.5,160.4z"/>
	<path class="st12" d="M115.7,171.6c1.5-2.4,1.2-5,0.7-7.6c2.3,0,4.6,0.1,6.8-0.1c2.6-0.2,3.6,1,3.6,3.4c-0.3,0.4-0.7,0.7-0.8,1.2
		C123.9,173.9,120.5,175.2,115.7,171.6z"/>
	<path class="st13" d="M109.7,208.8c-0.7,0-1.3,0-2,0c-0.3-0.2-0.6-0.3-0.9-0.5c-1.4-0.7-3.8-0.3-3.2-3.2c0.6-2.8,2.6-1.1,4-1.4
		c2.8-0.6,2.2,1.5,2.3,3C109.9,207.5,109.8,208.1,109.7,208.8z"/>
	<path class="st14" d="M127.7,167c-0.1-5-0.1-10-0.2-15c2.9,0.3,2.2,2.6,2.6,4.3c0.6,3.2-0.8,6.2-0.4,9.4c0.2,0.4,0.5,0.8,0.7,1.3
		C129.5,167,128.6,167,127.7,167z"/>
	<path class="st15" d="M84.9,176.8c1.5-1.8,3.5-0.8,5.3-0.8C88.9,179.2,86.8,177.3,84.9,176.8z"/>
	<path class="st15" d="M280.3,126.2c1.3,0,2.7-0.1,4-0.1c3,0,5.2,1.3,5.9,4.3c0.6,2.8-0.7,4.6-3.3,5.9c-3.6,1.8-6.5,0.9-9-1.7
		c-1.9-2-2.3-4.4,0.4-6.3C281.3,129.9,280.1,127.3,280.3,126.2z"/>
	<path class="st16" d="M150.6,123.7c1.4,1.5,3.3,1.2,5.1,1.2c30.9,0,61.9,0,92.8,0c1.6,0,3.3,0.2,4.8-0.8c0.3,0.6,0.7,1.3,1,1.9
		c-33.1,0-66.2,0-99.3,0c-1.6,0-3.4,0.5-4.4-1.4c-0.1-0.2-0.2-0.3-0.3-0.5C150.4,124.1,150.5,123.9,150.6,123.7z"/>
	<path class="st15" d="M283.4,146.2c-2.2,0-4.2-0.6-4.3-3.1c-0.1-3.1,2.4-3,4.6-3c2.1,0,4.4,0.2,4.3,2.8
		C288,145.3,285.8,146.3,283.4,146.2z"/>
	<path class="st17" d="M266.3,144.1c-1.8,1.6-1,3.7-1,5.6c-0.1,7.7,0,15.5,0,23.2c-0.3,0.2-0.7,0.5-1,0.7c0-10.9,0.1-21.8,0.1-32.6
		C265,142,265.7,143,266.3,144.1z"/>
	<path class="st18" d="M286.6,157.2c-1.8-0.1-3.5-0.1-5.3-0.2c0.4-1.7-1.6-4.3,1.6-5"/>
	<path class="st3" d="M263.1,124.3c2.4-2.6,1-5.7,1.2-8.5c0.2-4.4,0-8.9,0-13.4c0.3,0,0.7,0,1,0c0,6.1,0.1,12.1-0.1,18.2
		c-0.1,2.5,0.7,3.8,3.3,3.7C266.7,126,264.9,125.3,263.1,124.3z"/>
	<path class="st19" d="M280.3,126.2c0.5,1.5,3.5,0.8,2.9,3.2c-0.1,0.5-0.8,1.1-1.3,1.3c-2.2,0.7-2.8-1.2-3.6-2.5
		C278.9,127.5,279.6,126.8,280.3,126.2z"/>
	<path class="st20" d="M275.5,188c-2.2,0-5-1.4-5.4-5.4c-0.3-3.4,2.8-5.7,7.1-5.7c3.7,0,6.5,1.4,6.9,5.4
		C284.5,185.7,281.4,188,275.5,188z"/>
	<path class="st21" d="M276.6,209c-2-1.3-1.1-3.4-1.3-5.1c0.8,0,1.6-0.1,2.5-0.1c1.3,0.1,3.1-0.8,3.3,1.7c0.2,2.2-1.2,2.3-2.7,2.6
		C277.7,208.1,277.2,208.6,276.6,209z"/>
	<path class="st3" d="M51.7,67.5c-3-3-5.9-6.2-10.1-7.5c0.5-4.1-1.7-7.6-2.2-11.5c0.1-3.9,0-7.8,0.1-11.7c0-1.8,0.1-3.6,1.5-5
		l-0.1-0.4c7-2.2,14.1-1.2,21.2-0.6c1,0.1,1.7,0.9,2.2,1.8c1.8,6.6,0.8,13.3,0.8,20c0,5,1.1,10.1-1,15C60,69.7,55.9,69.6,51.7,67.5z
		"/>
	<path class="st2" d="M39.9,49.5c2.5,3.2,4.4,6.4,1.7,10.4c-7.8,4.7-16.4,5-25.2,4.4c-6-4.8-5.9-10.8,0.4-15.4
		c2.7-2,5.9-2.8,9.1-3.6c0.4-0.3,0.9-0.6,1.4-0.8C32.4,44.1,37.1,44.4,39.9,49.5z"/>
	<path class="st13" d="M33,65.3c4.3-0.1,7.4,2.3,7.2,5.6c-0.3,4.1-3.1,5.4-6.8,5.5c-4.3,0-7.4-2.3-7.3-5.6C26,67.7,29,65.4,33,65.3z
		"/>
	<path class="st22" d="M63.9,82.4c-0.1-5-0.1-10-0.2-14.9c0.1-11.6,0.1-23.2,0.2-34.9c0.3,0,0.6,0.1,1,0.1c1.6,1.6,1.4,3.6,1.5,5.6
		c0.6,14.7-0.7,29.4-1.3,44c-0.4,0.3-0.9,0.5-1.3,0.8C63.6,82.8,63.7,82.6,63.9,82.4z"/>
	<path class="st3" d="M27,3.7c0,8.9,0,17.8,0.1,26.7c-0.4,0-0.8,0-1.1,0c0-9.2,0.1-18.5,0.1-27.7C26.3,3,26.7,3.4,27,3.7z"/>
	<path class="st3" d="M148.6,124.2c-0.1-0.1-0.2-0.2-0.3-0.4c-1.5-2.2,0.8-5.5-1.4-7c-2.7-1.7-6.1-0.5-9.3-0.6
		c-4.5-0.1-9-0.1-13.5,0c-3.6,0-5.6-1.1-5.4-5.2c0.3-5,0.2-10,0-14.9c-0.1-3.2,1.3-4.6,4.3-4.7c1.3-0.1,2.7,0,4,0
		c34.9,0,69.8,0,104.7,0c9.7,0,9.7,0,9.8,9.8c-27.8,0.1-55.6,0.1-83.3,0.2c-2.1,0-4.3,0.1-6.4,0.2c-2.1,2.3-1.4,5.2-1.6,7.9
		C149.7,114.3,150.5,119.4,148.6,124.2z"/>
	<path class="st3" d="M157.5,116.2c-6.7,0-6.7,0-6.9,7.5c0,0.3,0,0.7,0,1c-1.4-0.5-1.4-1.6-1.4-2.8c0-5.4,0-10.9,0-16.3
		c0-1.8,0.3-3.3,2.5-3.5c26.1,0.1,52.3,0.1,78.4,0.2c3.8,0,7.6,0.1,11.4,0.2c0,1.9,0,3.8,0,5.6c-1.3,1.7-3.2,1.6-5,1.6
		c-15.4,0-30.9,0-46.3,0c14.7,0.1,29.5,0,44.2,0.1c2.4,0,5-0.5,7.1,1.5c-0.4,3,0.8,4,3.9,4c2.7,0,5.6-0.9,8.1,0.7
		c-1.6,2-3.8,1.7-5.9,1.7c-18.9,0-37.7,0-56.6,0c-2.2,0-4.3,0-6.1-1.4c-3.1-0.1-6.3-0.1-9.4-0.2c-1.5-3.9-2.3-8.3-8-8.6
		C162.2,107.3,160,109.1,157.5,116.2z"/>
	<path class="st23" d="M151.6,102.1c-0.5,0.6-1.5,1.2-1.5,1.8c0.1,7-1.1,13.9,0.4,20.9c0,0,0,0,0,0c-0.8,0.1-1.5,0.1-2.1-0.6
		c0-6.3,0-12.6,0-18.8c0-2.2,0.3-4,3.1-3.9C151.6,101.7,151.6,101.9,151.6,102.1z"/>
	<path class="st24" d="M63.9,32.6c-4.8-2.1-9.8-0.6-14.6-1c-2.8-0.2-5.6-0.2-8.4-0.3c0-0.2,0.1-0.4,0.1-0.6c0,0-0.1-0.2-0.1-0.2
		c6.9-2.8,14-1.4,21-1C63.4,29.6,64.8,30.6,63.9,32.6L63.9,32.6z"/>
	<path class="st3" d="M27,31.7c0,4.5,0,9.1,0,13.6c-0.3,0-0.7,0-1,0c0-4.5,0-9.1,0-13.6C26.3,31.7,26.7,31.7,27,31.7z"/>
	<path class="st25" d="M125.6,152c-28.2-0.1-56.5-0.1-84.7-0.2c0-0.2,0.1-0.4,0.1-0.7l-0.1-0.3c2-1.6,4.3-1.4,6.6-1.5
		c23.8,0,47.6-0.1,71.4,0C121.3,149.5,124.4,148.6,125.6,152z"/>
	<path class="st3" d="M63.9,32.6c-0.3-2.9-2.6-2-4.2-2c-6.3-0.1-12.5-0.1-18.8-0.1c0-0.2,0-0.3,0-0.5c0.2-13.4,0.2-13.4,13.9-13.4
		c15,0,29.9,0.1,44.8-0.1c3.7,0,5.3,0.7,5.2,4.9c-0.3,13.8-0.2,27.5,0,41.3c0.1,3.8-1.1,4.8-4.8,4.8c-10-0.2-19.9,0-29.9-0.1
		c-3.3-0.1-4.3,1-4.3,4.3c0,3.6,1,7.3-0.7,10.7c0-15,0.1-29.9,0-44.9C65,35.8,66.1,33.8,63.9,32.6z"/>
	<path class="st3" d="M125.6,152c-1.4-1.9-3.4-0.9-5-0.9c-26.6-0.1-53.1-0.2-79.7-0.2c0.5-11.7-2.2-10.8,11-10.8
		c35,0,70.1,0,105.1,0c6.7,0,6.7,0,6.7,6.6c0,4.3-0.1,8.6,0,12.9c0.1,3.2-1.2,4.5-4.4,4.4c-8.3-0.1-16.6-0.1-24.9,0
		c-1.6,0-3.8-1-4.6,1.7c-1.6-3.1-0.2-6.4-0.7-9.6c-0.2-1.5,0.8-3.4-1.5-4.2C126.9,152,126.2,152,125.6,152z"/>
	<path class="st3" d="M180.1,54.5c-13.1,0-26.2,0-39.3,0c-1.3,0-3.6,0.7-3.7-1.3c-0.1-2.6,2.4-1.6,3.8-1.6c25.9-0.1,51.7,0,77.6,0
		c0.8,0,1.7,0,2.5,0.1c1,0.2,2,0.6,1.9,1.8c-0.1,1.1-1.2,1-2,1c-3,0-6,0-9,0C201.3,54.5,190.7,54.5,180.1,54.5z"/>
	<path class="st1" d="M223,66.5c-1.4,1.4-2.8,0.9-4,0.9c-25.9,0-51.8,0-77.6,0c-1.4,0-4,1-4.1-1.3c0-2,2.5-1.6,4.1-1.6
		c25.5,0,51.1,0,76.6,0C219.9,64.4,221.7,64.5,223,66.5z"/>
	<path class="st26" d="M149.8,41.5c-3.5,0-6.9,0-10.4,0c-1.1,0-2.6,0.1-2.5-1.6c0.1-1.3,1.3-1.3,2.3-1.3c7.1,0,14.2,0,21.3,0
		c1.2,0,2.6,0.3,2.5,1.8c-0.1,1.7-1.8,1.1-2.8,1.1C156.8,41.6,153.3,41.5,149.8,41.5z"/>
	<path class="st5" d="M94.9,158c-1.4,0.8-2.8,1.6-4.2,2.5c-12.2,0-24.5-0.1-36.7-0.1c-1.2,0-2.3,0.1-3.5,0c-1.5-0.1-4.1,0.7-4.2-1.2
		c-0.1-2.3,2.5-1.3,4-1.3c3.3-0.2,6.6-0.1,9.9,0C71.7,157.8,83.3,157.9,94.9,158z"/>
	<path class="st27" d="M45.9,165.9c-0.7-0.6-1.3-1.3-2-1.9c14.4,0,28.8,0.1,43.3,0.1c-0.2,0.4-0.3,0.8-0.5,1.2
		c-1.3,0.9-2.7,1.2-4.2,1.2c-11.6,0-23.1,0-34.7,0C47.1,166.4,46.5,166.2,45.9,165.9z"/>
	<path class="st28" d="M113.5,160.4c-1.3-0.8-2.7-1.6-4-2.4c1.3-0.1,2.6-0.4,3.8-0.1C115.8,158.4,115.2,159.4,113.5,160.4z"/>
	<path class="st19" d="M45.9,165.9c5.2-1.4,10.4-0.5,15.7-0.6c8.4-0.1,16.7,0,25.1,0c-0.3,1-0.6,1.9-0.9,2.9
		c-11.9,0-23.8,0.1-35.6-0.1C48.6,168.1,45.7,169.6,45.9,165.9z"/>
	<path class="st29" d="M157.5,116.2c-1.1-3.6,0-6.5,3.1-8.5c3.5-2.2,7.3-2.1,10.9-0.4c3.6,1.8,4.6,4.9,3.8,8.8
		C169.1,122.6,163.4,122.7,157.5,116.2z"/>
	<path class="st30" d="M241.4,111.3c-13.3-0.1-26.5-0.1-39.8-0.2c-4.3,0-8.6,0-12.9,0c-1.5,0-3.7,0.2-3.6-1.6c0-2.1,2.3-1.3,3.7-1.3
		c17.6-0.1,35.2-0.1,52.8-0.2c3.5,0.1,6.9,0.1,10.4,0.2c0.9,0,2.3-0.3,2.4,1c0.1,1.6-1.2,1.7-2.4,1.8
		C248.3,111.2,244.9,111.2,241.4,111.3z"/>
	<path class="st19" d="M184.7,116.2c19.6-0.1,39.1-0.1,58.7-0.2c3.3,0,6.6-0.1,9.9-0.1c1.4,0.9,1.4,1.9-0.1,2.5
		c-1.2,0.4-2.6,0.5-3.9,0.5c-19.8,0-39.7,0.1-59.5,0C187.9,118.9,185,119.9,184.7,116.2z"/>
	<path class="st30" d="M279.3,182.3c0.1,1.3-0.7,1.7-1.8,1.8c-1.2,0.1-2.4-0.1-2.6-1.6c-0.1-1.1,0.6-1.7,1.8-1.8
		C277.9,180.8,279.1,180.7,279.3,182.3z"/>
	<path class="st30" d="M33.3,69.2c1.1,0,2.1,0.5,2.2,1.6c0.1,1.4-1.1,1.8-2.4,1.8c-1,0-2-0.3-2.1-1.5C30.9,69.4,32.1,69.3,33.3,69.2
		z"/>
	<path class="st29" d="M24,170.1c-3.1-1.6-6.3-3.3-5.9-7.5c0.4-4.9,4.4-6,8-7.4c1.3,0.2,2.6,0.4,3.9,0.7c3.9,0.9,6.6,3.2,6.3,7.5
		c-0.3,4.2-3.3,6.1-7.3,6.6C27.3,170.2,25.6,170.1,24,170.1z"/>
</g>
</svg>
