<?xml version="1.0" encoding="utf-8"?>
<!-- Generator: Adobe Illustrator 25.3.0, SVG Export Plug-In . SVG Version: 6.00 Build 0)  -->
<svg version="1.1" id="Camada_1" xmlns="http://www.w3.org/2000/svg" xmlns:xlink="http://www.w3.org/1999/xlink" x="0px" y="0px"
	 viewBox="0 0 711 499.4" style="enable-background:new 0 0 711 499.4;" xml:space="preserve">
<style type="text/css">
	.st0{fill:#F1F1F1;}
	.st1{fill:#56546A;}
	.st2{fill:#F0EFF0;}
	.st3{fill:#FE5F03;}
	.st4{fill:#FCFCFD;}
	.st5{fill:#302F41;}
	.st6{fill:#A0626B;}
	.st7{fill:#CDCDCD;}
	.st8{fill:#E6E6E6;}
	.st9{fill:#CBCBCB;}
	.st10{fill:#FE5E01;}
	.st11{fill:#323043;}
	.st12{fill:#45435B;}
</style>
<g>
	<path class="st0" d="M558.6,63.8c3.3-1.2,3.2-4.7,4.6-7.1c3.3-5.6,3.5-5.7,9.2-3c19.3,9.2,36.6,21.3,52.5,35.7
		c13.4,12.2,25,25.5,33.4,41.6c9.7,18.7,10.4,38,4.8,57.9c-4.9,17.3-14.2,32-26.3,45.2c-2.7,2.9-5.2,6-8,8.9c-1.1,1.2-2.1,3.1-4,2.5
		c-2.1-0.7-1.1-2.9-1.2-4.4c-1.1-18.5-5.8-35.8-17.8-50.2c-9.9-11.9-21.9-21.3-37-26.1c-1.2-0.4-2.4-0.9-3.6-1.4
		c11.5-17.6,46-19.9,60.2,9.1c0.8-8-1.7-14.5-5.2-20.6c-6.3-11-15.8-19.1-25.5-27c-10.1-8.2-20.8-15.8-28.4-26.8
		c-2.1-3-3.6-6.4-5.2-9.6c-0.6-1.2-0.7-2.6-2.5-2.6C558.6,78.4,558.6,71.1,558.6,63.8z"/>
	<path class="st0" d="M639.9,235.8c3.7-5,7.5-9.9,11-15c11.3-16.7,18.3-35,18.6-55.3c0.3-19.1-6.6-36-17.9-51.2
		c-18.3-24.6-41.4-43.7-68.3-58.3c-3.7-2-7.2-4.1-11-5.9c-3.3-1.6-2.7-3.2-0.5-5.1c14.5-12.7,31.1-17.1,49.9-12.7
		c15.7,3.7,29,11.5,41.1,22.1c20.1,17.5,33.4,39.1,39.5,64.8c6.1,25.8,1.8,50.1-13.6,72.1C676,209.7,659,223.8,639.9,235.8z"/>
	<path class="st1" d="M558.6,63.8c0,7.3,0,14.6,0,22c0,28,0,56,0,84c0,11.6,0,23.3,0,34.9c-0.1,7.5-0.1,15-0.2,22.5
		c0,1.8,0.2,3.3,2.5,3.4c8.8,0.6,17.3,3.2,25.8,5.2c10.4,3.9,20.5,8.5,30,14.2c7.4,5.3,14.8,10.6,21.3,17.1
		c-0.6,0.4-1.3,0.7-1.9,1.1c-32.8-30.2-71.3-42.5-115.1-33.7c-98.3,19.8-138.1,135.8-73.1,212.1c8.2,9.6,17.4,18.3,28.8,24.2
		c5.9,5,12.9,7.8,19.9,10.8c4.2,1.9,8.4,3.9,13.2,4.2c2.6,1.5,5.4,2.2,8.3,2.8c14.8,3.1,29.7,4.1,44.7,1.9c7.9-1.2,16-2.1,23.3-6
		c5.3-0.9,10.3-2.6,14.6-5.9c7.2-2.1,13.4-5.9,18.9-10.8c1.8-0.1,2.9-1.5,4.2-2.4c42.8-32,63.2-89,45.5-144.3
		c0.6-0.4,1.3-0.8,1.9-1.2c14.1,46.9,6.4,89.7-25.1,127.4c-21.7,26.1-50,41.1-83.8,45.5c-72.3,9.3-136-42.1-146.7-110.3
		c-0.5-3.3-1.9-3.9-4.9-3.9c-15.2,0.1-30.3,0.1-45.5,0.1c-113.3,0-226.6,0-339.9,0c-9.7,0-11.7-2-11.7-11.7c0-117,0-233.9,0-350.9
		c0-9.4,2-11.4,11.4-11.4c173.8,0,347.6,0,521.4,0c9.9,0,11.8,1.9,11.8,12.1C558.4,32.4,558.5,48.1,558.6,63.8z M285.9,37.6
		c-88.1,0-176.3,0-264.4,0c-3.5,0-5.6-0.1-5.6,4.7C16,150.9,16,259.5,16,368.1c0,6.6,1.6,8.1,8.3,8.1c128.6,0,257.2,0,385.8,0.1
		c4,0,4.7-1.1,4.3-4.8c-1.5-13.2-0.2-26.3,2.9-39.2c15.1-62.6,68.5-103.9,133-102.6c4.8,0.1,5.6-1.3,5.6-5.7
		c-0.1-60.3-0.1-120.6,0-180.9c0-4.5-1-5.8-5.6-5.8C462.1,37.6,374,37.6,285.9,37.6z M285.6,35.1c87.6,0,175.3,0,262.9,0
		c1.3,0,2.7-0.1,4,0c2.7,0.3,3.5-0.9,3.4-3.4c-0.2-4.8,0-9.7,0-14.5c0-9.6-0.6-10.2-10.2-10.2C372.6,7,199.5,7,26.4,7
		c-1.2,0-2.3,0-3.5,0c-5,0.2-6.8,2-6.9,7.1c-0.1,4.5,0,9,0,13.5c0,7.5,0,7.5,7.3,7.5C110.7,35.1,198.2,35.1,285.6,35.1z"/>
	<path class="st2" d="M558.5,204.7c0-11.6,0-23.3,0-34.9c5.8-7,11.8-1.9,16.8,0.6c25.1,12.5,40.5,32.3,44.4,60.6
		c0.7,5,0.7,9.9,0.9,14.9c0.1,3.1-1.2,4.3-4,4.3c-9.5-5.7-19.6-10.3-30-14.2c0.1-1.9-1.6-2.4-2.7-3.2c-9.6-6.5-17.5-14.4-22.4-25.1
		C561,206.2,560.4,204.6,558.5,204.7z"/>
	<path class="st3" d="M671.3,319.9c-0.6,0.4-1.3,0.8-1.9,1.2c-1.5,0.6-3.1,1.3-4.6,1.9c-19.3,7.2-38.3-3.5-41.5-23.8
		c-2-12.8,2.6-23.1,12.8-31c0.6-0.4,1.3-0.7,1.9-1.1c6.8-3.1,13.9-4.4,21.3-3c11.6,2.3,19.5,9.1,22.8,20.5c3.6,12,1.2,23-7.6,32.3
		C673.6,317.9,672.4,318.9,671.3,319.9z M653.3,277.7c-2,0.2-2.3,1.7-2.3,3.2c-0.2,3.5,1,7.9-0.7,10.1c-2.1,2.6-6.8,0.6-10.4,1
		c-1.5,0.2-3.2,0.3-3.1,2.4c0.1,2,1.7,2.1,3.3,2.2c3.4,0.2,7.8-1.5,10.1,0.7c2.4,2.2,0.5,6.6,0.9,10c0.2,1.7,0.1,3.6,2.5,3.5
		c2-0.1,2-1.8,2.1-3.4c0.2-3.4-1.5-7.8,0.8-10.1c2.2-2.3,6.6-0.5,10.1-0.8c1.5-0.1,3.3,0,3.4-2.1c0.1-2.4-1.8-2.3-3.5-2.5
		c-3.4-0.4-7.8,1.5-10-0.9c-2.1-2.3-0.5-6.7-0.7-10.1C655.4,279.4,655.2,278,653.3,277.7z"/>
	<path class="st4" d="M285.6,35.1c-87.5,0-174.9,0-262.4,0c-7.3,0-7.3,0-7.3-7.5c0-4.5-0.1-9,0-13.5c0.1-5.1,1.9-6.9,6.9-7.1
		c1.2,0,2.3,0,3.5,0c173.1,0,346.2,0,519.3,0c9.6,0,10.2,0.6,10.2,10.2c0,4.8-0.1,9.7,0,14.5c0.1,2.6-0.7,3.7-3.4,3.4
		c-1.3-0.1-2.7,0-4,0C460.9,35.1,373.3,35.1,285.6,35.1z M33.1,14.6c-3.8,0.4-6,2.5-6.3,6.4c-0.2,3.6,3.1,6.7,6.7,6.6
		c3.6-0.1,6.6-3.4,6.3-7C39.4,16.7,37,14.8,33.1,14.6z M70,14.6c-3.1,0.3-5.3,2.4-5.6,6.2c-0.2,3.7,2.9,6.9,6.5,6.7
		c3.9-0.2,6.1-2.5,6.4-6.3C77.6,17.6,74.5,14.6,70,14.6z M52.9,14.6c-4.3-0.1-7,2.5-7.2,6.1c-0.2,3.7,2.7,6.8,6.3,6.9
		c3.5,0.1,6.9-3.2,6.6-6.7C58.3,17.1,56.1,14.9,52.9,14.6z"/>
	<path class="st5" d="M586.1,484.6c-7.3,3.9-15.3,4.8-23.3,6c-15,2.2-29.9,1.2-44.7-1.9c-2.9-0.6-5.7-1.4-8.3-2.8
		c3.5-9.9,8.8-18.7,16.9-25.3c4.8-3.9,7.3-8.8,9-14.4c2.1-3.1,4.9-4.2,8.6-3.8c3.1,0.3,6.3,0,9.5,0.4c14.2,1.7,28.1,4.1,37.9,16.1
		c0,1.5,0,3,0.1,4.6C589,470.3,587.9,477.5,586.1,484.6z"/>
	<path class="st6" d="M476.7,470.8c6.7-19.1,13.4-38.2,20.1-57.3c8.4,3.2,16.4,7.2,24.3,11.3c-0.7,1.7-1.3,3.4-2.1,5
		c-7.5,17.2-15,34.5-22.5,51.7C489.6,478.6,482.5,475.8,476.7,470.8z"/>
	<path class="st6" d="M591.6,463.4c0-1.5,0-3-0.1-4.6c4.3-10.6,7.5-21.6,8.3-33.1c6.6,14,13.2,28,19.8,42.1
		c-5.5,5-11.7,8.8-18.9,10.8C597.7,473.6,594.7,468.5,591.6,463.4z"/>
	<path class="st4" d="M558.5,204.7c1.9,0,2.4,1.5,3,2.8c4.9,10.6,12.8,18.6,22.4,25.1c1.2,0.8,2.8,1.3,2.7,3.2
		c-8.5-2.1-17-4.6-25.8-5.2c-2.3-0.2-2.6-1.6-2.5-3.4C558.4,219.6,558.5,212.2,558.5,204.7z"/>
	<path class="st0" d="M591.6,463.4c3,5.1,6.1,10.2,9.1,15.3c-4.4,3.3-9.3,5-14.6,5.9"/>
	<path class="st2" d="M653.3,277.7c1.9,0.3,2.1,1.8,2.2,3.3c0.2,3.5-1.4,7.8,0.7,10.1c2.2,2.4,6.6,0.5,10,0.9
		c1.6,0.2,3.6,0.1,3.5,2.5c-0.1,2-1.9,2-3.4,2.1c-3.4,0.3-7.8-1.5-10.1,0.8c-2.2,2.3-0.5,6.6-0.8,10.1c-0.1,1.5-0.1,3.3-2.1,3.4
		c-2.4,0.1-2.3-1.8-2.5-3.5c-0.3-3.4,1.5-7.8-0.9-10c-2.3-2.2-6.7-0.5-10.1-0.7c-1.6-0.1-3.2-0.2-3.3-2.2c-0.1-2.1,1.6-2.2,3.1-2.4
		c3.6-0.4,8.3,1.6,10.4-1c1.7-2.2,0.6-6.7,0.7-10.1C651.1,279.3,651.3,277.9,653.3,277.7z"/>
	<path class="st7" d="M285.7,147.6c50.1,0,100.2,0,150.4,0c1.7,0,3.4-0.1,5,0.1c3.2,0.5,5.1,2.5,5.5,5.6c0.4,3.1-0.9,5.6-3.7,7
		c-2.1,1.1-4.4,1.2-6.8,1.2c-100.2,0-200.5,0-300.7,0c-2.2,0-4.3-0.2-6.3-1c-3.1-1.4-4.5-4-4.1-7.2c0.4-3.4,2.6-5.3,6-5.7
		c1.5-0.2,3-0.1,4.5-0.1C185.5,147.6,235.6,147.6,285.7,147.6z"/>
	<path class="st8" d="M285.8,264.7c-50.1,0-100.3,0-150.4,0c-1.3,0-2.7,0-4,0c-3.7-0.1-6.1-2-6.5-5.6c-0.4-3.7,1.2-6.3,5-7.6
		c2.3-0.8,4.6-0.7,6.9-0.7c99.3,0,198.5,0,297.8,0c2.7,0,5.3,0,7.8,1c3.2,1.4,4.5,4,4.2,7.2c-0.3,3.4-2.5,5.3-5.9,5.7
		c-1.5,0.2-3,0.1-4.5,0.1C386.1,264.7,335.9,264.7,285.8,264.7z"/>
	<path class="st8" d="M286.2,222.7c50.7,0,101.3,0,152,0c7,0,10.5,4.7,7.5,10.1c-0.8,1.3-1.8,2.4-3.3,2.9c-2.2,0.8-4.5,1-6.9,1
		c-99.8,0-199.6,0-299.4,0c-2.2,0-4.3-0.1-6.4-0.8c-3.6-1.2-5.3-3.8-4.8-7.2c0.5-3.5,3-5.8,6.9-6c1.3-0.1,2.7,0,4,0
		C185.9,222.7,236.1,222.7,286.2,222.7z"/>
	<path class="st9" d="M285.7,131.7c-33.8,0-67.6,0-101.4,0c-6.5,0-10-3.3-8.9-8.3c0.7-3.4,2.9-5.1,6.2-5.6c1.3-0.2,2.7-0.1,4-0.1
		c66.7,0,133.5,0,200.2,0c7,0,10.7,2.4,10.8,6.9c0.1,4.5-3.8,7.1-10.6,7.1C352.6,131.7,319.1,131.7,285.7,131.7z"/>
	<path class="st8" d="M385.7,193.7c17.3,0,34.7,0,52,0c6.4,0,8.9,1.9,9,6.8c0.1,4.3-3.4,7.2-8.9,7.2c-34.7,0-69.3,0-104,0
		c-5.4,0-9.2-3.1-9-7.2c0.2-3.9,3.8-6.8,9-6.8C351.1,193.7,368.4,193.7,385.7,193.7z"/>
	<path class="st8" d="M186.8,193.7c17.3,0,34.7,0,52,0c5.3,0,7.8,1.9,8,6.1c0.3,5.3-1.8,7.9-7.2,7.9c-35.2,0.1-70.3,0.1-105.5,0
		c-5.1,0-8.5-3.1-8.4-7.2c0.1-4.7,2.6-6.7,8.5-6.7C151.8,193.7,169.3,193.7,186.8,193.7z"/>
	<path class="st10" d="M599.9,425.8c-0.8,11.5-4,22.4-8.3,33.1c-9.8-12.1-23.7-14.4-37.9-16.1c-3.1-0.4-6.3-0.1-9.5-0.4
		c-3.7-0.4-6.5,0.7-8.6,3.8c-2.8-5.4-5.8-10.7-8.4-16.2c-1.3-2.8-3-4.6-6.1-5.1c-8-4.1-15.9-8.1-24.3-11.3
		c-4.9-4.1-5.2-5.8-1.6-11.3c2.2-3.3,4.4-6.7,6.6-10c2.5-3.7,4.6-7.3,5.2-12.1c0.9-7.3,7.8-13.3,15.2-13.5
		c15.3-0.3,30.6-0.2,45.9-0.1c4.5,0,8.2,2.4,11.4,5.4c7.1,6.8,12.4,14.7,15.9,23.8c1.1,2.9,2.2,5.9,4,8.5c1.1,1.5,1.9,3.4,1.2,5.2
		C598.8,414.9,600.3,420.4,599.9,425.8z"/>
	<path class="st11" d="M520.6,341.8c-8.8-7.7-10.6-17.8-9.4-28.7c0.3-3.2,1.5-6.3,2.4-9.7c-0.7,0.1-1.2,0.1-1.6,0.2
		c-4.6,1.5-8.9,1.5-12.3-2.6c-2.9-3.6-2.5-8.9,0.8-14c1.4-2.1,3.1-4,5.2-5.3c4.1-2.7,8.4-4.2,13.1-2c4.5,2.1,5,6.2,4.9,11.1
		c9.2-6.5,19-9.2,29.9-7c1.9,0.4,2.1-0.2,2.1-2c0.3-8.2,5.2-12.2,13.3-10.9c3.2,0.5,6.1,1.7,8.7,3.6c4.5,3.3,6.9,8.4,5.7,12.4
		c-1.6,5-5.6,6.6-11,7.1c9.8,13.2,12.7,27,4.4,41.7c-0.3-5.6,0.9-11.3-0.7-16.9c-1.5-5.4-1.4-5.4-5.7-2.3c-1.3,0.9-2.9,1.7-4.5,2.1
		c-11.6,3.1-23.3,2.7-35.4,1c2.2-2.1,5.3-1.6,7.3-4.5c-4.4-0.5-8.4-0.6-12-2.4c-3.3-1.6-4.9-0.7-6.2,2.8
		C516,324.6,517.5,333.2,520.6,341.8z"/>
	<path class="st6" d="M520.6,341.8c-3.1-8.6-4.5-17.2-1.2-26.2c1.3-3.5,2.9-4.4,6.2-2.8c3.6,1.7,7.6,1.8,12,2.4
		c-1.9,2.8-5.1,2.4-7.3,4.5c12.1,1.7,23.8,2,35.4-1c1.6-0.4,3.2-1.1,4.5-2.1c4.3-3.1,4.2-3.1,5.7,2.3c1.6,5.6,0.4,11.3,0.7,16.9
		c0,0,0.1-0.1,0.1-0.1c-0.3,0.5-0.7,1-1,1.5c-10.7,23.3-36.6,26.5-54,6.6c-0.2-0.8-0.1-1.7-1.2-2L520.6,341.8z"/>
	<path class="st11" d="M520.6,341.7c1,0.3,1,1.2,1.2,2C521,343.2,520,342.9,520.6,341.7z"/>
	<path class="st11" d="M575.7,337.1c0.3-0.5,0.7-1,1-1.5C576.4,336.1,576,336.6,575.7,337.1z"/>
	<path class="st12" d="M33.1,14.6c3.9,0.2,6.3,2.1,6.7,6.1c0.3,3.6-2.7,6.9-6.3,7c-3.5,0.1-6.9-3.1-6.7-6.6
		C27.1,17.1,29.3,15,33.1,14.6z"/>
	<path class="st12" d="M70,14.6c4.5,0,7.6,3,7.3,6.6c-0.3,3.8-2.6,6.1-6.4,6.3c-3.6,0.2-6.7-3-6.5-6.7C64.7,17,66.9,14.9,70,14.6z"
		/>
	<path class="st12" d="M52.9,14.6c3.3,0.3,5.4,2.5,5.7,6.3c0.3,3.5-3.1,6.7-6.6,6.7c-3.6-0.1-6.5-3.2-6.3-6.9
		C45.9,17.1,48.6,14.6,52.9,14.6z"/>
</g>
</svg>
