<?xml version="1.0" encoding="utf-8"?>
<!-- Generator: Adobe Illustrator 25.3.0, SVG Export Plug-In . SVG Version: 6.00 Build 0)  -->
<svg version="1.1" id="Camada_1" xmlns="http://www.w3.org/2000/svg" xmlns:xlink="http://www.w3.org/1999/xlink" x="0px" y="0px"
	 viewBox="0 0 401 292.6" style="enable-background:new 0 0 401 292.6;" xml:space="preserve">
<style type="text/css">
	.st0{fill:#2F2E41;}
	.st1{fill:#E5E5E5;}
	.st2{fill:#F49704;}
	.st3{fill:#CECECE;}
	.st4{fill:#F1F1F1;}
	.st5{fill:#CFCFCF;}
	.st6{fill:#F49907;}
	.st7{fill:#F3F3F3;}
	.st8{fill:#F49805;}
	.st9{fill:#F39807;}
	.st10{fill:#F2F2F2;}
	.st11{fill:#CBCBCB;}
	.st12{fill:#CCCBD1;}
	.st13{fill:#FDFCFC;}
	.st14{fill:#FDF7ED;}
</style>
<g>
	<path class="st0" d="M147.2,187.8c-0.5,7.6-6.6,6.6-10.3,7.9c-5.4,1.9-7,4.7-6.8,11c0.5,15.4-0.5,31,1.9,46.3
		c-2.8,4.4-7.4,4.7-11.4,6.4c-7,1.5-10.4-2.4-11.3-10.3c0.9,4.7,0.7,8.6-3.8,10.6c-4.3,1.1-8.4,1.4-12.2-1.7
		c-3.1-0.3-5.1-0.5-5.8-5.6c-1.7-12.6-1.2-25.1-1.9-37.7c-3.6-1.9-8-2.6-8.9-8.3c-3-3.8,0.1-5.6,2-7.2c8.3-7.2,16.7-14.4,25.4-21
		c3-2.3,7.6-2.7,10,1c5.5,8.5,11.3,6.3,17.8,2.1c3-1.9,5.8-5.3,9.9-3.8C145.2,179.9,148.1,182.5,147.2,187.8z"/>
	<path class="st1" d="M248,3.2c15.7,0,31.3-0.1,47,0c17.5,0.1,26.9,10.6,26.9,30.6c0,16.6,0,33.1,1.9,49.5c1,9.3-1.8,18.1-1.9,27.3
		c0,2.6,0.7,6.6-2.9,6.4c-3.4-0.2-2.6-4.2-2.6-6.8c-0.1-24-0.6-48,0.1-72c0.7-24.6-11-30.1-28.3-28.7c-2.5,0.2-3.6,0.8-4.3,3.9
		c-1.6,7-6.5,8.9-12.1,8.9c-15.7,0.1-31.3,0.3-47-0.1c-5.9-0.1-11.9-0.4-14.3-9.7c-1.5-5.8-7.6-2.7-11.5-2.7
		c-12.6,0.1-19.1,8.1-19.1,22.5c0,25.4,0,50.8-0.1,76.3c0,3.4,1.7,9-3.8,8.8c-5.3-0.2-3.4-5.7-3.5-9.1c-0.2-25.1-0.1-50.1-0.1-75.2
		c0-18.5,9.4-29.5,25.7-29.7C214.8,3,231.4,3.2,248,3.2z"/>
	<path class="st1" d="M189,287.2c-13.2-7.5-17.5-19.6-16.7-36.3c1-20.8,0.2-41.7,0.3-62.5c0-3.4-1.7-9,3.8-8.8
		c5.3,0.2,3.4,5.7,3.5,9.1c0.2,23.3,0,46.6,0.1,70c0,14.8,6.4,22.2,19.2,22.2c31.9,0.1,63.9,0,95.8,0c15.6,0,21.4-6.8,21.4-25.2
		c0.1-21.9,0-43.8,0-65.7c0-2.5,0.1-4.9,0.2-7.4c0.1-1.6,0.8-2.7,2.2-2.9c1.9-0.2,2.8,1.2,2.9,3.1c0.2,2.5,0.2,4.9,0.2,7.4
		c0,20.1-0.7,40.3,0.2,60.4c0.7,16.5-3.6,28.9-16.7,36.5c-1.6,1.5-3.5,1.1-5.3,1.1c-35.3,0-70.5,0-105.8,0
		C192.5,288.4,190.6,288.8,189,287.2z"/>
	<path class="st2" d="M108,132.5c11.3,0,21.1,8.2,22.1,18.5c1,9.3-7.2,20.2-16.3,21.8c-13.5,2.4-25.1-4.2-27.7-15.6
		C83.1,144.1,93.5,132.5,108,132.5z"/>
	<path class="st3" d="M189,287.2c38.8,0,77.6,0,116.4,0c31.9,0,63.8,0,95.6,0c0,0.7,0,1.4,0,2.1c-102,0-204,0-305.9,0
		c-0.6-1.2-0.5-2.2,0.5-3c3.3-2.1,7-1.8,10.6-1.8c3.6-0.2,7.2,0.1,10.8,0.1c2.1,0.2,4.2,0.7,5.6,2.7
		C144.8,287.2,166.9,287.2,189,287.2z"/>
	<path class="st4" d="M204.9,266.1c-6.4,0-14-6.9-13.3-12.9c1-8.4,6.8-11.4,13.1-12.2c6.1-0.8,13.4,6.7,13.7,12.9
		C218.7,260.9,212.9,266.1,204.9,266.1z"/>
	<path class="st4" d="M208.5,83.8c3.9,0.4,8.3,4.9,9.7,11.8c1.2,5.9-6.8,13.4-13.2,13.6c-6.4,0.1-13.9-7.1-13.5-13.1
		C191.8,89.8,199,83.6,208.5,83.8z"/>
	<path class="st4" d="M205.3,56.1c-6.4,0.3-14.5-6.8-13.6-12.8c1.1-7.8,6.1-12,12.9-12.5c6.2-0.5,13.5,6.6,13.8,12.9
		C218.6,48.9,211.2,55.9,205.3,56.1z"/>
	<path class="st4" d="M205.2,213.1c-8.2,0.1-14.6-4.9-13.8-11.8c0.9-8.4,6.1-11.6,13.1-11.6c8.2,0,14.6,4.9,13.8,11.8
		C217.4,210,212.1,213.1,205.2,213.1z"/>
	<path class="st4" d="M266.3,264c-10.7,0-21.4,0.1-32.1,0c-1.9,0-5,1.1-5.2-2.4c-0.2-3.7,3-3.9,5.4-3.9c21.4-0.1,42.8,0,64.2,0
		c1.8,0,4.1,0,4.3,2.8c0.3,3.7-2.4,3.5-4.5,3.5C287.7,264,277,264,266.3,264z"/>
	<path class="st4" d="M265.8,54c-10.4,0-20.8,0-31.2,0c-2.1,0-5.1,0.2-5.3-2.8c-0.2-4,3.1-3.5,5.4-3.5c21.1-0.1,42.2-0.1,63.3,0
		c2.1,0,4.9-0.2,4.8,3.2c-0.1,3.4-2.8,3.1-4.9,3.1C287.2,54.1,276.5,54,265.8,54z"/>
	<path class="st4" d="M266.4,107.1c-10.7,0-21.4,0-32.1,0c-2.2,0-5-0.2-5-3.2c0-3,2.8-3.1,5-3.2c21.4,0,42.8,0,64.2,0
		c1.8,0,4.1-0.1,4.3,2.6c0.4,3.7-2.2,3.6-4.3,3.6C287.8,107.1,277.1,107,266.4,107.1z"/>
	<path class="st5" d="M265.7,158.1c-10.1,0-20.2,0.1-30.3-0.1c-2.3-0.1-6.6,1.9-6.4-2.9c0.2-3.7,4.1-3.3,6.9-3.3
		c18.1,0,36.2,0,54.2,0c3.1,0,6.1-0.1,9.2,0.3c1.8,0.2,3.7,1.3,3.3,4c-0.4,2.3-2.3,2-3.7,2C287.7,158.1,276.7,158,265.7,158.1
		C265.7,158,265.7,158,265.7,158.1z"/>
	<path class="st6" d="M204.7,160.1c-7.5,1-12-3.8-13.4-11.8c-1.1-6.3,6.2-12.5,13.4-12.6c7.2-0.1,14.2,5.8,13.5,12.4
		C217.5,156.7,212.5,160.6,204.7,160.1z"/>
	<path class="st7" d="M228.9,209c1.8-4.2,5.2-4.3,8.5-4.3c19.3,0,38.6-0.1,57.8,0c2.8,0,7.3-0.9,7,3.9c-0.2,4-4.5,2.3-7,2.3
		c-19.9,0.2-39.8,0.1-59.7,0C233.4,210.9,230.7,212.1,228.9,209z"/>
	<path class="st8" d="M122.7,287.2c-1.8,0-3.6,0-5.4,0c-7-2-7.1-6.7-4.1-13c2.7-5.7,6.4-10.8,7.4-17.5c3.8-1.3,7.5-2.5,11.3-3.8
		c4.4,3.5,4.7,7.4,1.8,12.5C129.7,272.6,126.3,280,122.7,287.2z"/>
	<path class="st8" d="M76.7,206.4c2.8,3,7,4.1,8.9,8.3c-7,4.6-12.1,11.7-17.6,18.1c-4,4.7-7.5,5.5-11.5,0.6
		c-4.5-5.6,1.2-7.2,3.3-9.5C65.1,217.8,71,212.2,76.7,206.4z"/>
	<path class="st6" d="M105.8,287.2c-3.6,0.2-7.1,0.4-10.7,0.6c-0.8,0.6-1.4,0.4-1.8-0.5c0-9.7-0.1-19.5-0.1-29.2c4.3,0,8.5,0,12.8,0
		C110.6,267.8,110.7,277.5,105.8,287.2z"/>
	<path class="st9" d="M147.2,187.8c-1.8-3.4-3.6-6.9-5.4-10.3c3.9-1.8,7.8-3.8,11.8-5.2c2.5-0.9,5-6.2,7.8-0.7
		c2.4,4.9,3.7,9.7-3.1,11.7C154.5,184.5,150.9,186.3,147.2,187.8z"/>
	<path class="st3" d="M93.3,287.2c0.6,0.1,1.2,0.3,1.8,0.5c0,0.5,0,1,0,1.6c-30.7,0-61.3,0-92,0c0-0.7,0-1.4,0-2.1
		C33.2,287.2,63.3,287.2,93.3,287.2z"/>
	<path class="st4" d="M242,35.1c3.6,0,7.3-0.1,10.9,0.1c1.5,0.1,3.2,1.1,3.1,3.1c-0.1,1.9-1.7,2.9-3.3,2.9c-6.7,0.1-13.3,0.1-20,0
		c-1.9,0-3.9-1.1-3.9-3.5c0-2.9,2.3-2.6,4.1-2.7c3-0.1,6.1,0,9.1,0C242,35,242,35.1,242,35.1z"/>
	<path class="st4" d="M242.1,198.6c-4.4-2-12.6,2.5-12.6-3c0-6.7,7.9-3.5,12.2-3.4c4.7,0.1,13.5-3.1,13.5,2.7
		C255.2,201.8,246.6,196.4,242.1,198.6z"/>
	<path class="st10" d="M255.8,90.7c-7.8,5.4-15.8,3.2-23.5,3.4c-1.6,0-3-1.1-3.4-3c-0.4-1.6,0.5-2.9,1.8-2.8
		C239.2,88.3,247.9,86.6,255.8,90.7z"/>
	<path class="st11" d="M242.4,145.5c-4.4-1.8-12.6,2.7-12.7-3.4c0-6.2,8.2-3.1,12.6-3c4.6,0.2,12.7-3.9,13,3.3
		C255.5,147.7,246.9,143.9,242.4,145.5z"/>
	<path class="st4" d="M242.7,251.7c-4.2-2.5-12.4,3.7-12.7-4.1c-0.2-4.9,8.3-2.5,12.8-2.4c4.4,0.1,12.6-3.1,12.6,2.9
		C255.4,254.3,247.2,249.7,242.7,251.7z"/>
	<path class="st12" d="M333.3,170.4c0-14.7,0-29.3,0-44c0.3,0,0.6,0,0.9,0c0,14.7,0,29.4,0,44C333.9,170.4,333.6,170.4,333.3,170.4z
		"/>
	<path class="st13" d="M105.8,287.2c0.1-9.7,0.1-19.5,0.2-29.2c4.2-2.9,0.6-7.9,2.9-11.3c3.3,3.8,2.7,14.6,11.7,10.1
		c3.9,8.6-3.1,13.1-5.8,18.9c-2.7,5.7-2.3,8.8,2.5,11.5C113.5,287.2,109.6,287.2,105.8,287.2z"/>
	<path class="st14" d="M198.8,148.4c5.8,3.9,7.1-5.1,11.6-4.2C207.2,147.6,206.8,158.4,198.8,148.4z"/>
</g>
</svg>
