<?xml version="1.0" encoding="utf-8"?>
<!-- Generator: Adobe Illustrator 25.3.0, SVG Export Plug-In . SVG Version: 6.00 Build 0)  -->
<svg version="1.1" id="Camada_1" xmlns="http://www.w3.org/2000/svg" xmlns:xlink="http://www.w3.org/1999/xlink" x="0px" y="0px"
	 viewBox="0 0 483.6 427.8" style="enable-background:new 0 0 483.6 427.8;" xml:space="preserve">
<style type="text/css">
	.st0{fill:#2F2E41;}
	.st1{fill:#CBCBCB;}
	.st2{fill:#F8A726;}
	.st3{fill:#323043;}
	.st4{fill:#CCCCCC;}
	.st5{fill:#3F3D56;}
	.st6{fill:#FBFBFB;}
	.st7{fill:#FEFAF4;}
	.st8{fill:#614C3A;}
	.st9{fill:#493E3D;}
	.st10{fill:#644E3A;}
	.st11{fill:#493D3D;}
	.st12{fill:#433A3E;}
	.st13{fill:#59483B;}
	.st14{fill:#7E5E36;}
	.st15{fill:#FDFDFD;}
</style>
<g>
	<path class="st0" d="M215.9,260.8c2.7-3.5,5.7-3.8,9.5-1.4c6.3,3.9,13,7.4,19.3,11.2c2.1,1.3,3.6,1.6,5.5-0.3
		c3.1-3.1,6.8-5.2,11-7.4c-2.9-1.2-6.6-1.7-5.4-5.8c1-3.5,4.2-3.3,7-3.3c8.5,0,16.9,0,25.4,0c2.9,0,5.9,0.1,7.2,3.2
		c1.4,3.6-2.3,4.1-4.2,5.7c2.9,1.6,5.9,2.8,8.3,4.8c4,3.4,7.4,3.4,11.7,0.4c4.6-3.2,9.8-5.5,14.6-8.6c3.8-2.4,6.8-2.3,9.3,1.6
		c4.6,4.5,8.5,9.5,9.4,16.2c-0.3,2.5-1.9,3.6-4.1,4.4c-6,2.2-12,4.6-18.5,7.2c5.3,8.3,10.3,16.6,13.3,25.9c1.3,4.1,2.3,8.3,2.6,12.6
		c1.1,14.3-5.7,24.6-20.2,30.7c-1.5,0.6-3,1.3-4.5,2c-2.4,3-6.2,2.6-9.4,3.6c-3.6,1.1-7.4,1.2-11.1,1.9c-4.5,0.6-9,0.4-13.5,0.3
		c-4.7,0.1-9.4,0-14.1,0c-2.3,0-4.5-0.4-6.3-2.1c-7.5-1.2-15-2.8-21.6-6.8c-8.8-5.2-13.4-13-14-23.2c-0.8-13.8,3-26.6,9.2-38.7
		c2.1-4.1,1-5.1-2.6-6.4c-6.4-2.2-12.7-4.9-19-7.2c-2.3-0.8-3.6-2.2-3.7-4.7C207.8,270.3,211.6,265.4,215.9,260.8z"/>
	<path class="st1" d="M32.3,177c0-21.1,11.1-32.4,31.3-32.3c20.4,0.1,36.5,8.4,47.3,26.1c7.7,12.5,7.2,29.9-1.5,41.8
		c-1.6,2.2-2.7,3.4,0.9,4.3c1.5,0.4,2.3,1.8,0.8,3c-2.3,1.9-4.8,3.6-7.3,5.1c-1.6,0.9-2.5-0.5-2.7-1.9c-0.5-3.2-2.3-2.8-4.7-2.2
		c-22,5.7-47.4-4.7-58.8-24.3C34.1,190.3,31.6,183.6,32.3,177z"/>
	<path class="st1" d="M423.2,215c-9.5-5.6-15.4-14.1-18.3-24.5c-4.6-16.6,2.5-35.4,16.7-45.7c8.5-6.2,17.9-10.4,28.4-10.7
		c11.7-0.3,20.7,5.5,26.8,15.2c14.6,23.2,4.2,49.3-18.5,61.9c-7.2,4-15,6.2-23.2,6.3c-1.3,0-3.1-0.3-3.2,1.5
		c-0.2,6.6-4.2,3.4-6.8,2.6C418.3,219.8,418.3,219.6,423.2,215z"/>
	<path class="st2" d="M232.3,85.2c-15.3-3.6-26.4-12.7-33-26.9C187,31.9,208.8-2.2,236.9,0.1c16.5,1.4,27.7,11.9,33.9,26.7
		c9.7,22.9-2.4,48.7-26,56.9c-2.4,0.8-3.7,1.5-1.7,3.9c0.9,1.1,0.9,2.5-0.5,2.8c-3.4,0.7-7.1,1.4-10.3,0.3
		C229.2,89.6,233,87.2,232.3,85.2z"/>
	<path class="st2" d="M243.7,193.6c15.5-19.5,47.5-20.1,63.6-1.2c9.8,11.6,10.2,26.9,1,39c-17.2,22.4-55.8,19.2-68.2-5.8
		c-4.9-9.9-4.4-19.9,1.9-29.3c2.1-1,3.8,0.5,5.6,1.1c5.8,1.9,11,1.3,16-2.4c2.1-1.6,4.1-3.6,7.5-2.9c-3.2-1.2-5,0.9-6.8,2.3
		c-5.2,3.9-10.7,5-16.9,2.8C245.6,196.5,243.6,196,243.7,193.6z"/>
	<path class="st2" d="M292.9,364.1c6.7-1.4,13.4-2.9,20-4.3c0.1,20.7,0.1,41.4,0.2,62.1c0,1.7-0.5,3.3-1.4,4.7
		c-5.9,2.1-12,0.7-18,0.6c-2.3-1.7-2.4-4.3-2.4-6.8c-0.1-16.9-0.1-33.8,0-50.8C291.3,367.7,291.5,365.7,292.9,364.1z"/>
	<path class="st2" d="M258.6,363.6c6.7,1.3,13.5,0.4,20.3,1.2c1.7,1.5,1.6,3.6,1.6,5.5c0.1,16.7,0.1,33.5,0,50.2
		c0,2.5-0.1,5-2.4,6.8c-6,0.1-12.1,1.4-18-0.7c-1.5-2-1.3-4.4-1.3-6.7C258.7,401.1,258.6,382.4,258.6,363.6z"/>
	<path class="st2" d="M344.5,277.1c-2.4-5.8-6.5-10.7-9.4-16.2c16.2-6.7,32.5-13.4,48.7-20.1c6.8-2.8,15.5,3.6,14.8,11
		c-0.3,3.1-3.1,3.7-5.3,4.6c-14.7,6.1-29.4,12.1-44.1,18.2C347.6,275.3,346,276.3,344.5,277.1z"/>
	<path class="st2" d="M215.9,260.8c-3.1,5.3-6.1,10.6-9.2,16c-16.2-6.7-32.4-13.4-48.7-20.2c-6.5-2.7-6.8-3.8-3.4-10
		c4.7-8.6,5.3-8.7,14.3-5C184.6,248,200.3,254.4,215.9,260.8z"/>
	<path class="st3" d="M243.7,193.6c6.2,4.7,12.7,4.8,19,0.1c2.7-2.1,5.4-3.9,9-2.8c1.3,0.4,2.7,1.3,2.1,2.8
		c-0.7,1.7-1.8,0.5-2.7-0.2c-1.9-1.4-3.5-0.3-4.9,0.9c-7.7,6.7-15.8,6.4-24.3,1.8c-11.2-9.8-7.1-25.6,9.1-31.2
		c8.1-2.7,16-1.8,23.9,1.1c1.3,0.5,2.6,1.7,4,0.1c6.9-8.4,16-7.9,25.1-5.5c15.3,4,27.1,12.9,32.5,28.1c5.4,15.1-1,32.3-14.9,42.7
		c-2.4,1.8-5,3.4-7.1,5.5c-3.1,3-2.6,5.7,1.2,7.4c13.9,6.2,34.4-1.2,36.9-18.4c0.2-1.2-0.6-3.6,1.8-3.2c2.1,0.3,1.2,2.4,1,3.8
		c-1.5,12.9-14.8,22.9-29.8,22.5c-4-0.1-8-0.5-11.6-2.4c-4.9-2.5-5.8-6.9-2-11c1.6-1.7,3.5-3,5.4-4.3c11.9-8.3,19-19.4,17.7-34.1
		c-1.4-16.3-11.9-26.2-26.2-32.2c-5.7-2.4-11.6-3.8-18-2.7c-4.5,0.8-8.3,2.2-10.3,6.7c-1.2,2.7-3,1.2-4.5,0.5
		c-7.2-3.1-14.5-4.7-22.3-2.6c-6.6,1.7-11.9,5.2-14.6,11.7C237,184,238.9,189.6,243.7,193.6z"/>
	<path class="st4" d="M378.1,86.6c2,6,1,9.6-2.7,10.8c-3.9,1.3-6.9-0.3-8.7-3.8c-2.4-4.7,0.7-7,4.8-9.2
		c-9.1-9.7-20.7-13.2-34.2-14.9c3.6-2.5,6.5-1.7,9.2-1.1c8.6,2,17,4.7,23.5,11.1c5.3,5.3,12.8,5.7,18.9,9.4
		c6.1,3.7,12.5,6.8,19.7,8.2c11.7,2.3,22.8,2,31.8-7.4c0.6-0.7,1.4-1.8,2.4-0.9c1.3,1.1,0.2,2.1-0.6,2.9c-5.6,5.8-12.6,8.5-20.4,9.1
		c-9.4,0.7-18.1-1.7-26.5-5.7C389.8,92.5,384.4,89.7,378.1,86.6z"/>
	<path class="st4" d="M65.2,91.4c-1.2-3.4-1.6-6.6,1.4-8.9c2.3-1.7,5-1.5,7.5-0.1c4,2.3,4.6,7.3,0.7,10.3c-2.9,2.2-2,3.5,0.1,5.2
		c7.8,6,16.4,10,26.3,11c1.4,0.1,3.6-0.2,3.4,1.8c-0.2,2-2.5,1.2-3.8,1c-11.6-1.7-22-6.1-30.5-14.4c-1.5-1.4-3-2.2-5.1-2.6
		c-3.4-0.6-6.5-2.2-9.6-3.9c-9.8-5.5-19.8-10.1-31.4-9.8C16.5,81.1,9.5,83,3.9,88.8c-0.9,1-2,3-3.5,1.2c-1.2-1.4,0.8-2.3,1.6-3.1
		c7-7.2,16-8.9,25.5-8.4c11.7,0.7,22.1,5.4,32,11.4C61,90.8,62.5,92.1,65.2,91.4z"/>
	<path class="st5" d="M260.1,426.6c5.8,0,11.6,0.1,17.4,0.1c5.6-1.9,11.3-1.9,16.9,0c5.8,0,11.6-0.1,17.4-0.1
		c21.8,0.1,43.6,0.2,65.3,0.2c17.8,0,35.6,0,53.4,0c1.8,0,3.6-0.5,5.9,0.9c-100.3,0-200.1,0-300.4,0c2.2-1.5,4.1-0.9,5.9-0.9
		c37.4,0,74.8,0,112.3,0C256.1,426.8,258.1,426.7,260.1,426.6z"/>
	<path class="st6" d="M69.1,153.8c8.3,0.5,14.7,3.3,20.2,8.3c6.3,5.7,10.4,12.4,9.9,21.3c-0.1,1.2,0.4,3-1.6,3
		c-1.6,0-1.4-1.6-1.4-2.7c0.8-14.4-11-24.3-23.2-27C71.8,156.4,70.5,156.2,69.1,153.8z"/>
	<path class="st6" d="M472.7,167c0.5,14-6.6,21.5-15.9,27.5c-0.9,0.6-2.2,1.6-3.1,0.3c-1.3-1.9,0.9-2.1,1.8-2.6
		c12.6-7,17.2-19.2,12.5-33.5c-0.3-0.9-0.9-2.1,0.4-2.5c1.2-0.4,1.6,0.8,2.1,1.6C471.9,159.9,472.7,164,472.7,167z"/>
	<path class="st7" d="M262.2,37.6c-0.1,7-2.6,12.9-7,17.9c-0.7,0.8-1.6,2.1-2.8,0.9c-0.9-0.9,0.2-1.8,0.7-2.6
		c9.2-14.4,8.6-22.6-2.4-35.1c-0.6-0.7-1.9-1.4-1-2.4c1-1.2,2.1-0.3,3,0.5C258.9,22.5,262.2,29.5,262.2,37.6z"/>
	<path class="st8" d="M275.5,223.3c2.2-1.1,4-2.4,3.1-5.3c-0.4-0.6-0.3-1,0.3-1.4c3.8,3.3,1.9,5.4-1.6,7
		C276.7,224.1,276.1,223.9,275.5,223.3z"/>
	<path class="st9" d="M274.9,217.5c-2,0.4-2-0.9-1.8-2.2c0.3-1.9,0.7-3.7,1-5.6c0.9-0.2,1.5,0,1,1.1c0,1.6-0.1,3.2-0.1,4.8
		C275.5,216.2,275.5,216.8,274.9,217.5z"/>
	<path class="st10" d="M275.1,210.7c-0.3-0.4-0.6-0.7-1-1.1c-0.1-1.9-0.1-3.8,1.8-6.3C276.1,206.4,276.3,208.6,275.1,210.7z"/>
	<path class="st11" d="M259.6,205.3c2.2-0.8,4.4-1,7.1-0.1C264.1,206.3,261.8,205.9,259.6,205.3z"/>
	<path class="st12" d="M284.5,205.2c2.2-0.6,4.4-0.9,7.2,0.1C288.8,206.2,286.7,206,284.5,205.2z"/>
	<path class="st13" d="M275.5,223.3c0.6,0.1,1.2,0.2,1.8,0.4c-1.9,1.6-4,1.2-6.2,0.9C272.4,223.1,274,223.5,275.5,223.3z"/>
	<path class="st14" d="M274.9,217.5c0-0.6,0-1.3,0.1-1.9c1.4-0.1,2.8,0.2,4,1.1c-0.1,0.5-0.2,0.9-0.3,1.4
		C277.4,217.8,276.1,217.6,274.9,217.5z"/>
	<path class="st6" d="M372.6,87.1c2.5,0.7,3.6,2.7,3.9,5c0.3,2.1-1.4,2.8-3.3,2.8c-2.5,0-4.1-1.2-4.4-3.7
		C368.6,88.6,370.6,87.9,372.6,87.1z"/>
	<path class="st15" d="M70.3,83.9c2.5,0.1,3.9,1.8,4.3,4c0.4,2.5-1.6,3.7-3.7,3.8c-2.4,0.1-3.4-1.8-3.6-4
		C67.1,85.6,67.9,84.1,70.3,83.9z"/>
</g>
</svg>
